<?xml version="1.0" encoding="utf-8"?>
<!-- Generator: Adobe Illustrator 25.3.1, SVG Export Plug-In . SVG Version: 6.00 Build 0)  -->
<svg version="1.1" id="Layer_1" xmlns="http://www.w3.org/2000/svg" xmlns:xlink="http://www.w3.org/1999/xlink" x="0px" y="0px"
	 viewBox="0 0 56.7 56.7" style="enable-background:new 0 0 56.7 56.7;" xml:space="preserve">
<style type="text/css">
	.st0{fill:none;stroke:#003283;stroke-width:1.5;stroke-linejoin:round;stroke-miterlimit:10;}
	.st1{fill:none;stroke:#003283;stroke-width:1.5;stroke-miterlimit:10;}
	.st2{fill:none;stroke:#003283;stroke-width:1.5;stroke-linecap:round;stroke-miterlimit:10;}
	.st3{fill:none;stroke:#003283;stroke-width:1.5;stroke-linecap:round;stroke-linejoin:round;stroke-miterlimit:10;}
</style>
<rect x="4.6" y="3.7" class="st0" width="47.2" height="49.5"/>
<circle class="st1" cx="10.6" cy="8.4" r="2.3"/>
<circle class="st1" cx="17.7" cy="8.4" r="2.3"/>
<line class="st2" x1="51.7" y1="13.4" x2="5.3" y2="13.4"/>
<rect x="29" y="6.8" class="st3" width="20.3" height="3.3"/>
<g>
	<g>
		<g>
			<path class="st3" d="M48.3,18.8h-39v19.2c1.6-1.6,3.8-2.6,6.2-2.6c1.4,0,2.8,0.4,4,1c1.2-0.6,2.6-1,4-1c1.4,0,2.7,0.3,3.9,0.9
				c1.2-0.6,2.5-0.9,3.9-0.9c1.4,0,2.6,0.3,3.8,0.9c1.1-0.6,2.4-0.9,3.8-0.9c4.8,0,8.7,3.9,8.7,8.7c0,1.8-0.6,3.5-1.5,4.9h2.3V18.8z
				"/>
			<path class="st3" d="M19.4,36.3c-1.2-0.6-2.6-1-4-1c-2.4,0-4.6,1-6.2,2.6v2.4c1.2-1,2.8-1.6,4.5-1.6c0.9,0,1.7,0.2,2.5,0.5"/>
			<path class="st3" d="M16.2,39.2c-0.8-0.3-1.6-0.5-2.5-0.5c-1.7,0-3.3,0.6-4.5,1.6V49h6.1h0.8H20c0.5-1,0.8-2.1,0.8-3.2
				c0-2.4-1.2-4.6-3.1-5.8"/>
			<path class="st3" d="M27.3,36.3c-1.2-0.6-2.5-0.9-3.9-0.9c-1.4,0-2.8,0.4-4,1c1.1,0.6,2.1,1.4,2.9,2.4c0.6,0.1,1.2,0.2,1.7,0.4"
				/>
			<path class="st3" d="M23,48.4c-0.1,0.2-0.2,0.4-0.4,0.6h0.7H24h3.9c0.5-1,0.8-2.1,0.8-3.2c0-2.4-1.2-4.6-3.1-5.8"/>
			<path class="st3" d="M24,39.2c-0.5-0.2-1.1-0.3-1.7-0.4c0.4,0.5,0.7,1.1,1,1.6"/>
			<path class="st3" d="M22.3,38.8c-0.8-1-1.8-1.8-2.9-2.4"/>
			<path class="st3" d="M16.2,39.2c0.5,0.2,1,0.4,1.5,0.8"/>
			<path class="st3" d="M23.3,40.4c-0.3-0.6-0.6-1.1-1-1.6"/>
			<path class="st3" d="M23,48.4"/>
			<path class="st3" d="M17.7,39.9c1.9,1.3,3.1,3.4,3.1,5.8c0,1.2-0.3,2.3-0.8,3.2h2.6"/>
			<path class="st3" d="M23,48.4c0.1-0.2,0.2-0.4,0.3-0.6"/>
			<path class="st3" d="M35,36.3c-1.1-0.6-2.4-0.9-3.8-0.9c-1.4,0-2.7,0.3-3.9,0.9c1.2,0.6,2.2,1.4,3,2.5c0.5,0.1,0.9,0.1,1.4,0.3"
				/>
			<path class="st3" d="M30.9,48.5c-0.1,0.2-0.2,0.3-0.3,0.5h0.6h0.4h4.2c0.5-1,0.8-2.1,0.8-3.2c0-2.4-1.2-4.6-3.1-5.8"/>
			<path class="st3" d="M31.7,39.1c-0.4-0.1-0.9-0.2-1.4-0.3c0.3,0.4,0.6,0.8,0.8,1.2"/>
			<path class="st3" d="M24,39.2c0.6,0.2,1.1,0.5,1.6,0.8"/>
			<path class="st3" d="M30.3,38.8c-0.8-1-1.8-1.9-3-2.5"/>
			<path class="st3" d="M25.6,39.9c-0.5-0.3-1-0.6-1.6-0.8"/>
			<path class="st3" d="M23.3,40.4c0.2,0.4,0.4,0.8,0.5,1.3"/>
			<path class="st3" d="M31.1,40c-0.2-0.4-0.5-0.8-0.8-1.2"/>
			<path class="st3" d="M25.6,39.9c1.9,1.3,3.1,3.4,3.1,5.8c0,1.2-0.3,2.3-0.8,3.2h2.7c0.1-0.2,0.2-0.3,0.3-0.5"/>
			<path class="st3" d="M23.8,41.7c0.2,0.8,0.3,1.6,0.3,2.4c0,1.3-0.3,2.6-0.8,3.7"/>
			<path class="st3" d="M30.9,48.5c0.1-0.1,0.1-0.2,0.2-0.3"/>
			<path class="st3" d="M23.3,47.8c0.5-1.1,0.8-2.4,0.8-3.7c0-0.8-0.1-1.6-0.3-2.4"/>
			<path class="st3" d="M38.8,35.4c-1.4,0-2.6,0.3-3.8,0.9c1.2,0.6,2.3,1.5,3.1,2.5c3.6,0.3,6.3,3.3,6.3,7c0,1.2-0.3,2.3-0.8,3.2H46
				c1-1.4,1.5-3.1,1.5-4.9C47.5,39.3,43.6,35.4,38.8,35.4z"/>
			<path class="st3" d="M38.4,49h5.3c0.5-1,0.8-2.1,0.8-3.2c0-3.7-2.8-6.6-6.3-7c1.1,1.5,1.8,3.3,1.8,5.3
				C39.9,45.9,39.4,47.6,38.4,49z"/>
			<path class="st3" d="M31.1,40c0.3,0.5,0.5,1,0.7,1.6"/>
			<path class="st3" d="M33.5,39.9c-0.5-0.4-1.2-0.7-1.8-0.9"/>
			<path class="st3" d="M33.5,39.9c1.9,1.3,3.1,3.4,3.1,5.8c0,1.2-0.3,2.3-0.8,3.2h2.6c1-1.4,1.5-3.1,1.5-4.9c0-2-0.7-3.8-1.8-5.3"
				/>
			<path class="st3" d="M31.8,41.6c0.2,0.8,0.4,1.6,0.4,2.5c0,1.5-0.4,2.9-1,4.1"/>
			<path class="st3" d="M31.8,41.6c-0.2-0.6-0.4-1.1-0.7-1.6"/>
			<path class="st3" d="M31.1,48.2c0.7-1.2,1-2.6,1-4.1c0-0.9-0.1-1.7-0.4-2.5"/>
		</g>
		<path class="st3" d="M26.2,36.8"/>
	</g>
	<g>
		<path class="st3" d="M18.5,30.9v-3.5c0-1.1-0.9-2-2-2h-0.8h-0.7c-1.1,0-2,0.9-2,2v3.5"/>
		<line class="st0" x1="15.8" y1="21.2" x2="15.8" y2="25.4"/>
		<line class="st3" x1="14.3" y1="21.2" x2="17.3" y2="21.2"/>
	</g>
	<g>
		<path class="st3" d="M27.2,30.9v-3.5c0-1.1-0.9-2-2-2h-0.8h-0.7c-1.1,0-2,0.9-2,2v3.5"/>
		<line class="st0" x1="24.4" y1="21.2" x2="24.4" y2="25.4"/>
		<line class="st3" x1="22.9" y1="21.2" x2="25.9" y2="21.2"/>
	</g>
	<g>
		<path class="st3" d="M35.8,30.9v-3.5c0-1.1-0.9-2-2-2H33h-0.7c-1.1,0-2,0.9-2,2v3.5"/>
		<line class="st0" x1="33" y1="21.2" x2="33" y2="25.4"/>
		<line class="st3" x1="31.5" y1="21.2" x2="34.5" y2="21.2"/>
	</g>
	<g>
		<path class="st3" d="M44.4,30.9v-3.5c0-1.1-0.9-2-2-2h-0.8h-0.7c-1.1,0-2,0.9-2,2v3.5"/>
		<line class="st0" x1="41.6" y1="21.2" x2="41.6" y2="25.4"/>
		<line class="st3" x1="40.1" y1="21.2" x2="43.1" y2="21.2"/>
	</g>
	<line class="st3" x1="9.3" y1="31.7" x2="47.9" y2="31.7"/>
</g>
</svg>
