<?xml version="1.0" encoding="utf-8"?>
<!-- Generator: Adobe Illustrator 25.3.1, SVG Export Plug-In . SVG Version: 6.00 Build 0)  -->
<svg version="1.1" id="Layer_1" xmlns="http://www.w3.org/2000/svg" xmlns:xlink="http://www.w3.org/1999/xlink" x="0px" y="0px"
	 viewBox="0 0 56.7 56.7" style="enable-background:new 0 0 56.7 56.7;" xml:space="preserve">
<style type="text/css">
	.st0{fill:none;stroke:#003283;stroke-width:1.5;stroke-linejoin:round;stroke-miterlimit:10;}
	.st1{fill:none;stroke:#003283;stroke-width:1.5;stroke-linecap:round;stroke-linejoin:round;stroke-miterlimit:10;}
	.st2{fill:none;stroke:#003283;stroke-width:1.5;stroke-linecap:round;stroke-miterlimit:10;}
</style>
<path class="st0" d="M45.8,52.1H11.5c-1,0-1.9-0.8-1.9-1.9V18.5h38.1v31.7C47.7,51.2,46.8,52.1,45.8,52.1z"/>
<path class="st1" d="M47.7,15.4v-10c0-0.7-0.6-1.3-1.3-1.3H11c-0.7,0-1.3,0.6-1.3,1.3v10H47.7z"/>
<circle class="st1" cx="28.9" cy="34.2" r="7.9"/>
<circle class="st1" cx="28.9" cy="34.2" r="7.9"/>
<circle class="st1" cx="28.9" cy="34.2" r="12"/>
<circle class="st2" cx="42.2" cy="9.7" r="2.5"/>
<line class="st2" x1="31.3" y1="8.2" x2="31.3" y2="11.2"/>
<line class="st2" x1="28.2" y1="8.2" x2="28.2" y2="11.2"/>
<line class="st2" x1="15.8" y1="49.1" x2="12.8" y2="49.1"/>
<line class="st2" x1="23.2" y1="49.1" x2="20.2" y2="49.1"/>
<line class="st2" x1="30.6" y1="49.1" x2="27.6" y2="49.1"/>
<line class="st2" x1="38" y1="49.1" x2="35" y2="49.1"/>
<line class="st2" x1="44.4" y1="49.1" x2="41.4" y2="49.1"/>
</svg>
