<?xml version="1.0" encoding="utf-8"?>
<!-- Generator: Adobe Illustrator 25.3.1, SVG Export Plug-In . SVG Version: 6.00 Build 0)  -->
<svg version="1.1" id="Layer_1" xmlns="http://www.w3.org/2000/svg" xmlns:xlink="http://www.w3.org/1999/xlink" x="0px" y="0px"
	 viewBox="0 0 56.7 56.7" style="enable-background:new 0 0 56.7 56.7;" xml:space="preserve">
<style type="text/css">
	.st0{fill:none;stroke:#003283;stroke-width:1.5;stroke-linecap:round;stroke-linejoin:round;stroke-miterlimit:10;}
	.st1{fill:#003283;}
</style>
<path class="st0" d="M43.5,48.9H12.4c-3.3,0-6-2.7-6-6V27.1c0-1.7,0.7-3.3,1.9-4.4L23.9,8.3c2.3-2.1,5.9-2.1,8.2,0l15.6,14.4
	c1.2,1.1,1.9,2.7,1.9,4.4v15.8C49.5,46.2,46.8,48.9,43.5,48.9z"/>
<path class="st1" d="M43.5,36.6H39l3.2-3.2c0.3-0.3,0.3-0.9,0-1.2c-0.3-0.3-0.9-0.3-1.2,0l-3.2,3.2v-4.5c0-0.5-0.4-0.9-0.9-0.9
	S36,30.3,36,30.8v4.5l-3.2-3.2c-0.3-0.3-0.9-0.3-1.2,0c-0.3,0.3-0.3,0.9,0,1.2l3.2,3.2h-4.5c-0.5,0-0.9,0.4-0.9,0.9s0.4,0.9,0.9,0.9
	h4.5l-3.2,3.2c-0.3,0.3-0.3,0.9,0,1.2c0.3,0.3,0.9,0.3,1.2,0l3.2-3.2v4.5c0,0.5,0.4,0.9,0.9,0.9s0.9-0.4,0.9-0.9v-4.5l3.2,3.2
	c0.3,0.3,0.9,0.3,1.2,0c0.3-0.3,0.3-0.9,0-1.2L39,38.3h4.5c0.5,0,0.9-0.4,0.9-0.9S44,36.6,43.5,36.6z"/>
<path class="st1" d="M28.5,22.1c0-0.3,0-0.5,0.1-0.8h0c-0.3,0.3-0.6,0.8-0.9,1.9c-0.2,1-1,1.7-2,1.7c-1,0.1-1.9-0.6-2.2-1.5
	c-0.5-1.5-1.1-3.3-1.3-5.6c-0.1,0.2-0.2,0.5-0.3,0.8c-0.7,1.8-1.2,4.3-1.2,7.3v0.3c0,0.6-0.2,1.1-0.6,1.5c-0.4,0.4-1,0.6-1.5,0.6
	s-1.2-0.2-1.6-0.6c-0.4-0.4-0.6-1-0.6-1.5c0-1.3-0.4-2-0.8-2.5c-0.2-0.2-0.4-0.4-0.7-0.6v0.1c0,2.2-0.4,4.2-0.4,6.2
	c0,1.7,0.9,3.6,2.4,5.1c1.5,1.5,3.4,2.4,5.1,2.3c1.7,0,3.7-0.9,5.1-2.3c1.5-1.5,2.4-3.4,2.4-5.1v-0.1v-0.4c0-1-0.2-1.9-0.4-3
	C28.8,24.8,28.5,23.6,28.5,22.1"/>
</svg>
