<?xml version="1.0" encoding="utf-8"?>
<!-- Generator: Adobe Illustrator 25.3.1, SVG Export Plug-In . SVG Version: 6.00 Build 0)  -->
<svg version="1.1" id="Layer_1" xmlns="http://www.w3.org/2000/svg" xmlns:xlink="http://www.w3.org/1999/xlink" x="0px" y="0px"
	 viewBox="0 0 56.7 56.7" style="enable-background:new 0 0 56.7 56.7;" xml:space="preserve">
<style type="text/css">
	.st0{fill:none;stroke:#003283;stroke-width:1.5;stroke-linejoin:round;stroke-miterlimit:10;}
	.st1{fill:none;stroke:#003283;stroke-width:1.5;stroke-miterlimit:10;}
	.st2{fill:#003283;}
</style>
<rect x="4.3" y="6.8" class="st0" width="47.2" height="43.2"/>
<circle class="st1" cx="45.2" cy="16" r="2"/>
<circle class="st1" cx="45.2" cy="23" r="2"/>
<circle class="st1" cx="45.2" cy="33" r="2"/>
<circle class="st1" cx="45.2" cy="40" r="2"/>
<ellipse transform="matrix(0.9239 -0.3827 0.3827 0.9239 -11.6973 15.5874)" class="st1" cx="33.3" cy="37.2" rx="4.9" ry="4.9"/>
<path class="st2" d="M31.4,37.8c-0.7-0.9,0.6-4.1,2.5-2.4C33.8,36.2,31.8,35.1,31.4,37.8z"/>
<ellipse transform="matrix(0.9239 -0.3827 0.3827 0.9239 -13.0176 8.9497)" class="st1" cx="16" cy="37.2" rx="4.9" ry="4.9"/>
<path class="st2" d="M14.1,37.8c-0.7-0.9,0.6-4.1,2.5-2.4C16.5,36.2,14.5,35.1,14.1,37.8z"/>
<ellipse transform="matrix(0.9239 -0.3827 0.3827 0.9239 -4.966 14.2485)" class="st1" cx="33.3" cy="19.6" rx="4.9" ry="4.9"/>
<path class="st2" d="M31.4,20.3c-0.7-0.9,0.6-4.1,2.5-2.4C33.8,18.7,31.8,17.5,31.4,20.3z"/>
<ellipse transform="matrix(0.9239 -0.3827 0.3827 0.9239 -6.2863 7.6107)" class="st1" cx="16" cy="19.6" rx="4.9" ry="4.9"/>
<path class="st2" d="M14.1,20.3c-0.7-0.9,0.6-4.1,2.5-2.4C16.5,18.7,14.5,17.5,14.1,20.3z"/>
</svg>
