<?xml version="1.0" encoding="utf-8"?>
<!-- Generator: Adobe Illustrator 25.2.3, SVG Export Plug-In . SVG Version: 6.00 Build 0)  -->
<svg version="1.1" id="Layer_1" xmlns="http://www.w3.org/2000/svg" xmlns:xlink="http://www.w3.org/1999/xlink" x="0px" y="0px"
	 viewBox="0 0 56.7 56.7" style="enable-background:new 0 0 56.7 56.7;" xml:space="preserve">
<style type="text/css">
	.st0{fill:none;stroke:#0048BB;stroke-width:2;stroke-miterlimit:10;}
	.st1{fill:none;stroke:#FFCC00;stroke-width:2;stroke-miterlimit:10;}
</style>
<g>
	<path class="st0" d="M21.3,27.2c-0.6-0.6-1.7-0.2-1.7,0.7v0.3c0,4.5,3.6,8.2,8.1,8.3c0.2,0,0.3,0,0.4-0.1l0.9-0.4
		c0.4-0.2,0.8-0.1,1.1,0.2L42.9,49c0.2,0.2,0.4,0.3,0.7,0.3c5.1,0.1,6.4-4.7,4-7.2L35.9,30.5c-0.3-0.3-0.4-0.7-0.2-1.1l0.4-0.9
		c0.1-0.1,0.1-0.3,0.1-0.4c-0.1-4.5-3.8-8.1-8.3-8.1h-0.3c-0.9,0-1.3,1.1-0.7,1.7l2.8,2.8c0.4,0.4,0.4,1,0,1.4l-4.3,4.3
		c-0.4,0.4-1,0.4-1.4,0L21.3,27.2z"/>
</g>
<path class="st1" d="M46.2,32.8l2.5-1.2c0.3-0.2,0.6-0.5,0.6-0.9V25c0-0.4-0.2-0.7-0.5-0.9L44.5,22c-0.4-0.2-0.6-0.7-0.5-1.1
	l1.5-5.1c0.1-0.3,0-0.7-0.2-1l-3.9-4c-0.3-0.3-0.7-0.4-1.1-0.2l-4.5,1.8c-0.4,0.2-1,0-1.2-0.4L31.6,7c-0.2-0.3-0.5-0.5-0.8-0.5h-5.7
	c-0.4,0-0.7,0.2-0.9,0.5L22,11.6c-0.2,0.4-0.7,0.6-1.2,0.5L16,10.7c-0.3-0.1-0.7,0-1,0.2L10.8,15c-0.3,0.3-0.4,0.7-0.2,1.1l1.7,4.3
	c0.2,0.5,0,1-0.4,1.2l-4.7,2.7c-0.3,0.2-0.5,0.5-0.5,0.8v5.7c0,0.4,0.2,0.7,0.5,0.9l4.5,2.4c0.4,0.2,0.6,0.7,0.5,1.2l-1.7,4.8
	c-0.1,0.3,0,0.7,0.2,1l4.1,4.3c0.3,0.3,0.7,0.4,1.1,0.2l4.3-1.8c0.5-0.2,1,0,1.2,0.4l2.9,4.8c0.2,0.3,0.5,0.5,0.8,0.5h5.5
	c0.4,0,0.7-0.2,0.9-0.5l1.5-2.9c0.2-0.4,0.1-0.8-0.2-1.1l-3.5-3.7c-0.2-0.2-0.4-0.3-0.7-0.3c-2.3,0-13.2-0.8-13.2-12.9
	C15.5,14.5,28,15.1,28,15.1S40.5,15,40.8,27.2c0,0.2,0.1,0.5,0.2,0.6l4.1,4.7C45.4,32.9,45.8,33,46.2,32.8z"/>
</svg>
