<?xml version="1.0" encoding="utf-8"?>
<!-- Generator: Adobe Illustrator 25.2.3, SVG Export Plug-In . SVG Version: 6.00 Build 0)  -->
<svg version="1.1" id="Layer_1" xmlns="http://www.w3.org/2000/svg" xmlns:xlink="http://www.w3.org/1999/xlink" x="0px" y="0px"
	 viewBox="0 0 56 56" style="enable-background:new 0 0 56 56;" xml:space="preserve">
<style type="text/css">
	.st0{fill:none;stroke:#FFCC00;stroke-width:1.25;stroke-miterlimit:10;}
	.st1{fill:none;stroke:#0048BB;stroke-width:2;stroke-miterlimit:10;}
</style>
<path class="st0" d="M5.7,34.8L4,33.1c-0.3-0.3-0.1-0.8,0.3-0.9l2.4-0.3c0.2,0,0.3-0.1,0.4-0.3l1.1-2.1c0.2-0.4,0.7-0.4,0.9,0
	l1.1,2.1c0.1,0.1,0.2,0.2,0.4,0.3l2.4,0.3c0.4,0.1,0.6,0.6,0.3,0.9l-1.7,1.7c-0.1,0.1-0.2,0.3-0.1,0.4l0.4,2.3
	c0.1,0.4-0.4,0.7-0.7,0.5L8.7,37c-0.1-0.1-0.3-0.1-0.5,0l-2.1,1.1c-0.4,0.2-0.8-0.1-0.7-0.5l0.4-2.3C5.9,35,5.8,34.9,5.7,34.8z"/>
<path class="st0" d="M44.7,34.8L43,33.1c-0.3-0.3-0.1-0.8,0.3-0.9l2.4-0.3c0.2,0,0.3-0.1,0.4-0.3l1.1-2.1c0.2-0.4,0.7-0.4,0.9,0
	l1.1,2.1c0.1,0.1,0.2,0.2,0.4,0.3l2.4,0.3c0.4,0.1,0.6,0.6,0.3,0.9l-1.7,1.7c-0.1,0.1-0.2,0.3-0.1,0.4l0.4,2.3
	c0.1,0.4-0.4,0.7-0.7,0.5L47.7,37c-0.1-0.1-0.3-0.1-0.5,0l-2.1,1.1c-0.4,0.2-0.8-0.1-0.7-0.5l0.4-2.3C44.9,35,44.8,34.9,44.7,34.8z"
	/>
<path class="st0" d="M34.2,45.8l-1.7-1.7c-0.3-0.3-0.1-0.8,0.3-0.9l2.4-0.3c0.2,0,0.3-0.1,0.4-0.3l1.1-2.1c0.2-0.4,0.7-0.4,0.9,0
	l1.1,2.1c0.1,0.1,0.2,0.2,0.4,0.3l2.4,0.3c0.4,0.1,0.6,0.6,0.3,0.9l-1.7,1.7c-0.1,0.1-0.2,0.3-0.1,0.4l0.4,2.3
	c0.1,0.4-0.4,0.7-0.7,0.5l-2.1-1.1c-0.1-0.1-0.3-0.1-0.5,0l-2.1,1.1c-0.4,0.2-0.8-0.1-0.7-0.5l0.4-2.3C34.4,46.1,34.3,46,34.2,45.8z
	"/>
<path class="st0" d="M16.2,45.8l-1.7-1.7c-0.3-0.3-0.1-0.8,0.3-0.9l2.4-0.3c0.2,0,0.3-0.1,0.4-0.3l1.1-2.1c0.2-0.4,0.7-0.4,0.9,0
	l1.1,2.1c0.1,0.1,0.2,0.2,0.4,0.3l2.4,0.3c0.4,0.1,0.6,0.6,0.3,0.9l-1.7,1.7c-0.1,0.1-0.2,0.3-0.1,0.4l0.4,2.3
	c0.1,0.4-0.4,0.7-0.7,0.5l-2.1-1.1c-0.1-0.1-0.3-0.1-0.5,0l-2.1,1.1c-0.4,0.2-0.8-0.1-0.7-0.5l0.4-2.3C16.4,46.1,16.3,46,16.2,45.8z
	"/>
<path class="st1" d="M28.5,30.4l-8.1,4.3c-0.4,0.2-0.8-0.1-0.7-0.5l1.6-9.1c0-0.2,0-0.3-0.1-0.4l-6.6-6.4c-0.3-0.3-0.1-0.8,0.3-0.9
	l9.1-1.3c0.2,0,0.3-0.1,0.4-0.3l4.1-8.2c0.2-0.4,0.7-0.4,0.9,0l4.1,8.2c0.1,0.1,0.2,0.2,0.4,0.3l9.1,1.3c0.4,0.1,0.6,0.6,0.3,0.9
	l-6.6,6.4c-0.1,0.1-0.2,0.3-0.1,0.4l1.6,9.1c0.1,0.4-0.4,0.7-0.7,0.5L29,30.4C28.8,30.4,28.7,30.4,28.5,30.4z"/>
</svg>
