<?xml version="1.0" encoding="utf-8"?>
<!-- Generator: Adobe Illustrator 25.2.3, SVG Export Plug-In . SVG Version: 6.00 Build 0)  -->
<svg version="1.1" id="Layer_1" xmlns="http://www.w3.org/2000/svg" xmlns:xlink="http://www.w3.org/1999/xlink" x="0px" y="0px"
	 viewBox="0 0 56 56" style="enable-background:new 0 0 56 56;" xml:space="preserve">
<style type="text/css">
	.st0{fill:none;stroke:#0048BB;stroke-width:2.2696;stroke-linecap:round;stroke-linejoin:round;stroke-miterlimit:10;}
	.st1{fill:none;stroke:#0048BB;stroke-width:2.2696;stroke-linejoin:round;stroke-miterlimit:10;}
	.st2{fill:none;stroke:#0048BB;stroke-width:2.1299;stroke-linejoin:round;stroke-miterlimit:10;}
	.st3{fill:#FFFFFF;stroke:#FFCC00;stroke-width:1.9859;stroke-miterlimit:10;}
	.st4{fill:#0048BB;}
</style>
<path class="st0" d="M49.4,49.5v-5.9v0c0-3.3-12.3-5.9-15.6-5.9"/>
<path class="st0" d="M22.1,37.6c-3.3,0-15.6,2.7-15.6,5.9v0v5.9"/>
<path class="st1" d="M34,33.6V36c0,3.3-2.7,11.1-6,11.1h0c-3.3,0-6-7.8-6-11.1v-2.5"/>
<path class="st2" d="M38.5,17.5c0,0,0,1.1,0,7c0,6.1-4.3,11-10.4,11s-10.4-4.9-10.4-11c0-5.8,0-7,0-7"/>
<path class="st3" d="M40.5,16v1.4c-0.2,1.8-1.8,1.8-3.6,1.7l-6-0.8c-2.1-0.2-4.2-0.2-6.4,0l-6,0.8c-1.8,0.2-3.4,0.1-3.4-1.7V16"/>
<path class="st3" d="M31,6.5h-6.3c-5.2,0-9.5,4.2-9.5,9.5v0l7.3-1c3.6-0.5,7.2-0.5,10.8,0l7.3,1v0C40.5,10.7,36.2,6.5,31,6.5z"/>
<path class="st4" d="M30.5,12.1h-5.6c-0.3,0-0.6-0.3-0.6-0.6V9.9c0-0.3,0.3-0.6,0.6-0.6h5.6c0.3,0,0.6,0.3,0.6,0.6v1.6
	C31.1,11.8,30.8,12.1,30.5,12.1z"/>
</svg>
