<?xml version="1.0" encoding="utf-8"?>
<!-- Generator: Adobe Illustrator 25.3.1, SVG Export Plug-In . SVG Version: 6.00 Build 0)  -->
<svg version="1.1" id="Layer_1" xmlns="http://www.w3.org/2000/svg" xmlns:xlink="http://www.w3.org/1999/xlink" x="0px" y="0px"
	 viewBox="0 0 56.7 56.7" style="enable-background:new 0 0 56.7 56.7;" xml:space="preserve">
<style type="text/css">
	.st0{fill:none;stroke:#003283;stroke-width:1.5;stroke-linejoin:round;stroke-miterlimit:10;}
	.st1{fill:none;stroke:#003283;stroke-width:1.5;stroke-linecap:round;stroke-linejoin:round;stroke-miterlimit:10;}
	.st2{fill:#003283;}
	.st3{fill:none;stroke:#003283;stroke-width:1.5;stroke-linecap:round;stroke-miterlimit:10;}
</style>
<path class="st0" d="M45,50.7H12.7c-1,0-1.8-0.8-1.8-1.8V17.1h36v31.8C46.8,49.9,46,50.7,45,50.7z"/>
<path class="st1" d="M46.7,14.4V7.2c0-0.5-0.6-1-1.2-1H11.9c-0.7,0-1.2,0.4-1.2,1v7.3H46.7z"/>
<circle class="st1" cx="28.8" cy="33.9" r="7.4"/>
<circle class="st1" cx="28.8" cy="33.9" r="11.4"/>
<circle class="st2" cx="41.4" cy="10.3" r="2"/>
<line class="st3" x1="24.3" y1="10.3" x2="14.3" y2="10.3"/>
<line class="st3" x1="16.5" y1="48" x2="13.7" y2="48"/>
<line class="st3" x1="19.9" y1="48" x2="18.9" y2="48"/>
<path class="st1" d="M21.8,35.9c0-1.9,1.6-2.5,3.5-2.5s3.5,1.4,3.5,1.5h0c0.1,0,1.6-1.5,3.5-1.5s3.5,0.6,3.5,2.5"/>
</svg>
