<?xml version="1.0" encoding="utf-8"?>
<!-- Generator: Adobe Illustrator 25.3.1, SVG Export Plug-In . SVG Version: 6.00 Build 0)  -->
<svg version="1.1" id="Layer_1" xmlns="http://www.w3.org/2000/svg" xmlns:xlink="http://www.w3.org/1999/xlink" x="0px" y="0px"
	 viewBox="0 0 56 56" style="enable-background:new 0 0 56 56;" xml:space="preserve">
<style type="text/css">
	.st0{fill:none;stroke:#0099FF;stroke-width:1.5;stroke-miterlimit:10;}
	.st1{fill:#003283;}
	.st2{fill:none;stroke:#003283;stroke-width:1.5;stroke-miterlimit:10;}
</style>
<path class="st0" d="M43.6,19.2"/>
<path class="st0" d="M11.6,19.2"/>
<circle class="st1" cx="27.6" cy="40.9" r="2.1"/>
<path class="st1" d="M23.5,9.8L23.5,9.8c-0.8,0-1.5-0.7-1.5-1.5v-3c0-0.8,0.7-1.5,1.5-1.5h0c0.8,0,1.5,0.7,1.5,1.5v3
	C25,9.1,24.3,9.8,23.5,9.8z"/>
<path class="st1" d="M31.6,9.8L31.6,9.8c-0.8,0-1.5-0.7-1.5-1.5v-3c0-0.8,0.7-1.5,1.5-1.5h0c0.8,0,1.5,0.7,1.5,1.5v3
	C33.1,9.1,32.4,9.8,31.6,9.8z"/>
<path class="st2" d="M41.6,49.3h-28c-1.1,0-2-0.9-2-2v-36c0-1.1,0.9-2,2-2h28c1.1,0,2,0.9,2,2v36C43.6,48.4,42.7,49.3,41.6,49.3z"/>
</svg>
