<svg width="28" height="52" viewBox="0 0 28 52" fill="none" xmlns="http://www.w3.org/2000/svg">
<path d="M22.4631 36.3241H7.17712C6.70387 36.3241 6.32527 35.9455 6.32527 35.4722V16.9229H23.3623V35.4722C23.315 35.9455 22.9364 36.3241 22.4631 36.3241Z" stroke="#F1F5FA" stroke-width="1.75" stroke-miterlimit="10" stroke-linejoin="round"/>
<path d="M14.7963 32.2434C16.9338 32.2434 18.6665 30.5106 18.6665 28.3731C18.6665 26.2357 16.9338 24.5029 14.7963 24.5029C12.6589 24.5029 10.9261 26.2357 10.9261 28.3731C10.9261 30.5106 12.6589 32.2434 14.7963 32.2434Z" stroke="#F1F5FA" stroke-width="1.93397" stroke-miterlimit="10" stroke-linecap="round" stroke-linejoin="round"/>
<path d="M16.6897 20.7048H12.951" stroke="#F1F5FA" stroke-width="1.75" stroke-miterlimit="10" stroke-linecap="round"/>
<path d="M11.1349 29.4196C11.1349 28.4259 11.9717 28.1121 12.9654 28.1121C13.9591 28.1121 14.7959 28.8443 14.7959 28.8966C14.8482 28.8966 15.6328 28.1121 16.6265 28.1121C17.6202 28.1121 18.457 28.4259 18.457 29.4196" stroke="#F1F5FA" stroke-width="1.93397" stroke-miterlimit="10" stroke-linecap="round" stroke-linejoin="round"/>
<path fill-rule="evenodd" clip-rule="evenodd" d="M5.54798 12.3988C6.79872 7.731 11.5967 4.9609 16.2645 6.21164C17.8056 6.62459 19.1377 7.42281 20.1876 8.47461L22.4078 10.6949H18.6935C18.2102 10.6949 17.8185 11.0866 17.8185 11.5699C17.8185 12.0531 18.2102 12.4449 18.6935 12.4449H24.5182C24.7503 12.4449 24.9729 12.3527 25.137 12.1885C25.3011 12.0244 25.3932 11.8018 25.3932 11.5697V5.74516C25.3932 5.26191 25.0014 4.87016 24.5182 4.87016C24.0349 4.87016 23.6432 5.26191 23.6432 5.74516V9.45535L21.4262 7.23834C20.1648 5.97474 18.5636 5.01594 16.7174 4.52127C11.116 3.02038 5.3585 6.3445 3.85761 11.9459C3.73253 12.4127 4.00954 12.8925 4.47633 13.0175C4.94311 13.1426 5.4229 12.8656 5.54798 12.3988ZM23.5233 40.8094C23.0565 40.6844 22.5768 40.9614 22.4517 41.4282C21.2009 46.096 16.403 48.8661 11.7352 47.6153C10.194 47.2024 8.86193 46.4042 7.8121 45.3524L5.59323 43.1321H9.30651C9.78976 43.1321 10.1815 42.7403 10.1815 42.2571C10.1815 41.7738 9.78976 41.3821 9.30651 41.3821H3.48177C2.99852 41.3821 2.60677 41.7738 2.60677 42.2571V48.0818C2.60677 48.5651 2.99852 48.9568 3.48177 48.9568C3.96501 48.9568 4.35677 48.5651 4.35677 48.0818V44.3705L6.57351 46.5887C7.83491 47.8524 9.43595 48.811 11.2822 49.3057C16.8836 50.8066 22.6412 47.4825 24.142 41.8811C24.2671 41.4143 23.9901 40.9345 23.5233 40.8094Z" fill="#003980"/>
</svg>
