<svg width="42" height="46" viewBox="0 0 42 46" fill="none" xmlns="http://www.w3.org/2000/svg">
<path d="M15.7032 30.4396H3.85989C3.49322 30.4396 3.19989 30.1585 3.19989 29.8073V17.2396C3.19989 16.5768 3.73715 16.0396 4.39989 16.0396H15.1999C15.8626 16.0396 16.3999 16.5768 16.3999 17.2396V29.8073C16.3632 30.1585 16.0699 30.4396 15.7032 30.4396Z" stroke="#002859" stroke-width="1.8" stroke-miterlimit="10" stroke-linejoin="round"/>
<path d="M9.94113 26.8306C11.4466 26.8306 12.6671 25.6102 12.6671 24.1046C12.6671 22.5991 11.4466 21.3787 9.94113 21.3787C8.43561 21.3787 7.21515 22.5991 7.21515 24.1046C7.21515 25.6102 8.43561 26.8306 9.94113 26.8306Z" stroke="#002859" stroke-width="1.2" stroke-miterlimit="10" stroke-linecap="round" stroke-linejoin="round"/>
<path d="M11.2747 18.7036H8.64136" stroke="#002859" stroke-width="1.2" stroke-miterlimit="10" stroke-linecap="round"/>
<path d="M7.36206 24.8418C7.36206 24.1419 7.95146 23.9209 8.65137 23.9209C9.35129 23.9209 9.94069 24.4366 9.94069 24.4735C9.97752 24.4735 10.5301 23.9209 11.23 23.9209C11.9299 23.9209 12.5193 24.1419 12.5193 24.8418" stroke="#002859" stroke-width="1.2" stroke-miterlimit="10" stroke-linecap="round" stroke-linejoin="round"/>
<path d="M24.2599 18.3268C24.2599 17.0013 25.3345 15.9268 26.6599 15.9268H36.1399C37.4654 15.9268 38.5399 17.0013 38.5399 18.3268V27.8068C38.5399 29.1322 37.4654 30.2068 36.1399 30.2068H26.6599C25.3345 30.2068 24.2599 29.1322 24.2599 27.8068V18.3268Z" stroke="#002859" stroke-width="1.8" stroke-miterlimit="10"/>
<path fill-rule="evenodd" clip-rule="evenodd" d="M32.9299 19.4968C32.9299 20.2687 32.4762 21.6585 32.0093 22.4573C32.8081 21.9904 34.198 21.5367 34.9699 21.5367C36.0966 21.5367 36.4999 22.5033 36.4999 23.0667C36.4999 23.63 36.0966 24.5967 34.9699 24.5967C34.198 24.5967 32.8078 24.1428 32.0091 23.6759C32.476 24.4746 32.9299 25.8648 32.9299 26.6368C32.9299 27.7635 31.9632 28.1668 31.3999 28.1668C30.8366 28.1668 29.8699 27.7635 29.8699 26.6368C29.8699 25.8648 30.3237 24.4747 30.7907 23.6759C29.9919 24.1429 28.6019 24.5967 27.8299 24.5967C26.7033 24.5967 26.2999 23.63 26.2999 23.0667C26.2999 22.5033 26.7033 21.5367 27.8299 21.5367C28.6018 21.5367 29.9917 21.9904 30.7905 22.4573C30.3236 21.6585 29.8699 20.2687 29.8699 19.4968C29.8699 18.3701 30.8366 17.9668 31.3999 17.9668C31.9632 17.9668 32.9299 18.3701 32.9299 19.4968Z" fill="#002859"/>
<path fill-rule="evenodd" clip-rule="evenodd" d="M12.9332 8.43657C14.1883 3.75247 19.003 0.972724 23.6871 2.22782C25.2336 2.64221 26.5703 3.44321 27.6238 4.49868L29.8518 6.72666H26.1245C25.6396 6.72666 25.2465 7.11978 25.2465 7.60471C25.2465 8.08964 25.6396 8.48276 26.1245 8.48276H31.9695C32.2024 8.48276 32.4258 8.39023 32.5904 8.22554C32.7551 8.06085 32.8476 7.83748 32.8476 7.60458V1.75971C32.8476 1.27478 32.4545 0.881662 31.9695 0.881662C31.4846 0.881662 31.0915 1.27478 31.0915 1.75971V5.48283L28.8667 3.25809C27.601 1.99009 25.9941 1.02795 24.1416 0.531562C18.5207 -0.974556 12.7431 2.36114 11.237 7.98205C11.1114 8.45046 11.3894 8.93193 11.8578 9.05744C12.3262 9.18295 12.8077 8.90498 12.9332 8.43657ZM30.9712 36.9462C30.5028 36.8207 30.0213 37.0986 29.8958 37.567C28.6407 42.2511 23.826 45.0309 19.142 43.7758C17.5954 43.3614 16.2587 42.5604 15.2052 41.505L12.9786 39.2769H16.7048C17.1898 39.2769 17.5829 38.8838 17.5829 38.3989C17.5829 37.9139 17.1898 37.5208 16.7048 37.5208L10.8598 37.5208C10.3749 37.5208 9.98175 37.9139 9.98175 38.3989V44.2439C9.98175 44.7288 10.3749 45.122 10.8598 45.122C11.3447 45.122 11.7378 44.7288 11.7378 44.2439V40.5196L13.9623 42.7456C15.2281 44.0137 16.8347 44.9756 18.6874 45.472C24.3084 46.9782 30.086 43.6425 31.5921 38.0216C31.7176 37.5531 31.4396 37.0717 30.9712 36.9462Z" fill="#0048BB"/>
</svg>
