<svg width="79" height="79" viewBox="0 0 79 79" fill="none" xmlns="http://www.w3.org/2000/svg">
<path d="M78.7482 39.3732C78.7482 17.6274 61.1135 0.00012207 39.3768 0.00012207C17.628 0.00012207 -0.00012207 17.6274 -0.00012207 39.3732C-0.00012207 61.1099 17.628 78.7383 39.3768 78.7383C61.1135 78.7383 78.7482 61.1099 78.7482 39.3732Z" fill="#395691"/>
<path d="M39.3509 1.53645C18.4293 1.53645 1.46741 18.4997 1.46741 39.4177C1.46741 60.3426 18.4293 77.3022 39.3509 77.3022C60.276 77.3022 77.2367 60.3426 77.2367 39.4177C77.2367 18.4997 60.276 1.53645 39.3509 1.53645ZM75.3505 41.0666L75.301 40.5041C74.2447 30.7788 69.6157 33.2517 69.6157 33.2517C67.2437 34.3763 67.5107 37.4866 69.3063 39.3065C71.0558 41.0666 71.6143 45.0235 71.6143 45.0235C72.2576 57.1641 66.4724 63.4494 66.4724 63.4494C59.8399 70.9367 50.143 75.6577 39.3509 75.6577L36.4297 75.5319L37.7065 75.4218L38.2751 75.3683C47.9956 74.3096 45.5257 69.6785 45.5257 69.6785C44.3978 67.3117 41.291 67.5693 39.4734 69.377C37.7065 71.1165 33.7525 71.6756 33.7525 71.6756C21.6147 72.3257 15.325 66.5354 15.325 66.5354C7.83321 59.9007 3.11637 50.2137 3.11637 39.4177L3.23734 36.4968L3.35135 37.772L3.401 38.3338C4.46722 48.0626 9.09159 45.5938 9.09159 45.5938C11.4603 44.4624 11.1982 41.3546 9.40263 39.5344C7.65416 37.772 7.09299 33.8245 7.09299 33.8245C6.44626 21.6792 12.2345 15.3888 12.2345 15.3888C18.8684 7.91064 28.5612 3.18826 39.3509 3.18826L42.2808 3.30431L41.0024 3.42133L40.4367 3.46852C30.7134 4.53267 33.179 9.16066 33.179 9.16066C34.3114 11.5291 37.4159 11.2654 39.2329 9.46872C40.9956 7.72575 44.9564 7.16458 44.9564 7.16458C57.0916 6.51614 63.3789 12.3024 63.3789 12.3024C70.8702 18.9416 75.5894 28.6292 75.5894 39.4177L75.464 42.3489L75.3505 41.0666Z" fill="white"/>
<path d="M54.7834 41.8871C46.4487 41.5845 46.9132 48.5243 46.9132 48.5243C47.2355 51.2861 48.1733 52.671 49.046 53.516C50.7661 55.161 52.4638 54.0842 52.4638 54.0842C53.9579 52.3856 52.3119 51.3027 52.3119 51.3027C48.9138 47.451 53.2402 46.0518 53.2402 46.0518C57.8653 45.5938 58.026 51.3027 58.026 51.3027C58.3302 58.095 50.6099 57.6304 50.6099 57.6304C43.0462 56.5545 43.6668 48.9879 43.6668 48.9879C42.8978 43.4341 49.0745 38.3387 49.0745 38.3387C57.7144 39.8832 57.4031 35.7178 57.4031 35.7178C58.026 32.632 50.0514 34.2771 50.0514 34.2771C49.3247 33.7618 49.0231 32.3253 49.0231 32.3253C50.863 32.0136 54.4702 28.1518 54.4702 28.1518C60.8525 20.4891 54.1638 17.3532 54.1638 17.3532C48.6067 16.4222 46.1371 22.1347 46.1371 22.1347C44.6931 26.5639 45.2094 31.8081 45.2094 31.8081L35.333 37.8781L35.4834 35.2491C42.7394 30.315 39.3511 28.0008 39.3511 28.0008C35.0357 26.3028 33.4789 33.401 33.4789 33.401C27.6082 39.4177 26.3793 34.3268 26.3793 34.3268C30.4916 33.4495 33.4789 29.3908 33.4789 29.3908C40.4269 21.668 35.4834 17.9703 35.4834 17.9703C30.2364 15.4961 25.6066 22.2935 25.6066 22.2935C22.9889 26.3522 23.1399 31.2459 23.1399 31.2459C20.6636 30.593 20.4401 27.0201 20.5326 24.9131C20.5326 24.9131 21.684 21.5177 19.3218 23.602C17.8374 24.9202 17.8893 27.8473 17.8893 27.8473C18.1964 32.7833 22.9889 34.3763 22.9889 34.3763C23.7576 39.0082 26.5519 39.1721 27.7712 39.4177C29.7739 39.8363 32.8647 37.5684 32.8647 37.5684L32.7092 40.0413C24.1167 42.9189 20.7162 47.1373 20.7162 47.1373C14.856 53.1558 17.7358 59.0178 17.7358 59.0178C19.3833 62.6736 22.3701 62.568 22.3701 62.568C23.55 62.568 24.1167 62.6812 24.9398 62.4706C25.5716 62.2994 26.4803 62.1635 27.205 61.6473C28.2408 60.9078 29.3827 60.2321 30.2505 59.3249C36.3429 52.9826 35.6421 40.9616 35.6421 40.9616L46.29 34.4814C46.3472 35.3034 46.8563 35.7178 46.8563 35.7178C39.1387 40.2466 38.5724 48.6834 38.5724 48.6834C37.9045 60.7195 50.2498 62.4706 50.2498 62.4706C53.13 62.4706 54.8882 61.8978 56.422 61.2331C63.0939 58.3572 62.4972 51.4593 62.4972 51.4593C62.2916 42.7143 54.7834 41.8871 54.7834 41.8871ZM53.0311 21.1074C54.6755 22.2362 53.7458 23.8926 52.9296 25.2234C51.5613 27.4332 48.9138 29.5398 48.9138 29.5398C49.1191 20.5902 53.0311 21.1074 53.0311 21.1074ZM32.8647 21.0034C33.6838 21.3121 33.4333 22.448 33.4333 22.448C33.5539 26.0774 26.691 30.4666 26.691 30.4666C27.4592 21.5151 32.8647 21.0034 32.8647 21.0034ZM31.0102 51.0012C27.1501 60.4154 22.8308 58.4042 22.8308 58.4042C22.1346 57.94 21.3843 57.6546 21.0303 56.9122C20.6757 56.1666 20.7162 54.956 20.7162 54.956C20.8718 49.2435 32.4012 43.5867 32.4012 43.5867C32.5537 47.1373 31.0102 51.0012 31.0102 51.0012Z" fill="white"/>
</svg>
