<svg width="36" height="30" viewBox="0 0 36 30" fill="none" xmlns="http://www.w3.org/2000/svg">
<path d="M30.9642 9.28342C27.107 -2.71658 16.7499 1.85485 16.7499 1.85485C24.9367 3.53246 22.2801 7.79483 21.9285 8.30472L21.9279 8.30414L5.10758 25.1245C4.32653 25.9055 4.32653 27.1719 5.10758 27.9529L5.30958 28.1549C6.09063 28.936 7.35696 28.936 8.138 28.1549L24.9323 11.3606C29.3789 12.0149 27.0356 14.9263 27.0356 14.9263L28.3928 16.2834H29.9642L34.5356 11.712L32.8213 9.28342H30.9642Z" stroke="#0048BB" stroke-width="2" stroke-miterlimit="10" stroke-linecap="round" stroke-linejoin="round"/>
<path fill-rule="evenodd" clip-rule="evenodd" d="M7.12505 1.10756C5.50712 -0.239943 3.13708 -0.249409 1.5772 1.20229L1.34185 1.37416C1.3125 1.39566 1.28422 1.41857 1.25689 1.44252L1.17876 1.51674C-0.377367 3.13835 -0.417904 5.65654 1.20708 7.24428L7.77935 13.6652C8.01906 13.8993 8.34278 14.0273 8.67779 14.0206C9.01285 14.0139 9.33141 13.8726 9.56158 13.629L9.5772 13.6115L11.5476 15.5214L13.3158 13.7532L10.4092 10.9357C10.1693 10.7031 9.84589 10.5759 9.51177 10.5831C9.21952 10.5896 8.93981 10.6982 8.72076 10.8878L8.62994 10.9747L8.61626 10.9884L2.95415 5.45619C2.38223 4.89736 2.32742 3.99313 2.92486 3.31264L3.11529 3.17494C3.16282 3.14011 3.2079 3.10187 3.25005 3.06069C3.85431 2.47039 4.8639 2.42996 5.58306 3.08022L11.1866 8.55385C10.9924 8.7739 10.8806 9.0562 10.8741 9.35268C10.8666 9.69859 11.0026 10.0328 11.2501 10.2746L14.0544 13.0145L15.8227 11.2463L13.9454 9.41225C14.1396 9.19208 14.2524 8.91006 14.2588 8.61342C14.2662 8.26765 14.1303 7.93421 13.8829 7.69252L7.3106 1.27162L7.2813 1.24428L7.12505 1.10756ZM21.7843 17.0704L21.8604 17.1447L21.9092 17.1935C21.9109 17.1951 21.9127 17.1967 21.9146 17.1984C21.9165 17.2 21.9183 17.2016 21.92 17.2033L21.9395 17.2228L22.0196 17.3009L22.1006 17.38L22.1827 17.4601L22.2667 17.5421L22.2706 17.546L24.1426 17.9728L24.2422 18.0001C24.473 18.0733 24.679 18.2118 24.8331 18.4005L30.0752 24.8214C30.4884 25.3274 30.4426 26.0661 29.9698 26.5167L26.9424 29.4025C26.4941 29.8298 25.8002 29.8641 25.3116 29.4835L18.7393 24.3615C18.4916 24.1684 18.3257 23.8891 18.2745 23.5792L17.9717 21.7482L17.5324 21.3223L19.3002 19.5544L20.0088 20.2414L20.0772 20.3146C20.2309 20.4896 20.334 20.7045 20.3721 20.9357L20.6612 22.6896L25.9971 26.8488L27.4063 25.506L23.168 20.3146L21.3711 19.9054C21.1465 19.8542 20.9403 19.7413 20.7754 19.5802C20.7466 19.552 20.7502 19.5556 20.7539 19.5592C20.7576 19.5627 20.7612 19.5663 20.7325 19.5382C20.7234 19.5293 20.7225 19.5284 20.7217 19.5274C20.7208 19.5264 20.7199 19.5255 20.711 19.5167C20.7087 19.5145 20.7042 19.5105 20.6997 19.5065C20.6953 19.5025 20.6908 19.4985 20.6885 19.4962L20.6251 19.4328C20.6233 19.4311 20.6215 19.4295 20.6197 19.4279C20.6179 19.4263 20.616 19.4247 20.6143 19.423L20.6036 19.4122C20.5948 19.4036 20.5909 19.4004 20.5821 19.3917L20.5616 19.3712L20.5401 19.3507L20.5196 19.3302L20.4776 19.2892C20.4532 19.2654 20.4814 19.2925 20.4571 19.2687C20.4464 19.2583 20.4464 19.2586 20.4463 19.2589C20.4463 19.2592 20.4462 19.2596 20.4356 19.2492L20.3848 19.1984C20.3825 19.1961 20.3799 19.1939 20.3774 19.1917C20.3762 19.1907 20.3751 19.1897 20.3741 19.1886L20.3536 19.1681L20.2725 19.089L20.2325 19.0499C20.2283 19.0459 20.2253 19.043 20.2222 19.0402C20.2192 19.0373 20.2161 19.0345 20.212 19.0304C20.1993 19.0181 20.2052 19.0234 20.1924 19.0109L20.1133 18.9337C20.0737 18.895 20.0541 18.8759 20.0345 18.8569C20.0285 18.8511 20.0225 18.8452 20.0159 18.8388L21.7843 17.0704Z" fill="#0048BB"/>
</svg>
