<?xml version="1.0" encoding="utf-8"?>
<!-- Generator: Adobe Illustrator 25.3.1, SVG Export Plug-In . SVG Version: 6.00 Build 0)  -->
<svg version="1.1" id="Layer_1" xmlns="http://www.w3.org/2000/svg" xmlns:xlink="http://www.w3.org/1999/xlink" x="0px" y="0px"
	 viewBox="0 0 56.7 56.7" style="enable-background:new 0 0 56.7 56.7;" xml:space="preserve">
<style type="text/css">
	.st0{fill:none;stroke:#003283;stroke-width:1.5;stroke-linecap:round;stroke-linejoin:round;stroke-miterlimit:10;}
	.st1{fill:none;stroke:#003283;stroke-width:3;stroke-linecap:round;stroke-linejoin:round;stroke-miterlimit:10;}
</style>
<path class="st0" d="M49,25.2c1.7,11.4-6.1,22-17.5,23.8c-6.3,1-12.3-1-16.8-4.8"/>
<path class="st0" d="M7.7,31.5C6,20.1,13.8,9.5,25.2,7.7c7.1-1.1,13.8,1.5,18.4,6.4"/>
<polyline class="st0" points="43.2,7.2 44.4,14.7 36.9,15.8 "/>
<polyline class="st0" points="15,50.7 13.9,43.3 21.3,42.2 "/>
<path class="st1" d="M37,36.9H18.7c-0.8,0-1.4-0.7-1.4-1.5v-9.3c0-0.4,0.2-0.8,0.4-1.1l9.1-8.8c0.5-0.5,1.4-0.5,1.9,0l9.1,8.8
	c0.3,0.3,0.4,0.7,0.4,1.1v9.3C38.3,36.2,37.7,36.9,37,36.9z"/>
</svg>
