<svg width="28" height="52" viewBox="0 0 28 52" fill="none" xmlns="http://www.w3.org/2000/svg">
<path d="M3.5 32.3234V25.3797C3.5 24.4133 3.89809 23.4907 4.58744 22.8134C6.367 21.0649 9.30824 18.0937 11.4297 15.9423C12.8321 14.5201 15.1347 14.5523 16.4969 16.0132C18.5046 18.1664 21.2541 21.1047 22.9066 22.8273C23.5492 23.4971 23.9167 24.3866 23.9167 25.3148V32.3234C23.9167 33.9342 22.6108 35.2401 21 35.2401H6.41667C4.80583 35.2401 3.5 33.9342 3.5 32.3234Z" stroke="#002859" stroke-width="1.75" stroke-linecap="round" stroke-linejoin="round"/>
<path fill-rule="evenodd" clip-rule="evenodd" d="M5.54798 12.0656C6.79872 7.39775 11.5967 4.62765 16.2645 5.87839C17.8056 6.29134 19.1377 7.08956 20.1876 8.14136L22.4078 10.3616H18.6935C18.2102 10.3616 17.8185 10.7534 17.8185 11.2366C17.8185 11.7199 18.2102 12.1116 18.6935 12.1116H24.5182C24.7503 12.1116 24.9729 12.0194 25.137 11.8553C25.3011 11.6912 25.3932 11.4686 25.3932 11.2365V5.41191C25.3932 4.92866 25.0014 4.53691 24.5182 4.53691C24.0349 4.53691 23.6432 4.92866 23.6432 5.41191V9.1221L21.4262 6.90508C20.1648 5.64149 18.5636 4.68269 16.7174 4.18802C11.116 2.68713 5.3585 6.01125 3.85761 11.6126C3.73253 12.0794 4.00954 12.5592 4.47633 12.6843C4.94311 12.8094 5.4229 12.5324 5.54798 12.0656ZM23.5233 40.4762C23.0565 40.3511 22.5768 40.6281 22.4517 41.0949C21.2009 45.7627 16.403 48.5328 11.7352 47.2821C10.194 46.8691 8.86193 46.0709 7.8121 45.0192L5.59323 42.7988H9.30651C9.78976 42.7988 10.1815 42.4071 10.1815 41.9238C10.1815 41.4406 9.78976 41.0488 9.30651 41.0488H3.48177C2.99852 41.0488 2.60677 41.4406 2.60677 41.9238V47.7486C2.60677 48.2318 2.99852 48.6236 3.48177 48.6236C3.96501 48.6236 4.35677 48.2318 4.35677 47.7486V44.0372L6.57351 46.2554C7.83491 47.5192 9.43595 48.4778 11.2822 48.9725C16.8836 50.4734 22.6412 47.1492 24.142 41.5478C24.2671 41.0811 23.9901 40.6013 23.5233 40.4762Z" fill="#0048BB"/>
</svg>
