<svg width="50" height="50" viewBox="0 0 50 50" fill="none" xmlns="http://www.w3.org/2000/svg">
<g id="HVAC">
<path id="Vector 193" d="M6.25 43.75V6.25H43.75V43.75H6.25Z" stroke="#0048BB" stroke-width="2.5" stroke-miterlimit="10" stroke-linejoin="round"/>
<path id="Union" d="M17.8166 22.8084L18.4641 23.1869C18.6362 22.8925 18.5881 22.5191 18.347 22.278C18.1059 22.0369 17.7325 21.9888 17.4381 22.1609L17.8166 22.8084ZM17.8166 20.9416L17.4381 21.5891C17.7325 21.7612 18.1059 21.7131 18.347 21.472C18.5881 21.2309 18.6362 20.8575 18.4641 20.5632L17.8166 20.9416ZM19.6834 20.9416L19.0359 20.5631C18.8638 20.8575 18.9119 21.2309 19.153 21.472C19.3941 21.7131 19.7675 21.7612 20.0619 21.5891L19.6834 20.9416ZM19.6834 22.8084L20.0618 22.1609C19.7675 21.9888 19.3941 22.0369 19.153 22.278C18.9119 22.5191 18.8638 22.8925 19.0359 23.1869L19.6834 22.8084ZM17.4381 22.1609C16.8873 22.4829 16.1037 22.8151 15.3076 23.0666C14.5006 23.3215 13.7586 23.4688 13.2812 23.4688V24.9688C13.9864 24.9688 14.9002 24.7684 15.7595 24.4969C16.6296 24.2221 17.5224 23.8491 18.1951 23.4558L17.4381 22.1609ZM13.2812 23.4688C12.6646 23.4688 12.2923 23.2175 12.0552 22.9113C11.7957 22.5762 11.6875 22.1554 11.6875 21.875H10.1875C10.1875 22.4575 10.3883 23.2087 10.8692 23.8297C11.3724 24.4796 12.172 24.9688 13.2812 24.9688V23.4688ZM11.6875 21.875C11.6875 21.5946 11.7957 21.1738 12.0552 20.8387C12.2923 20.5325 12.6646 20.2812 13.2812 20.2812V18.7812C12.172 18.7812 11.3724 19.2704 10.8692 19.9203C10.3883 20.5413 10.1875 21.2925 10.1875 21.875H11.6875ZM13.2812 20.2812C13.7586 20.2812 14.5006 20.4285 15.3076 20.6834C16.1037 20.9349 16.8873 21.2671 17.4381 21.5891L18.1951 20.2942C17.5224 19.9009 16.6296 19.5279 15.7595 19.2531C14.9002 18.9816 13.9864 18.7812 13.2812 18.7812V20.2812ZM18.4641 20.5632C18.1421 20.0123 17.8099 19.2287 17.5584 18.4326C17.3035 17.6256 17.1562 16.8836 17.1562 16.4062H15.6562C15.6562 17.1114 15.8566 18.0252 16.1281 18.8845C16.4029 19.7546 16.7759 20.6474 17.1692 21.3201L18.4641 20.5632ZM17.1562 16.4062C17.1562 15.7896 17.4075 15.4173 17.7137 15.1802C18.0488 14.9207 18.4696 14.8125 18.75 14.8125V13.3125C18.1675 13.3125 17.4163 13.5133 16.7953 13.9942C16.1454 14.4974 15.6562 15.297 15.6562 16.4062H17.1562ZM18.75 14.8125C19.0304 14.8125 19.4512 14.9207 19.7863 15.1802C20.0925 15.4173 20.3438 15.7896 20.3438 16.4062H21.8438C21.8438 15.297 21.3546 14.4974 20.7047 13.9942C20.0837 13.5133 19.3325 13.3125 18.75 13.3125V14.8125ZM20.3438 16.4062C20.3438 16.8836 20.1965 17.6256 19.9416 18.4326C19.6901 19.2287 19.3579 20.0123 19.0359 20.5631L20.3308 21.3201C20.7241 20.6474 21.0971 19.7546 21.3719 18.8845C21.6434 18.0252 21.8438 17.1114 21.8438 16.4062H20.3438ZM20.0619 21.5891C20.6127 21.2671 21.3963 20.9349 22.1924 20.6834C22.9994 20.4285 23.7414 20.2812 24.2188 20.2812V18.7812C23.5136 18.7812 22.5998 18.9816 21.7405 19.2531C20.8704 19.5279 19.9776 19.9009 19.3049 20.2942L20.0619 21.5891ZM24.2188 20.2812C24.8354 20.2812 25.2077 20.5325 25.4448 20.8387C25.7043 21.1738 25.8125 21.5946 25.8125 21.875H27.3125C27.3125 21.2925 27.1117 20.5413 26.6308 19.9203C26.1276 19.2704 25.328 18.7812 24.2188 18.7812V20.2812ZM25.8125 21.875C25.8125 22.1554 25.7043 22.5762 25.4448 22.9113C25.2077 23.2175 24.8354 23.4688 24.2188 23.4688V24.9688C25.328 24.9688 26.1276 24.4796 26.6308 23.8297C27.1117 23.2087 27.3125 22.4575 27.3125 21.875H25.8125ZM24.2188 23.4688C23.7414 23.4688 22.9994 23.3215 22.1924 23.0666C21.3963 22.8151 20.6127 22.4829 20.0618 22.1609L19.3049 23.4558C19.9776 23.8491 20.8704 24.2221 21.7405 24.4969C22.5998 24.7684 23.5136 24.9688 24.2188 24.9688V23.4688ZM21.8438 27.3438C21.8438 26.6386 21.6434 25.7248 21.3719 24.8655C21.0971 23.9954 20.7241 23.1026 20.3308 22.4299L19.0359 23.1869C19.3579 23.7377 19.6901 24.5213 19.9416 25.3174C20.1965 26.1244 20.3438 26.8664 20.3438 27.3438H21.8438ZM18.75 30.4375C19.3325 30.4375 20.0837 30.2367 20.7047 29.7558C21.3546 29.2526 21.8438 28.453 21.8438 27.3438H20.3438C20.3438 27.9604 20.0925 28.3327 19.7863 28.5698C19.4512 28.8293 19.0304 28.9375 18.75 28.9375V30.4375ZM15.6562 27.3438C15.6562 28.453 16.1454 29.2526 16.7953 29.7558C17.4163 30.2367 18.1675 30.4375 18.75 30.4375V28.9375C18.4696 28.9375 18.0488 28.8293 17.7137 28.5698C17.4075 28.3327 17.1562 27.9604 17.1562 27.3438H15.6562ZM17.1692 22.4299C16.7759 23.1026 16.4029 23.9954 16.1281 24.8655C15.8566 25.7248 15.6562 26.6386 15.6562 27.3438H17.1562C17.1562 26.8664 17.3035 26.1244 17.5584 25.3174C17.8099 24.5213 18.1421 23.7377 18.4641 23.1869L17.1692 22.4299Z" fill="#0048BB"/>
<line id="Line 16" x1="6.25" y1="36.5" x2="42.1875" y2="36.5" stroke="#0048BB" stroke-width="2" stroke-miterlimit="10" stroke-linejoin="round"/>
<path id="Union_2" fill-rule="evenodd" clip-rule="evenodd" d="M31.25 14.875C31.25 14.4608 31.5858 14.125 32 14.125H38.3125C38.7267 14.125 39.0625 14.4608 39.0625 14.875C39.0625 15.2892 38.7267 15.625 38.3125 15.625H32C31.5858 15.625 31.25 15.2892 31.25 14.875ZM31.25 18C31.25 17.5858 31.5858 17.25 32 17.25H38.3125C38.7267 17.25 39.0625 17.5858 39.0625 18C39.0625 18.4142 38.7267 18.75 38.3125 18.75H32C31.5858 18.75 31.25 18.4142 31.25 18ZM32 20.375C31.5858 20.375 31.25 20.7108 31.25 21.125C31.25 21.5392 31.5858 21.875 32 21.875H38.3125C38.7267 21.875 39.0625 21.5392 39.0625 21.125C39.0625 20.7108 38.7267 20.375 38.3125 20.375H32ZM31.25 24.25C31.25 23.8358 31.5858 23.5 32 23.5H38.3125C38.7267 23.5 39.0625 23.8358 39.0625 24.25C39.0625 24.6642 38.7267 25 38.3125 25H32C31.5858 25 31.25 24.6642 31.25 24.25ZM32 26.625C31.5858 26.625 31.25 26.9608 31.25 27.375C31.25 27.7892 31.5858 28.125 32 28.125H38.3125C38.7267 28.125 39.0625 27.7892 39.0625 27.375C39.0625 26.9608 38.7267 26.625 38.3125 26.625H32Z" fill="#0048BB"/>
</g>
</svg>
