<svg width="180" height="37" viewBox="0 0 180 37" fill="none" xmlns="http://www.w3.org/2000/svg">
<g clip-path="url(#clip0_1203_10651)">
<path d="M0.00177002 35.819H5.68697V-0.00732422H0.00177002V35.819ZM6.47079 16.925L23.507 35.819H31.6867L14.0903 16.87L31.6317 -0.00224235H23.5634L6.47079 16.925Z" fill="black"/>
<path d="M41.1894 11.6809C37.3223 11.6809 34.2948 13.0176 32.2219 15.3092C30.1532 17.5411 29.1426 20.6165 29.1426 23.9664C29.1426 31.044 34.4659 36.4347 41.4124 36.4347C45.6176 36.4347 49.3693 35.0382 51.8396 31.9112L48.2511 27.9128C45.9516 30.7335 44.4397 31.2427 41.6389 31.2427C37.0438 31.2427 35.3051 28.6488 34.6885 26.1662H52.619L52.6747 25.7723C52.7901 24.9806 52.8458 24.1929 52.8458 23.4012C52.8458 16.3116 47.8013 11.6809 41.1894 11.6809ZM35.0265 21.7658C35.6392 18.4836 37.7716 16.2 41.4119 16.2C44.3839 16.2 46.6237 18.4279 47.1847 21.7658H35.0265Z" fill="black"/>
<path d="M67.6579 11.6809C66.1938 11.6809 63.1025 11.7326 60.624 14.3227V12.23H54.9945V35.8263H60.6797V23.087C60.6797 19.4944 63.1543 16.63 66.0785 16.63C68.2706 16.63 69.7904 18.1459 69.7904 20.4454V35.8266H75.5353V19.0379C75.5353 14.936 71.9944 11.6809 67.6579 11.6809Z" fill="black"/>
<path d="M106.141 11.6809C104.566 11.6809 100.91 11.7326 98.101 15.1661C96.7562 13.0297 94.2896 11.6809 91.433 11.6809C89.9769 11.6809 86.8976 11.7326 84.4309 14.3227V12.23H78.8013V35.8263H84.4865V23.087C84.4865 19.4944 87.001 16.63 89.8534 16.63C92.0297 16.63 93.5972 18.1459 93.5972 20.4454V35.8266H99.2824V21.6829C99.2824 18.5956 102.035 16.6302 104.506 16.6302C106.814 16.6302 108.329 18.1461 108.329 20.4456V35.8268H114.015V19.0381C114.015 14.9362 110.474 11.6809 106.141 11.6809Z" fill="black"/>
<path d="M128.536 16.9362C132.017 16.9362 135.498 19.9081 135.498 24.0616C135.498 28.6607 131.735 31.2427 128.536 31.2427C124.661 31.2427 121.681 28.0998 121.681 24.0059C121.681 19.737 124.999 16.9362 128.536 16.9362ZM128.5 11.7402C121.375 11.7402 115.876 17.1152 115.876 24.0059C115.876 31.2267 121.263 36.4345 128.615 36.4345C135.908 36.4345 141.183 31.1709 141.183 23.8908C141.183 20.7001 139.894 17.6208 137.591 15.3251C135.236 12.9699 132.431 11.7402 128.5 11.7402Z" fill="black"/>
<path d="M158.04 11.9558C157.09 11.733 156.417 11.6772 155.856 11.6772C154.4 11.6772 151.317 11.733 148.906 14.3149V12.2302H143.276V35.8265H148.962V23.0832C148.962 19.4947 151.428 16.6302 154.289 16.6302C154.901 16.6302 155.407 16.7416 155.912 16.9683L156.362 17.1354L158.04 11.9558Z" fill="black"/>
<path d="M168.349 11.6809C164.482 11.6809 161.454 13.0176 159.381 15.3092C157.308 17.5411 156.298 20.6165 156.298 23.9664C156.298 31.044 161.621 36.4347 168.572 36.4347C172.773 36.4347 176.529 35.0382 178.995 31.9112L175.406 27.9128C173.111 30.7335 171.599 31.2427 168.794 31.2427C164.199 31.2427 162.46 28.6488 161.848 26.1662H179.778L179.834 25.7723C179.945 24.9806 180.001 24.1929 180.001 23.4012C180.001 16.3116 174.96 11.6809 168.349 11.6809ZM162.182 21.7658C162.798 18.4836 164.931 16.2 168.571 16.2C171.539 16.2 173.783 18.4279 174.344 21.7658H162.182Z" fill="black"/>
</g>
<defs>
<clipPath id="clip0_1203_10651">
<rect width="180" height="36.4353" fill="white"/>
</clipPath>
</defs>
</svg>
