<svg width="217" height="19" viewBox="0 0 217 19" fill="none" xmlns="http://www.w3.org/2000/svg">
<g clip-path="url(#clip0_1203_10639)">
<path fill-rule="evenodd" clip-rule="evenodd" d="M202.831 1.65714V7.61406C201.742 7.09599 199.202 6.63024 197.599 6.63024C195.061 6.63024 189.57 7.50775 189.57 12.2159C189.57 17.2953 194.958 18.021 197.08 18.021C199.206 18.021 201.639 17.7003 202.831 17.0253V18.0091H211.116V1.65883L202.831 1.65714ZM125.706 7.35418V18.0243H134.616V12.6395C134.616 11.3941 135.652 10.6685 136.584 10.6685C138.293 10.6685 138.449 10.7731 138.449 12.8454V18.026H146.734V11.1848C146.734 9.11257 145.803 6.65386 141.348 6.7298C138.293 6.78043 135.56 7.76594 134.615 8.28231V7.35081H125.72L125.706 7.35418ZM38.6306 18.0243V7.35756H29.9314V18.0277H38.6322L38.6306 18.0243ZM186.676 18.0243V7.35756H177.974V18.0277H186.676V18.0243ZM167.195 0H155.906C156.421 0.101251 157.302 1.50189 157.043 2.07058L148.341 18.0243H153.211L155.236 13.9912H162.745L164.72 18.0412H175.959L167.199 0H167.195ZM115.406 15.2281C114.111 15.2281 112.402 14.9682 111.727 13.0006H123.641C123.641 10.5655 122.605 6.05986 113.803 6.00755C108.517 6.00755 103.234 7.76931 103.183 12.1197C103.132 16.4701 108.88 18.026 114.214 18.026C119.547 18.026 121.933 17.1958 122.657 16.676L123.124 14.192C122.087 14.6577 119.344 15.3294 115.406 15.2281ZM76.9675 8.28569C74.9998 7.09599 72.6694 6.63193 69.1982 6.63193C65.7286 6.63193 59.4612 8.13381 59.4612 12.4825C59.4612 16.8329 64.9524 18.3855 68.4725 18.3855C71.9961 18.3855 76.1389 17.6092 76.9675 17.0405V14.0367C75.9313 14.6577 68.4725 16.1073 68.4725 12.6361C68.4725 10.7731 71.4763 10.358 72.3589 10.358C73.2364 10.358 76.1895 10.7731 76.9658 11.3418L76.9675 8.28569ZM42.0579 7.35418V10.876H44.9604V14.2932C44.9604 15.8491 46.2024 18.0226 50.1377 18.0226C54.0865 18.0226 55.5377 17.1958 56.8709 16.6777V14.0874C56.2634 14.2949 53.2596 15.5386 53.2596 13.0529V10.876H56.8709V7.35418H53.2528V3.93528H44.9672V7.35418H42.0646H42.0579ZM202.831 12.793C202.831 13.2149 201.95 13.8393 201.017 13.8393C200.131 13.8393 198.063 14.0536 198.063 12.0843C198.063 10.633 200.24 10.066 200.915 10.066C201.587 10.066 202.831 10.2179 202.831 11.2574V12.8099V12.793ZM156.863 10.7343L159.217 6.00923L161.188 10.7275H156.863V10.7343ZM113.747 8.91176C114.94 8.91176 115.406 9.48551 115.406 10.5655H111.781C111.831 9.68801 112.505 8.91176 113.747 8.91176ZM79.87 1.65376V18.0226H88.7767V12.6361C88.7767 11.3907 89.8128 10.8726 90.746 10.8726C91.6775 10.8726 92.6107 10.5621 92.6107 12.8403V18.021H100.896V11.1882C100.896 9.42645 100.171 6.90699 95.7157 6.83443C92.4538 6.7838 89.8651 7.717 88.7767 8.28569V1.65714H79.8666L79.87 1.65376ZM0 0V18.0226H9.42645V12.5348C10.1521 12.5348 11.5493 12.0691 12.6901 13.8309L15.3311 18.026H26.9327L21.752 9.84158C21.0298 8.80882 20.7699 7.77269 18.0766 7.51281L24.7086 0H18.026L12.9432 6.37036C12.3762 7.04537 12.6344 7.66468 9.42307 7.66468V0H0ZM182.223 6.32817C184.649 6.32817 186.615 5.21442 186.615 3.8374C186.615 2.46208 184.649 1.34664 182.223 1.34664C179.793 1.34664 177.827 2.46039 177.827 3.8374C177.827 5.21273 179.794 6.32817 182.223 6.32817ZM34.1772 6.32817C36.6072 6.32817 38.5732 5.21442 38.5732 3.8374C38.5732 2.46208 36.6055 1.34664 34.1789 1.34664C31.7489 1.34664 29.7829 2.46039 29.7829 3.8374C29.7829 5.21273 31.7404 6.32649 34.1705 6.32649L34.1772 6.32817ZM215.492 2.48064C215.149 2.14314 214.738 1.97102 214.255 1.97102C213.774 1.97102 213.364 2.13977 213.023 2.48064C212.686 2.82152 212.514 3.23159 212.514 3.71253C212.514 4.19853 212.682 4.61197 213.02 4.95116C213.357 5.29542 213.771 5.46586 214.255 5.46586C214.738 5.46586 215.149 5.2971 215.492 4.94273C215.833 4.5951 216.003 4.18334 216.003 3.69903C216.003 3.21471 215.835 2.80465 215.497 2.46714L215.492 2.48064ZM215.318 4.7841C215.026 5.07773 214.672 5.22623 214.255 5.22623C213.838 5.22623 213.484 5.07435 213.192 4.78241C212.902 4.48541 212.753 4.12934 212.753 3.71084C212.753 3.29234 212.902 2.93459 213.192 2.64771C213.487 2.34396 213.842 2.19208 214.255 2.19208C214.67 2.19208 215.025 2.33721 215.318 2.63083C215.61 2.92446 215.757 3.27884 215.757 3.69397C215.757 4.10909 215.61 4.47022 215.318 4.76554V4.7841ZM215.031 4.64235C215.025 4.62547 215.018 4.59172 215.014 4.5411L215.011 4.4061V4.2711C215.011 4.17828 214.977 4.07872 214.906 3.97747C214.839 3.87622 214.738 3.81378 214.586 3.79184C214.704 3.77159 214.805 3.74122 214.869 3.69734C214.994 3.61634 215.055 3.48978 215.055 3.31765C215.055 3.07127 214.954 2.91265 214.76 2.82827C214.648 2.78271 214.473 2.76077 214.237 2.76077H213.562V4.67441H213.899V3.91503H214.169C214.348 3.91503 214.473 3.93191 214.54 3.97578C214.665 4.04666 214.726 4.19516 214.726 4.41453V4.56641L214.733 4.63054V4.65079L214.738 4.66766H215.053L215.045 4.64572L215.031 4.64235ZM214.513 3.62984C214.442 3.66359 214.334 3.68047 214.193 3.68047H213.889V2.98859H214.176C214.361 2.98859 214.5 3.02234 214.584 3.0679C214.669 3.11346 214.709 3.20796 214.709 3.34803C214.709 3.49484 214.642 3.5944 214.512 3.64672L214.513 3.62984Z" fill="#E4092B"/>
</g>
<defs>
<clipPath id="clip0_1203_10639">
<rect width="217" height="19" fill="white"/>
</clipPath>
</defs>
</svg>
