<svg width="125" height="125" viewBox="0 0 125 125" fill="none" xmlns="http://www.w3.org/2000/svg">
<g clip-path="url(#clip0_65097_4364)">
<mask id="mask0_65097_4364" style="mask-type:luminance" maskUnits="userSpaceOnUse" x="0" y="46" width="125" height="34">
<path d="M0 46.0001H125V79.2051H0V46.0001Z" fill="white"/>
</mask>
<g mask="url(#mask0_65097_4364)">
<path d="M111.211 61.5943V63.8542H112.799V66.0964C112.804 66.2967 112.793 66.5128 112.758 66.6857C112.695 67.1039 112.298 67.8161 111.171 67.8161C110.05 67.8161 109.66 67.1039 109.592 66.6857C109.564 66.5128 109.551 66.2967 109.551 66.0964V59.0145C109.551 58.7639 109.568 58.4898 109.622 58.2822C109.699 57.9048 110.033 57.1605 111.162 57.1605C112.347 57.1605 112.643 57.9452 112.711 58.2822C112.756 58.5055 112.758 58.8799 112.758 58.8799V59.7399H116.661V59.2315C116.661 59.2315 116.678 58.7011 116.631 58.206C116.338 55.2993 113.943 54.3797 111.197 54.3797C108.445 54.3797 106.099 55.3079 105.757 58.206C105.726 58.4711 105.679 58.9478 105.679 59.2315V65.7462C105.679 66.0299 105.688 66.2496 105.741 66.7681C105.996 69.5948 108.445 70.5968 111.186 70.5968C113.943 70.5968 116.376 69.5948 116.635 66.7681C116.681 66.2496 116.686 66.0299 116.692 65.7462V61.5943H111.211ZM84.3029 54.7965H80.384V66.2597C80.3902 66.4595 80.384 66.6839 80.3496 66.8485C80.2678 67.2333 79.9417 67.9738 78.8605 67.9738C77.7932 67.9738 77.4586 67.2333 77.383 66.8485C77.3438 66.6839 77.3388 66.4595 77.3438 66.2597V54.7965H73.4261V65.904C73.4211 66.1903 73.4436 66.7752 73.4605 66.9284C73.7309 69.8229 76.0121 70.7626 78.8605 70.7626C81.7145 70.7626 83.9943 69.8229 84.2697 66.9284C84.2914 66.7752 84.3198 66.1903 84.3029 65.904V54.7965ZM48.2955 54.7965L46.3406 66.909L44.3869 54.7965H38.0655L37.7302 70.2918H41.6029L41.7078 55.9473L44.3724 70.2918H48.3016L50.9686 55.9473L51.0739 70.2918H54.9564L54.6097 54.7965H48.2955ZM24.8905 54.7965L22.0202 70.2918H26.2059L28.3689 55.9473L30.48 70.2918H34.6366L31.7782 54.7965H24.8905ZM97.9988 67.2721L94.3497 54.7965H88.5995V70.1303H92.4033L92.1825 57.2556L96.1014 70.1303H101.616V54.7965H97.7874L97.9988 67.2721ZM62.8134 58.8292C62.7446 58.5232 62.7645 58.1981 62.8001 58.0282C62.9109 57.5321 63.2442 56.9911 64.2044 56.9911C65.0994 56.9911 65.6241 57.549 65.6241 58.3863V59.3338H69.4443V58.2538C69.4443 54.9151 66.451 54.3906 64.2838 54.3906C61.5544 54.3906 59.3253 55.2903 58.9182 57.8025C58.8106 58.4862 58.7839 59.093 58.9552 59.8674C59.619 62.9998 65.0721 63.9085 65.8636 65.8894C66.0033 66.2647 65.9633 66.7432 65.8921 67.0251C65.7735 67.5407 65.4267 68.0592 64.3986 68.0592C63.4344 68.0592 62.854 67.5049 62.854 66.6694L62.8528 65.1823H58.7409V66.3644C58.7409 69.7896 61.4238 70.8231 64.3135 70.8231C67.0809 70.8231 69.3667 69.8774 69.7334 67.3139C69.9083 65.9893 69.7764 65.1266 69.7061 64.8017C69.0655 61.5889 63.2534 60.6225 62.8134 58.8292ZM12.4199 58.7912C12.3449 58.4788 12.3624 58.1491 12.4042 57.9772C12.5101 57.4836 12.8453 56.933 13.8225 56.933C14.7288 56.933 15.2624 57.4963 15.2624 58.3403V59.2994H19.1274V58.2108C19.1274 54.8401 16.0883 54.3029 13.8975 54.3029C11.1451 54.3029 8.89619 55.2165 8.48472 57.7468C8.3721 58.4414 8.3528 59.0525 8.51555 59.8354C9.18648 63.0034 14.6935 63.9194 15.4948 65.9241C15.6448 66.2967 15.5995 66.7752 15.525 67.0681C15.3979 67.589 15.0483 68.1149 14.0117 68.1149C13.0437 68.1149 12.4647 67.551 12.4647 66.704L12.4593 65.2129H8.30127V66.3978C8.30127 69.8623 11.0222 70.9041 13.9343 70.9041C16.734 70.9041 19.0331 69.95 19.4081 67.3568C19.5946 66.0202 19.4547 65.1503 19.3918 64.8204C18.7378 61.5682 12.861 60.605 12.4199 58.7912Z" fill="#1428A0"/>
</g>
</g>
<defs>
<clipPath id="clip0_65097_4364">
<rect width="125" height="125" fill="white"/>
</clipPath>
</defs>
</svg>
