<svg width="49" height="48" viewBox="0 0 49 48" fill="none" xmlns="http://www.w3.org/2000/svg">
<path d="M11.9999 14.8853V16.8305M17.502 17.1643L16.1265 18.5398M19.7811 22.6664H17.8358M17.502 28.1685L16.1265 26.793M11.9999 28.5023V30.4476M7.87334 26.793L6.49781 28.1685M6.16406 22.6664H4.21877M7.87334 18.5398L6.49781 17.1643M15.2421 22.6664C15.2421 24.457 13.7905 25.9086 11.9999 25.9086C10.2093 25.9086 8.75778 24.457 8.75778 22.6664C8.75778 20.8758 10.2093 19.4243 11.9999 19.4243C13.7905 19.4243 15.2421 20.8758 15.2421 22.6664Z" stroke="#002859" stroke-width="1.74989" stroke-linecap="round" stroke-linejoin="round"/>
<g clip-path="url(#clip0_1205_18499)">
<path d="M39.7413 16.8693C42.2405 17.986 43.9821 20.4936 43.9821 23.4079C43.9821 27.3612 40.7773 30.566 36.8241 30.566C32.8708 30.566 29.666 27.3612 29.666 23.4079C29.666 21.4886 30.4214 19.7458 31.651 18.4604C32.3161 19.3892 33.1977 20.1522 34.2222 20.6757C34.2613 18.2674 35.3907 16.1242 37.1382 14.718C37.8006 15.6063 38.679 16.3527 39.7413 16.8693Z" stroke="#002859" stroke-width="1.74989" stroke-linecap="round" stroke-linejoin="round"/>
<path d="M36.8241 27.9634C38.621 27.9634 40.0777 26.5067 40.0777 24.7097C40.0777 23.0583 38.8475 21.6943 37.2535 21.4841C36.3786 22.269 35.7709 23.3456 35.5836 24.561C34.9046 24.395 34.2778 24.0958 33.7325 23.6927C33.6273 24.0127 33.5704 24.3546 33.5704 24.7097C33.5704 26.5067 35.0271 27.9634 36.8241 27.9634Z" stroke="#002859" stroke-width="1.74989" stroke-linecap="round" stroke-linejoin="round"/>
</g>
<path fill-rule="evenodd" clip-rule="evenodd" d="M15.3332 8.76616C16.5883 4.08206 21.4029 1.30231 26.087 2.55741C27.6336 2.9718 28.9703 3.7728 30.0238 4.82827L32.2518 7.05625H28.5245C28.0396 7.05625 27.6464 7.44937 27.6464 7.9343C27.6464 8.41923 28.0396 8.81235 28.5245 8.81235H34.3695C34.6024 8.81235 34.8257 8.71982 34.9904 8.55513C35.1551 8.39044 35.2476 8.16707 35.2475 7.93417V2.0893C35.2475 1.60437 34.8544 1.21125 34.3695 1.21125C33.8846 1.21125 33.4914 1.60437 33.4914 2.0893V5.81242L31.2667 3.58768C30.001 2.31968 28.3941 1.35754 26.5415 0.861152C20.9206 -0.644966 15.143 2.69073 13.6369 8.31164C13.5114 8.78005 13.7894 9.26152 14.2578 9.38703C14.7262 9.51254 15.2077 9.23457 15.3332 8.76616ZM33.3712 37.2758C32.9028 37.1502 32.4213 37.4282 32.2958 37.8966C31.0407 42.5807 26.226 45.3605 21.5419 44.1054C19.9954 43.691 18.6587 42.89 17.6052 41.8346L15.3786 39.6065H19.1048C19.5897 39.6065 19.9829 39.2134 19.9829 38.7284C19.9829 38.2435 19.5897 37.8504 19.1048 37.8504L13.2598 37.8504C12.7748 37.8504 12.3817 38.2435 12.3817 38.7284V44.5735C12.3817 45.0584 12.7748 45.4515 13.2598 45.4515C13.7447 45.4515 14.1378 45.0584 14.1378 44.5735V40.8492L16.3623 43.0751C17.6281 44.3433 19.2347 45.3052 21.0874 45.8016C26.7083 47.3078 32.4859 43.9721 33.992 38.3511C34.1175 37.8827 33.8396 37.4013 33.3712 37.2758Z" fill="#0048BB"/>
<defs>
<clipPath id="clip0_1205_18499">
<rect width="18.7317" height="18.7317" fill="white" transform="translate(26.1561 13.3801)"/>
</clipPath>
</defs>
</svg>