<svg width="174" height="93" viewBox="0 0 174 93" fill="none" xmlns="http://www.w3.org/2000/svg">
<path fill-rule="evenodd" clip-rule="evenodd" d="M134.735 37.5911C129.927 37.5911 126.322 40.968 126.322 46.1751C126.322 51.3281 129.814 54.8764 134.735 54.8764C139.715 54.8764 142.863 51.4424 142.863 46.2332C142.863 41.0832 139.715 37.5911 134.735 37.5911ZM137.482 50.4116C137.482 51.1403 137.193 51.8392 136.678 52.3545C136.162 52.8699 135.463 53.1594 134.735 53.1594C133.248 53.1594 132.045 51.9573 132.045 50.4116V41.7123C132.044 41.3589 132.114 41.0089 132.249 40.6824C132.384 40.3558 132.582 40.0591 132.832 39.8091C133.081 39.5592 133.378 39.361 133.705 39.2259C134.031 39.0907 134.381 39.0213 134.735 39.0216C136.223 39.0216 137.482 40.2237 137.482 41.7123V50.4116ZM116.992 37.8766C115.79 37.8766 114.129 38.106 113.272 39.3081V37.7624C111.097 38.1631 110.752 38.2773 105.717 38.2773V39.9953C107.377 39.9953 108.406 40.1095 108.406 41.9417V58.083C108.348 60.1426 108.693 61.6312 105.659 61.6312V63.4634H116.419V61.6312H116.077C114.015 61.6312 113.271 60.5443 113.271 59.3412V53.3317C114.244 54.649 115.561 54.9355 116.761 54.9355C121.399 54.8774 123.917 51.786 123.917 46.2342C123.917 41.1964 121.857 37.8766 116.992 37.8766ZM118.194 50.8694C118.194 52.1286 117.222 53.1594 115.962 53.1594C114.701 53.1594 113.672 52.1286 113.672 50.8694V42.1701C113.672 40.9109 114.702 39.9372 115.962 39.9372C117.221 39.9372 118.194 40.9109 118.194 42.1701V50.8694Z" fill="black"/>
<path fill-rule="evenodd" clip-rule="evenodd" d="M80.4744 44.5162C79.5588 45.4318 78.7002 46.3484 77.8417 47.206V44.0013L80.1317 41.7123C80.3031 41.9407 80.4744 42.0559 80.4744 42.7421V44.5162ZM93.6965 32.2106C91.9593 33.6731 90.2607 35.181 88.6026 36.7326V35.3582C88.0877 35.7589 86.3126 36.1596 85.6264 36.2167C87.8321 34.01 90.1236 31.8907 92.4954 29.8635V32.1526L93.6965 32.2106Z" fill="#EBB53B"/>
<path fill-rule="evenodd" clip-rule="evenodd" d="M99.9912 26.8873C110.752 18.187 122.43 10.4605 134.391 5.19423C142.518 1.8744 147.211 0.50099 150.533 4.16343C153.852 7.76974 146.698 19.5043 145.208 20.9909C143.378 20.4189 142.691 21.3345 142.691 21.3345C143.377 21.1051 144.579 21.621 143.778 23.4523C143.435 24.1395 142.063 25.1122 141.49 23.5094C140.804 25.2264 139.144 28.1455 137.14 30.8352C130.385 40.0504 120.999 48.9219 107.32 61.1133C84.9398 81.0322 73.3775 85.4981 65.5928 88.7588C59.983 90.8755 45.731 93.9679 55.0614 76.7407C57.0068 72.2759 62.2159 64.8338 69.656 56.2488H67.367V55.4493C61.8723 61.8606 56.4919 68.8999 52.9436 75.8822C50.0816 80.9761 44.5299 97.0593 65.135 90.8214C71.8889 88.7047 90.0337 79.9473 110.009 62.0299C131.13 43.1428 141.833 29.7493 145.496 25.3425C146.24 24.4831 146.985 23.1096 146.414 22.0798C150.019 16.6994 154.998 5.4817 151.392 2.04669C147.387 -1.78803 139.487 0.730383 136.453 1.87539C131.702 3.76371 113.502 12.5211 95.9871 26.8882L99.9912 26.8873Z" fill="#EBB53B"/>
<path fill-rule="evenodd" clip-rule="evenodd" d="M63.5895 17.1003C63.4172 17.8436 62.9594 18.9315 60.2126 20.5914C53.2294 24.6555 41.6681 25.0562 32.6242 24.8268C18.7158 24.4832 12.9347 21.2786 11.5042 20.0194C10.7028 19.2751 10.817 18.5879 11.7326 17.9017C14.3081 15.9553 23.4091 15.2691 29.4186 15.2691C35.4282 15.2691 42.2972 16.6435 42.2391 18.2453C42.2391 19.9052 38.9193 20.1336 38.175 20.1917C37.6601 20.2488 37.0881 20.0204 37.0881 19.7339C37.2033 19.2761 38.0037 19.2761 38.4044 19.1609C38.748 19.1038 38.9193 18.8173 38.9193 18.4166C38.9193 17.9017 37.4307 17.3868 36.2296 17.2145C32.7384 16.2989 28.1584 16.5844 25.7552 16.7567C21.4627 17.0432 18.4855 18.3585 18.4855 19.3903C18.4855 20.362 21.0039 23.2821 33.5389 23.6818C49.6802 24.1967 57.2354 21.4499 60.8988 18.8173C63.4172 16.8709 61.5289 15.5556 59.1247 14.3525C52.5432 11.2621 40.0653 10.9756 33.8263 10.9185C26.787 10.8042 15.0524 11.6628 10.0727 12.5784C8.98577 12.8649 9.21418 13.7805 10.7599 13.4369C12.5911 13.1504 25.4126 12.2348 31.6515 12.5784C37.8905 12.8649 45.5028 12.6926 52.5432 16.1847C53.7443 16.928 54.145 18.2453 52.3138 19.2751C50.5396 20.2478 45.9606 22.4797 35.2569 22.5368C25.4116 22.652 24.1524 20.9911 23.2949 20.3049C22.9513 20.0184 22.8942 19.1599 24.2105 18.4727C25.1275 18.057 26.1228 17.8422 27.1296 17.8426C27.931 17.8426 28.2165 18.7021 27.358 18.7592C26.4995 18.9866 25.5839 19.1018 25.5839 19.7319C25.5839 20.2468 26.1569 20.3049 26.786 20.5333C27.358 20.7627 30.3913 21.4489 34.227 21.4489C39.8359 21.4489 44.1294 20.6485 46.6478 19.1589C47.6776 18.644 47.9631 16.9841 46.19 16.4121C43.4422 15.4965 38.5196 13.8927 28.2746 13.8927C21.2352 13.8927 8.12824 14.9806 4.34964 16.0104C3.03332 16.4111 0 17.2696 0 18.8724C0 20.4743 2.06061 21.2186 3.03431 21.5622C8.58703 23.5086 24.2686 25.8547 30.4514 25.9118C47.6796 26.0831 57.3526 24.6526 63.305 19.5587C63.7628 18.9857 64.5642 18.1281 64.6784 17.2686C64.7916 16.1276 63.8189 16.0695 63.5895 17.1003ZM47.0475 28.7758C51.3401 28.7758 52.4851 28.6626 54.2592 28.2038V40.2238C55.8049 37.6473 57.8074 37.6473 60.0974 37.6473C62.0428 37.6473 64.5622 39.4224 64.5622 43.3714V48.4102C64.5622 51.6138 64.7345 52.873 66.8513 52.873H66.9084V54.3616H57.9226V52.873C59.5244 52.873 59.6396 51.0428 59.6396 49.5542L59.6967 48.4102V43.5446C59.6967 41.484 59.0095 40.2819 57.6932 40.2819C55.0025 40.2819 54.2592 42.4567 54.2592 45.3188V48.9251C54.3734 51.3303 54.2592 52.875 56.2617 52.875V54.3636H46.8752V52.875C48.8787 52.875 49.3937 51.731 49.3937 49.4981V32.4402C49.3937 30.7793 49.4508 30.3796 48.2487 30.608C46.7029 31.0658 46.2451 31.8672 45.5579 33.9849L38.8612 55.163H37.3726L32.2806 40.8539L27.0715 55.163H25.5829L16.2545 32.5544C15.6815 30.7222 14.251 30.5509 12.4188 30.4367V28.7758H24.2105V30.4367H23.7517C22.4935 30.4367 22.5506 30.8364 22.5506 31.6378C22.5506 32.0956 22.6077 32.4963 22.9513 33.6984L27.9881 47.4345L31.4221 37.8196L29.9916 34.2704C29.1331 31.5226 28.9037 30.4357 26.2711 30.4357V28.7748H36.9168V30.4357L36.3448 30.4928C35.4862 30.607 35.372 31.0077 35.372 31.8091C35.372 32.2098 35.4291 32.4392 35.7727 33.469L39.7798 46.4618L44.2446 32.325C44.5311 30.9516 43.1567 30.4367 42.4134 30.3786V28.7758H47.0475ZM76.3529 32.898C76.3529 34.3856 75.0937 35.6458 73.548 35.6458C72.0604 35.6458 70.8583 34.3866 70.8583 32.898C70.8583 31.3523 72.1175 30.1502 73.548 30.1502C75.0937 30.1502 76.3529 31.3523 76.3529 32.898ZM68.8558 54.3616H78.2993V52.7598C76.2387 52.7598 76.0664 51.729 76.0664 48.4663V37.5341C74.5217 38.049 72.5753 38.1061 68.4541 38.1061V39.766H69.1403C70.9725 39.766 71.258 41.7134 71.258 41.7695V48.4663C71.258 51.6719 70.9715 52.7598 68.8548 52.7598L68.8558 54.3616ZM87.4003 39.193C88.946 37.3047 91.5215 37.8767 91.7499 37.8767C93.4098 37.8767 94.2674 39.6518 94.2674 40.8539C94.2674 42.5138 93.1804 43.7721 91.6928 43.7721C90.2623 43.7721 89.1754 42.8565 89.1754 41.425C89.1754 40.9681 89.2315 40.6816 89.4018 40.4523C89.5751 40.2809 89.5751 40.2238 89.5751 40.1658C89.5751 40.1087 89.6332 39.7089 89.517 39.7089C89.2886 39.7089 88.8879 39.4795 88.373 40.1658C87.4574 41.2537 87.4003 42.1693 87.4003 43.5998V50.4688C87.5135 51.2131 87.6868 52.0706 88.4311 52.5304C88.8308 52.7588 88.8889 52.873 89.7464 52.873V54.3616H80.3028V52.7598C82.3635 52.7598 82.5357 51.7851 82.5357 48.5795V41.7124C82.5357 39.6518 81.563 39.7651 79.7879 39.7651V38.1632C83.795 38.1632 85.4539 38.1051 87.4003 37.7054V39.193ZM170.28 48.8099C170.28 52.0135 170.966 52.5304 173.027 52.8149V54.2455H162.609V52.7588C164.671 52.5304 165.357 52.0126 165.357 48.8089V32.7257C165.357 31.1229 164.384 30.3786 163.182 30.3215L162.609 30.3786V28.7187C166.674 28.7187 168.218 28.7758 170.28 28.2609V48.8099ZM153.565 37.5912C148.758 37.5912 145.153 40.9681 145.153 46.1753C145.153 51.3283 148.587 54.8765 153.509 54.8765C158.488 54.8765 161.693 51.4425 161.693 46.2334C161.694 41.0833 158.488 37.5912 153.565 37.5912ZM156.256 50.4117C156.256 51.9574 155.054 53.1595 153.566 53.1595C152.079 53.1595 150.82 51.9574 150.82 50.4117V41.7124C150.82 40.2238 152.078 39.0217 153.566 39.0217C155.055 39.0217 156.256 40.2238 156.256 41.7124V50.4117ZM102.166 48.8099C102.166 52.0135 102.854 52.5304 104.914 52.8149V54.2455H94.4977V52.7588C96.5574 52.5304 97.3017 52.0126 97.3017 48.8089V32.7257C97.2455 31.1229 96.2709 30.3786 95.0707 30.3215L94.4977 30.3786V28.7187C98.619 28.7187 100.107 28.7758 102.166 28.2609V48.8099Z" fill="black"/>
</svg>
