<?xml version="1.0" encoding="utf-8"?>
<!-- Generator: Adobe Illustrator 26.2.1, SVG Export Plug-In . SVG Version: 6.00 Build 0)  -->
<svg version="1.1" id="Layer_1" xmlns="http://www.w3.org/2000/svg" xmlns:xlink="http://www.w3.org/1999/xlink" x="0px" y="0px"
	 viewBox="0 0 200 200" style="enable-background:new 0 0 200 200;" xml:space="preserve">
<g>
	<path d="M98.8,117.2c-1.4-0.3-2.8-0.5-4.2-0.8c-6-1.5-10.5-4.9-12.8-10.8c-0.1-0.2-0.1-0.3-0.2-0.5c3.3-1.7,6.7-2.7,10.3-2.8
		c0.1,0.2,0.2,0.4,0.3,0.5c1.9,5.6,8.8,7.7,13.5,4c0.4-0.3,0.8-0.7,1-1c0.7-1.6,1.7-1.3,3-0.8c2.5,1,5.2,1.9,8,3
		c-0.9,1.2-1.7,2.3-2.6,3.4c-3.4,3.6-7.7,5-12.5,5.5c-0.6,0.1-1,0.2-1.6,0.3C100.3,117.2,99.5,117.2,98.8,117.2z"/>
	<path d="M39.8,98c3,2.4,4.1,5.4,3.6,9.2c-0.5,3.1-2,5.4-4.6,7c-2.2,1.3-4.5,2-7,2c-7,0.1-14.1,0-21.1,0c-0.2,0-0.3,0-0.7-0.1
		c0-10.8,0-21.6,0-32.4c0.4,0,0.8-0.1,1.2-0.1c6.1,0,12.1,0,18.2,0c2.7,0,5.4,0.3,7.9,1.4c5.3,2.3,6.5,8,2.8,12.3
		C40.2,97.5,40,97.7,39.8,98z M20.6,108.5c3.1,0,6.1,0.2,9.1-0.1c2.1-0.2,3-1.5,2.9-3.4c-0.1-1.7-1.2-2.8-3.3-2.9
		c-2.6-0.1-5.3-0.1-7.8,0c-0.3,0-0.8,0.5-0.8,0.8C20.6,104.7,20.6,106.7,20.6,108.5z M20.7,95.5c2.8,0,5.6,0,8.4,0
		c0.4,0,0.8-0.3,1.1-0.5c0.8-0.5,1.1-1.3,0.9-2.3c-0.1-0.9-0.7-1.5-1.5-1.5c-2.9-0.2-5.9-0.3-8.9-0.5C20.7,92.6,20.7,94.1,20.7,95.5
		z"/>
	<path d="M190,116.2c-3.4,0-6.8,0-10.1,0c-0.4,0-0.8-0.6-1.2-0.9c-3.5-4.6-6.9-9.2-10.3-13.8c-0.3-0.4-0.6-0.7-1.1-0.9
		c0,5.2,0,10.3,0,15.6c-3.4,0-6.7,0-10.1,0c0-10.8,0-21.6,0-32.6c0.5,0,0.8,0,1.3,0c2.6,0,5.3,0,7.9,0c1,0,1.7,0.3,2.3,1.1
		c3.2,4.4,6.5,8.7,9.7,13.2c0.4,0.6,0.8,1,1.4,1.5c0-5.2,0-10.4,0-15.7c3.5,0,6.8,0,10.1,0C190,94.4,190,105.2,190,116.2z"/>
	<path d="M72.4,103.4c2.9,4.2,5.6,8.4,8.5,12.6c-0.5,0.1-0.8,0.1-1,0.1c-3.5,0-6.9,0-10.3,0c-0.8,0-1.3-0.3-1.7-0.9
		c-1.9-3-3.9-6-5.8-9c-0.6-0.8-1.1-1.2-2.2-1.1c-0.9,0.1-1.9,0-3,0c0,3.7,0,7.2,0,10.9c-3.8,0-7.3,0-11,0c0-10.8,0-21.6,0-32.5
		c0.4,0,0.8-0.1,1.1-0.1c6.6,0,13.2,0,19.8,0c2.5,0,5,0.6,7.2,1.7c3.8,1.9,5.4,5.1,5.4,9.1c0,3.9-2.1,6.5-5.4,8.3
		C73.7,102.9,73.1,103.1,72.4,103.4z M56.9,97.5c3,0,5.8,0.1,8.6,0c1.9-0.1,2.9-1.4,2.9-3.3c0-1.7-1-2.8-2.9-3
		C62.9,91,60.3,91,57.7,91c-0.3,0-0.8,0.4-0.8,0.6C56.9,93.6,56.9,95.4,56.9,97.5z"/>
	<path d="M119.6,99.7c-3.1-1.1-6.1-2.3-9.1-3.3c-1.6-0.5-2.7-1.2-3.8-2.6c-2.1-2.9-5.4-3.2-8.5-2.7c-2.9,0.4-5.1,2.1-6,5
		c-0.1,0.2-0.1,0.3-0.1,0.6c1.5-0.2,3-0.5,4.5-0.6c4.4-0.3,8.7,0.3,12.9,1.7c4.9,1.7,9.8,3.6,14.7,5.2c5.3,1.7,10.7,2.5,16.3,2
		c4.9-0.6,9.3-2.3,13.2-5c0.6-0.4,1.2-1.3,1.9-0.4c0.7,0.9-0.4,1.4-0.9,1.8c-0.9,0.7-1.9,1.4-2.9,2c-1.1,0.6-1,1.2-0.6,2.2
		c1.4,3,2.8,6.1,4.1,9.2c0.2,0.4,0.4,0.8,0.6,1.4c-3.9,0-7.5,0-11.3,0c-0.3,0-0.8-0.5-0.8-0.8c-0.8-2.1-1.6-4.1-2.3-6.2
		c-0.2-0.6-0.5-0.9-1.1-0.7c-5.5,1.9-11.2,1.4-16.7-0.3c-5.1-1.5-10.1-3.6-15-5.2c-6.4-2.1-13-3.1-19.7-1.9
		c-3.9,0.8-7.3,2.3-10.6,4.4c-0.3,0.2-0.6,0.6-0.9,0.6c-0.5,0.1-0.9-0.1-1.4-0.1c0.2-0.4,0.2-1,0.5-1.2c1.1-0.9,2.4-1.7,3.6-2.6
		c0.4-0.3,0.8-0.9,0.8-1.4C80.1,92,87.1,84.3,95.9,83c4.6-0.7,9-0.5,13.3,1.3c6.2,2.5,10.5,8.5,10.6,14.7
		C119.7,99.2,119.7,99.4,119.6,99.7z"/>
	<path d="M149.3,100.7c-3.1,1.8-6.4,2.2-9.9,2.5c-1-2.7-2.1-5.4-3.1-8.2c-0.1,0-0.2,0-0.3,0c-0.3,0.8-0.7,1.7-0.9,2.5
		c-0.4,1.1-0.8,2.3-1.2,3.4c-0.8,2.3-0.8,2.3-3.2,1.9c-2.4-0.5-4.9-1.1-7.6-1.7c0.2-0.6,0.4-0.9,0.5-1.3c2.3-5.1,4.5-10.1,6.7-15.3
		c0.3-0.8,0.8-1.1,1.6-1c2.9,0.1,5.8,0,8.7,0.1c0.5,0,1.1,0.4,1.3,0.8c2.4,5.3,4.8,10.5,7.1,15.8
		C149.2,100.3,149.2,100.5,149.3,100.7z"/>
	<path d="M129.9,111.4c-0.5,1.3-1,2.8-1.6,4.2c-0.1,0.3-0.6,0.6-0.8,0.6c-3.7,0-7.3,0-11.3,0c1-2.4,2-4.6,3-6.9
		c0.1-0.3,0.6-0.5,0.8-0.5C123.4,109.8,126.6,110.6,129.9,111.4z"/>
</g>
</svg>
