<?xml version="1.0" encoding="utf-8"?>
<!-- Generator: Adobe Illustrator 26.2.1, SVG Export Plug-In . SVG Version: 6.00 Build 0)  -->
<svg version="1.1" id="Layer_1" xmlns="http://www.w3.org/2000/svg" xmlns:xlink="http://www.w3.org/1999/xlink" x="0px" y="0px"
	 viewBox="0 0 200 200" style="enable-background:new 0 0 200 200;" xml:space="preserve">
<style type="text/css">
	.st0{fill:none;stroke:#000000;stroke-width:0.5;stroke-miterlimit:10;}
	.st1{fill:none;}
</style>
<g>
	<g>
		<circle class="st0" cx="187.8" cy="88.7" r="2.2"/>
		<path d="M187.5,87.7c0.1,0,0.3,0,0.5,0c0.2,0,0.4,0.1,0.5,0.2c0.2,0.2,0.2,0.4,0.2,0.5c0,0.3-0.2,0.4-0.5,0.5c0,0,0,0,0,0.1
			c0.2,0.2,0.3,0.5,0.5,0.6c0,0,0,0.1,0.1,0.1l0,0c-0.1,0-0.3,0-0.4,0c0,0,0,0-0.1,0c-0.2-0.2-0.3-0.5-0.5-0.6c0,0-0.1-0.1-0.1,0
			c-0.1,0-0.2,0-0.4,0c0,0-0.1,0-0.1,0.1c0,0.2,0,0.5,0,0.6c0,0.1,0,0.1-0.1,0.1c-0.1,0-0.2,0-0.3,0h-0.1c0-0.6,0-1.4,0-2
			c0,0,0-0.1,0.1-0.1C187.3,87.7,187.5,87.7,187.5,87.7z M187.5,88.4c0,0.1,0,0.2,0,0.3s0,0.1,0.1,0.1c0.2,0,0.3,0,0.5,0
			c0.1,0,0.1,0,0.2,0c0.2-0.1,0.4-0.3,0.3-0.5c-0.1-0.2-0.2-0.2-0.4-0.2c-0.2,0-0.4,0-0.5,0l0,0C187.5,88.2,187.5,88.3,187.5,88.4z"
			/>
	</g>
	<g>
		<path class="st1" d="M184.7,107.4c-58.2,0-116.4,0-174.5,0c0,2.2,0,4.4,0,6.6c58.2,0,116.4,0,174.5,0
			C184.7,111.7,184.7,109.6,184.7,107.4z M53.9,105.4c0-0.2,0-0.4,0-0.5c0-2.2,0-4.5,0-6.6c0-0.4,0.1-0.7,0.2-1.1
			c0.1-0.4,0.5-0.6,0.9-0.6s0.8,0.2,0.9,0.6c0.1,0.4,0.2,0.7,0.2,1.1c0,2.2,0,4.4,0,6.6c0,0.2,0,0.4,0,0.5c2,0,4,0,6,0
			c0-0.1,0-0.2,0-0.3c0-2.7,0-5.4,0-8.1c0-0.7-0.2-1.5-0.4-2.2c-0.5-1.5-1.5-2.7-3.2-3c-1-0.2-2-0.1-3,0.3c-0.9,0.4-1.5,0.9-1.9,1.8
			c-0.8-1.7-2.2-2.2-3.8-2.2s-2.9,0.7-4,2.1c0-0.5,0-0.9,0-1.4c-1.9,0-3.7,0-5.6,0c0,4.4,0,8.6,0,12.9c1.9,0,3.7,0,5.6,0
			c0-0.2,0-0.5,0-0.6c0-2.1,0-4.2,0-6.2c0-0.5,0.1-0.9,0.2-1.4c0.1-0.5,0.5-0.7,0.9-0.7c0.5,0,0.8,0.3,0.9,0.6
			c0.1,0.4,0.2,0.8,0.2,1.2c0,2.2,0,4.3,0,6.5c0,0.2,0,0.4,0,0.5C49.9,105.4,51.9,105.4,53.9,105.4z M128.9,105.4c0-0.2,0-0.3,0-0.4
			c0-2.6,0-5.3,0-7.9c0-0.4,0-0.8-0.1-1.2c-0.5-2.8-2.3-4.4-4.9-4.2c-1.5,0.1-2.7,0.6-3.5,2h-0.1c-0.7-1.6-2.1-2.1-3.7-2.1
			c-1.6,0-2.9,0.7-4,2c0-0.5,0-0.9,0-1.4c-1.9,0-3.7,0-5.6,0c0,4.4,0,8.6,0,12.9c1.9,0,3.7,0,5.6,0c0-0.2,0-0.4,0-0.5
			c0-2.1,0-4.3,0-6.4c0-0.5,0.1-0.8,0.2-1.3c0.1-0.5,0.5-0.6,0.9-0.6c0.5,0,0.8,0.2,0.9,0.6c0.1,0.5,0.2,0.9,0.2,1.4
			c0,2.1,0,4.3,0,6.4c0,0.2,0,0.4,0,0.5c2,0,3.9,0,5.9,0c0-0.2,0-0.4,0-0.5c0-2.1,0-4.3,0-6.4c0-0.5,0.1-0.8,0.2-1.3
			c0.1-0.5,0.5-0.6,0.9-0.6s0.8,0.2,0.9,0.6c0.1,0.4,0.2,0.8,0.2,1.2c0,2.2,0,4.4,0,6.5c0,0.2,0,0.4,0,0.5
			C124.8,105.4,126.9,105.4,128.9,105.4z M161.5,92.4c-0.1,0-0.2,0-0.2,0c-2.2,0-4.4,0-6.6,0c-0.2,0-0.4,0.2-0.5,0.3
			c-0.5,0.9-1,1.8-1.5,2.8c-0.3,0.5-0.5,0.9-0.7,1.4H152c0-3.3,0-6.6,0-9.8c-2,0-4,0-6,0c0,6.1,0,12.3,0,18.4c2,0,4,0,6,0
			c0-1.7,0-3.5,0-5.2c0.2,0.1,0.2,0.2,0.3,0.3c0.7,1.5,1.5,3,2.2,4.5c0.2,0.3,0.4,0.4,0.6,0.4c2.1,0,4.2,0,6.2,0c0.1,0,0.3,0,0.5,0
			c-0.1-0.2-0.2-0.3-0.3-0.5c-1.4-1.9-2.7-3.8-4.2-5.8c-0.3-0.4-0.3-0.5,0-0.9C158.7,96.4,160.1,94.4,161.5,92.4z M139.3,94
			c-0.2-0.2-0.2-0.3-0.3-0.3c-1.9-2.2-4.9-2.4-7.1-0.5c-2.9,2.6-3,7.9-0.4,10.7c2.2,2.3,5.3,2.3,7.5-0.1c0.1-0.1,0.1-0.1,0.3-0.3
			c0,0.6,0,1.1,0,1.6c1.9,0,3.7,0,5.6,0c0-4.4,0-8.6,0-12.9c-1.8,0-3.6,0-5.6,0C139.3,92.9,139.3,93.4,139.3,94z M79.4,92.1
			c-1.6,0-3.1,0.4-4.4,1.2c-3.5,2.2-4.3,6.7-1.5,9.8c2.9,3.2,8.3,3.4,11.5,0.5c2.7-2.6,2.8-6.6,0.1-9.3
			C83.4,92.7,81.4,92.1,79.4,92.1z M32.9,92.1c-2.5,0-4,0.5-5.4,1.3c-3.6,2.4-4.2,7.1-1.1,10.1c3.1,3,8.4,2.9,11.4-0.2
			c2.3-2.4,2.5-5.9,0.4-8.5C36.5,92.9,34.4,92.1,32.9,92.1z M174.3,99.6c0.3-2.7-0.8-5.6-3.7-6.9c-1.5-0.7-3.1-0.8-4.7-0.7
			c-3.5,0.3-5.8,2.6-6,6c-0.2,2.8,0.8,5.1,3.4,6.6c1.9,1.1,4,1.3,6.1,0.7c1.8-0.5,3.4-1.5,4.3-3.2c0.3-0.4,0.4-0.8,0.6-1.4
			c-0.3,0-0.5,0-0.6,0c-1.5,0-2.9,0-4.5,0c-0.4,0-0.5,0.1-0.7,0.4c-0.3,0.6-0.8,0.9-1.5,0.8c-0.7-0.1-1.1-0.5-1.2-1.2
			c-0.1-0.4-0.1-0.7-0.1-1.2C168.6,99.6,171.4,99.6,174.3,99.6z M72.4,90.8L72.4,90.8c0.1-1.3,0.1-2.5,0.1-3.7
			c0-0.1-0.2-0.3-0.4-0.4c-1.7-0.5-3.5-0.3-5.2,0.1c-1.4,0.4-2.3,1.2-2.5,2.6c-0.1,0.6-0.1,1.3-0.2,1.9c0,0.4,0,0.6,0,1
			c-0.5,0-1,0-1.5,0c0,1.5,0,3.1,0,4.7c0.5,0,1,0,1.5,0c0,2.7,0,5.5,0,8.2c2,0,3.9,0,5.9,0c0-2.7,0-5.5,0-8.2c0.5,0,1,0,1.5,0
			c0-1.5,0-3.1,0-4.7c-0.5,0-1,0-1.5,0c-0.2-1.3,0.2-1.6,1.4-1.6C71.9,90.8,72.2,90.8,72.4,90.8z M104.7,105.4c0-2.7,0-5.5,0-8.2
			c0.5,0,1,0,1.5,0c0-1.5,0-3.1,0-4.7c-0.4,0-0.7,0-1.2,0c-0.3,0-0.4-0.1-0.4-0.4c0-0.5,0-1.2,0-1.7c0-0.5,0-0.9,0-1.5
			c-2,0-3.9,0-5.9,0c0,1.2,0,2.4,0,3.5c-0.5,0-1,0-1.5,0c0,1.5,0,3.1,0,4.7c0.5,0,1,0,1.5,0c0,2.7,0,5.5,0,8.2
			C100.8,105.4,102.7,105.4,104.7,105.4z M96.7,97.5c0-1.8,0-3.6,0-5.5c-1.7-0.2-3,0.4-3.8,1.9l-0.1-0.1c0-0.5,0-0.9,0-1.5
			c-1.8,0-3.6,0-5.5,0c0,4.4,0,8.6,0,12.9c1.8,0,3.6,0,5.5,0c0-0.2,0-0.4,0-0.5c0-1.4,0-2.6,0-4c0-0.8,0.2-1.5,0.4-2.4
			c0.3-0.8,0.9-1.3,1.7-1.2C95.5,97.3,96.2,97.5,96.7,97.5z M180.7,105.4c0-0.2,0-0.4,0-0.5c0-1.3,0-2.5,0-3.8
			c0-0.8,0.1-1.6,0.3-2.4c0.3-0.9,0.9-1.4,1.9-1.4c0.5,0,1.1,0.2,1.7,0.3c0-1.8,0-3.6,0-5.6c-0.8,0-1.5-0.1-2.2,0.4
			c-0.6,0.4-1.2,0.9-1.7,1.5c0-0.4,0-0.9,0-1.4c-1.8,0-3.6,0-5.5,0c0,4.4,0,8.6,0,12.9C177.1,105.4,178.9,105.4,180.7,105.4z"/>
		<path d="M21.3,86.1c0.7,0.2,1.5,0.4,2.3,0.5c0.3,0.1,0.4,0.2,0.4,0.5c-0.1,1.9-0.1,3.7-0.2,5.6c-0.7-0.2-1.4-0.5-2.1-0.5
			c-1.1-0.2-2.1,0-3,0.5c-1.4,0.7-2.1,2.1-1.8,3.7c0.2,1.5,1.2,2.7,2.8,3.1c1.4,0.4,2.7,0.3,4-0.5c0.1,0,0.1,0,0.2-0.1
			c0.1,2,0.1,4,0.2,6.2c-0.9,0.2-1.8,0.5-2.7,0.5c-4.2,0.3-7.6-1.3-9.9-4.9c-2.7-4.4-1.3-10.1,3.2-12.8c1.4-0.9,2.8-1.4,4.5-1.5
			c0.1,0,0.2-0.1,0.3-0.1C19.9,86.1,20.6,86.1,21.3,86.1z"/>
		<path d="M184.7,107.4c0,2.2,0,4.4,0,6.6c-58.1,0-116.4,0-174.5,0c0-2.2,0-4.4,0-6.6C68.3,107.4,126.5,107.4,184.7,107.4z
			 M117.8,112.1c0.9,0,1.7,0,2.5,0c0-0.8,0-1.6,0-2.5c-0.4,0-0.8,0-1.2,0c0,0.8,0,1.5,0,2.4c-0.4-0.8-0.6-1.6-0.9-2.5
			c-0.4-1-0.4-1-1.4-1c-0.3,0-0.5,0.1-0.5,0.4c-0.3,0.9-0.6,1.8-0.9,2.8c0,0.1-0.1,0.3-0.1,0.5c0.5,0,0.9,0,1.3,0
			c0.1-0.2,0.1-0.3,0.2-0.5C117.2,111.7,117.8,111.5,117.8,112.1z M160.2,110.9c-0.3-0.3-0.5-0.5-0.6-0.7c-0.5,0.5-0.5,0.5-0.7,0.3
			c0.5-0.5,0.7-0.9,0.5-1.4c-0.4-0.5-1.3-0.7-1.9-0.4c-0.5,0.3-0.6,0.8-0.3,1.5c-0.6,0.4-0.8,0.6-0.7,1.2c0.1,0.5,0.5,0.8,1.2,0.8
			c0.4,0,0.6-0.1,1-0.2c0.1,0,0.3,0,0.4,0c0.5,0.1,1,0.1,1.5,0.2v-0.1c-0.2-0.2-0.5-0.5-0.6-0.6
			C159.9,111.2,160.1,111.1,160.2,110.9z M164.2,112.1c0.5,0,0.8,0,1.2,0c0-1.2,0-2.4,0-3.5c-0.5,0-0.8,0-1.2,0c0,0.4,0,0.8,0,1.2
			c-0.3,0-0.5,0-0.7,0c0-0.4,0-0.8,0-1.2c-0.5,0-0.8,0-1.2,0c0,1.2,0,2.4,0,3.5c0.5,0,0.8,0,1.2,0c0-0.5,0-0.8,0-1.2
			c0.3,0,0.5,0,0.7,0C164.2,111.4,164.2,111.7,164.2,112.1z M151.6,113.1c0.6,0.3,1.3,0.4,1.9,0.1c0.5-0.2,0.8-0.5,0.8-1
			c0.1-0.9,0-1.7,0-2.7c-0.5,0-0.8,0.1-1.5,0.1c-0.3-0.2-0.7-0.2-1.1,0.2c-0.5,0.5-0.5,1.4-0.1,1.9c0.2,0.2,0.5,0.4,0.6,0.5
			c0.3,0,0.5-0.1,0.7-0.2c-0.1,0.6-0.4,0.6-1.4,0.3C151.8,112.6,151.7,112.8,151.6,113.1z M179.9,112c-0.1,0.2-0.2,0.5-0.4,0.5
			c-0.4,0-0.7,0-1.2-0.1c-0.1,0.2-0.1,0.5-0.2,0.7c0.6,0.3,1.3,0.4,1.9,0.1c0.5-0.2,0.8-0.5,0.8-0.9c0.1-0.9,0-1.8,0-2.8
			c-0.5,0-0.8,0.1-1.4,0.1c-0.4-0.3-0.8-0.2-1.2,0.2c-0.5,0.5-0.5,1.5,0,2C178.9,112.3,179.3,112.3,179.9,112z M135.7,112.2
			c0-1.4,0-2.6,0-3.9c-0.4,0-0.7,0-1.2,0c0,0.5,0,1,0,1.5c-0.7-0.4-1.1-0.3-1.5,0.2c-0.4,0.5-0.4,1.5,0.1,2c0.4,0.4,0.7,0.4,1.2,0.2
			C134.9,112.1,135.3,112.1,135.7,112.2z M126.7,110c0-0.4,0-0.7,0-1.1c0-0.3-0.1-0.4-0.4-0.4c-0.8-0.2-1.5,0.1-2,0.7
			c-0.5,0.6-0.5,1.6,0,2.3c0.5,0.6,1.3,0.8,2.1,0.6c0.1,0,0.2-0.2,0.2-0.2c0-0.4,0-0.7,0-1.2c-0.5,0.3-0.8,0.5-1.2,0
			c-0.3-0.3-0.3-0.5,0-0.8C125.8,109.5,126.2,109.7,126.7,110z M170.3,112.1c0.5,0,1,0,1.4,0c0-0.8,0-1.6,0-2.5
			c-0.6-0.1-1.3,0.1-2,0c-0.2,0-0.6,0.3-0.7,0.5c-0.2,0.4-0.2,0.8-0.1,1.3C169,112.2,169.6,112.5,170.3,112.1z M131.5,112.1
			c0.4,0,0.7,0,1.1,0c0-0.5,0-1,0-1.5c0-0.4,0-0.8-0.5-1s-0.8-0.1-1.1,0.2c-0.4-0.5-0.8-0.2-1.2-0.3c0,0.9,0,1.7,0,2.5
			c0.4,0,0.8,0,1.3,0c0-0.5,0-1,0-1.5c0.1,0,0.1,0,0.2,0C131.6,111,131.3,111.6,131.5,112.1z M149.8,112.1c0.2-0.5-0.1-1.1,0.2-1.5
			c0.1,0,0.1,0,0.2,0c0,0.5,0.1,1,0.1,1.5c0.4,0,0.7,0,1.2,0c0-0.6,0.1-1.3,0-1.9c-0.1-0.6-0.7-0.9-1.3-0.5
			c-0.1,0.1-0.2,0.1-0.2,0.1c-0.4-0.5-0.8-0.2-1.2-0.3c0,0.9,0,1.7,0,2.5C149.1,112.1,149.4,112.1,149.8,112.1z M178,112.1
			c0-0.5,0-1,0-1.5c0-0.4-0.1-0.8-0.5-1c-0.4-0.2-0.7-0.1-1.1,0.2c-0.4-0.5-0.8-0.2-1.3-0.2c0,0.9,0,1.7,0,2.5c0.4,0,0.8,0,1.2,0
			c0.2-0.5-0.1-1.1,0.2-1.5c0.1,0,0.1,0,0.2,0c0,0.5,0,1,0,1.5C177.2,112.1,177.5,112.1,178,112.1z M145.2,109.8
			c-0.4-0.5-0.8-0.2-1.2-0.3c0,0.9,0,1.7,0,2.5c0.4,0,0.7,0,1.2,0c0-0.5,0-1,0-1.5c0.1,0,0.1,0,0.2,0c0.4,0.5,0,1.1,0.2,1.5
			c0.4,0,0.7,0,1.1,0c0-0.5,0-1.1,0-1.5c0-0.4-0.1-0.7-0.5-0.9C146,109.5,145.5,109.6,145.2,109.8z M142.4,109.6
			c-0.9,0-1.5,0.5-1.5,1.4c0,0.8,0.5,1.4,1.5,1.4c0.8,0,1.5-0.5,1.5-1.4C143.9,110.1,143.2,109.6,142.4,109.6z M129.8,110.9
			c0-0.8-0.5-1.4-1.5-1.4c-0.9,0-1.5,0.5-1.5,1.4c0,0.7,0.6,1.3,1.5,1.4C129,112.3,129.8,111.6,129.8,110.9z M168.5,111.1
			c0.2-0.8-0.5-1.5-1.2-1.5c-0.8-0.1-1.5,0.3-1.6,1c-0.2,0.8,0.2,1.4,1,1.5C167.5,112.3,168.3,111.9,168.5,111.1
			c-0.5,0.2-0.8,0.3-1.3,0.3c-0.1,0-0.3-0.1-0.4-0.2c0-0.1,0-0.1,0.1-0.2C167.5,111.1,168.1,111.1,168.5,111.1z M139,110.6
			c0.1,0,0.1,0,0.2,0c0.1-0.2,0.3-0.3,0.3-0.5c0-0.3,0.2-0.7-0.4-0.7c-0.1-0.8-0.2-0.9-1.2-0.7c-0.1,0.3-0.1,0.5-0.2,0.7
			c-0.1,0.3-0.3,0.7-0.1,0.9c0.3,0.3,0.2,0.5,0.2,0.8c0,0.3,0,0.5,0,0.8c0.5,0,0.8,0,1.2,0C139,111.6,139,111.1,139,110.6z
			 M173.3,109.6c-0.1,0-0.1,0-0.2,0c0-0.3,0-0.5,0-0.7c-0.4,0-0.8,0-1.2,0c0,0.3,0,0.6-0.2,0.7c-0.4,0.3-0.3,0.8-0.2,0.9
			c0.4,0.3,0.2,0.6,0.2,1c0,0.2,0,0.5,0,0.6c0.5,0,0.8,0,1.2,0c0-0.5,0-1,0-1.5c0.4-0.1,0.5-0.1,0.4-0.7
			C173.6,109.8,173.4,109.6,173.3,109.6z M120.8,109.6c0,0.8,0,1.7,0,2.5c0.4,0,0.7,0,1.2,0c0-0.4,0-0.7,0-1c0-0.5,0.5-0.5,0.8-0.4
			c0-0.4,0-0.8,0-1.3C122.1,109.8,121.5,109.5,120.8,109.6z M174.9,109.6c-0.4,0-0.6,0-0.9,0c-0.1,0-0.3,0.2-0.3,0.2
			c0,0.7,0,1.5,0,2.4c0.5,0,0.8,0,1.2,0C174.9,111.3,174.9,110.5,174.9,109.6z M148.2,112.1c0-0.9,0-1.7,0-2.5c-0.4,0-0.7,0-1.2,0
			c0,0.8,0,1.6,0,2.5C147.5,112.1,147.9,112.1,148.2,112.1z M140.6,112.1c0-0.9,0-1.7,0-2.5c-0.4,0-0.7,0-1.2,0c0,0.8,0,1.7,0,2.5
			C139.9,112.1,140.2,112.1,140.6,112.1z M136.1,109.6c0,0.8,0,1.7,0,2.5c0.4,0,0.7,0,1.1,0c0-0.8,0-1.7,0-2.5
			C136.9,109.6,136.5,109.6,136.1,109.6z M140,108.2c-0.4,0-0.6,0.3-0.6,0.6c0,0.4,0.3,0.6,0.6,0.6s0.6-0.2,0.6-0.6
			C140.7,108.5,140.4,108.2,140,108.2z M147.8,108.2c-0.4,0-0.6,0.2-0.7,0.5c0,0.4,0.2,0.6,0.5,0.6c0.5,0,0.7-0.2,0.7-0.5
			C148.4,108.6,148.1,108.3,147.8,108.2z M136.7,109.5c0.4,0,0.6-0.3,0.6-0.5c0-0.4-0.3-0.6-0.6-0.6s-0.6,0.3-0.6,0.6
			C136,109.2,136.2,109.5,136.7,109.5z M119.8,109.5c0.4,0,0.6-0.3,0.6-0.6s-0.3-0.6-0.7-0.6c-0.4,0-0.6,0.3-0.6,0.6
			C119.2,109.2,119.4,109.5,119.8,109.5z M174.3,109.5c0.4,0,0.6-0.2,0.6-0.6c0-0.4-0.3-0.6-0.6-0.6c-0.5,0-0.6,0.3-0.6,0.6
			C173.7,109.2,173.9,109.5,174.3,109.5z"/>
		<path d="M53.9,105.4c-2,0-3.9,0-5.9,0c0-0.2,0-0.4,0-0.5c0-2.2,0-4.3,0-6.5c0-0.4-0.1-0.8-0.2-1.2c-0.1-0.5-0.5-0.6-0.9-0.6
			c-0.5,0-0.8,0.3-0.9,0.7c-0.1,0.5-0.2,0.9-0.2,1.4c0,2.1,0,4.2,0,6.2c0,0.2,0,0.4,0,0.6c-1.9,0-3.7,0-5.6,0c0-4.3,0-8.6,0-12.9
			c1.8,0,3.6,0,5.6,0c0,0.5,0,0.9,0,1.4c1-1.4,2.4-2.1,4-2.1c1.6,0,3.1,0.5,3.8,2.2c0.5-0.9,1.1-1.5,1.9-1.8c1-0.4,2-0.5,3-0.3
			c1.7,0.3,2.6,1.5,3.2,3c0.3,0.7,0.4,1.5,0.4,2.2c0,2.7,0,5.4,0,8.1c0,0.1,0,0.2,0,0.3c-2,0-3.9,0-6,0c0-0.2,0-0.4,0-0.5
			c0-2.2,0-4.4,0-6.6c0-0.4-0.1-0.7-0.2-1.1c-0.2-0.4-0.5-0.6-0.9-0.6s-0.7,0.3-0.9,0.6c-0.1,0.4-0.2,0.7-0.2,1.1c0,2.2,0,4.5,0,6.6
			C53.9,105,53.9,105.1,53.9,105.4z"/>
		<path d="M128.9,105.4c-2,0-3.9,0-6,0c0-0.2,0-0.4,0-0.5c0-2.2,0-4.4,0-6.5c0-0.4-0.1-0.8-0.2-1.2c-0.1-0.5-0.5-0.6-0.9-0.6
			c-0.5,0-0.7,0.3-0.9,0.6c-0.1,0.4-0.2,0.8-0.2,1.3c0,2.1,0,4.3,0,6.4c0,0.2,0,0.4,0,0.5c-2,0-3.9,0-5.9,0c0-0.2,0-0.4,0-0.5
			c0-2.1,0-4.3,0-6.4c0-0.5-0.1-0.9-0.2-1.4c-0.1-0.5-0.5-0.6-0.9-0.6s-0.8,0.3-0.9,0.6c-0.1,0.4-0.2,0.8-0.2,1.3c0,2.1,0,4.3,0,6.4
			c0,0.2,0,0.4,0,0.5c-1.9,0-3.7,0-5.6,0c0-4.4,0-8.6,0-12.9c1.8,0,3.7,0,5.6,0c0,0.5,0,0.9,0,1.4c1.1-1.3,2.4-2,4-2
			c1.6,0,3,0.5,3.7,2.1h0.1c0.7-1.4,2-1.9,3.5-2c2.7-0.2,4.5,1.4,4.9,4.2c0.1,0.4,0.1,0.8,0.1,1.2c0,2.6,0,5.3,0,7.9
			C128.9,105.1,128.9,105.2,128.9,105.4z"/>
		<path d="M161.5,92.4c-1.5,2-2.8,3.9-4.3,5.8c-0.3,0.4-0.3,0.5,0,0.9c1.4,1.9,2.8,3.8,4.2,5.8c0.1,0.1,0.2,0.3,0.3,0.5
			c-0.2,0-0.3,0-0.5,0c-2.1,0-4.2,0-6.2,0c-0.3,0-0.5-0.1-0.6-0.4c-0.7-1.5-1.5-3-2.2-4.5c-0.1-0.1-0.1-0.2-0.3-0.3
			c0,1.7,0,3.5,0,5.2c-2.1,0-4,0-6,0c0-6.1,0-12.3,0-18.4c2,0,4,0,6,0c0,3.3,0,6.6,0,9.8h0.1c0.3-0.5,0.5-0.9,0.7-1.4
			c0.5-0.9,1-1.8,1.5-2.8c0.1-0.2,0.3-0.3,0.5-0.3c2.2,0,4.4,0,6.6,0C161.3,92.4,161.4,92.4,161.5,92.4z"/>
		<path d="M139.3,94c0-0.6,0-1.1,0-1.6c1.8,0,3.6,0,5.6,0c0,4.3,0,8.6,0,12.9c-1.8,0-3.6,0-5.6,0c0-0.5,0-1,0-1.6
			c-0.1,0.1-0.2,0.2-0.3,0.3c-2.2,2.4-5.3,2.5-7.5,0.1c-2.7-2.8-2.5-8.1,0.4-10.7c2.1-1.9,5.2-1.7,7.1,0.5
			C139.1,93.8,139.1,93.8,139.3,94z M139.2,98.8c0-1.1-0.8-1.9-1.9-1.9c-1,0-1.9,0.8-1.9,1.8s0.8,1.9,1.9,1.9
			C138.4,100.7,139.2,99.9,139.2,98.8z"/>
		<path d="M79.4,92.1c2.2,0,4,0.7,5.6,2.2c2.7,2.6,2.6,6.6-0.1,9.3c-3.1,3-8.6,2.7-11.5-0.5c-2.7-3-2-7.6,1.5-9.8
			C76.3,92.4,77.6,92.1,79.4,92.1z M79.3,96.9c-1,0-1.8,0.8-1.8,1.9c0,1,0.8,1.9,1.9,1.9c1,0,1.9-0.9,1.9-1.9
			C81.2,97.8,80.4,96.9,79.3,96.9z"/>
		<path d="M32.9,92.1c1.5,0,3.6,0.8,5.2,2.7c2.1,2.5,1.9,6.1-0.4,8.5c-3,3.1-8.3,3.2-11.4,0.2c-3.1-3-2.5-7.7,1.1-10.1
			C28.9,92.4,30.2,92.1,32.9,92.1z M31.9,96.9c-1.1,0-1.9,0.8-1.9,1.9c0,1,0.8,1.9,1.9,1.9c1,0,1.9-0.9,1.9-1.9
			C33.9,97.8,33,97,31.9,96.9z"/>
		<path d="M174.3,99.6c-2.9,0-5.7,0-8.7,0c0,0.5,0,0.8,0.1,1.2c0.2,0.6,0.5,1.1,1.2,1.2c0.7,0.1,1.3-0.2,1.5-0.8
			c0.2-0.4,0.4-0.5,0.7-0.4c1.5,0,2.9,0,4.5,0c0.2,0,0.4,0,0.6,0c-0.2,0.5-0.4,1-0.6,1.4c-1,1.7-2.5,2.6-4.3,3.2
			c-2.1,0.5-4.2,0.4-6.1-0.7c-2.5-1.5-3.5-3.7-3.4-6.6c0.2-3.4,2.5-5.7,6-6c1.6-0.2,3.3,0,4.7,0.7C173.5,94.1,174.6,96.9,174.3,99.6
			z M168.8,96.8c0-1.1-0.8-1.9-1.7-1.9c-0.9,0.1-1.5,0.8-1.4,1.9C166.7,96.8,167.7,96.8,168.8,96.8z"/>
		<path d="M72.4,90.8c-0.3,0-0.5-0.1-0.8-0.1c-1.2,0-1.5,0.4-1.4,1.6c0.5,0,0.9,0,1.5,0c0,1.5,0,3.1,0,4.7c-0.5,0-1,0-1.5,0
			c0,2.7,0,5.5,0,8.2c-2,0-3.9,0-5.9,0c0-2.7,0-5.5,0-8.2c-0.5,0-1,0-1.5,0c0-1.5,0-3.1,0-4.7c0.5,0,1,0,1.5,0c0-0.4,0-0.7,0-1
			c0-0.6,0.1-1.3,0.2-1.9c0.3-1.5,1.1-2.3,2.5-2.6c1.7-0.5,3.5-0.5,5.2-0.1c0.1,0,0.4,0.2,0.4,0.4C72.5,88.3,72.5,89.5,72.4,90.8
			C72.4,90.8,72.4,90.8,72.4,90.8z"/>
		<path d="M104.7,105.4c-2,0-3.9,0-5.9,0c0-2.7,0-5.5,0-8.2c-0.5,0-1,0-1.5,0c0-1.5,0-3.1,0-4.7c0.5,0,1,0,1.5,0c0-1.2,0-2.4,0-3.5
			c2,0,3.9,0,5.9,0c0,0.5,0,0.9,0,1.5s0,1.2,0,1.7c0,0.3,0.1,0.5,0.4,0.4c0.4,0,0.7,0,1.2,0c0,1.5,0,3.1,0,4.7c-0.5,0-1,0-1.5,0
			C104.7,99.9,104.7,102.5,104.7,105.4z"/>
		<path d="M96.7,97.5c-0.6-0.1-1.2-0.3-1.8-0.3c-0.8,0-1.5,0.4-1.7,1.2c-0.2,0.7-0.4,1.5-0.4,2.4c-0.1,1.4,0,2.6,0,4
			c0,0.2,0,0.4,0,0.5c-1.8,0-3.6,0-5.5,0c0-4.3,0-8.6,0-12.9c1.8,0,3.6,0,5.5,0c0,0.5,0,0.9,0,1.5l0.1,0.1c0.8-1.5,2.2-2.1,3.8-1.9
			C96.7,93.9,96.7,95.7,96.7,97.5z"/>
		<path d="M180.7,105.4c-1.8,0-3.6,0-5.5,0c0-4.3,0-8.6,0-12.9c1.8,0,3.6,0,5.5,0c0,0.5,0,0.9,0,1.4c0.5-0.5,1.1-1,1.7-1.5
			c0.6-0.4,1.5-0.4,2.2-0.4c0,1.9,0,3.7,0,5.6c-0.5-0.1-1.1-0.3-1.7-0.3c-1,0-1.6,0.4-1.9,1.4c-0.2,0.7-0.3,1.6-0.3,2.4
			c-0.1,1.3,0,2.5,0,3.8C180.7,105,180.7,105.1,180.7,105.4z"/>
		<path d="M117.3,110c0.1,0.3,0.1,0.5,0.2,0.7c-0.1,0-0.2,0-0.3,0C117.2,110.5,117.2,110.2,117.3,110C117.2,110,117.2,110,117.3,110
			z"/>
		<path d="M153.4,110.9c-0.2,0.2-0.4,0.4-0.4,0.3c-0.1-0.1-0.3-0.2-0.3-0.4c0-0.1,0.2-0.3,0.3-0.3S153.2,110.7,153.4,110.9z"/>
		<path d="M180.1,110.8c-0.2,0.2-0.3,0.3-0.4,0.3c-0.1,0-0.3-0.2-0.3-0.3s0.2-0.3,0.3-0.4C179.7,110.6,179.8,110.7,180.1,110.8z"/>
		<path d="M134.3,111.4c-0.2-0.2-0.3-0.4-0.3-0.5c0-0.1,0.2-0.3,0.2-0.4c0.1,0.1,0.3,0.2,0.3,0.3
			C134.6,110.9,134.4,111.1,134.3,111.4z"/>
		<path d="M170.2,110.5c0.1,0.2,0.3,0.4,0.3,0.5c0,0.1-0.2,0.2-0.3,0.4c-0.1-0.1-0.2-0.3-0.3-0.4
			C169.9,110.7,170.1,110.6,170.2,110.5z"/>
		<path d="M142.4,111.4c-0.2-0.3-0.3-0.4-0.3-0.5c0-0.1,0.2-0.2,0.3-0.4c0.1,0.1,0.3,0.2,0.3,0.3C142.7,111,142.5,111.1,142.4,111.4
			z"/>
		<path d="M128.2,111.4c-0.1-0.3-0.3-0.4-0.3-0.5c0-0.1,0.2-0.2,0.4-0.3c0.1,0.1,0.3,0.2,0.3,0.4C128.5,111,128.4,111.1,128.2,111.4
			z"/>
	</g>
</g>
</svg>
