<?xml version="1.0" encoding="utf-8"?>
<!-- Generator: Adobe Illustrator 23.0.4, SVG Export Plug-In . SVG Version: 6.00 Build 0)  -->
<svg version="1.1" id="Layer_1" xmlns="http://www.w3.org/2000/svg" xmlns:xlink="http://www.w3.org/1999/xlink" x="0px" y="0px"
	 viewBox="0 0 200 200" style="enable-background:new 0 0 200 200;" xml:space="preserve">
<style type="text/css">
	.st0{fill:none;stroke:#000000;stroke-width:0.5;stroke-miterlimit:10;}
	.st1{fill:none;}
</style>
<g>
	<circle class="st0" cx="156.2" cy="99" r="2.7"/>
	<path d="M155.9,97.7c0.2,0,0.4,0,0.6,0c0.2,0,0.4,0.1,0.6,0.2c0.2,0.2,0.3,0.5,0.2,0.7c0,0.3-0.2,0.5-0.5,0.6c0,0,0,0,0,0.1
		c0.2,0.3,0.4,0.5,0.5,0.8c0,0,0,0.1,0.1,0.1c0,0,0,0,0,0c-0.1,0-0.3,0-0.4,0c0,0,0,0-0.1,0c-0.2-0.3-0.4-0.5-0.5-0.8
		c0,0-0.1-0.1-0.1-0.1c-0.1,0-0.3,0-0.4,0c0,0-0.1,0-0.1,0.1c0,0.3,0,0.5,0,0.8c0,0.1,0,0.1-0.1,0.1c-0.1,0-0.2,0-0.3,0
		c0,0-0.1,0-0.1-0.1c0-0.8,0-1.6,0-2.4c0,0,0-0.1,0.1-0.1C155.5,97.7,155.7,97.7,155.9,97.7z M155.7,98.5c0,0.1,0,0.2,0,0.4
		c0,0.1,0,0.1,0.1,0.1c0.2,0,0.4,0,0.6,0c0.1,0,0.1,0,0.2,0c0.3-0.1,0.4-0.3,0.3-0.6c-0.1-0.2-0.2-0.2-0.4-0.2c-0.2,0-0.4,0-0.6,0
		c0,0-0.1,0-0.1,0.1C155.7,98.3,155.7,98.4,155.7,98.5z"/>
</g>
<g>
	<path class="st1" d="M72.1,121.6c1.5,0,2.9,0,4.4,0c10.3-0.2,20.7-0.8,30.9-2.2c6.2-0.8,12.4-1.8,18.6-2.8c7-1.2,13.9-2.8,20.7-4.6
		c8.6-2.3,17.1-5.1,25.3-8.7c5.7-2.5,11.2-5.4,16.2-9.2c3-2.2,5.7-4.7,7.7-7.9c3.2-5.2,2.7-10.4-1.6-14.8c-1.8-1.9-3.9-3.4-6.2-4.6
		c-5.7-3.2-11.9-5.1-18.3-6.6c-7.1-1.7-14.3-2.7-21.6-3.3c-5.4-0.4-10.7-0.8-16.1-0.8c-6.2-0.1-12.4,0.1-18.6,0.3
		c-4.2,0.1-8.3,0.5-12.5,0.9c-5.4,0.5-10.8,1.1-16.2,1.9c-5.5,0.8-11,1.8-16.5,2.8C62,63,55.5,64.6,49.1,66.5
		c-8.4,2.4-16.7,5.3-24.6,9C19,78,13.7,81,9,84.9c-2.6,2.2-5,4.6-6.6,7.7c-2.3,4.5-1.9,8.9,1.3,12.8c2,2.4,4.4,4.1,7.1,5.6
		c5.1,2.8,10.5,4.6,16.1,6c8.3,2.1,16.7,3.3,25.3,3.9C58.9,121.5,65.5,121.7,72.1,121.6z"/>
	<path d="M72.1,121.6c-6.6,0.1-13.2-0.1-19.9-0.7c-8.5-0.7-17-1.8-25.3-3.9c-5.6-1.4-11.1-3.2-16.1-6c-2.7-1.5-5.1-3.2-7.1-5.6
		c-3.2-3.9-3.7-8.3-1.3-12.8c1.6-3.1,3.9-5.5,6.6-7.7c4.7-3.9,10-6.8,15.5-9.4c7.9-3.7,16.2-6.6,24.6-9c6.4-1.8,12.9-3.4,19.5-4.7
		c5.5-1,11-2,16.5-2.8c5.4-0.8,10.8-1.3,16.2-1.9c4.1-0.4,8.3-0.7,12.5-0.9c6.2-0.2,12.4-0.4,18.6-0.3c5.4,0.1,10.7,0.4,16.1,0.8
		c7.3,0.6,14.5,1.6,21.6,3.3c6.3,1.5,12.5,3.4,18.3,6.6c2.3,1.3,4.4,2.8,6.2,4.6c4.2,4.4,4.8,9.6,1.6,14.8c-2,3.2-4.7,5.7-7.7,7.9
		c-5,3.8-10.5,6.7-16.2,9.2c-8.2,3.6-16.7,6.4-25.3,8.7c-6.8,1.8-13.7,3.4-20.7,4.6c-6.2,1.1-12.4,2-18.6,2.8
		c-10.3,1.3-20.6,2-30.9,2.2C75.1,121.7,73.6,121.6,72.1,121.6z M99.6,63.5c-4,0.1-7.9,0.2-11.9,0.4c-9.1,0.4-18.1,1.3-27.1,2.9
		c-7.1,1.3-14,2.9-20.8,5.4c-4.4,1.6-8.8,3.5-12.7,6.2c-2.4,1.7-4.5,3.6-5.9,6.1c-1.5,2.7-1.6,5.5-0.2,8.2c0.7,1.3,1.6,2.5,2.6,3.6
		c2.3,2.5,5.2,4.2,8.2,5.8c6.5,3.4,13.5,5.5,20.6,7.1c8.5,2,17.2,3.2,25.9,4c6.6,0.6,13.2,0.9,19.8,0.9c4.7,0,9.4-0.1,14.1-0.3
		c4.1-0.2,8.2-0.4,12.2-0.9c5.3-0.6,10.6-1.4,15.9-2.3c6.5-1.1,12.9-2.8,19.1-5c4.4-1.6,8.6-3.5,12.5-6.1c2.2-1.5,4.2-3.2,5.6-5.5
		c2.2-3.4,2.2-6.8,0-10.2c-0.9-1.4-2.1-2.6-3.3-3.7c-2.5-2.3-5.4-3.9-8.5-5.3c-6.4-3-13.2-5-20.1-6.6c-7.7-1.7-15.5-2.9-23.3-3.6
		C114.8,63.9,107.2,63.5,99.6,63.5z"/>
	<path d="M61.9,83.1c-2,0.4-3.8,0.9-5.7,1.2c-0.1,0-0.4-0.2-0.4-0.3c-1-2.1-2.4-3-4.6-2.7c-1.9,0.2-3.3,1.6-3.7,3.7
		c-0.4,2.2-0.4,4.5,0.3,6.6c0.5,1.5,1.6,2.4,3.1,2.6c2.6,0.3,4.1-0.7,4.9-3.1c0.1-0.3,0.2-0.7,0.4-1.2c2,0.6,3.9,1.2,5.9,1.8
		c-0.8,3.1-2.3,5.6-5.4,6.8c-2.3,1-4.8,0.9-7.3,0.6c-5.9-0.6-8.6-5.4-9-9.7c-0.2-2-0.1-4,0.4-5.9c1-3.6,3.3-6,7-6.9
		c2.9-0.7,5.8-0.7,8.7,0.3C59.4,78,60.9,80.3,61.9,83.1z"/>
	<path d="M138.1,101.2c1,0.1,1.9,0.2,2.8,0.3c1.4,0.1,2.4-0.6,2.9-1.8c0.1-0.3,0.1-0.7,0-1c-2.1-5-4.2-10-6.3-15
		c-0.1-0.2-0.1-0.4-0.2-0.6c0.2,0,0.4-0.1,0.5-0.1c1.8,0,3.5,0,5.3,0c0.4,0,0.6,0.2,0.7,0.6c0.9,3.1,1.9,6.3,2.9,9.4
		c0.1,0.2,0.2,0.4,0.4,0.6c0.1-0.2,0.2-0.4,0.3-0.7c0.9-3.1,1.8-6.3,2.7-9.4c0.1-0.3,0.2-0.5,0.6-0.5c1.7,0,3.5,0,5.2,0
		c0.1,0,0.2,0,0.3,0.1c-0.3,0.9-0.7,1.9-1,2.8c-1.8,4.9-3.6,9.9-5.5,14.8c-0.3,0.8-0.7,1.5-1.1,2.3c-0.8,1.5-2.1,2.3-3.8,2.6
		c-2,0.3-4,0.1-5.9-0.1c-0.1,0-0.3-0.2-0.3-0.3C138.4,103.7,138.2,102.4,138.1,101.2z"/>
	<path d="M137.5,94.9c-1.1,1.8-2.4,3.2-4.4,3.8c-2.7,0.8-5.4,0.9-8.1,0.2c-3.1-0.7-5.3-3.5-5.6-6.7c-0.2-1.7-0.1-3.3,0.6-4.9
		c1.2-2.7,3.2-4.2,6.1-4.7c2-0.4,4.1-0.3,6.1,0.2c3.1,0.8,4.9,2.8,5.5,5.9c0.2,0.9,0.2,1.9,0.3,2.9c0.1,0.6-0.1,0.8-0.7,0.8
		c-3.6,0-7.1,0-10.7,0c-1.1,0-1.1,0.1-0.8,1.1c0.8,2.5,3.7,3.2,5.5,1.3c0.3-0.3,0.5-0.5,0.9-0.4c1.6,0.2,3.3,0.3,5,0.5
		C137.2,94.8,137.3,94.8,137.5,94.9z M128.7,89.4c0.9,0,1.8,0,2.6,0c0.2,0,0.4-0.2,0.4-0.3c0.1-1.2-0.9-2.7-2.1-3
		c-2-0.5-3.8,0.7-4,2.8c0,0.4,0.1,0.5,0.5,0.5C126.9,89.4,127.8,89.4,128.7,89.4z"/>
	<path d="M84.1,99.3c-3,0-5.7-0.8-7.5-3.3c-2-2.6-2.2-5.5-1-8.5c1.1-2.9,3.4-4.5,6.4-5c2-0.3,3.9-0.3,5.8,0.3
		c3.6,1.1,5.9,4.5,5.6,8.4c-0.4,4.7-3.5,7.7-8.3,8C84.7,99.3,84.4,99.3,84.1,99.3z M87.3,91c-0.2-0.9-0.2-1.6-0.4-2.3
		c-0.4-1.2-1.2-2-2.5-2.1c-1.3-0.1-2.3,0.4-2.8,1.6c-0.9,1.8-0.9,3.7,0,5.6c0.5,1.1,1.4,1.6,2.6,1.6c1.2,0,2.1-0.7,2.6-1.8
		C87.1,92.6,87.2,91.8,87.3,91z"/>
	<path d="M93.6,94.6c1.1-0.1,2.1-0.2,3.2-0.3c0.8-0.1,1.5-0.2,2.3-0.2c0.2,0,0.5,0.2,0.6,0.3c0.9,1.7,2.9,2.3,4.5,1.3
		c0.5-0.3,0.9-0.7,0.8-1.3c-0.1-0.6-0.5-1-1-1.1c-1.6-0.4-3.2-0.7-4.9-1c-0.6-0.1-1.2-0.3-1.8-0.5c-1.8-0.7-2.9-1.9-3.1-3.9
		c-0.2-2,0.7-3.5,2.5-4.4c0.7-0.4,1.6-0.6,2.4-0.8c2-0.4,4.1-0.3,6.1,0c2.2,0.3,4.3,2,4.7,4c-0.2,0-0.3,0.1-0.5,0.1
		c-1.5,0.1-3,0.3-4.5,0.4c-0.4,0-0.6,0-0.8-0.4c-0.7-1.1-2.9-1.5-4-0.7c-0.8,0.6-0.7,1.7,0.3,2c0.9,0.3,1.8,0.4,2.7,0.5
		c1.3,0.2,2.6,0.4,3.8,0.7c1.5,0.4,2.7,1.3,3.4,2.8c0.8,2,0.1,4.4-1.8,5.7c-1,0.7-2.2,1.2-3.5,1.3c-2.5,0.3-5,0.3-7.4-0.3
		c-1.9-0.5-3.2-1.7-3.9-3.5c0-0.1-0.1-0.3-0.1-0.4C93.6,94.8,93.6,94.7,93.6,94.6z"/>
	<path d="M111.9,76.6c2,0,4,0,6.1,0c0,0.3,0,0.5,0,0.8c0,6.9,0,13.9,0,20.8c0,0.6-0.1,0.8-0.8,0.8c-1.6,0-3.2,0-4.7,0
		c-0.5,0-0.6-0.1-0.6-0.6c0-7.1,0-14.1,0-21.2C111.9,77,111.9,76.8,111.9,76.6z"/>
	<path d="M69.2,85.3c0.8-1.4,1.6-2.7,3.4-2.8c1.2-0.1,2.3,0.2,3.3,0.8c-0.6,1.4-1.2,2.8-1.9,4.2c-0.3-0.1-0.5-0.1-0.7-0.2
		c-1.5-0.5-2.8,0-3.3,1.6c-0.4,1.1-0.6,2.2-0.6,3.4c-0.1,2-0.1,4.1,0,6.1c0,0.5-0.1,0.7-0.7,0.7c-1.6,0-3.2,0-4.9,0
		c-0.5,0-0.6-0.2-0.6-0.6c0-5,0-9.9,0-14.9c0-0.5,0.1-0.6,0.6-0.6c1.5,0,3,0,4.4,0c0.5,0,0.7,0.1,0.6,0.6c0,0.6,0,1.2,0,1.8
		C69,85.2,69.1,85.2,69.2,85.3z"/>
</g>
</svg>
