<?xml version="1.0" encoding="utf-8"?>
<!-- Generator: Adobe Illustrator 26.2.1, SVG Export Plug-In . SVG Version: 6.00 Build 0)  -->
<svg version="1.1" id="Layer_1" xmlns="http://www.w3.org/2000/svg" xmlns:xlink="http://www.w3.org/1999/xlink" x="0px" y="0px"
	 viewBox="0 0 200 200" style="enable-background:new 0 0 200 200;" xml:space="preserve">
<style type="text/css">
	.st0{fill:none;}
</style>
<g id="dRyEyi_1_">
	<g>
		<path class="st0" d="M43.3,86c0-0.4,0-0.8,0-1c1.1-0.2,2.3-0.4,3.4-0.4c33.1-0.3,66.2,0.9,99.3-1.5c5.7-0.5,11.4-1.4,17.2-2.4
			c1.1-0.2,2.1-1.6,3.1-2.4c-0.9-0.9-1.8-2.3-2.8-2.6c-5.7-1.6-11.5-3.4-17.4-4.3c-13.5-2.2-27.1-2.4-40.7-2.1
			C90.2,69.6,75,70.1,60,73.1c-6.6,1.3-13.2,3.2-19.4,5.7c-5.3,2.2-5.3,6.3-0.3,9c4.2,2.3,8.9,4.1,13.5,5.5
			c21.5,6.6,43.6,7.9,65.8,8.2c22.3,0.3,44.6,0.2,67,0.2c1,0,2.2,0,3.2,0c0-7.9,0-15.4,0-22.5c-2.6,1.1-5.1,2.8-7.7,3.2
			c-11.5,1.9-23.1,4-34.7,4.7c-14.7,0.8-29.6,0.5-44.4,0.4c-18.4-0.1-36.9-0.5-55.2-0.8C46.3,86.6,44.8,86.2,43.3,86z M157.5,135.9
			c11.1,0,21.7,0,32.4,0c0-1,0-1.9,0-2.9c-8.3,0-16.3,0-24.6,0c0-3.8,0-7.1,0-10.9c7.3,0,14.4,0,21.6,0c0-1,0-1.9,0-2.9
			c-7.2,0-14.4,0-21.6,0c0-3.6,0-6.8,0-10.4c8.2,0,16,0,24.1,0c0-1.1,0-1.9,0-2.7c-23.3,0-46.4,0-69.6,0c-0.1,0.3-0.1,0.6-0.2,0.9
			c4.7,4.5,11.1,0.3,16.1,2.4c0,8.3,0,16.7,0,25.7c-0.9-1.2-1.4-1.9-1.9-2.5c-4.6-7.4-9.4-14.6-13.7-22.2c-2-3.5-4.1-5.1-8.2-4.7
			c-2.2,0.2-3.3,0.8-4.4,2.6c-4.8,8-9.7,15.9-14.6,23.7c-0.4,0.7-0.9,1.3-1.4,1.9c-0.6-8-0.6-15.6-0.6-23.3c0-1.7,1-1.9,2.3-1.9
			c3.2,0,6.4-0.1,9.6,0.1c2.3,0.1,3.6-0.6,4-2.9c-9.6-0.7-19-1.1-28.5-2.1c-14.4-1.4-28.9-2.7-43.1-5c-9.4-1.5-18.9-3.5-25.3-12.2
			c0,16.5,0,32.7,0,49.2c9.4,0,18.5-0.1,27.6,0c7.8,0.2,15.6,1,23.4,0.8c4.4-0.1,8.9-1.2,13.1-2.5c2.5-0.8,4.9-2.5,4.9-5.8
			c0-3.2-2.3-4.4-4.7-5.6c-1.8-0.8-3.7-1.5-5.5-2.2c-5.1-1.7-10.3-3.2-15.3-5.2c-1.2-0.5-2.8-2.3-2.7-3.4c0.1-1.1,1.8-2.9,3-3.2
			c3.9-0.8,8.1-1.3,12.1-1.3c4.8,0,9.6,0.7,14.3,1c0.9,0.1,2,0,3.4,0c0,9.1,0,18,0,27.1c3.5,0,6.6-0.3,9.7,0.1
			c3.8,0.5,6.4-0.7,7.7-4.3c0.8-2,2.2-2.5,4.2-2.4c5,0.2,10,0.2,15,0c2.8-0.1,4.5,0.8,5.7,3.2c0.7,1.3,1.7,3.3,2.6,3.3
			c5.1,0.4,10.1,0.2,15.5,0.2c0-9.3,0-18,0-26.6c0.5-0.2,0.7-0.3,0.8-0.4c2.8,0,5.6-0.1,8.4-0.1c4.7,0,4.4-0.7,4.4,4.3
			C157.5,120.7,157.5,128.2,157.5,135.9z M71.6,63.5c-20.5,0-41.1,0-61.5,0c0,6.1,0,11.9,0,18c4.9-6.7,11.7-9.6,19-11.5
			C43,66.1,57.4,64.6,71.6,63.5z M189.9,62.8c-21,0-41.6,0-62.9,0c11.4,1.2,22.2,2.1,33,3.6c10.2,1.4,20.8,2.1,30,7.8
			C189.9,70.4,189.9,66.8,189.9,62.8z"/>
		<path d="M43.3,86c1.5,0.2,3,0.7,4.6,0.7c18.4,0.3,36.9,0.7,55.2,0.8c14.8,0.1,29.6,0.5,44.4-0.4c11.6-0.7,23.2-2.9,34.7-4.7
			c2.6-0.4,5.1-2.1,7.7-3.2c0,7.1,0,14.6,0,22.5c-1.1,0-2.2,0-3.2,0c-22.3-0.1-44.6,0.1-67-0.2c-22.2-0.3-44.4-1.6-65.8-8.2
			c-4.6-1.4-9.3-3.2-13.5-5.5c-5-2.7-5-6.9,0.3-9c6.2-2.5,12.9-4.3,19.4-5.7c14.9-3.1,30.1-3.5,45.4-3.8c13.6-0.4,27.2-0.2,40.7,2.1
			c5.9,0.9,11.6,2.7,17.4,4.3c1.1,0.3,1.9,1.8,2.8,2.6c-1,0.8-2,2.3-3.1,2.4c-5.7,1-11.4,2-17.2,2.4c-33.1,2.4-66.2,1.3-99.3,1.5
			c-1.1,0-2.3,0.3-3.4,0.4C43.2,85.3,43.3,85.6,43.3,86z"/>
		<path d="M157.5,135.9c0-7.7,0-15.2,0-22.6c0-5,0.2-4.2-4.4-4.3c-2.8,0-5.6,0-8.4,0.1c-0.2,0-0.4,0.1-0.8,0.4c0,8.6,0,17.4,0,26.6
			c-5.3,0-10.4,0.2-15.5-0.2c-0.9-0.1-2-2.1-2.6-3.3c-1.2-2.4-2.9-3.3-5.7-3.2c-5,0.3-10,0.2-15,0c-2.1-0.1-3.5,0.5-4.2,2.4
			c-1.4,3.7-3.9,4.8-7.7,4.3c-3-0.4-6.2-0.1-9.7-0.1c0-9.1,0-18,0-27.1c-1.4,0-2.3,0.1-3.4,0c-4.8-0.4-9.6-1-14.3-1
			c-4,0-8.2,0.6-12.1,1.3c-1.2,0.3-2.9,2-3,3.2c-0.1,1.1,1.5,2.9,2.7,3.4c5.1,1.9,10.2,3.5,15.3,5.2c1.9,0.7,3.8,1.2,5.5,2.2
			c2.3,1.1,4.7,2.4,4.7,5.6c0,3.3-2.3,5.1-4.9,5.8c-4.2,1.2-8.7,2.4-13.1,2.5c-7.8,0.2-15.6-0.7-23.4-0.8c-9.1-0.2-18.2,0-27.6,0
			c0-16.4,0-32.6,0-49.2c6.4,8.7,15.9,10.8,25.3,12.2c14.3,2.3,28.7,3.6,43.1,5c9.5,0.9,18.9,1.3,28.5,2.1c-0.4,2.3-1.8,3-4,2.9
			c-3.2-0.2-6.4,0-9.6-0.1c-1.3,0-2.3,0.2-2.3,1.9c0,7.7,0,15.4,0.6,23.3c0.5-0.7,1-1.2,1.4-1.9c4.9-7.9,9.8-15.8,14.6-23.7
			c1.1-1.9,2.3-2.4,4.4-2.6c4-0.5,6.2,1.2,8.2,4.7c4.3,7.5,9.1,14.8,13.7,22.2c0.5,0.8,0.9,1.3,1.9,2.5c0-9.1,0-17.4,0-25.7
			c-5.2-2.3-11.5,2-16.1-2.4c0.1-0.3,0.1-0.6,0.2-0.9c23.2,0,46.3,0,69.6,0c0,0.8,0,1.6,0,2.7c-8,0-15.9,0-24.1,0
			c0,3.6,0,6.8,0,10.4c7.2,0,14.4,0,21.6,0c0,1,0,1.9,0,2.9c-7.1,0-14.3,0-21.6,0c0,3.7,0,7.1,0,10.9c8.3,0,16.3,0,24.6,0
			c0,1.1,0,2,0,2.9C179.2,135.9,168.6,135.9,157.5,135.9z M18,133c1.8,0,3.2,0,4.7,0c6.9,0,13.8-0.1,20.7,0.2
			c6.2,0.2,12.4,0.8,18.6,0.9c2.2,0,4.4-0.6,6.4-1.5c1.2-0.6,2.8-2.2,2.9-3.3c0-1.1-1.4-2.9-2.6-3.5c-3.4-1.5-6.9-2.5-10.4-3.8
			c-4-1.4-8.3-2.5-12-4.5c-4.7-2.4-4.4-6.8,0-9.6c1.1-0.7,2.3-1.2,3.9-2.2c-3,0-5.3,0-7.5,0c-0.3,1-0.5,2-0.8,3.1
			c-8.1,0-15.9,0-23.9,0c0,3.5,0,6.8,0,10.3c7.4,0,14.5,0,21.8,0c0,1.1,0,1.9,0,2.9c-7.3,0-14.4,0-21.8,0C18,125.8,18,129.2,18,133z
			 M122.1,126.6c-3.2-5.2-6.1-9.8-9.3-14.9c-3.1,5.2-5.8,9.8-8.8,14.9C110.2,126.6,115.8,126.6,122.1,126.6z"/>
		<path d="M71.6,63.5c-14.4,1.1-28.6,2.6-42.5,6.4c-7.3,2-14.2,5-19,11.6c0-6.1,0-11.9,0-18C30.6,63.5,51.1,63.5,71.6,63.5z"/>
		<path d="M189.9,62.8c0,3.9,0,7.6,0,11.3c-9.2-5.7-19.7-6.4-30-7.8c-10.8-1.4-21.6-2.3-33-3.6C148.3,62.8,169,62.8,189.9,62.8z"/>
	</g>
</g>
</svg>
