<?xml version="1.0" encoding="utf-8"?>
<!-- Generator: Adobe Illustrator 26.2.1, SVG Export Plug-In . SVG Version: 6.00 Build 0)  -->
<svg version="1.1" id="Layer_1" xmlns="http://www.w3.org/2000/svg" xmlns:xlink="http://www.w3.org/1999/xlink" x="0px" y="0px"
	 viewBox="0 0 200 200" style="enable-background:new 0 0 200 200;" xml:space="preserve">
<g>
	<g>
		<path d="M59.6,97.2h-6v-4.8h-2.7v15.7h2.7v-3.7h-1.5v-4.8h7.5v9.5l-3.9,3.7H49l-4.2-3.7V91.4l4-3.7h6.8l4.1,3.7L59.6,97.2
			L59.6,97.2z"/>
		<path d="M68.2,108.3h5.4v4.8H62.2V87.8h6V108.3z"/>
		<path d="M92,113H86l-0.5-4.7H82l-0.5,4.7h-5.9l3.7-25.3H88L92,113z M83.9,93.1h-0.5l-0.9,10.5h2.7L83.9,93.1z"/>
		<path d="M109.2,109.4l-3.8,3.7H94.8V87.8h10.2l4,3.7L109.2,109.4L109.2,109.4z M100.8,92.5v15.7h2.5V92.5H100.8z"/>
		<path d="M118.6,113h-5.9V87.8h5.9V113z"/>
		<path d="M137.3,113h-5.9l-0.5-4.7h-3.5l-0.5,4.7H121l3.7-25.3h8.7L137.3,113z M129.3,93.1h-0.5l-0.9,10.5h2.7L129.3,93.1z"/>
		<path d="M150.2,92.5h-3.4V113h-6V92.5h-3.4v-4.8h12.8V92.5z"/>
		<path d="M166.8,109.4l-3.8,3.7h-6.7l-3.9-3.7V91.4l3.9-3.7h6.5l4.1,3.7L166.8,109.4L166.8,109.4z M158.2,92.5v15.7h2.6V92.5H158.2
			z"/>
		<path d="M184.2,98l-3,2.5l3,2.5V113h-5.9V103h-2.6V113h-6V87.8h10.3l4,3.7L184.2,98L184.2,98z M175.9,92.5v5.7h2.6v-5.7H175.9z"/>
		<g>
			<path d="M188.1,88.8h-0.3v2h-0.5v-2H187v-0.5h1.2L188.1,88.8L188.1,88.8z"/>
			<path d="M190,90.8h-0.5v-1.6l0,0l-0.3,1.6H189l-0.3-1.6l0,0v1.6h-0.5v-2.5h0.6l0.2,1.2h0.1l0.2-1.2h0.6L190,90.8L190,90.8z"/>
		</g>
	</g>
	<g>
		<path d="M39.2,84.9c0.6,1.4-11.8,10.4-18.4,13.5l-2.7-2.3c-0.6-1.3,11.6-10.5,18.2-13.7L39.2,84.9z"/>
		<path d="M28.4,111.6c-1.1,1-13.5-8.2-18.4-13.6l1.4-3.2c1.1-1,13.5,8.1,18.5,13.5L28.4,111.6z"/>
		<path d="M32.2,117.5c-1.5-0.2-2.1-15.6-1.1-22.9l3.4-1c1.5,0.2,2.4,15.6,1.4,22.8L32.2,117.5z"/>
	</g>
</g>
</svg>
