<?xml version="1.0" encoding="utf-8"?>
<!-- Generator: Adobe Illustrator 26.2.1, SVG Export Plug-In . SVG Version: 6.00 Build 0)  -->
<svg version="1.1" id="Layer_1" xmlns="http://www.w3.org/2000/svg" xmlns:xlink="http://www.w3.org/1999/xlink" x="0px" y="0px"
	 viewBox="0 0 200 200" style="enable-background:new 0 0 200 200;" xml:space="preserve">
<style type="text/css">
	.st0{fill-rule:evenodd;clip-rule:evenodd;}
</style>
<g>
	<path class="st0" d="M143.2,125.2c1.5,0,2.2,1.2,2.2,2.7c-0.1,1.9-1.3,4-3.3,4c-1.6,0-2.3-1.1-2.3-2.6
		C139.8,127.2,141,125.2,143.2,125.2v-0.9c-2.8,0-4.4,2.3-4.5,4.9c-0.1,2.2,1.1,3.5,3.3,3.5c2.7,0,4.3-2.3,4.4-4.8
		c0.1-1.9-1.1-3.5-3.2-3.5L143.2,125.2L143.2,125.2z"/>
	<path class="st0" d="M92.4,125.2c1.5,0,2.2,1.2,2.2,2.7c-0.1,1.9-1.3,4-3.3,4c-1.6,0-2.3-1.1-2.3-2.6
		C89,127.2,90.1,125.2,92.4,125.2v-0.9c-2.8,0-4.4,2.3-4.5,4.9c-0.1,2.2,1.1,3.5,3.3,3.5c2.7,0,4.3-2.3,4.4-4.8
		c0.1-1.9-1.1-3.5-3.2-3.5V125.2L92.4,125.2z"/>
	<path class="st0" d="M174,90.1c-6.6-0.6-12.7,0.8-25.9,6.7l7.3-29.5h24.4L174,90.1L174,90.1z"/>
	<path class="st0" d="M172.3,97c-8.2-2.9-19.9,2.6-22.7,3.5c-0.6,0.2-1.5,0.6-2.8,0.9l-4.4,17.4h43.4l4.2-17.2h-18.9L172.3,97
		L172.3,97z"/>
	<path class="st0" d="M73.1,95.8c-6.3-2.5-11.5-4.7-14.9-5.7c-20.6-6.5-36,4.2-39.8,7.7l7.5-30.5h24.4L46,84.4h5.4l4.3-17.2h24.4
		L73.1,95.8L73.1,95.8z"/>
	<path class="st0" d="M75.8,97c11.6,4.5,26.2,9.5,39.3,10.1l1.4-5.4H98.8l0.7-3h12.9l2.9-11.4h-12.9l0.8-3h17.6l4.2-17.2h-42
		L75.8,97L75.8,97z"/>
	<path class="st0" d="M143.7,102.5c-5.3,1.6-12.9,3.7-18.3,4.2c6.7-1.8,12.2-5.3,16.8-7.1c0.7-0.4,1.8-0.7,2.5-1l7.8-31.3h-24.4
		l-10,39.9c2.1,0,5-0.1,6.9-0.5c-1.8,1.3-4.9,2.2-7.5,2.8l-2.4,9.3h24.4L143.7,102.5L143.7,102.5z"/>
	<path class="st0" d="M114.3,110.1c-6.6,0.8-14.5-0.1-22.6-2.4c-4.9-1.4-11-3.6-17.2-5.9l-4.3,17.1h42L114.3,110.1L114.3,110.1z"/>
	<path class="st0" d="M71.7,100.7c-9-3.3-17.8-6.6-22.4-7.1c-5.7-0.5-18.4-4.7-31.6,6.7L13.1,119h24.4l4.3-17.2h5.4L42.9,119h24.4
		L71.7,100.7L71.7,100.7z"/>
	<polygon class="st0" points="12,124.5 13,124.5 12.2,128 16.4,128 17.2,124.5 18.3,124.5 16.4,132.5 15.3,132.5 16.2,128.9 
		12,128.9 11.1,132.5 10,132.5 	"/>
	<polygon class="st0" points="20.1,124.5 25.6,124.5 25.3,125.4 20.9,125.4 20.3,128 24.4,128 24.2,128.9 20.1,128.9 19.4,131.6 
		23.9,131.6 23.7,132.5 18.1,132.5 	"/>
	<polygon class="st0" points="30.3,130.1 30.6,132.5 31.7,132.5 30.5,124.5 29.3,124.5 24.2,132.5 25.4,132.5 26.9,130.1 
		27.4,129.2 29.7,125.5 29.7,125.5 30.2,129.2 27.4,129.2 26.9,130.1 	"/>
	<polygon class="st0" points="39.1,125.4 36.4,125.4 34.6,132.5 33.5,132.5 35.3,125.4 32.6,125.4 32.8,124.5 39.2,124.5 	"/>
	<polygon class="st0" points="40.4,124.5 41.5,124.5 39.5,132.5 38.5,132.5 	"/>
	<polygon class="st0" points="43.5,124.5 44.6,124.5 47.2,131.1 47.3,131.1 48.8,124.5 49.9,124.5 47.8,132.5 46.7,132.5 
		44.1,125.9 44.1,125.9 42.6,132.5 41.5,132.5 	"/>
	<path class="st0" d="M57.7,126c-0.4-1.2-1.6-1.7-3-1.7c-2.8,0-4.4,2.3-4.5,4.9c-0.1,2.2,1.1,3.5,3.3,3.5c0.8,0,2.7-0.4,3.3-1
		l0.8-3.3h-3.5l-0.2,0.9h2.5l-0.4,1.8c-0.6,0.4-1.4,0.7-2.5,0.7c-1.6,0-2.3-1.1-2.3-2.6c0.1-1.9,1.2-4,3.4-4c0.9,0,1.7,0.4,1.9,1.1
		L57.7,126L57.7,126z"/>
	<path class="st0" d="M64.6,128.3l1.2,2c0.4-0.5,0.6-1.1,0.7-1.7h0.9c-0.3,1.1-0.6,1.7-1.2,2.3l0.9,1.5h-1.1l-0.5-0.8
		c-0.6,0.6-1.4,0.9-2.3,0.9c-1.2,0-2.2-0.7-2.1-2c0.1-1.3,1.2-2,2.3-2.5l0.8-0.4c0.6-0.4,1.5-0.7,1.5-1.5c0-0.5-0.4-0.8-0.8-0.8
		c-0.6,0-1,0.4-1.1,1c0,0.5,0.2,0.9,0.5,1.3l-0.8,0.4c-0.3-0.5-0.6-1-0.6-1.8c0-1.1,0.9-1.8,2-1.8c0.9,0,1.8,0.5,1.8,1.5
		C66.6,127.1,65.5,127.8,64.6,128.3l-0.8,0.5c-0.7,0.4-1.8,0.9-1.8,1.8c0,0.7,0.6,1.2,1.3,1.2c0.7,0,1.2-0.3,1.8-0.7l-1.4-2.3
		L64.6,128.3L64.6,128.3z"/>
	<path class="st0" d="M83.9,125.2c1.5,0,2.2,1.2,2.2,2.7c-0.1,1.9-1.3,4-3.3,4c-1.6,0-2.3-1.1-2.3-2.6
		C80.5,127.2,81.7,125.2,83.9,125.2v-0.9c-2.8,0-4.4,2.3-4.5,4.9c-0.1,2.2,1.1,3.5,3.3,3.5c2.7,0,4.3-2.3,4.4-4.8
		c0.1-1.9-1.1-3.5-3.2-3.5V125.2L83.9,125.2z"/>
	<polygon class="st0" points="97.9,124.5 98.9,124.5 97.3,131.6 101.4,131.6 101.2,132.5 95.9,132.5 	"/>
	<polygon class="st0" points="103.9,124.5 104.9,124.5 103,132.5 101.9,132.5 	"/>
	<polygon class="st0" points="107,124.5 108.1,124.5 110.7,131.1 110.7,131.1 112.3,124.5 113.3,124.5 111.3,132.5 110.2,132.5 
		107.6,125.9 107.6,125.9 106,132.5 104.9,132.5 	"/>
	<path class="st0" d="M127.1,125.4h2.2c0.7,0,1.3,0.4,1.3,1.3c0,0.9-0.6,1.7-1.8,1.7h-2.4l-0.2,0.9h2.4c2.3,0,3.1-1.5,3.1-2.5
		c0.1-1.5-0.7-2.2-2.3-2.2h-3.1l-1.9,7.9h1.1L127.1,125.4L127.1,125.4z"/>
	<path class="st0" d="M133.8,125.4h2.2c0.8,0,1.6,0.2,1.6,1.2c0,0.6-0.4,1.6-2,1.6h-2.4l-0.2,0.9h2.4c0.5,0,1.6-0.2,1.1,1.7
		c-0.2,0.8-0.2,1.4-0.1,1.8h1.1c-0.3-0.6,0-1.3,0.1-2c0.1-0.8-0.1-1.5-0.7-1.8l0,0c1.1-0.2,1.8-1.1,1.8-2.1c0.1-1.6-1.2-2-2.6-2h-3
		l-1.9,7.9h1.1L133.8,125.4L133.8,125.4z"/>
	<path class="st0" d="M148.4,124.5h2.8c2,0,3,1.2,3,3c-0.1,3-1.9,4.9-4.6,4.9h-3l1.3-0.9h1.8c2.2,0,3.4-2,3.5-4
		c0-1.2-0.4-2.3-2.1-2.3h-1.7l-1.6,6.2l-1.3,0.9L148.4,124.5L148.4,124.5z"/>
	<path class="st0" d="M161.1,129.3c-0.2,0.6-0.3,1.2-0.5,1.6c-0.6,1.3-1.8,1.8-3.1,1.8c-2.3,0-3.3-1.3-2.8-3.5l1.2-4.7h1.1l-1.2,5
		c-0.4,1.6,0.3,2.3,1.8,2.3c1.8,0,2.1-1,2.5-2.5l1.2-4.8h1.1L161.1,129.3L161.1,129.3z"/>
	<polygon class="st0" points="177.7,125.4 175.1,125.4 173.3,132.5 172.3,132.5 174,125.4 171.4,125.4 171.5,124.5 178,124.5 	"/>
	<path class="st0" d="M183.4,126.4c-0.1-0.9-0.8-1.2-1.8-1.2c-0.7,0-1.8,0.4-1.8,1.3c0,0.7,0.6,1.1,1.3,1.3l1.1,0.3
		c1,0.3,1.9,0.7,1.8,2.1c-0.1,1.7-1.8,2.4-3.2,2.4c-1.7,0-2.9-0.6-3-2.1l1.1-0.2c0.1,1,0.9,1.4,2,1.4c1,0,2-0.5,2-1.6
		c0-0.8-0.6-1.1-1.4-1.3l-1.1-0.3c-0.9-0.3-1.8-0.8-1.8-2c0.1-1.6,1.6-2.3,3-2.3c1.3,0,2.5,0.6,2.8,1.8L183.4,126.4L183.4,126.4z"/>
	<path class="st0" d="M121.1,126c-0.4-1.2-1.6-1.7-3-1.7c-2.8,0-4.4,2.3-4.5,4.9c-0.1,2.2,1.1,3.5,3.3,3.5c0.8,0,2.7-0.4,3.3-1
		l0.8-3.3h-3.6l-0.2,0.9h2.5l-0.4,1.8c-0.6,0.4-1.4,0.7-2.5,0.7c-1.6,0-2.3-1.1-2.3-2.6c0.1-1.9,1.2-4,3.4-4c0.9,0,1.7,0.4,1.9,1.1
		L121.1,126L121.1,126z"/>
	<path class="st0" d="M170.5,126c-0.3-1.2-1.4-1.8-2.9-1.8c-2.8,0-4.4,2.3-4.5,4.9c-0.1,2.2,1.1,3.5,3.3,3.5c1.5,0,2.5-0.6,3.1-1.7
		l-0.8-0.6c-0.5,0.8-1.2,1.4-2.3,1.4c-1.6,0-2.3-1.1-2.3-2.6c0.1-1.9,1.2-4,3.4-4c1,0,1.7,0.5,1.9,1.1L170.5,126L170.5,126z"/>
	<path class="st0" d="M79.1,126c-0.3-1.2-1.4-1.8-2.9-1.8c-2.8,0-4.4,2.3-4.5,4.9c-0.1,2.2,1.1,3.5,3.3,3.5c1.5,0,2.5-0.6,3.1-1.7
		l-0.8-0.6c-0.5,0.8-1.2,1.4-2.3,1.4c-1.6,0-2.3-1.1-2.3-2.6c0.1-1.9,1.2-4,3.4-4c1,0,1.7,0.5,1.9,1.1L79.1,126L79.1,126z"/>
</g>
</svg>
