<?xml version="1.0" encoding="utf-8"?>
<!-- Generator: Adobe Illustrator 26.2.1, SVG Export Plug-In . SVG Version: 6.00 Build 0)  -->
<svg version="1.1" id="Layer_1" xmlns="http://www.w3.org/2000/svg" xmlns:xlink="http://www.w3.org/1999/xlink" x="0px" y="0px"
	 viewBox="0 0 200 200" style="enable-background:new 0 0 200 200;" xml:space="preserve">
<style type="text/css">
	.st0{fill:#231F20;}
	
		.st1{clip-path:url(#SVGID_00000026152956104256380400000003485277678820658356_);fill:#FFFFFF;stroke:#FFFFFF;stroke-width:2;stroke-miterlimit:10;}
	
		.st2{clip-path:url(#SVGID_00000067937778721568335950000015568451285324351135_);fill:#FFFFFF;stroke:#FFFFFF;stroke-width:2;stroke-miterlimit:10;}
</style>
<g>
	<path d="M49.3,41.6c-2.9,0-5.2,2.3-5.7,5.6H55C54.6,44.4,52.9,41.6,49.3,41.6"/>
	<path d="M125.5,55.9c3.8,0,6.6-3,6.6-7l0,0v-0.1c0-4-3-7.1-6.7-7.1c-3.8,0-6.6,3-6.6,7.1C118.9,52.8,121.8,55.9,125.5,55.9"/>
	<path d="M159.8,41.6c-2.9,0-5.2,2.3-5.7,5.6h11.5C165,44.5,163.4,41.6,159.8,41.6"/>
	<path d="M53.9,99c-16.4-6-28.7-1.8-43.8,15.5v7.1c15.9-6.5,31.1-14.3,45.8-21.9L53.9,99z M48.6,146.9c-0.6-0.6-1.2-1-2-1.4
		s-1.8-0.6-2.8-0.6c-1-0.1-2-0.1-3-0.1h-5.1v9h6.6c0.9,0,1.8-0.1,2.6-0.2c0.8-0.2,1.6-0.4,2.2-0.7c0.6-0.4,1.2-0.8,1.6-1.4
		c0.4-0.6,0.6-1.3,0.6-2.2S49.2,147.5,48.6,146.9z M48.6,146.9c-0.6-0.6-1.2-1-2-1.4s-1.8-0.6-2.8-0.6c-1-0.1-2-0.1-3-0.1h-5.1v9
		h6.6c0.9,0,1.8-0.1,2.6-0.2c0.8-0.2,1.6-0.4,2.2-0.7c0.6-0.4,1.2-0.8,1.6-1.4c0.4-0.6,0.6-1.3,0.6-2.2S49.2,147.5,48.6,146.9z
		 M48.6,146.9c-0.6-0.6-1.2-1-2-1.4s-1.8-0.6-2.8-0.6c-1-0.1-2-0.1-3-0.1h-5.1v9h6.6c0.9,0,1.8-0.1,2.6-0.2c0.8-0.2,1.6-0.4,2.2-0.7
		c0.6-0.4,1.2-0.8,1.6-1.4c0.4-0.6,0.6-1.3,0.6-2.2S49.2,147.5,48.6,146.9z M96.6,146.8c-0.5-0.6-1.1-1-1.8-1.3
		c-0.7-0.3-1.6-0.5-2.5-0.6c-0.9-0.1-1.8-0.2-2.8-0.2h-6.6v8.7H89c0.9,0,1.8,0,2.9-0.1c1-0.1,1.9-0.2,2.7-0.5c0.8-0.3,1.5-0.6,2-1.3
		c0.6-0.6,0.8-1.4,0.8-2.4C97.4,148.2,97.1,147.4,96.6,146.8z M156.8,151.8c-0.6-1.5-1.6-2.8-2.9-3.9c-1.2-1.1-2.7-1.9-4.4-2.5
		c-1.8-0.6-3.7-0.9-5.8-0.9c-2.1,0-4.1,0.3-5.8,0.9s-3.2,1.5-4.4,2.5c-1.2,1.1-2.2,2.4-2.9,3.9c-0.7,1.5-1,3-1,4.8
		c0,1.8,0.4,3.4,1,4.9c0.6,1.5,1.6,2.8,2.9,3.8c1.2,1.1,2.7,1.9,4.4,2.5c1.8,0.6,3.7,0.9,5.8,0.9c2.1,0,4.1-0.3,5.8-0.9
		s3.2-1.5,4.4-2.5c1.2-1.1,2.2-2.4,2.9-3.8c0.6-1.5,1-3,1-4.9C157.9,154.9,157.5,153.3,156.8,151.8z M156.8,151.8
		c-0.6-1.5-1.6-2.8-2.9-3.9c-1.2-1.1-2.7-1.9-4.4-2.5c-1.8-0.6-3.7-0.9-5.8-0.9c-2.1,0-4.1,0.3-5.8,0.9s-3.2,1.5-4.4,2.5
		c-1.2,1.1-2.2,2.4-2.9,3.9c-0.7,1.5-1,3-1,4.8c0,1.8,0.4,3.4,1,4.9c0.6,1.5,1.6,2.8,2.9,3.8c1.2,1.1,2.7,1.9,4.4,2.5
		c1.8,0.6,3.7,0.9,5.8,0.9c2.1,0,4.1-0.3,5.8-0.9s3.2-1.5,4.4-2.5c1.2-1.1,2.2-2.4,2.9-3.8c0.6-1.5,1-3,1-4.9
		C157.9,154.9,157.5,153.3,156.8,151.8z M96.6,146.8c-0.5-0.6-1.1-1-1.8-1.3c-0.7-0.3-1.6-0.5-2.5-0.6c-0.9-0.1-1.8-0.2-2.8-0.2
		h-6.6v8.7H89c0.9,0,1.8,0,2.9-0.1c1-0.1,1.9-0.2,2.7-0.5c0.8-0.3,1.5-0.6,2-1.3c0.6-0.6,0.8-1.4,0.8-2.4
		C97.4,148.2,97.1,147.4,96.6,146.8z M48.6,146.9c-0.6-0.6-1.2-1-2-1.4s-1.8-0.6-2.8-0.6c-1-0.1-2-0.1-3-0.1h-5.1v9h6.6
		c0.9,0,1.8-0.1,2.6-0.2c0.8-0.2,1.6-0.4,2.2-0.7c0.6-0.4,1.2-0.8,1.6-1.4c0.4-0.6,0.6-1.3,0.6-2.2S49.2,147.5,48.6,146.9z
		 M67.8,104.2l-9-3.3c-4.2,2.5-8.5,5.1-12.8,7.8c-11.5,7.1-23.6,14.3-36,19.7l0.1,41.7c0,8.4,6.7,15.1,15.1,15.1h140
		c8.3,0,15.1-6.7,15.1-15.1v-37.7C141.1,135.4,100.6,116.5,67.8,104.2z M58.5,154.8c-0.8,1.5-2,2.7-3.5,3.6s-3.2,1.5-5.3,1.8
		c-2,0.4-4.2,0.6-6.6,0.6h-7.3v14.7h-10v-37.7h16.8c2.3,0,4.5,0.2,6.6,0.6c2.1,0.4,3.9,0.9,5.4,1.8c1.6,0.8,2.8,2,3.7,3.5
		c0.9,1.5,1.4,3.3,1.4,5.5S59.3,153.3,58.5,154.8z M97.5,175.4L88,160.3h-4.9v15.1h-10v-37.6h17.5c2.3,0,4.4,0.2,6.6,0.6
		c2,0.4,3.9,1,5.4,1.8c1.6,0.8,2.8,2,3.7,3.5c0.9,1.5,1.4,3.3,1.4,5.5c0,2.7-0.8,4.9-2.5,6.7c-1.7,1.8-4.1,3-7.3,3.5l11.5,15.9
		L97.5,175.4L97.5,175.4z M166.4,164.8c-1.2,2.4-2.9,4.5-5.1,6.3c-2.1,1.8-4.7,3-7.8,4c-3,0.9-6.3,1.4-9.8,1.4
		c-3.5,0-6.8-0.5-9.8-1.4c-3-0.9-5.5-2.2-7.8-4s-3.9-3.8-5.1-6.3c-1.3-2.5-1.8-5.2-1.8-8.2c0-3,0.6-5.7,1.8-8.2
		c1.2-2.4,2.9-4.5,5.1-6.3c2.1-1.8,4.7-3,7.8-4c3-0.9,6.3-1.4,9.8-1.4c3.5,0,6.7,0.5,9.8,1.4c3,0.9,5.5,2.2,7.8,4
		c2.2,1.8,3.9,3.8,5.1,6.3c1.2,2.4,1.8,5.2,1.8,8.2C168.2,159.7,167.6,162.3,166.4,164.8z M154,147.9c-1.2-1.1-2.7-1.9-4.4-2.5
		c-1.8-0.6-3.7-0.9-5.8-0.9c-2.1,0-4.1,0.3-5.8,0.9s-3.2,1.5-4.4,2.5c-1.2,1.1-2.2,2.4-2.9,3.9c-0.7,1.5-1,3-1,4.8
		c0,1.8,0.4,3.4,1,4.9c0.6,1.5,1.6,2.8,2.9,3.8c1.2,1.1,2.7,1.9,4.4,2.5c1.8,0.6,3.7,0.9,5.8,0.9c2.1,0,4.1-0.3,5.8-0.9
		s3.2-1.5,4.4-2.5c1.2-1.1,2.2-2.4,2.9-3.8c0.6-1.5,1-3,1-4.9c0-1.8-0.4-3.3-1-4.8C156.2,150.3,155.3,149,154,147.9z M94.9,145.5
		c-0.7-0.3-1.6-0.5-2.5-0.6c-0.9-0.1-1.8-0.2-2.8-0.2h-6.6v8.7H89c0.9,0,1.8,0,2.9-0.1c1-0.1,1.9-0.2,2.7-0.5c0.8-0.3,1.5-0.6,2-1.3
		c0.6-0.6,0.8-1.4,0.8-2.4c0-0.9-0.3-1.8-0.7-2.3C96.2,146.3,95.5,145.8,94.9,145.5z M46.6,145.5c-0.8-0.4-1.8-0.6-2.8-0.6
		c-1-0.1-2-0.1-3-0.1h-5.1v9h6.6c0.9,0,1.8-0.1,2.6-0.2c0.8-0.2,1.6-0.4,2.2-0.7c0.6-0.4,1.2-0.8,1.6-1.4c0.4-0.6,0.6-1.3,0.6-2.2
		s-0.3-1.8-0.8-2.3C48.1,146.4,47.4,145.9,46.6,145.5z M48.6,146.9c-0.6-0.6-1.2-1-2-1.4s-1.8-0.6-2.8-0.6c-1-0.1-2-0.1-3-0.1h-5.1
		v9h6.6c0.9,0,1.8-0.1,2.6-0.2c0.8-0.2,1.6-0.4,2.2-0.7c0.6-0.4,1.2-0.8,1.6-1.4c0.4-0.6,0.6-1.3,0.6-2.2S49.2,147.5,48.6,146.9z
		 M96.6,146.8c-0.5-0.6-1.1-1-1.8-1.3c-0.7-0.3-1.6-0.5-2.5-0.6c-0.9-0.1-1.8-0.2-2.8-0.2h-6.6v8.7H89c0.9,0,1.8,0,2.9-0.1
		c1-0.1,1.9-0.2,2.7-0.5c0.8-0.3,1.5-0.6,2-1.3c0.6-0.6,0.8-1.4,0.8-2.4C97.4,148.2,97.1,147.4,96.6,146.8z M96.6,146.8
		c-0.5-0.6-1.1-1-1.8-1.3c-0.7-0.3-1.6-0.5-2.5-0.6c-0.9-0.1-1.8-0.2-2.8-0.2h-6.6v8.7H89c0.9,0,1.8,0,2.9-0.1
		c1-0.1,1.9-0.2,2.7-0.5c0.8-0.3,1.5-0.6,2-1.3c0.6-0.6,0.8-1.4,0.8-2.4C97.4,148.2,97.1,147.4,96.6,146.8z M48.6,146.9
		c-0.6-0.6-1.2-1-2-1.4s-1.8-0.6-2.8-0.6c-1-0.1-2-0.1-3-0.1h-5.1v9h6.6c0.9,0,1.8-0.1,2.6-0.2c0.8-0.2,1.6-0.4,2.2-0.7
		c0.6-0.4,1.2-0.8,1.6-1.4c0.4-0.6,0.6-1.3,0.6-2.2S49.2,147.5,48.6,146.9z M165.2,14.8H25.2c-8.4,0-15.1,6.7-15.1,15.1v66.1
		C25,85.4,39.6,88.3,56.5,96c1.2,0.6,2.3,1,3.4,1.6c10.8-5.7,20.5-11.5,29.8-15.4c37-15.3,63.7-14.8,90.4,7V30
		C180.2,21.6,173.5,14.8,165.2,14.8z M25.1,58.7h-4V33.6h4V58.7z M36.4,58.6L25.9,46.2l10.5-12.3h4.8L30.5,46.2l10.7,12.5H36.4z
		 M58.8,50.4H43.6c0.6,3.4,3,5.5,6.3,5.5c2.2,0,4.1-0.8,5.7-2.6l0.3-0.3l2.4,2.1l-0.2,0.2L58,55.5c-2.3,2.6-4.9,3.8-8.2,3.8
		c-2.9,0-5.4-1.1-7.1-3c-1.8-1.8-2.9-4.5-2.9-7.4c0-6,4.1-10.5,9.6-10.5c5.6,0,9.3,4.3,9.4,10.6L58.8,50.4z M78.7,58.9H75V47.3
		c0-3.4-1.8-5.4-4.9-5.4c-3.1,0-5.4,2.3-5.4,5.6v11.5h-3.7v-20h3.7v2.5c1.6-1.9,3.6-3,6.2-3c4.7,0,7.8,3.2,7.8,8.1V58.9z
		 M112.4,58.8h-3.7V47.3c0-3.5-1.7-5.4-4.6-5.4c-2.5,0-4.9,1.7-4.9,5.5V59h-3.7V47.2c0-3.4-1.7-5.3-4.5-5.4c-2.9,0-5,2.3-5,5.6v11.4
		h-3.7V38.9h3.8v2.4c1.2-1.5,3-2.9,5.8-2.9c2.7,0,4.9,1.3,6.2,3.5c1.7-2.3,3.9-3.5,6.7-3.5c4.6,0,7.6,3.1,7.6,8.1
		C112.4,46.5,112.4,58.8,112.4,58.8z M125.4,59.3c-5.8,0-10.3-4.5-10.3-10.3v-0.1c0-5.8,4.6-10.4,10.4-10.4
		c5.8,0,10.4,4.6,10.4,10.4C136,54.7,131.4,59.3,125.4,59.3z M150,42.2h-0.6c-4.4,0-7.2,3.2-7.2,8.4v8.1h-3.7v-20h3.7v3.9
		c1.7-2.7,4.2-4.2,7.1-4.2h0.7V42.2z M169.2,50.4h-15.1c0.6,3.4,3,5.5,6.3,5.5c2.2,0,4.1-0.8,5.7-2.6l0.3-0.3l2.4,2.1l-0.3,0.3
		c-2.3,2.6-4.9,3.8-8.2,3.8c-2.9,0-5.4-1.1-7.1-3c-1.8-1.8-2.9-4.5-2.9-7.4c-0.1-5.9,4.1-10.4,9.6-10.4c5.6,0,9.3,4.3,9.4,10.6
		L169.2,50.4z M98.5,83.9C86,86.5,74.3,92.1,62.6,98.7c44.4,19.6,83.1,27.9,117.8,25.3v-7.4C156.4,94.5,134.6,76.4,98.5,83.9z"/>
	<polygon class="st0" points="183.8,180 180.8,180 180.8,180.7 182,180.7 182,185 182.6,185 182.6,180.7 183.8,180.7 	"/>
	<polygon class="st0" points="188.7,179.8 187.1,183.5 185.6,179.8 184.3,185 184.9,185 185.8,181.8 185.8,181.8 187.1,185.2 
		188.5,181.8 188.5,181.8 189.4,185 190,185 	"/>
	<g>
		<g>
			<defs>
				<path id="SVGID_1_" d="M166.4,148.4c-1.2-2.5-2.9-4.5-5.1-6.3c-2.2-1.8-4.8-3-7.8-4c-3-0.9-6.3-1.4-9.8-1.4
					c-3.5,0-6.8,0.5-9.8,1.4c-3,0.9-5.6,2.2-7.8,4c-2.2,1.8-3.9,3.9-5.1,6.3c-1.2,2.5-1.8,5.2-1.8,8.2s0.6,5.7,1.8,8.2
					c1.2,2.5,2.9,4.5,5.1,6.3c2.2,1.8,4.8,3,7.8,4c3,0.9,6.3,1.4,9.8,1.4c3.5,0,6.8-0.5,9.8-1.4c3-0.9,5.6-2.2,7.8-4
					c2.2-1.8,3.9-3.9,5.1-6.3c1.2-2.5,1.8-5.2,1.8-8.2C168.2,153.6,167.6,150.8,166.4,148.4z M156.8,161.5c-0.6,1.4-1.7,2.7-2.9,3.8
					c-1.2,1-2.7,1.8-4.4,2.5c-1.8,0.6-3.7,0.9-5.8,0.9c-2.1,0-4.1-0.3-5.8-0.9c-1.8-0.6-3.2-1.4-4.4-2.5c-1.3-1-2.2-2.3-2.9-3.8
					c-0.6-1.5-1-3.1-1-4.9s0.3-3.3,1-4.8c0.6-1.5,1.7-2.8,2.9-3.9c1.2-1,2.7-1.8,4.4-2.5c1.8-0.6,3.7-0.9,5.8-0.9
					c2.1,0,4.1,0.3,5.8,0.9c1.8,0.6,3.2,1.4,4.4,2.5c1.3,1.1,2.2,2.4,2.9,3.9c0.6,1.5,1,3,1,4.8C157.9,158.5,157.5,160,156.8,161.5z
					"/>
			</defs>
			<clipPath id="SVGID_00000075840841986863225510000008487096867701229444_">
				<use xlink:href="#SVGID_1_"  style="overflow:visible;"/>
			</clipPath>
			
				<path style="clip-path:url(#SVGID_00000075840841986863225510000008487096867701229444_);fill:#FFFFFF;stroke:#FFFFFF;stroke-width:2;stroke-miterlimit:10;" d="
				M58.4,143.7c-0.9-1.5-2.1-2.7-3.7-3.5c-1.6-0.9-3.3-1.5-5.4-1.8c-2.1-0.4-4.3-0.6-6.6-0.6H25.8v37.7h10v-14.7h7.3
				c2.4,0,4.6-0.2,6.6-0.6c2-0.4,3.8-0.9,5.3-1.8c1.5-0.9,2.7-2.1,3.5-3.6c0.8-1.5,1.3-3.3,1.3-5.5C59.8,147,59.3,145.2,58.4,143.7z
				 M48.8,151.4c-0.4,0.6-0.9,1-1.6,1.4c-0.6,0.4-1.4,0.6-2.2,0.7c-0.8,0.1-1.7,0.2-2.6,0.2h-6.6v-9h5.1c0.9,0,1.9,0,3,0.1
				c1,0.1,1.9,0.3,2.8,0.6s1.5,0.8,2,1.4c0.6,0.6,0.8,1.4,0.8,2.3S49.2,150.9,48.8,151.4z"/>
		</g>
		<g>
			<defs>
				<path id="SVGID_00000082369919873727996220000007901411081479747519_" d="M166.4,148.4c-1.2-2.5-2.9-4.5-5.1-6.3
					c-2.2-1.8-4.8-3-7.8-4c-3-0.9-6.3-1.4-9.8-1.4c-3.5,0-6.8,0.5-9.8,1.4c-3,0.9-5.6,2.2-7.8,4c-2.2,1.8-3.9,3.9-5.1,6.3
					c-1.2,2.5-1.8,5.2-1.8,8.2s0.6,5.7,1.8,8.2c1.2,2.5,2.9,4.5,5.1,6.3c2.2,1.8,4.8,3,7.8,4c3,0.9,6.3,1.4,9.8,1.4
					c3.5,0,6.8-0.5,9.8-1.4c3-0.9,5.6-2.2,7.8-4c2.2-1.8,3.9-3.9,5.1-6.3c1.2-2.5,1.8-5.2,1.8-8.2
					C168.2,153.6,167.6,150.8,166.4,148.4z M156.8,161.5c-0.6,1.4-1.7,2.7-2.9,3.8c-1.2,1-2.7,1.8-4.4,2.5c-1.8,0.6-3.7,0.9-5.8,0.9
					c-2.1,0-4.1-0.3-5.8-0.9c-1.8-0.6-3.2-1.4-4.4-2.5c-1.3-1-2.2-2.3-2.9-3.8c-0.6-1.5-1-3.1-1-4.9s0.3-3.3,1-4.8
					c0.6-1.5,1.7-2.8,2.9-3.9c1.2-1,2.7-1.8,4.4-2.5c1.8-0.6,3.7-0.9,5.8-0.9c2.1,0,4.1,0.3,5.8,0.9c1.8,0.6,3.2,1.4,4.4,2.5
					c1.3,1.1,2.2,2.4,2.9,3.9c0.6,1.5,1,3,1,4.8C157.9,158.5,157.5,160,156.8,161.5z"/>
			</defs>
			<clipPath id="SVGID_00000022535931703405864620000008727477518510835584_">
				<use xlink:href="#SVGID_00000082369919873727996220000007901411081479747519_"  style="overflow:visible;"/>
			</clipPath>
			
				<path style="clip-path:url(#SVGID_00000022535931703405864620000008727477518510835584_);fill:#FFFFFF;stroke:#FFFFFF;stroke-width:2;stroke-miterlimit:10;" d="
				M97.9,159.5c3.2-0.5,5.6-1.7,7.3-3.5c1.7-1.8,2.5-4.1,2.5-6.7c0-2.2-0.5-4.1-1.4-5.5c-0.9-1.5-2.1-2.7-3.7-3.5
				c-1.6-0.8-3.4-1.5-5.4-1.8c-2.1-0.4-4.2-0.6-6.6-0.6H73.2v37.6h10v-15.1H88l9.4,15.1h11.9L97.9,159.5z M96.5,151.5
				c-0.6,0.6-1.2,1-2,1.3c-0.7,0.3-1.7,0.4-2.7,0.5c-1,0.1-1.9,0.1-2.9,0.1h-5.9v-8.7h6.6c0.9,0,1.8,0.1,2.8,0.2
				c0.9,0.2,1.8,0.4,2.5,0.6c0.6,0.3,1.3,0.7,1.8,1.3c0.5,0.6,0.7,1.4,0.7,2.3C97.4,150.1,97.1,151,96.5,151.5z"/>
		</g>
	</g>
</g>
</svg>
