<?xml version="1.0" encoding="utf-8"?>
<!-- Generator: Adobe Illustrator 26.2.1, SVG Export Plug-In . SVG Version: 6.00 Build 0)  -->
<svg version="1.1" id="Layer_1" xmlns="http://www.w3.org/2000/svg" xmlns:xlink="http://www.w3.org/1999/xlink" x="0px" y="0px"
	 viewBox="0 0 200 200" style="enable-background:new 0 0 200 200;" xml:space="preserve">
<style type="text/css">
	.st0{fill:none;}
</style>
<g>
	<path class="st0" d="M55.6,78.9L55.6,78.9c0.1,0,0.2,0.1,0.3,0c3.2-0.3,6.4-0.6,9.6-0.8c3.7-0.3,7.3-0.5,11-0.7
		c3.5-0.2,7-0.4,10.4-0.5c4.4-0.2,8.8-0.3,13.2-0.4c4.3-0.1,8.7,0,13,0.1c4.8,0.1,9.7,0.3,14.5,0.5c3.3,0.2,6.5,0.5,9.7,0.8
		c2.9,0.4,5.9,0.7,8.8,1.2c4.1,0.6,8.1,1.5,12.1,2.7c2.6,0.7,5.1,1.6,7.6,2.8c2.6,1.2,5,2.6,7.1,4.5c2.7,2.4,4.6,5.3,4.9,9
		c0.5,4.4-0.8,8.3-3.7,11.7c-2.2,2.6-4.8,4.4-7.9,5.9c-3.1,1.6-6.3,2.8-9.7,3.7c-3.1,0.8-6.2,1.5-9.3,2.1c-2.3,0.5-4.7,0.7-7,1
		c-4,0.4-8.1,0.7-12.1,1c-2.6,0.2-5.2,0.2-7.8,0.3c-7.1,0.1-14.3,0-21.3-0.5c-1.1-0.1-2.3-0.1-3.4-0.2c0.1,0.1,0.3,0.1,0.4,0.2
		c1.1,0.2,2.2,0.3,3.3,0.5c4.5,0.5,9,1,13.5,1.4c3.5,0.3,7,0.5,10.5,0.5c4.3,0.1,8.6,0,12.9,0c4.3-0.1,8.7-0.5,13-0.9
		c3.4-0.4,6.8-1,10.2-1.7c3.1-0.7,6.2-1.6,9.2-2.7c3.8-1.4,7.4-2.9,10.8-5.1c1.6-1,3.2-2.2,4.6-3.5c1.8-1.6,3.4-3.5,4.4-5.8
		c2-4.5,1.8-8.9-0.7-13.1c-1.2-1.9-2.7-3.6-4.5-4.9c-3.8-3.1-8.1-5.1-12.6-6.8c-3.3-1.2-6.8-2.1-10.2-2.8c-3.4-0.7-6.9-1.4-10.2-1.9
		c-4.8-0.8-9.5-1.3-14.4-1.6c-4.1-0.3-8.1-0.5-12.3-0.6c-5.3-0.1-10.7,0-16,0c-3.3,0.1-6.6,0.2-9.9,0.4c-3.5,0.2-6.9,0.5-10.3,0.7
		c-3.8,0.4-7.8,0.7-11.6,1.1c-2.7,0.3-5.6,0.6-8.3,1c-2.7,0.4-5.2,0.7-7.9,1.1C58.3,78.4,57,78.6,55.6,78.9z M64.8,95.1L64.8,95.1
		c0.1,0.2,0.2,0.4,0.2,0.5c0.2,1.3,0.4,2.5,0.5,3.8c0.5,3.2,0.9,6.5,1.3,9.7c0.3,1.9,0.5,3.9,0.8,5.9c0,0.4,0.2,0.5,0.5,0.5
		c1,0,2.1,0,3.1,0c0.4,0,0.5-0.1,0.6-0.5c1.1-3.6,2.3-7,3.5-10.6c1.8-5.7,3.7-11.3,5.5-17c0.3-0.7,0.5-1.6,0.7-2.4
		c-1.3,0-2.5,0-3.8,0c-0.3,0-0.5,0.1-0.5,0.4c-1,3-2,6.1-3,9.1c-1.1,3.4-2.2,6.9-3.3,10.2c-0.1,0.2-0.1,0.3-0.2,0.5
		c-0.2-0.2-0.2-0.5-0.3-0.6c-0.2-1.1-0.3-2.1-0.5-3.2c-0.5-3-0.8-6.1-1.3-9.1c-0.3-2.3-0.6-4.6-0.9-7c0-0.2-0.1-0.4-0.4-0.4
		c-2.2,0-4.4,0-6.5,0c-0.3,0-0.4,0.1-0.5,0.4c-0.9,2.7-1.7,5.5-2.7,8.2c-1,3.1-2,6.3-3.1,9.4c-1.3,3.8-2.5,7.7-3.8,11.5
		c-0.1,0.3-0.2,0.5-0.3,0.9c2.1,0,4.2,0,6.2,0c0.9,0,0.9,0,1.2-0.9c1-3.2,2-6.3,3.1-9.4c0.8-2.7,1.7-5.3,2.6-8
		C64.3,96.5,64.5,95.8,64.8,95.1z M92.9,115.4c1.4,0,2.6,0,3.8,0c0.2,0,0.4-0.2,0.4-0.4c1.6-4.8,3.1-9.7,4.8-14.5
		c1.5-4.6,2.9-9.1,4.4-13.6c0.2-0.6,0.4-1.2,0.5-1.9c-0.2,0-0.3,0-0.5,0c-1,0-2.1,0-3.1,0c-0.4,0-0.5,0.1-0.6,0.5
		c-0.8,2.6-1.6,5-2.5,7.6c-1.3,3.9-2.6,8-3.8,11.9c0,0.1-0.1,0.2-0.3,0.5c-0.1-0.3-0.1-0.4-0.2-0.5c-0.4-2.7-0.7-5.2-1.1-7.9
		c-0.5-3.8-1-7.7-1.6-11.5C93.1,85.1,93,85,92.5,85c-2,0-4,0-6,0c-0.5,0-0.6,0.1-0.8,0.5c-0.9,2.9-1.9,5.9-2.8,8.8
		c-1.2,3.5-2.3,7-3.5,10.5c-0.8,2.4-1.6,4.8-2.4,7.1c-0.4,1.1-0.7,2.2-1.1,3.4c0.2,0,0.4,0,0.5,0c2,0,4.1,0,6.1,0
		c0.4,0,0.5-0.1,0.6-0.5c0.5-1.7,1.1-3.5,1.6-5.1c1.6-4.8,3.1-9.5,4.7-14.3c0.1-0.2,0.1-0.3,0.2-0.5c0.1,0,0.1,0,0.2,0
		C91.1,101.9,92,108.6,92.9,115.4z M112,116L112,116c0.6-0.1,1.2-0.1,1.8-0.1c1.9,0,3.8-0.1,5.6-0.7c1.3-0.5,2.5-1.1,3.4-2.2
		c1-1.3,1.6-2.7,2.1-4.1c1.2-3.7,2.5-7.4,3.7-11.1c0.6-2,1.4-4.1,1.9-6.1c0.3-1,0.5-2,0.5-3c-0.1-2-1.7-3.3-3.7-3.7
		c-2.5-0.5-4.9-0.3-7.5-0.3c-1.4,0-2.8,0.2-4.2,0.5c-1.6,0.3-3.1,1-4.2,2.3c-1.1,1.3-1.8,2.7-2.4,4.4c-1.6,4.9-3.3,9.9-4.8,14.8
		c-0.5,1.4-1,2.7-1,4.2c-0.1,1.6,0.4,3.1,1.7,4.1c0.9,0.6,2,0.9,3.1,1C109.3,115.9,110.6,115.9,112,116z M148.2,115.4
		c-0.2-0.9-0.4-1.7-0.5-2.5c-0.5-2.4-0.9-4.7-1.4-7c-0.5-2.3-0.9-4.7-1.4-7c-0.1-0.4,0-0.5,0.2-0.8c1.6-2,3.1-3.9,4.7-5.9
		c1.7-2.2,3.5-4.4,5.2-6.7c0.1-0.2,0.2-0.3,0.4-0.5c-1.4,0-2.7,0.1-4,0c-0.8-0.1-1.3,0.2-1.8,0.9c-1.7,2.4-3.7,4.6-5.5,6.9
		c-0.1,0.1-0.2,0.1-0.3,0.2c-0.1-0.2-0.1-0.4-0.1-0.5c-0.5-2.3-0.9-4.7-1.4-7c-0.1-0.3-0.2-0.5-0.5-0.5c-2.1,0-4.2,0-6.3,0
		c-0.3,0-0.5,0-0.9,0c0,0.2,0,0.3,0,0.4c0.3,1.5,0.6,2.8,0.9,4.3c0.6,2.9,1.2,5.9,1.8,8.8c0,0.2,0,0.5-0.2,0.6
		c-1.6,2.1-3.2,4.2-4.8,6.3c-2.2,2.9-4.5,5.9-6.7,8.8c-0.3,0.4-0.6,0.8-1,1.3c1.6,0,3.1,0,4.6,0c0.4,0,0.6-0.1,0.8-0.5
		c0.4-0.5,0.8-1.1,1.2-1.6c2.1-2.8,4.3-5.6,6.4-8.4c0.2-0.3,0.4-0.5,0.6-0.8c0.1,0.2,0.2,0.2,0.2,0.3c0.3,1.5,0.6,3,0.9,4.5
		c0.5,2,0.8,4,1.3,6c0.1,0.4,0.2,0.5,0.5,0.5c2.1,0,4.3,0,6.4,0C148,115.4,148,115.4,148.2,115.4z M38.7,112.1
		c0.1-0.3,0.1-0.4,0.1-0.5c1.2-3.7,2.4-7.3,3.6-11c0.1-0.3,0.3-0.4,0.5-0.4c2.7,0,5.3,0,7.9,0c0.2,0,0.5-0.1,0.5-0.2
		c0.4-1,0.7-2,1.1-3.1c-2.9,0-5.8,0-8.7,0c0-0.2,0.1-0.4,0.1-0.5c0.8-2.5,1.6-4.8,2.5-7.3c0.3-0.7,0.3-0.7,1.1-0.7
		c0.3,0,0.6,0,0.9,0c2.7,0,5.3,0,7.9,0c0.2,0,0.5-0.1,0.5-0.2c0.4-1,0.7-2,1.1-3.2c-0.4,0-0.6,0-0.9,0c-5.1,0-10.2,0-15.4,0
		c-0.2,0-0.5,0-0.6,0c-0.3,0-0.4,0.1-0.5,0.4c-0.9,2.8-1.9,5.8-2.8,8.6c-1.3,3.8-2.6,7.7-3.8,11.5c-0.7,2.2-1.5,4.4-2.2,6.6
		c-0.4,1.1-0.7,2.2-1.1,3.3c0.3,0,0.5,0,0.5,0c2.7,0,5.4,0,8.1,0c2.7,0,5.5,0,8.2,0c0.2,0,0.5-0.1,0.5-0.2c0.4-1,0.7-2,1.1-3.1
		C45.5,112.1,42.1,112.1,38.7,112.1z M10,115.4c0.3,0,0.4,0,0.5,0c5.3,0,10.6,0,15.9,0c1,0,1,0,1.3-0.9c0.3-0.7,0.5-1.6,0.7-2.4
		c-3.5,0-6.8,0-10.2,0c3-9.1,5.9-18.1,9-27.1c-0.3,0-0.5,0-0.6,0c-2,0-4.1,0-6.1,0c-0.4,0-0.5,0.1-0.6,0.5c-0.8,2.6-1.6,5-2.5,7.6
		c-1,2.9-1.9,5.9-2.9,8.9c-1,2.9-1.9,5.9-2.9,8.8C11.1,112.3,10.5,113.8,10,115.4z M176.2,125c-0.1-0.2-0.2-0.2-0.2-0.3
		c-0.3-0.6-0.5-1.3-0.7-1.9c-0.2-0.5-0.5-0.5-0.9-0.5c0,1,0,2,0,3c0,0.2,0.1,0.3,0.2,0.5c0.1-0.2,0.2-0.3,0.2-0.5c0-0.6,0-1.3,0-1.8
		c0-0.1,0-0.2,0.1-0.3c0.5,0.8,0.6,1.8,1.3,2.7c0.5-1,0.7-1.9,1.1-2.8h0.1c0,0.2,0,0.3,0,0.5c0,0.6,0,1.3,0,1.8
		c0,0.1,0.2,0.3,0.3,0.3s0.3-0.1,0.3-0.2c0-1.1,0-2.1,0-3.2c-0.5-0.2-0.7,0-0.8,0.4c-0.2,0.6-0.5,1.2-0.7,1.7
		C176.3,124.6,176.3,124.7,176.2,125z M173.7,122.5c0-0.1,0-0.2-0.1-0.2c-0.7,0-1.5,0-2.2,0c-0.1,0-0.2,0.1-0.2,0.2
		c0.1,0.1,0.2,0.2,0.2,0.2c0.3,0,0.5,0,0.7,0.1c0,0.9,0,1.7,0,2.6c0,0.2-0.1,0.5,0.3,0.5c0.4,0,0.3-0.3,0.3-0.5c0-0.7,0-1.5,0-2.1
		c0-0.5,0.1-0.5,0.5-0.5C173.3,122.6,173.5,122.5,173.7,122.5z"/>
	<path d="M55.6,78.9c1.4-0.2,2.7-0.5,4-0.6c2.7-0.4,5.2-0.7,7.9-1.1c2.7-0.4,5.6-0.7,8.3-1c3.8-0.4,7.8-0.8,11.6-1.1
		c3.5-0.3,6.9-0.5,10.3-0.7c3.3-0.2,6.6-0.4,9.9-0.4c5.3-0.1,10.7-0.1,16,0c4.1,0.1,8.2,0.4,12.3,0.6c4.8,0.4,9.6,0.8,14.4,1.6
		c3.5,0.5,6.9,1.2,10.2,1.9c3.5,0.7,6.9,1.6,10.2,2.8c4.6,1.6,8.9,3.8,12.6,6.8c1.7,1.5,3.3,3,4.5,4.9c2.5,4.2,2.7,8.6,0.7,13.1
		c-1,2.2-2.6,4.1-4.4,5.8c-1.5,1.3-2.9,2.5-4.6,3.5c-3.4,2.1-7,3.8-10.8,5.1c-3,1.1-6.1,2-9.2,2.7c-3.4,0.7-6.8,1.3-10.2,1.7
		c-4.3,0.5-8.6,0.9-13,0.9c-4.3,0.1-8.6,0.1-12.9,0c-3.5-0.1-7-0.3-10.5-0.5c-4.5-0.4-9-0.9-13.5-1.4c-1.1-0.1-2.2-0.3-3.3-0.5
		c-0.1,0-0.3-0.1-0.4-0.2c1.1,0.1,2.3,0.2,3.4,0.2c7.1,0.5,14.2,0.5,21.3,0.5c2.6,0,5.2-0.1,7.8-0.3c4-0.3,8.1-0.6,12.1-1
		c2.3-0.3,4.7-0.5,7-1c3.1-0.6,6.2-1.3,9.3-2.1c3.4-0.8,6.6-2.1,9.7-3.7c2.9-1.5,5.7-3.3,7.9-5.9c2.9-3.4,4.1-7.3,3.7-11.7
		c-0.4-3.7-2.2-6.6-4.9-9c-2.1-1.9-4.6-3.3-7.1-4.5c-2.5-1.1-5-2-7.6-2.8c-3.9-1.2-8-2-12.1-2.7c-2.9-0.5-5.9-0.9-8.8-1.2
		c-3.2-0.4-6.5-0.6-9.7-0.8c-4.8-0.3-9.7-0.5-14.5-0.5c-4.3-0.1-8.7-0.1-13-0.1c-4.4,0.1-8.8,0.2-13.2,0.4c-3.5,0.1-7,0.3-10.4,0.5
		c-3.7,0.2-7.3,0.5-11,0.7c-3.2,0.3-6.4,0.5-9.6,0.8C55.8,78.9,55.7,78.9,55.6,78.9L55.6,78.9z"/>
	<path d="M64.8,95.1c-0.2,0.6-0.5,1.3-0.6,1.9c-0.8,2.7-1.7,5.3-2.6,8c-1,3.1-2.1,6.3-3.1,9.4c-0.3,0.9-0.3,0.9-1.2,0.9
		c-2,0-4.1,0-6.2,0c0.1-0.4,0.2-0.6,0.3-0.9c1.3-3.8,2.5-7.7,3.8-11.5c1-3.1,2-6.3,3.1-9.4c0.9-2.7,1.8-5.5,2.7-8.2
		c0.1-0.3,0.2-0.4,0.5-0.4c2.2,0,4.4,0,6.5,0c0.3,0,0.3,0.2,0.4,0.4c0.3,2.3,0.6,4.6,0.9,7c0.5,3,0.8,6.1,1.3,9.1
		c0.2,1.1,0.3,2.1,0.5,3.2c0,0.2,0.1,0.4,0.3,0.6c0.1-0.2,0.2-0.3,0.2-0.5c1.1-3.4,2.2-6.9,3.3-10.2c1-3,2-6.1,3-9.1
		c0.1-0.3,0.2-0.4,0.5-0.4c1.2,0,2.5,0,3.8,0c-0.3,0.8-0.5,1.6-0.7,2.4c-1.8,5.7-3.7,11.3-5.5,17c-1.2,3.6-2.3,7-3.5,10.6
		c-0.1,0.4-0.3,0.5-0.6,0.5c-1,0-2.1,0-3.1,0c-0.4,0-0.5-0.1-0.5-0.5c-0.3-1.9-0.5-3.9-0.8-5.9c-0.5-3.2-0.9-6.5-1.3-9.7
		c-0.2-1.3-0.4-2.5-0.5-3.8c0-0.2-0.1-0.4-0.1-0.5C64.9,95.1,64.8,95.1,64.8,95.1z"/>
	<path d="M92.9,115.4c-0.9-6.8-1.8-13.5-2.7-20.3c-0.1,0-0.1,0-0.2,0c-0.1,0.2-0.2,0.3-0.2,0.5c-1.6,4.8-3.1,9.5-4.7,14.3
		c-0.5,1.7-1.1,3.5-1.6,5.1c-0.1,0.4-0.3,0.5-0.6,0.5c-2,0-4.1,0-6.1,0c-0.2,0-0.3,0-0.5,0c0.4-1.2,0.7-2.3,1.1-3.4
		c0.7-2.4,1.6-4.8,2.4-7.1c1.2-3.5,2.3-7,3.5-10.5c0.9-2.9,1.9-5.9,2.8-8.8c0.2-0.5,0.4-0.5,0.8-0.5c2,0,4,0,6,0
		c0.5,0,0.6,0.1,0.6,0.5c0.5,3.8,1,7.7,1.6,11.5c0.4,2.7,0.7,5.2,1.1,7.9c0,0.1,0.1,0.3,0.2,0.5c0.1-0.3,0.2-0.4,0.3-0.5
		c1.3-3.9,2.6-8,3.8-11.9c0.8-2.6,1.6-5,2.5-7.6c0.1-0.4,0.3-0.5,0.6-0.5c1,0,2.1,0,3.1,0c0.1,0,0.3,0,0.5,0
		c-0.2,0.6-0.4,1.3-0.5,1.9c-1.5,4.6-2.9,9.1-4.4,13.6c-1.6,4.8-3.1,9.7-4.8,14.5c-0.1,0.2-0.3,0.4-0.4,0.4
		C95.4,115.4,94.2,115.4,92.9,115.4z"/>
	<path d="M112,116c-1.4-0.1-2.7-0.1-4.1-0.2c-1.1-0.1-2.2-0.4-3.1-1c-1.4-1-1.8-2.5-1.7-4.1c0.1-1.5,0.5-2.8,1-4.2
		c1.6-4.9,3.2-9.9,4.8-14.8c0.5-1.6,1.3-3.1,2.4-4.4c1.1-1.3,2.6-2,4.2-2.3c1.4-0.3,2.8-0.4,4.2-0.5c2.5-0.1,5-0.2,7.5,0.3
		c1.9,0.4,3.6,1.6,3.7,3.7c0,1-0.2,2.1-0.5,3c-0.5,2.1-1.3,4.1-1.9,6.1c-1.2,3.7-2.4,7.4-3.7,11.1c-0.5,1.5-1.1,2.9-2.1,4.1
		c-0.9,1.1-2,1.7-3.4,2.2c-1.8,0.6-3.7,0.7-5.6,0.7C113.2,115.9,112.6,115.9,112,116L112,116z M122.4,87.9c-0.7,0.1-1.4,0.1-2,0.1
		c-1.6,0.2-2.9,0.9-3.5,2.6c-0.5,1.6-1.1,3.1-1.6,4.6c-1.1,3.4-2.2,6.9-3.3,10.2c-0.5,1.5-0.9,2.9-1.3,4.4c-0.4,1.6,0.2,2.5,1.8,2.7
		c1.5,0.3,2.9,0.3,4.4-0.1c1.4-0.3,2.7-0.9,3.2-2.4c0.4-1,0.7-1.9,1.1-2.9c1.4-4.3,2.8-8.5,4.2-12.8c0.5-1.3,0.8-2.6,1.1-3.9
		c0.3-1.3-0.5-2.1-1.7-2.3C123.9,88,123.1,88,122.4,87.9z"/>
	<path d="M148.2,115.4c-0.2,0-0.4,0-0.5,0c-2.1,0-4.3,0-6.4,0c-0.4,0-0.5-0.1-0.5-0.5c-0.4-2-0.8-4-1.3-6c-0.3-1.5-0.6-3-0.9-4.5
		c0-0.1-0.1-0.2-0.2-0.3c-0.3,0.3-0.5,0.5-0.6,0.8c-2.1,2.8-4.3,5.6-6.4,8.4c-0.5,0.5-0.8,1.1-1.2,1.6c-0.2,0.3-0.5,0.5-0.8,0.5
		c-1.5,0-3,0-4.6,0c0.4-0.5,0.6-0.8,1-1.3c2.2-2.9,4.5-5.9,6.7-8.8c1.6-2.1,3.2-4.2,4.8-6.3c0.1-0.2,0.2-0.5,0.2-0.6
		c-0.5-2.9-1.2-5.9-1.8-8.8c-0.3-1.5-0.6-2.8-0.9-4.3c0-0.1,0-0.3,0-0.4c0.3,0,0.6,0,0.9,0c2.1,0,4.2,0,6.3,0c0.4,0,0.5,0.1,0.5,0.5
		c0.5,2.3,0.9,4.7,1.4,7c0,0.2,0.1,0.3,0.1,0.5c0.1-0.1,0.3-0.1,0.3-0.2c1.8-2.3,3.7-4.6,5.5-6.9c0.5-0.6,1-0.9,1.8-0.9
		c1.3,0.1,2.7,0,4,0c-0.2,0.2-0.3,0.4-0.4,0.5c-1.7,2.2-3.5,4.4-5.2,6.7c-1.6,2-3.1,3.9-4.7,5.9c-0.2,0.3-0.3,0.5-0.2,0.8
		c0.5,2.3,0.9,4.7,1.4,7c0.5,2.4,0.9,4.7,1.4,7C148,113.7,148.1,114.5,148.2,115.4z"/>
	<path d="M38.7,112.1c3.4,0,6.7,0,10.1,0c-0.4,1.1-0.7,2.1-1.1,3.1c0,0.1-0.3,0.2-0.5,0.2c-2.7,0-5.5,0-8.2,0c-2.7,0-5.4,0-8.1,0
		c-0.2,0-0.4,0-0.5,0c0.4-1.1,0.7-2.2,1.1-3.3c0.7-2.2,1.5-4.4,2.2-6.6c1.3-3.8,2.6-7.7,3.8-11.5c0.9-2.8,1.9-5.8,2.8-8.6
		c0.1-0.3,0.2-0.4,0.5-0.4c0.2,0,0.5,0,0.6,0c5.1,0,10.2,0,15.4,0c0.3,0,0.5,0,0.9,0c-0.4,1.1-0.7,2.2-1.1,3.2
		c0,0.1-0.3,0.2-0.5,0.2c-2.7,0-5.3,0-7.9,0c-0.3,0-0.6,0-0.9,0c-0.8,0-0.8,0-1.1,0.7c-0.8,2.5-1.6,4.8-2.5,7.3
		c-0.1,0.2-0.1,0.3-0.1,0.5c2.9,0,5.8,0,8.7,0c-0.4,1.1-0.7,2.1-1.1,3.1c0,0.1-0.3,0.2-0.5,0.2c-2.7,0-5.3,0-7.9,0
		c-0.3,0-0.5,0-0.5,0.4c-1.2,3.7-2.4,7.3-3.6,11C38.8,111.7,38.8,111.9,38.7,112.1z"/>
	<path d="M10,115.4c0.5-1.6,1-3.2,1.6-4.7c1-2.9,1.9-5.9,2.9-8.8c1-2.9,1.9-5.9,2.9-8.9c0.8-2.6,1.6-5,2.5-7.6
		c0.1-0.4,0.3-0.5,0.6-0.5c2,0,4.1,0,6.1,0c0.2,0,0.4,0,0.6,0c-3,9.1-5.9,18-9,27.1c3.5,0,6.8,0,10.2,0c-0.3,0.8-0.5,1.6-0.7,2.4
		c-0.3,0.9-0.4,0.9-1.3,0.9c-5.3,0-10.6,0-15.9,0C10.5,115.4,10.3,115.4,10,115.4z"/>
	<path d="M176.2,125c0.1-0.2,0.2-0.4,0.2-0.5c0.3-0.5,0.5-1.2,0.7-1.7c0.2-0.4,0.4-0.5,0.8-0.4c0,1,0,2.1,0,3.2
		c0,0.1-0.2,0.3-0.3,0.2c-0.1,0-0.3-0.2-0.3-0.3c0-0.6,0-1.3,0-1.8c0-0.2,0-0.3,0-0.5h-0.1c-0.4,0.9-0.7,1.7-1.1,2.8
		c-0.6-0.9-0.7-1.9-1.3-2.7c0,0.1-0.1,0.2-0.1,0.3c0,0.6,0,1.3,0,1.8c0,0.2-0.1,0.3-0.2,0.5c-0.1-0.2-0.2-0.3-0.2-0.5c0-1,0-2,0-3
		c0.5-0.2,0.7-0.1,0.9,0.5c0.2,0.6,0.5,1.3,0.7,1.9C176,124.7,176,124.8,176.2,125z"/>
	<path d="M173.7,122.5c-0.2,0-0.4,0.1-0.5,0.1c-0.5,0-0.5,0.1-0.5,0.5c0,0.7,0,1.5,0,2.1c0,0.2,0.1,0.5-0.3,0.5
		c-0.4,0-0.3-0.3-0.3-0.5c0-0.8,0-1.7,0-2.6c-0.3,0-0.5,0-0.7-0.1c-0.1,0-0.2-0.1-0.2-0.2c0.1-0.1,0.2-0.2,0.2-0.2
		c0.7,0,1.5,0,2.2,0C173.7,122.4,173.7,122.4,173.7,122.5z"/>
</g>
</svg>
