<?xml version="1.0" encoding="utf-8"?>
<!-- Generator: Adobe Illustrator 26.2.1, SVG Export Plug-In . SVG Version: 6.00 Build 0)  -->
<svg version="1.1" id="Layer_1" xmlns="http://www.w3.org/2000/svg" xmlns:xlink="http://www.w3.org/1999/xlink" x="0px" y="0px"
	 viewBox="0 0 200 200" style="enable-background:new 0 0 200 200;" xml:space="preserve">
<style type="text/css">
	.st0{fill:none;stroke:#000000;stroke-width:0.5;stroke-miterlimit:10;}
	.st1{fill:none;}
</style>
<g>
	<circle class="st0" cx="188" cy="103.2" r="2"/>
	<path d="M187.8,102.2c0.1,0,0.3,0,0.5,0c0.2,0,0.4,0.1,0.5,0.2c0.2,0.2,0.2,0.4,0.2,0.6c0,0.3-0.2,0.4-0.4,0.5l0,0
		c0.2,0.2,0.3,0.4,0.4,0.6c0,0,0,0.1,0.1,0.1l0,0c-0.1,0-0.2,0-0.4,0l0,0c-0.1-0.2-0.3-0.4-0.4-0.6c0,0,0,0-0.1,0s-0.2,0-0.3,0
		c0,0-0.1,0-0.1,0.1c0,0.2,0,0.4,0,0.6c0,0,0,0.1-0.1,0.1c-0.1,0-0.2,0-0.3,0l0,0c0-0.6,0-1.2,0-1.8l0,0
		C187.4,102.2,187.6,102.2,187.8,102.2z M187.6,102.9c0,0.1,0,0.2,0,0.3c0,0,0,0.1,0.1,0.1c0.2,0,0.3,0,0.5,0h0.1
		c0.2-0.1,0.3-0.3,0.2-0.5c-0.1-0.1-0.2-0.2-0.3-0.2c-0.2,0-0.4,0-0.5,0l0,0C187.6,102.7,187.6,102.8,187.6,102.9z"/>
	<g>
		<path class="st1" d="M33.4,99.5c0.1-0.2,0.2-0.3,0.3-0.4c0.6-0.6,0.8-0.6,1.4,0.1c1.1,1.6,1.7,3.3,1.7,5.3c0,1.8-0.8,3-2.5,3.6
			c-3,1.3-6.3-0.3-7.4-3.2c-0.2-0.6-0.3-1.2-0.4-1.8c-0.3-1.5-0.1-2.9,0.3-4.3c-0.3-0.1-0.5-0.1-0.7-0.2c-1.6-0.6-3.2-0.9-4.8-1.6
			c-3.3-1.4-6.1-3.3-7.8-6.5c-0.3-0.6-0.6-0.6-1.1-0.4c-0.2,0.1-0.3,0.1-0.4,0.2c-0.6-0.3-1.1-0.8-1.8-1c-0.2,0.5-0.2,0.8-0.1,1.2
			c0.1,0.4,0.3,0.7,0.4,1.1c0.2,0.6,0.5,1,1,1.3c0.9,0.6,1.8,1.2,2.5,2c0.5,0.6,1,1.1,1.5,1.7c2.8,2.8,5.4,5.4,8.2,8.1
			c0.9,0.9,1,1.6,0.6,2.7c-0.4,0.7-0.7,1.5-1.2,2.2c-1.4,2.2-3,4.2-4.9,6c-0.2,0.2-0.4,0.4-0.6,0.6c0.4,0,0.6,0,0.7,0
			c1.7,0,3.2,0,4.9,0c1.2,0,1.5,0.3,1.4,1.5c-0.1,1.1-0.2,2.2-0.3,3.4c-0.1,0.8-0.4,1.7-1.4,1.9c-0.1,0-0.1,0-0.1,0.1
			c-0.1,0.2-0.3,0.4-0.3,0.5c0.1,0.2,0.3,0.4,0.5,0.4c0.3,0,0.6-0.1,0.7-0.2c0.3-0.2,0.6-0.5,0.7-0.7c1.4-1.7,2.9-3.4,4.2-5.1
			c0.3-0.3,0.5-0.7,0.9-0.6c0.5,0.2,0.5,0.6,0.5,1c0,0.1,0,0.3,0,0.4c0,1.5,0.1,2.9,0.1,4.3c0,0.2,0,0.5,0.1,0.7
			c0.9-0.3,1.6,0.6,2.5,0.5c-0.1-0.3-0.3-0.6-0.6-0.7c-0.6-0.6-0.6-1-0.1-1.7c0.2-0.2,0.3-0.4,0.5-0.6c2.2-2.8,4.4-5.6,6.2-8.8
			c0.6-0.9,1-1.8,1.3-2.9c0.7-2.9,0.8-5.8-0.1-8.7c-0.1-0.4-0.1-0.6,0.3-0.8c0.2-0.2,0.4-0.4,0.6-0.6c1.5-1,3-2.1,4.6-3.1
			c0.7-0.5,1.6-0.8,2.4-1.1c1.3-0.5,1.7-1.5,2-2.6c0.1-0.3-0.1-0.5-0.5-0.5c-0.2,0-0.4,0.1-0.6,0.1c-0.3,0-0.6,0-0.9-0.1
			c-0.6-0.4-0.6-0.4-1.3,0.1c-0.6,0.5-1.3,1-2,1.4c-2.7,1.6-5.6,2.3-8.6,2.7c-1,0.1-2.1-0.1-3,0.4L32.9,97c0.4-0.6,0.7-1.3,1.1-1.9
			c0.3-0.6,1-1.1,1.1-2c-0.3-0.1-0.5-0.2-0.7-0.3c-0.2-1.8-1.1-3.2-2.6-4.2c0.2-0.5,0.6-0.6,0.9-0.8c1-0.5,1.8-1.1,2.5-2
			c0.7-1,1.3-2.1,1.8-3.2c0.6-1.7,0.5-3.4-0.2-5.1c-0.5-1.2-1.5-1.8-2.8-1.8c-1.2-0.1-2.2,0.3-3.1,1c-1.4,1.1-2.7,2.3-4.1,3.4
			c-0.6,0.6-1.3,1-2.1,1.3c-0.8,0.3-1.6,0.6-2.4,0.9c-0.8,0.4-1.8,0.7-2.6,1.3c-1.2,0.7-1.8,1.9-1.6,3.3c0.4,2.1,1.5,3.2,3.5,3.1
			c0.6,0,1.1-0.2,1.6-0.3c0.4-0.1,0.6,0,0.9,0.2c0.3,0.3,0.2,0.6,0,0.8c0,0.1-0.1,0.1-0.1,0.2c-0.5,1-0.6,2.1-0.4,3.2
			c0.1,0.3,0.1,0.6,0.2,0.7c-0.3,0.2-0.6,0.4-0.6,0.6c-0.1,0.4,0.4,0.5,0.6,0.6c0.1,0.1,0.2,0.1,0.3,0.1c0.3,0.2,0.6,0.3,0.7,0.5
			c0.6,0.6,1.3,1.1,2,1.4c0.4,0.1,0.5,0.3,0.6,0.6c0.2,0.6,0.4,1,0.6,1.7c0.6-0.3,1.1-0.6,1.6-0.7c0.6-0.3,1-0.4,1.7-0.3
			C32,99.3,32.7,99.4,33.4,99.5z M56.2,111.9c-0.1,0-0.1,0-0.2,0c-1.2-3.6-2.4-7.3-3.7-11c-2.2,0-4.2,0-6.5,0c0,5.8,0,11.4,0,17.2
			c1.7,0,3.2,0.1,4.8,0c0-0.6,0-1.2,0-1.7c0-0.6,0-1.1,0-1.7c0-0.6,0-1.1,0-1.7c0-0.6,0-1.1,0-1.7c0-0.6,0-1.1,0-1.7
			c0-0.5-0.1-1,0.2-1.7c1.1,3.3,2.1,6.5,3.2,9.8c1.3,0,2.6,0,3.9,0c1-3.1,2-6.3,3-9.3c0.1,0,0.1,0,0.2,0c0,1,0.1,2.1,0.1,3.1
			s0,2,0,3c0,1-0.1,2.1-0.1,3.1c1.7,0,3.2,0,4.9,0c0-5.7,0-11.3,0-17.1c-2.1,0-4.2,0-6.4,0C58.6,104.6,57.4,108.3,56.2,111.9z
			 M144.1,107.6c-0.3-3-1.8-5-4.6-6c-1.6-0.6-3.3-0.7-5-0.6c-3.3,0.3-5.7,1.9-7,5c-0.7,1.8-0.8,3.6-0.6,5.4c0.5,3.2,2.1,5.5,5.3,6.6
			c1.8,0.6,3.7,0.6,5.5,0.4c1.2-0.2,2.4-0.5,3.4-1.2c1.9-1.2,3-3,3.4-5.2c-1.8,0-3.5,0-5.3,0c-0.2,1-0.7,1.8-1.6,2.2
			c-1.8,1-4.1,0.4-5-1.6c-0.8-1.8-0.8-3.8,0-5.7c0.1-0.3,0.3-0.5,0.5-0.7c0.8-1.1,1.9-1.5,3.3-1.2c1.3,0.3,2.1,0.9,2.4,2.3
			c0,0.1,0.1,0.1,0.1,0.3C140.7,107.6,142.3,107.6,144.1,107.6z M83.7,119.2c-0.1,0.6,0.3,1.2,0.6,1.6c0.6,0.7,1.6,1.2,2.5,1.5
			c2,0.6,4.2,0.6,6.2,0c2-0.5,3.1-1.8,3.4-3.8c0.1-0.6,0.2-1.2,0.2-1.8c0-3.4,0-6.7,0-10.1c0-0.2,0-0.4-0.1-0.6c-1.4,0-2.8,0-4.2,0
			c0,0.4-0.1,0.7-0.1,1.2c-0.9-0.9-1.9-1.4-3-1.5c-2.9-0.4-5.3,0.8-6.1,3.8c-0.4,1.2-0.4,2.3-0.2,3.5c0.3,1.8,1.2,3.3,3,4.2
			c1.8,0.7,3.7,0.6,5.5-0.1c0.2-0.1,0.3-0.1,0.5-0.2c0,0.5,0,0.9,0,1.4c0,0.2,0,0.5-0.1,0.6c-0.1,0.3-0.3,0.6-0.6,0.8
			c-0.6,0.6-2.2,0.4-2.7-0.3c-0.3-0.3-0.5-0.4-0.7-0.4c-1.2,0-2.4,0-3.6,0C84,119.1,83.8,119.2,83.7,119.2z M149.6,118.1
			c0-0.3,0-0.6,0-0.8c0-1.8,0-3.5,0-5.3c0-0.6,0.1-1.1,0.4-1.6c0.4-0.8,1.3-1.2,2.3-1c0.7,0.1,1.1,0.6,1.2,1.7c0,0.4,0,0.7,0,1.1
			c0,1.7,0,3.4,0,5.1c0,0.3,0,0.6,0,0.8c1.7,0,3.2,0,4.8,0c0-0.2,0-0.3,0-0.5c0-2.4,0-4.8,0-7.2c0-0.5-0.1-1-0.2-1.5
			c-0.3-1.3-0.8-2.4-2.1-3c-2-0.8-4.1-0.7-5.9,0.7c-0.2,0.1-0.4,0.3-0.6,0.6c0-2,0-4,0-5.9c-1.7,0-3.1,0-4.7,0
			c-0.2,1.1-0.1,16,0,16.6C146.5,118.1,148,118.1,149.6,118.1z M72.7,109.7c0.6-1.1,2.1-1.5,3.1-0.9c0.6,0.4,0.7,1.1,0,1.5
			c-0.4,0.2-0.7,0.3-1.1,0.4c-0.7,0.1-1.6,0.2-2.3,0.3c-1.1,0.2-2.1,0.3-3.1,0.7c-0.9,0.5-1.6,1-1.8,2c-0.6,1.9,0.2,4.1,2.6,4.6
			c2.1,0.5,4.2,0.5,6-0.9c0.1,0.1,0.2,0.2,0.3,0.3c0.3,0.5,0.7,0.6,1.3,0.6c1,0,2.1,0,3.1,0c0.3,0,0.5,0,0.8,0
			c-0.6-0.8-0.5-1.8-0.5-2.6c0-1.6,0-3.2,0-4.8c0-0.4,0-0.7,0-1.2c-0.1-2.1-1-3.2-3-3.7c-2.3-0.5-4.6-0.5-6.9,0.2
			c-0.7,0.2-1.4,0.6-1.9,1c-0.7,0.6-1.1,1.5-1.1,2.6C69.7,109.7,71.2,109.7,72.7,109.7z M174,113.2c0.1-0.1,0.1-0.2,0.1-0.3
			c0.3-2.8-0.9-5.4-3.8-6.6c-1.6-0.6-3.2-0.8-4.9-0.5c-3,0.6-5,2.7-5.3,5.5c-0.4,3.1,1.2,5.7,4.1,6.8c1.6,0.6,3.1,0.6,4.8,0.5
			c1-0.1,2-0.4,3-1c0.9-0.6,1.6-1.4,1.8-2.4c-0.1-0.1-0.1-0.1-0.2-0.1c-1.4,0-2.8,0-4.1,0c-0.2,0-0.4,0.1-0.5,0.2
			c-0.8,0.7-1.9,0.9-3,0.4c-0.8-0.5-1.3-1.5-1.1-2.6C168,113.2,171.1,113.2,174,113.2z M114.4,110.5c1.6,0,3.1,0,4.7,0
			c0-0.2,0-0.3,0-0.4c0-0.2-0.1-0.3-0.1-0.5c-0.4-1.7-1.5-2.8-3-3.4c-2.1-0.9-4.4-1-6.6-0.3c-2,0.7-3.3,2.1-3.8,4.2
			c-0.2,0.8-0.3,1.8-0.2,2.7c0.2,2.3,1.4,4,3.5,4.9c0.9,0.4,1.8,0.6,2.9,0.6c1.6,0.1,3.1-0.1,4.6-0.6c1.8-0.7,2.7-2,2.9-4
			c-1.7,0-3.2,0-4.9,0c0,0.2-0.1,0.3-0.1,0.4c-0.4,0.9-1,1.4-1.8,1.5c-0.8,0-1.5-0.5-1.8-1.4c-0.3-0.7-0.4-1.6-0.4-2.3
			s0.1-1.4,0.5-2c0.6-1.2,2.1-1.4,3-0.4C114,109.8,114.2,110.1,114.4,110.5z M183.5,100.9c-1.5,0-2.8-0.1-4.2,0.2
			c-1.1,0.3-1.9,0.9-2.3,2c-0.2,0.6-0.3,1.3-0.4,1.8c0,0.3,0,0.6-0.1,0.8c-0.6,0-1,0-1.6,0c0,0.9,0,1.8,0,2.8c0.6,0,1,0.1,1.6,0.1
			c0,3.1,0,6.2,0,9.3c1.7,0,3.2,0.1,4.9,0c0-3.1,0-6.2,0-9.4c0.7,0,1.3,0,1.9,0c0-0.9,0-1.8,0-2.8c-0.6,0-1.3,0-1.9,0
			c0-0.3,0-0.6,0-0.7c0.1-0.7,0.3-1,1.1-1.1c0.3,0,0.6-0.1,0.9-0.1C183.5,102.9,183.5,102,183.5,100.9z M103.5,106
			c-1.7,0-3.1,0-4.7,0c0,4.1,0,8,0,12.2c1.6,0,3.1,0,4.7,0C103.5,114,103.5,110,103.5,106z M98.8,100.9c0,1.2,0,2.3,0,3.4
			c1.6,0,3.1,0,4.7,0c0-1.1,0-2.2,0-3.3c-0.2,0-0.3,0-0.4,0C101.7,100.9,100.3,100.9,98.8,100.9z"/>
		<path d="M33.4,99.5c-0.6-0.1-1.4-0.2-2-0.4c-0.6-0.1-1.1,0-1.7,0.3c-0.5,0.3-1,0.5-1.6,0.7c-0.2-0.6-0.4-1.1-0.6-1.7
			c-0.1-0.4-0.3-0.6-0.6-0.6c-0.8-0.3-1.5-0.8-2-1.4c-0.2-0.2-0.5-0.3-0.7-0.5c-0.1-0.1-0.2-0.1-0.3-0.1c-0.3-0.1-0.6-0.2-0.6-0.6
			c0-0.2,0.4-0.4,0.6-0.6c0-0.2-0.1-0.5-0.2-0.7c-0.3-1.1-0.1-2.2,0.4-3.2c0-0.1,0.1-0.1,0.1-0.2c0.1-0.3,0.3-0.6,0-0.8
			c-0.3-0.3-0.6-0.3-0.9-0.2c-0.6,0.1-1,0.3-1.6,0.3c-2,0.1-3.1-1-3.5-3.1c-0.2-1.5,0.4-2.6,1.6-3.3c0.8-0.5,1.7-0.8,2.6-1.3
			c0.7-0.4,1.6-0.6,2.4-0.9c0.8-0.3,1.5-0.7,2.1-1.3c1.4-1.2,2.7-2.3,4.1-3.4c0.9-0.7,1.9-1.1,3.1-1c1.3,0.1,2.2,0.6,2.8,1.8
			c0.6,1.7,0.8,3.3,0.2,5.1c-0.4,1.2-1,2.2-1.8,3.2c-0.6,0.8-1.5,1.6-2.5,2c-0.4,0.2-0.7,0.4-0.9,0.8c1.5,1,2.4,2.4,2.6,4.2
			c0.3,0.1,0.5,0.2,0.7,0.3c-0.1,0.8-0.8,1.3-1.1,2c-0.3,0.6-0.7,1.3-1.1,1.9L33,97c1-0.5,2-0.3,3-0.4c3-0.4,6-1.1,8.6-2.7
			c0.7-0.4,1.4-0.9,2-1.4c0.6-0.5,0.6-0.5,1.3-0.1c0.3,0.1,0.6,0.1,0.9,0.1c0.2,0,0.4-0.1,0.6-0.1c0.4,0,0.6,0.2,0.5,0.5
			c-0.4,1.1-0.7,2.1-2,2.6c-0.8,0.3-1.7,0.6-2.4,1.1c-1.6,1-3,2.1-4.6,3.1c-0.2,0.2-0.5,0.4-0.6,0.6c-0.3,0.3-0.4,0.5-0.3,0.8
			c0.9,2.9,0.8,5.8,0.1,8.7c-0.3,1-0.7,1.9-1.3,2.9c-1.8,3.1-4,5.9-6.2,8.8c-0.2,0.2-0.3,0.4-0.5,0.6c-0.6,0.6-0.5,1,0.1,1.7
			c0.2,0.2,0.4,0.5,0.6,0.7c-0.9,0.2-1.6-0.7-2.5-0.5c0-0.3-0.1-0.6-0.1-0.7c-0.1-1.5-0.1-2.9-0.1-4.3c0-0.1,0-0.3,0-0.4
			c0-0.5-0.1-0.9-0.5-1c-0.5-0.2-0.6,0.3-0.9,0.6c-1.5,1.7-2.9,3.4-4.2,5.1c-0.2,0.3-0.5,0.6-0.7,0.7c-0.2,0.1-0.5,0.2-0.7,0.2
			c-0.2,0-0.4-0.2-0.5-0.4c0-0.1,0.2-0.3,0.3-0.5l0.1-0.1c0.9-0.3,1.3-1.1,1.4-1.9c0.2-1.1,0.3-2.2,0.3-3.4c0.1-1.2-0.2-1.5-1.4-1.5
			c-1.7,0-3.2,0-4.9,0c-0.2,0-0.4,0-0.7,0c0.3-0.3,0.4-0.5,0.6-0.6c1.8-1.8,3.5-3.8,4.9-6c0.5-0.7,0.8-1.4,1.2-2.2
			c0.6-1.2,0.4-1.8-0.6-2.7c-2.8-2.7-5.4-5.4-8.2-8.1c-0.6-0.6-1-1.1-1.5-1.7c-0.7-0.8-1.6-1.5-2.5-2c-0.6-0.3-0.8-0.7-1-1.3
			c-0.1-0.4-0.3-0.7-0.4-1.1c-0.1-0.4-0.1-0.8,0.1-1.2c0.7,0.2,1.1,0.7,1.8,1c0.1,0,0.3-0.1,0.4-0.2c0.6-0.2,0.8-0.2,1.1,0.4
			c1.8,3.1,4.6,5.2,7.8,6.5c1.6,0.6,3.2,1,4.8,1.6c0.3,0.1,0.5,0.2,0.7,0.2c-0.4,1.5-0.6,2.9-0.3,4.3c0.1,0.6,0.2,1.2,0.4,1.8
			c1,3,4.4,4.5,7.4,3.2c1.6-0.6,2.5-1.8,2.5-3.6c0-1.9-0.6-3.7-1.7-5.3c-0.6-0.8-0.7-0.8-1.4-0.1C33.6,99.3,33.5,99.4,33.4,99.5z
			 M32.2,85.1c0,0.4-0.1,0.8-0.1,1.2c0,0.6,0.3,0.8,0.8,0.6c0.5-0.2,0.9-0.6,1.2-0.9c1-1.1,1.8-2.3,2.2-3.8c0.2-0.7,0.3-1.5,0.3-2.2
			c0-1-0.2-2-0.8-2.9c-0.6-0.6-1.3-1-2.2-0.9c-0.8,0-1.6,0.3-2.2,0.9c-0.9,0.8-1.8,1.6-2.7,2.4c-1.6,1.5-3.3,2.6-5.4,3.1
			c-1,0.3-1.9,0.7-2.9,1.2c-1.3,0.6-1.8,1.9-1.3,3.3c0.4,1.4,1.3,2,2.8,2c0.4,0,0.8-0.1,1.2-0.2c0.8-0.3,0.9-0.5,0.6-1.3
			c0,0,0-0.1,0.1-0.1c0.4,0.2,0.4,0.7,0.6,1c0.2,0.4,0.6,0.6,0.8,0.9c0.9-0.7,1.8-1.4,2.9-1.6c1.1-0.3,2.2-0.1,3.2,0.3
			C31.7,87.3,31.7,86.1,32.2,85.1z M29.8,94.8c0-0.1,0-0.1,0-0.2c0.5,0,1,0.1,1.5,0c0.6-0.1,1.1-0.3,1.8-0.5
			c0.6-0.2,0.7-0.6,0.8-1.2c0-3.1-3-5.5-6.1-4.7c-2,0.7-3.4,2.4-3.4,4.3c0.6,0.5,1.3-0.4,1.8,0.2c-0.6,0.4-1.2,0.6-1.9,1
			c0.2,0.5,0.3,0.8,0.5,1.3c0.1,0.3,0.3,0.4,0.6,0.4c0.5-0.1,1-0.2,1.5-0.3c-0.4,0.6-1,0.6-1.5,0.9c1.2,1.2,2.6,1.8,4.2,1.6
			c1.6-0.3,2.7-1.1,3.6-2.6C32,95.1,30.8,95.4,29.8,94.8z M10.9,91c0,0.7,0.1,1.2,0.6,1.5c0.6,0.5,1.3,0.8,2,1.3
			c0.3-0.3,0.6-0.5,0.9-0.7c-0.7-0.6-0.8-1.5-1.5-2c-0.1,0-0.1,0-0.2,0.1c0,0.3,0,0.6-0.1,0.9C12,91.7,11.7,91,10.9,91z M46.1,95.4
			c0.6-0.2,1.1-0.4,1.7-0.6c0.4-0.1,0.6-0.4,0.6-0.7c0.1-0.4-0.1-0.6-0.6-0.5c-0.4,0.1-0.6,0.2-1,0c-0.1-0.1-0.5,0-0.6,0.1
			c-0.3,0.2-0.6,0.5-0.8,0.7C45.6,94.6,45.8,95,46.1,95.4z M44.9,94.6c-0.3,0.2-0.5,0.3-0.7,0.5c0.3,0.4,0.5,0.6,0.6,1
			c0.3-0.2,0.5-0.3,0.7-0.5C45.4,95.2,45.2,94.9,44.9,94.6z M13.7,94c0.2,0.2,0.4,0.5,0.6,0.6c0.3-0.3,0.6-0.6,0.8-0.8
			c-0.3-0.2-0.5-0.4-0.6-0.5C14.3,93.6,14.1,93.8,13.7,94z"/>
		<path d="M56.2,111.9c1.2-3.6,2.4-7.3,3.6-10.9c2.1,0,4.2,0,6.4,0c0,5.7,0,11.3,0,17.1c-1.6,0-3.2,0-4.9,0c0-1,0.1-2,0.1-3.1
			c0-1,0-2,0-3s-0.1-2.1-0.1-3.1c-0.1,0-0.1,0-0.2,0c-1,3.1-2,6.2-3,9.3c-1.3,0-2.5,0-3.9,0c-1-3.2-2.1-6.5-3.2-9.8
			c-0.3,0.6-0.2,1.1-0.2,1.7c0,0.6,0,1.1,0,1.7c0,0.6,0,1.1,0,1.7c0,0.6,0,1.1,0,1.7c0,0.6,0,1.1,0,1.7c0,0.6,0,1.1,0,1.7
			c-1.6,0.1-3.1,0-4.8,0c0-5.7,0-11.3,0-17.2c2.1,0,4.2,0,6.5,0c1.2,3.7,2.4,7.3,3.7,11C56.1,111.9,56.1,111.9,56.2,111.9z"/>
		<path d="M144.1,107.6c-1.8,0-3.5,0-5.2,0c0-0.1-0.1-0.2-0.1-0.3c-0.3-1.3-1.1-2-2.4-2.3c-1.4-0.3-2.5,0.1-3.3,1.2
			c-0.2,0.2-0.4,0.5-0.5,0.7c-0.8,1.9-0.8,3.9,0,5.7c0.9,1.9,3.1,2.6,5,1.6c0.8-0.5,1.4-1.2,1.6-2.2c1.8,0,3.5,0,5.3,0
			c-0.5,2.2-1.5,4-3.4,5.2c-1,0.6-2.2,1-3.4,1.2c-1.8,0.3-3.8,0.2-5.5-0.4c-3.2-1-4.9-3.3-5.3-6.6c-0.3-1.8-0.2-3.7,0.6-5.4
			c1.3-3.1,3.7-4.8,7-5c1.7-0.1,3.4,0,5,0.6C142.2,102.7,143.8,104.6,144.1,107.6z"/>
		<path d="M83.7,119.2c0.2,0,0.4-0.1,0.6-0.1c1.2,0,2.4,0,3.6,0c0.3,0,0.6,0.1,0.7,0.4c0.6,0.6,2.1,0.7,2.7,0.3
			c0.3-0.2,0.4-0.6,0.6-0.8c0.1-0.2,0.1-0.5,0.1-0.6c0-0.5,0-0.8,0-1.4c-0.2,0.1-0.4,0.2-0.5,0.2c-1.8,0.6-3.7,0.8-5.5,0.1
			c-1.8-0.7-2.7-2.3-3-4.2c-0.2-1.2-0.1-2.3,0.2-3.5c0.8-3,3.2-4.2,6.1-3.8c1.1,0.2,2.1,0.6,3,1.5c0-0.5,0.1-0.8,0.1-1.2
			c1.4,0,2.8,0,4.2,0c0,0.2,0.1,0.4,0.1,0.6c0,3.4,0,6.7,0,10.1c0,0.6-0.1,1.2-0.2,1.8c-0.3,2-1.5,3.3-3.4,3.8c-2,0.5-4.2,0.5-6.2,0
			c-0.9-0.3-1.8-0.6-2.5-1.5C83.9,120.3,83.7,119.8,83.7,119.2z M92.1,112.1c0-1.3-0.4-2.1-1.2-2.7c-0.7-0.6-1.7-0.5-2.2,0.2
			c-0.8,0.9-1.2,2.9-0.6,4c0.4,0.7,0.9,1.1,1.7,1.1c0.8,0,1.5-0.3,1.8-1C91.8,113.1,91.9,112.4,92.1,112.1z"/>
		<path d="M149.6,118.1c-1.6,0-3.1,0-4.6,0c-0.2-0.6-0.2-15.6,0-16.6c1.6,0,3,0,4.7,0c0,1.9,0,3.9,0,5.9c0.3-0.3,0.5-0.4,0.6-0.6
			c1.8-1.5,3.8-1.6,5.9-0.7c1.3,0.6,1.8,1.7,2.1,3c0.1,0.5,0.2,0.9,0.2,1.5c0,2.4,0,4.8,0,7.2c0,0.1,0,0.3,0,0.5c-1.6,0-3.1,0-4.8,0
			c0-0.3,0-0.6,0-0.8c0-1.7,0-3.4,0-5.1c0-0.4,0-0.7,0-1.1c-0.1-0.9-0.6-1.5-1.2-1.7c-1-0.2-1.9,0.2-2.3,1c-0.2,0.5-0.3,1-0.4,1.6
			c0,1.8,0,3.5,0,5.3C149.6,117.5,149.6,117.8,149.6,118.1z"/>
		<path d="M72.7,109.7c-1.5,0-3,0-4.5,0c0-1,0.4-1.8,1.1-2.6c0.6-0.6,1.2-0.8,1.9-1c2.3-0.6,4.6-0.6,6.9-0.2c2.1,0.5,3,1.6,3,3.7
			c0,0.4,0,0.7,0,1.2c0,1.6,0,3.2,0,4.8c0,0.8-0.1,1.8,0.5,2.6c-0.4,0-0.6,0-0.8,0c-1,0-2.1,0-3.1,0c-0.6,0-1-0.1-1.3-0.6
			c-0.1-0.1-0.2-0.2-0.3-0.3c-1.8,1.3-3.9,1.4-6,0.9c-2.4-0.6-3-2.7-2.6-4.6c0.3-1,1-1.6,1.8-2c1-0.5,2-0.6,3.1-0.7
			c0.7-0.1,1.6-0.2,2.3-0.3c0.4-0.1,0.7-0.2,1.1-0.4c0.6-0.4,0.6-1.1,0-1.5C74.8,108.2,73.3,108.6,72.7,109.7z M76.3,112.8
			c-0.9,0.2-1.8,0.4-2.6,0.6c-0.3,0.1-0.5,0.2-0.7,0.3c-0.5,0.3-0.6,0.6-0.6,1.1c0.1,0.5,0.4,0.6,0.8,0.8
			C75,116.2,76.6,114.8,76.3,112.8z"/>
		<path d="M174,113.2c-3,0-6,0-9,0c-0.2,1.1,0.3,2.1,1.1,2.6c0.9,0.5,2.1,0.4,3-0.4c0.1-0.1,0.3-0.2,0.5-0.2c1.4,0,2.8,0,4.1,0
			c0,0,0.1,0,0.2,0.1c-0.3,1.1-0.9,1.8-1.8,2.4c-0.9,0.6-1.9,0.8-3,1c-1.7,0.2-3.2,0.1-4.8-0.5c-2.9-1.2-4.4-3.7-4.1-6.8
			c0.3-2.9,2.4-5,5.3-5.5c1.7-0.3,3.3-0.2,4.9,0.5c2.9,1.2,4.1,3.9,3.8,6.6C174.1,112.9,174.1,113,174,113.2z M169.2,110.6
			c-0.1-1.2-1-2.1-2.2-2.1c-1.3,0-2,0.7-2.1,2.1C166.4,110.6,167.9,110.6,169.2,110.6z"/>
		<path d="M114.4,110.5c-0.3-0.4-0.5-0.7-0.6-1.1c-0.9-1-2.4-0.8-3,0.4c-0.4,0.6-0.4,1.3-0.5,2c0,0.8,0.1,1.6,0.4,2.3
			c0.4,0.9,1,1.4,1.8,1.4c0.9,0,1.6-0.5,1.8-1.5c0-0.1,0.1-0.2,0.1-0.4c1.6,0,3.2,0,4.9,0c-0.2,1.9-1.2,3.2-2.9,4
			c-1.5,0.6-3,0.7-4.6,0.6c-1-0.1-1.9-0.3-2.9-0.6c-2.1-0.9-3.3-2.6-3.5-4.9c-0.1-0.9,0-1.8,0.2-2.7c0.5-2.1,1.8-3.5,3.8-4.2
			c2.2-0.7,4.4-0.6,6.6,0.3c1.6,0.6,2.6,1.8,3,3.4c0,0.2,0.1,0.3,0.1,0.5c0,0.1,0,0.2,0,0.4C117.5,110.5,115.9,110.5,114.4,110.5z"
			/>
		<path d="M183.5,100.9c0,1,0,1.9,0,3c-0.3,0-0.6,0.1-0.9,0.1c-0.7,0.1-1,0.4-1.1,1.1c0,0.2,0,0.5,0,0.7c0.6,0,1.3,0,1.9,0
			c0,0.9,0,1.8,0,2.8c-0.6,0-1.3,0-1.9,0c0,3.1,0,6.3,0,9.4c-1.7,0.1-3.2,0-4.9,0c0-3.1,0-6.2,0-9.3c-0.6,0-1-0.1-1.6-0.1
			c0-0.9,0-1.8,0-2.8c0.6,0,1,0,1.6,0c0-0.4,0-0.6,0.1-0.8c0.1-0.6,0.2-1.3,0.4-1.8c0.4-1.1,1.1-1.8,2.3-2
			C180.7,100.8,182.1,101,183.5,100.9z"/>
		<path d="M103.5,106c0,4.1,0,8,0,12.2c-1.6,0-3.1,0-4.7,0c0-4.1,0-8.1,0-12.2C100.4,106,101.9,106,103.5,106z"/>
		<path d="M98.8,100.9c1.5,0,2.9,0,4.3,0c0.1,0,0.3,0,0.4,0c0,1.1,0,2.2,0,3.3c-1.6,0-3.1,0-4.7,0C98.8,103.2,98.8,102.1,98.8,100.9
			z"/>
		<path d="M28.6,92c0.3-0.6,0.7-0.6,1.4,0C29.5,92,29.1,92,28.6,92z"/>
	</g>
</g>
</svg>
