<?xml version="1.0" encoding="utf-8"?>
<!-- Generator: Adobe Illustrator 26.2.1, SVG Export Plug-In . SVG Version: 6.00 Build 0)  -->
<svg version="1.1" id="Layer_1" xmlns="http://www.w3.org/2000/svg" xmlns:xlink="http://www.w3.org/1999/xlink" x="0px" y="0px"
	 viewBox="0 0 200 200" style="enable-background:new 0 0 200 200;" xml:space="preserve">
<style type="text/css">
	.st0{fill:#FFFFFF;}
</style>
<g id="tFT0DP_1_">
	<g>
		<path class="st0" d="M23.9,145.7c1.8-0.7,1.6-1.7,0.9-2.9c-7.9-14.5-11.5-29.9-10.7-46.5c0.5-11.7,3.2-22.9,8.7-33.2
			c11.6-21.7,29.7-33.4,54.5-33.9c10.9-0.2,21.4,2.2,31.6,6.1c13.6,5.1,25.8,12.6,37.5,21c1.2,0.8,3.2,1.3,4.5,0.9
			c4.6-1.3,9.1-2.9,13.5-4.7c2.5-1,4.8-2.7,7-4.2c1.7-1.2,1.5-1.7-0.1-3c-10-8-20.5-15.3-31.9-21.2c-15.3-7.9-31.3-13.4-48.7-13.7
			C70.2,10,52.5,16.8,37.9,31.1c-24.4,23.8-34,61.9-24,94.6C16.1,132.9,19.4,139.5,23.9,145.7z M176,54.3c-1.3,0.6-1.8,1.2-1.1,2.6
			c8.1,14.7,11.8,30.5,10.9,47.3c-0.6,11.8-3.4,23.1-9.2,33.5c-12.2,22-31,33.3-56.3,33c-13.1-0.2-25.3-3.9-37.1-9.3
			c-10.6-4.8-20.3-11-29.7-17.7c-1.2-0.8-3-1.1-4.5-0.9c-2.4,0.3-4.8,0.9-7,1.9c-4.6,2.1-9.1,4.4-13.4,6.9c-1.9,1.1-1.7,1.8,0,3.1
			c3.9,3,7.8,6,11.8,8.9c13.4,9.4,27.5,17.1,43.2,21.9c11.8,3.6,23.8,5.1,36.1,3.7c18.6-2.2,33.9-10.6,46.3-24.4
			c11.7-13,18.7-28.4,22-45.4c3.2-16.2,2.6-32.3-3.1-48C182.8,65.2,179.9,59.6,176,54.3z M39.1,75.3c0,15.3,0,30.5,0,45.8
			c2.4,0,4.7,0,7.2,0c0-6.1,0-12.1,0-18.3c2,0,3.8,0,5.6,0c5.9-0.2,10.7-4,12-9.7c0.5-2.1,0.5-4.3,0.4-6.5
			c-0.3-5.8-4.7-10.7-10.4-11.2C49.1,75,44.2,75.3,39.1,75.3z M87,121.3c0.2-0.4,0.3-0.5,0.3-0.6c0-9.2,0.1-18.5-0.1-27.7
			c-0.1-3.8-2.4-6.2-6.1-6.8c-2.4-0.4-4.9-0.5-7.2-0.1c-2.7,0.4-5.2,1.5-7.4,3.3c1.1,1.9,2.1,3.7,2.9,5.1c2.4-0.7,4.4-1.5,6.5-1.9
			c2.2-0.4,3.7,0.5,4.1,2.3c0.3,1.3,0.2,2.7,0.3,4.3c-0.9-0.2-1.5-0.3-2.1-0.4c-6.9-1.4-12.7,2.1-13.8,8.6c-0.4,2.2-0.2,4.6,0.2,6.9
			c0.8,4.6,4,7.4,8.7,7.6c2.2,0.1,4.4-0.8,6.6-1.2C82.1,122.1,84.7,120.8,87,121.3z M140.5,121.2c0-8.5,0.1-16.7,0-24.9
			c0-1.8-0.5-3.6-1-5.3c-1.1-3.3-3.6-5.2-7.1-5.1c-2.3,0-4.6,0.7-7,1.1c-2.1-1.2-4.7-0.2-7.3-0.4c0,11.7,0,23.2,0,34.7
			c2.4,0,4.7,0,7.1,0c0-0.8,0-1.5,0-2.1c0-7.5,0-15,0-22.5c0-1.9,1.8-3.6,3.9-3.8c2.1-0.2,3.3,0.6,3.8,2.7c0.3,1.2,0.4,2.5,0.4,3.7
			c0,6.7,0,13.4,0,20.1c0,0.7,0.1,1.3,0.1,2C135.8,121.2,138.1,121.2,140.5,121.2z M151.2,106.6c0.8,0,1.6-0.1,2.3-0.1
			c4.5,0,9,0,13.5,0c0.9,0,1.7,0.1,1.8-1.3c0.1-4.2-0.1-8.4-1.9-12.3c-2.1-4.5-5.5-7.2-10.6-7.1c-5.1,0.1-8.5,2.8-10.3,7.3
			c-2.8,7-2.8,14.2-0.1,21.2c1.7,4.6,5.2,7.3,10.2,7.7c4.7,0.3,8.6-1.4,11.6-5c-1.6-1.6-3-3-4.5-4.4
			C156.1,117.2,152.1,115.3,151.2,106.6z M94.9,133.2c1.9,0,3.4-0.1,4.8,0c1.7,0.2,2.5-0.4,3-2.1c3.4-11.9,6.9-23.8,10.4-35.7
			c0.9-2.9,1.7-5.8,2.6-9c-2.2,0-4.1,0.1-6.1,0c-1.2,0-1.7,0.4-2,1.6c-1.4,5.8-2.9,11.6-4.3,17.4c-0.2,0.9-0.4,1.8-0.7,2.7
			c-0.5-0.3-0.7-0.5-0.7-0.8c-1.5-6.4-3.1-12.9-4.6-19.3c-0.1-0.6-0.6-1.5-1-1.5c-2.3-0.1-4.6-0.1-6.9-0.1c0.1,0.5,0.1,0.6,0.1,0.8
			c2.9,10.4,5.7,20.8,8.7,31.2c0.4,1.6,0.5,3-0.1,4.5C97,126.2,96.1,129.6,94.9,133.2z"/>
		<path d="M23.9,145.7c-4.5-6.1-7.8-12.8-10-20c-10-32.6-0.4-70.8,24-94.6C52.5,16.8,70.2,10,90.7,10.3c17.5,0.3,33.5,5.8,48.7,13.7
			c11.4,5.9,21.9,13.2,31.9,21.2c1.7,1.3,1.8,1.8,0.1,3c-2.2,1.6-4.5,3.2-7,4.2c-4.4,1.8-9,3.4-13.5,4.7c-1.3,0.4-3.3-0.1-4.5-0.9
			c-11.7-8.4-23.9-15.9-37.5-21c-10.2-3.8-20.7-6.3-31.6-6.1c-24.8,0.5-42.8,12.2-54.5,33.9c-5.5,10.3-8.2,21.5-8.7,33.2
			c-0.8,16.5,2.9,32,10.7,46.5C25.5,144,25.7,144.9,23.9,145.7z"/>
		<path d="M176,54.3c3.9,5.2,6.9,10.9,9,17c5.6,15.7,6.2,31.8,3.1,48c-3.3,17.1-10.4,32.4-22,45.4c-12.4,13.8-27.7,22.3-46.3,24.4
			c-12.3,1.4-24.3-0.1-36.1-3.7C68,180.7,53.8,173,40.5,163.6c-4-2.8-7.9-5.9-11.8-8.9c-1.7-1.3-1.9-2,0-3.1
			c4.4-2.5,8.8-4.8,13.4-6.9c2.2-1,4.6-1.6,7-1.9c1.5-0.2,3.3,0.1,4.5,0.9c9.4,6.7,19.1,12.9,29.7,17.7c11.8,5.4,24.1,9.2,37.1,9.3
			c25.3,0.3,44.1-10.9,56.3-33c5.7-10.4,8.5-21.6,9.2-33.5c0.9-16.8-2.8-32.6-10.9-47.3C174.1,55.6,174.7,55,176,54.3z"/>
		<path d="M39.1,75.3c5.1,0,10-0.3,14.8,0.1c5.8,0.5,10.2,5.4,10.4,11.2c0.1,2.2,0.1,4.4-0.4,6.5c-1.3,5.7-6.1,9.5-12,9.7
			c-1.8,0.1-3.6,0-5.6,0c0,6.2,0,12.2,0,18.3c-2.5,0-4.8,0-7.2,0C39.1,105.9,39.1,90.7,39.1,75.3z M46.4,89.1c0,1.1,0,2.2,0,3.4
			c0.1,3.6-0.8,3.3,3.4,3.3c2.1,0,4.2,0,5.6-1.9c2-2.6,2.1-5.4,0.9-8.3c-1.1-2.5-3.3-3.2-5.8-3.2c-0.9,0-1.8,0-2.6,0
			c-1.1-0.1-1.6,0.4-1.5,1.5C46.4,85.6,46.4,87.3,46.4,89.1z"/>
		<path d="M87,121.3c-2.4-0.5-4.9,0.8-7-0.7c-2.2,0.4-4.4,1.3-6.6,1.2c-4.6-0.2-7.8-3.1-8.7-7.6c-0.4-2.2-0.6-4.7-0.2-6.9
			c1.1-6.5,6.9-10.1,13.8-8.6c0.6,0.1,1.2,0.2,2.1,0.4c-0.1-1.6-0.1-3-0.3-4.3c-0.4-1.8-1.9-2.7-4.1-2.3c-2.1,0.4-4.2,1.2-6.5,1.9
			c-0.8-1.5-1.9-3.2-2.9-5.1c2.2-1.8,4.7-2.9,7.4-3.3c2.4-0.3,4.9-0.3,7.2,0.1c3.7,0.7,6,3.1,6.1,6.8c0.2,9.2,0.1,18.5,0.1,27.7
			C87.3,120.8,87.2,120.9,87,121.3z M80.3,109.7c0-3.9-1.3-5.1-5.3-4.5c-1.7,0.2-3,1.1-3.3,2.8c-0.2,1.6-0.2,3.2,0.1,4.8
			c0.4,1.9,1.8,2.7,3.8,2.5C79.1,114.9,80.3,113.5,80.3,109.7z"/>
		<path d="M140.5,121.2c-2.4,0-4.7,0-7.1,0c0-0.7-0.1-1.3-0.1-2c0-6.7,0-13.4,0-20.1c0-1.2-0.1-2.5-0.4-3.7
			c-0.5-2.2-1.7-2.9-3.8-2.7c-2.1,0.2-3.9,1.9-3.9,3.8c0,7.5,0,15,0,22.5c0,0.7,0,1.3,0,2.1c-2.5,0-4.7,0-7.1,0c0-11.5,0-23,0-34.7
			c2.6,0.2,5.2-0.7,7.3,0.4c2.5-0.4,4.7-1,7-1.1c3.5-0.1,6,1.8,7.1,5.1c0.6,1.7,1,3.5,1,5.3C140.6,104.5,140.5,112.7,140.5,121.2z"
			/>
		<path d="M151.2,106.6c0.8,8.7,4.9,10.6,11.8,5.9c1.5,1.4,2.9,2.9,4.5,4.4c-3,3.6-6.9,5.3-11.6,5c-5-0.3-8.4-3.1-10.2-7.7
			c-2.7-7-2.6-14.2,0.1-21.2c1.8-4.5,5.2-7.2,10.3-7.3c5.2-0.1,8.5,2.6,10.6,7.1c1.8,3.9,2.1,8,1.9,12.3c0,1.3-0.9,1.3-1.8,1.3
			c-4.5,0-9,0-13.5,0C152.8,106.5,152.1,106.5,151.2,106.6z M161.4,100c-0.3-2.8-0.7-5.3-3.2-6.8c-1.4-0.9-2.9-0.9-4.2,0.2
			c-2.1,1.7-2.6,4.1-2.7,6.6C154.8,100,157.9,100,161.4,100z"/>
		<path d="M94.9,133.2c1.1-3.6,2.1-7,3.2-10.2c0.5-1.6,0.5-3,0.1-4.5c-2.9-10.4-5.8-20.8-8.7-31.2c0-0.2,0-0.4-0.1-0.8
			c2.3,0,4.6-0.1,6.9,0.1c0.4,0,0.9,0.9,1,1.5c1.6,6.4,3.1,12.9,4.6,19.3c0.1,0.3,0.2,0.5,0.7,0.8c0.2-0.9,0.4-1.8,0.7-2.7
			c1.5-5.8,3-11.6,4.3-17.4c0.3-1.2,0.8-1.7,2-1.6c1.9,0.1,3.8,0,6.1,0c-0.9,3.1-1.7,6.1-2.6,9c-3.5,11.9-7,23.8-10.4,35.7
			c-0.5,1.8-1.2,2.3-3,2.1C98.3,133.1,96.8,133.2,94.9,133.2z"/>
	</g>
</g>
</svg>
