<?xml version="1.0" encoding="utf-8"?>
<!-- Generator: Adobe Illustrator 26.2.1, SVG Export Plug-In . SVG Version: 6.00 Build 0)  -->
<svg version="1.1" id="Layer_1" xmlns="http://www.w3.org/2000/svg" xmlns:xlink="http://www.w3.org/1999/xlink" x="0px" y="0px"
	 viewBox="0 0 200 200" style="enable-background:new 0 0 200 200;" xml:space="preserve">
<style type="text/css">
	.st0{fill:none;stroke:#000000;stroke-width:0.5;stroke-miterlimit:10;}
	.st1{fill:none;}
</style>
<g>
	<circle class="st0" cx="187.9" cy="91.6" r="2.1"/>
	<path d="M187.8,90.6c0.1,0,0.3,0,0.5,0c0.2,0,0.4,0.1,0.5,0.2c0.2,0.2,0.2,0.4,0.2,0.6c0,0.3-0.2,0.4-0.4,0.5l0,0
		c0.2,0.2,0.3,0.4,0.4,0.6c0,0,0,0.1,0.1,0.1l0,0c-0.1,0-0.2,0-0.4,0l0,0c-0.1-0.2-0.3-0.4-0.4-0.6c0,0,0,0-0.1,0s-0.2,0-0.3,0
		c0,0-0.1,0-0.1,0.1c0,0.2,0,0.4,0,0.6c0,0,0,0.1-0.1,0.1c-0.1,0-0.2,0-0.3,0l0,0c0-0.7,0-1.2,0-1.9l0,0
		C187.4,90.6,187.6,90.6,187.8,90.6z M187.6,91.2c0,0.1,0,0.2,0,0.3c0,0,0,0.1,0.1,0.1c0.2,0,0.3,0,0.5,0h0.1
		c0.2-0.1,0.3-0.3,0.2-0.5c-0.1-0.1-0.2-0.2-0.3-0.2c-0.2,0-0.4,0-0.5,0l0,0C187.6,91,187.6,91.1,187.6,91.2z"/>
	<g>
		<path class="st1" d="M10.6,80.8c0.4,0.2,0.7,0.3,1,0.4c2.5,0.7,5,1.1,7.6,1.4c4.2,0.5,8.5,0.8,12.7,1.1c6,0.4,11.9,0.7,18,0.8
			c7.9,0.2,16,0.4,23.9,0.5c12.9,0.1,25.8,0.1,38.7,0c11.2,0,22.5-0.3,33.7-0.7c3.6-0.1,7.3-0.3,10.9-0.6c4.6-0.3,9.1-0.7,13.6-1.1
			c2.7-0.3,5.4-0.7,8-1.3c0.7-0.2,1.4-0.5,2.1-0.7c0-2,0-3.7,0-5.5c-0.9-0.2-169.8-0.1-170.4,0C10.6,77.1,10.6,78.9,10.6,80.8z
			 M180.9,119.3c-0.4-0.1-0.7-0.3-1-0.4c-1.5-0.4-3-0.7-4.6-0.9c-4.6-0.7-9.1-1.2-13.7-1.4c-6.9-0.4-13.8-0.7-20.6-0.9
			c-8.1-0.3-16.1-0.4-24.3-0.5c-8-0.1-16,0-24.1-0.1c-14.9-0.1-29.9,0.1-44.9,0.6c-9,0.3-18,0.7-27,1.7c-2.7,0.3-5.5,0.7-8.2,1.3
			c-0.7,0.2-1.5,0.5-2.2,0.7c0,2,0,3.7,0,5.5c0.1,0.1,0.2,0.1,0.2,0.1c56.5,0,112.9,0,169.4,0c0.2,0,0.5,0,0.7,0h0.1
			c0,0,0,0,0.1-0.1C180.9,123,180.9,121.2,180.9,119.3z M43.4,111.5c0-0.3,0-0.5,0-0.7c0-1.4,0-2.9,0-4.3c0-0.7-0.2-1.2-0.7-1.7
			c-0.5-0.6-1.1-1-1.8-1.3c-0.2-0.1-0.4-0.2-0.7-0.3c0.5-0.2,0.8-0.3,1.1-0.5c1.3-0.6,2-1.5,2-3c0-2.2,0-4.5,0-6.7
			c0-1.7-1-3.1-2.6-3.5c-0.5-0.2-1-0.2-1.6-0.2c-9.5,0-18.9,0-28.5,0c-0.3,0-0.5,0-0.7,0.1c-0.2,1.3-0.1,21.6,0.1,22.1
			c1.1,0.2,8,0.1,8.7-0.1c0-1.8,0-3.5,0-5.4c0.3,0,0.4,0,0.6,0c4.3,0,8.5,0,12.8,0c0.3,0,0.6,0.1,0.8,0.1c0.7,0.1,1.1,0.5,1.3,1.1
			c0.2,0.5,0.2,0.9,0.3,1.3c0,0.7,0,1.3,0,2c0,0.4,0,0.7,0,1C37.6,111.5,40.4,111.5,43.4,111.5z M180.7,103.1
			c0.5-0.2,0.8-0.3,1.1-0.5c1.3-0.6,2-1.5,2-3c0-2.2,0-4.5,0-6.7c0-1.7-1-3.1-2.7-3.5c-0.5-0.2-1-0.2-1.5-0.2c-9.4,0-18.9,0-28.4,0
			c-0.3,0-0.5,0-0.7,0.1c0,7.5,0,14.7,0,22.1c1,0.2,8,0.1,8.7-0.1c0.1-1.8,0-3.5,0.1-5.4c0.3,0,0.6,0,0.8,0c4.1,0,8.2,0,12.4,0
			c0.2,0,0.3,0,0.5,0c1.2,0.1,1.9,0.7,2.1,1.9c0.1,0.9,0.1,1.9,0.1,2.8c0,0.3,0,0.7,0,0.9c1.2,0.2,8.1,0.1,8.7-0.1
			c0-0.2,0-0.4,0-0.7c0-1.4,0-2.9,0-4.3c0-0.7-0.2-1.2-0.7-1.7c-0.5-0.6-1.1-1-1.8-1.3C181.1,103.4,180.9,103.3,180.7,103.1z
			 M64,111.6c1.8,0,3.5,0,5.3,0c2.2,0,4.5,0,6.7,0c3,0,5.2-2.1,5.2-5.1c0-4,0-8.1,0-12.1c0-2.9-2.2-5-5.1-5c-8,0-16,0-24.1,0
			c-2.8,0-5,2.1-5,5c0,4.1,0,8.2,0,12.3c0,2.1,1.1,3.5,2.9,4.5c0.8,0.5,1.7,0.6,2.6,0.6C56.4,111.6,60.2,111.6,64,111.6z
			 M92.6,111.5c0-1.9,0-3.7,0-5.6c0.5,0,0.7,0,1.1,0c5.9,0,11.8,0,17.5,0c2.4,0,4.2-2,4.2-4.2c-0.1-2.8,0-5.6,0-8.4
			c0-0.3,0-0.7-0.1-0.9c-0.5-2.1-2.3-3.2-4-3.2c-8.6,0-17.1,0-25.7,0c-0.2,0-0.4,0-0.6,0.1c0,7.4,0,14.7,0,22.2
			C87.6,111.5,90.1,111.5,92.6,111.5z M126.7,98.3c0-1.6,0-3.1,0-4.7c6.7,0,13.4,0,20.2,0c0-1.5,0-2.9,0-4.3
			c-1.6-0.2-27.2-0.1-27.7,0.1c0,7.4,0,14.6,0,22.1c9.2,0,18.5,0,27.8,0c0-1.5,0-2.9,0-4.4c-6.8,0-13.5,0-20.2,0c0-1.7,0-3.2,0-4.9
			c6.4,0,12.9,0,19.4,0c0-1.3,0-2.6,0-3.9C139.6,98.3,133.2,98.3,126.7,98.3z"/>
		<path d="M10.6,80.8c0-1.9,0-3.6,0-5.4c0.7-0.2,169.4-0.2,170.4,0c0,1.8,0,3.6,0,5.5c-0.7,0.2-1.4,0.5-2.1,0.7
			c-2.6,0.7-5.3,1-8,1.3c-4.6,0.4-9.1,0.8-13.6,1.1c-3.6,0.3-7.3,0.4-10.9,0.6c-11.2,0.4-22.5,0.7-33.7,0.7c-12.9,0-25.8,0-38.7,0
			c-7.9-0.1-16-0.2-23.9-0.5c-6-0.2-11.9-0.5-18-0.8c-4.3-0.3-8.5-0.7-12.7-1.1c-2.5-0.3-5.1-0.7-7.6-1.4
			C11.2,81.1,10.9,81,10.6,80.8z"/>
		<path d="M180.9,119.3c0,1.9,0,3.6,0,5.4c-0.1,0.1-0.1,0.1-0.1,0.1s0,0-0.1,0c-0.2,0-0.5,0-0.7,0c-56.5,0-112.9,0-169.4,0
			c-0.1,0-0.1,0-0.2-0.1c0-1.8,0-3.5,0-5.5c0.7-0.2,1.4-0.5,2.2-0.7c2.7-0.7,5.4-1,8.2-1.3c9-0.9,17.9-1.4,27-1.7
			c14.9-0.5,29.9-0.7,44.9-0.6c8,0,16,0,24.1,0.1c8.1,0.1,16.1,0.2,24.3,0.5c6.9,0.2,13.8,0.6,20.6,0.9c4.6,0.3,9.1,0.7,13.7,1.4
			c1.5,0.3,3,0.7,4.6,0.9C180.3,119,180.6,119.2,180.9,119.3z"/>
		<path d="M43.4,111.5c-2.9,0-5.8,0-8.7,0c0-0.4,0-0.7,0-1c0-0.7,0-1.3,0-2c0-0.5-0.1-0.9-0.3-1.3c-0.2-0.7-0.7-1-1.3-1.1
			c-0.3-0.1-0.6-0.1-0.8-0.1c-4.3,0-8.5,0-12.8,0c-0.2,0-0.3,0-0.6,0c0,1.9,0,3.6,0,5.4c-0.7,0.2-7.6,0.3-8.7,0.1
			c-0.3-0.6-0.4-20.9-0.2-22.1c0.2,0,0.5-0.1,0.7-0.1c9.5,0,18.9,0,28.5,0c0.6,0,1.1,0.1,1.6,0.2c1.6,0.5,2.6,1.9,2.6,3.5
			c0,2.2,0,4.5,0,6.7c0,1.5-0.7,2.4-2,3c-0.4,0.1-0.7,0.3-1.1,0.5c0.3,0.1,0.5,0.2,0.7,0.3c0.7,0.3,1.3,0.7,1.8,1.3
			c0.4,0.5,0.7,1,0.7,1.7c0,1.4,0,2.9,0,4.3C43.4,111,43.4,111.2,43.4,111.5z M18.9,100c0.2,0,0.3,0,0.4,0c4.6,0,9.2,0,13.8,0
			c1,0,1.9-0.6,2.1-1.5c0.4-1.1,0.1-2.1-0.7-2.8c-0.5-0.4-1-0.6-1.7-0.6c-4.5,0-8.9,0-13.3,0c-0.2,0-0.5,0-0.7,0
			C18.9,96.8,18.9,98.3,18.9,100z"/>
		<path d="M180.7,103.1c0.3,0.1,0.5,0.2,0.7,0.3c0.7,0.3,1.3,0.7,1.8,1.3c0.4,0.5,0.7,1,0.7,1.7c0,1.4,0,2.9,0,4.3
			c0,0.2,0,0.5,0,0.7c-0.7,0.2-7.6,0.2-8.7,0.1c0-0.3,0-0.7,0-0.9c0-0.9,0-1.9-0.1-2.8c-0.2-1.2-0.8-1.8-2.1-1.9c-0.2,0-0.3,0-0.5,0
			c-4.1,0-8.2,0-12.4,0c-0.3,0-0.5,0-0.8,0c-0.1,1.9,0,3.6-0.1,5.4c-0.6,0.2-7.6,0.3-8.7,0.1c0-7.4,0-14.7,0-22.1
			c0.3,0,0.5-0.1,0.7-0.1c9.4,0,18.9,0,28.4,0c0.5,0,1,0.1,1.5,0.2c1.7,0.5,2.7,1.9,2.7,3.5c0,2.2,0,4.5,0,6.7c0,1.5-0.7,2.4-2,3
			C181.5,102.8,181.1,102.9,180.7,103.1z M159.2,100c0.2,0,0.3,0,0.5,0c4.6,0,9.1,0,13.7,0c1,0,1.9-0.6,2.1-1.5
			c0.4-1.1,0.1-2.1-0.7-2.8c-0.5-0.4-1-0.6-1.7-0.6c-4.5,0-9,0-13.4,0c-0.2,0-0.4,0-0.6,0C159.2,96.8,159.2,98.4,159.2,100z"/>
		<path d="M64,111.6c-3.8,0-7.7,0-11.6,0c-0.9,0-1.8-0.1-2.6-0.6c-1.8-0.9-2.9-2.4-2.9-4.5c0-4.1-0.1-8.2,0-12.3c0-2.8,2.2-4.9,5-5
			c8,0,16,0,24.1,0c2.9,0,5,2.1,5.1,5c0,4,0,8.1,0,12.1c0,2.9-2.2,5-5.2,5.1c-2.2,0-4.5,0-6.7,0C67.6,111.6,65.8,111.6,64,111.6z
			 M64.1,95.2c-2.3,0-4.8,0-7.1,0c-1.4,0-2.5,0.9-2.5,2.5c0,2,0,3.8,0,5.8c0,1.3,0.8,2.6,2.6,2.6c4.7,0,9.2,0,13.9,0
			c1.8,0,2.7-1.2,2.6-2.6c0-1.9,0-3.8,0-5.7c0-1.7-1.1-2.6-2.5-2.6C68.8,95.2,66.5,95.2,64.1,95.2z"/>
		<path d="M92.6,111.5c-2.5,0-4.9,0-7.5,0c0-7.4,0-14.7,0-22.2c0.2,0,0.4-0.1,0.6-0.1c8.6,0,17.1,0,25.7,0c1.7,0,3.5,1,4,3.2
			c0.1,0.3,0.1,0.7,0.1,0.9c0,2.8,0,5.6,0,8.4c0,2.2-1.8,4.2-4.2,4.2c-5.9,0-11.8,0-17.5,0c-0.3,0-0.7,0-1.1,0
			C92.6,107.8,92.7,109.6,92.6,111.5z M92.7,100c0.2,0,0.3,0.1,0.4,0.1c4.4,0,8.8,0,13.1,0c0.3,0,0.5,0,0.7-0.1
			c1.1-0.4,1.8-1.5,1.6-2.8c-0.2-1.1-1-2-2.2-2c-4.4,0-8.7,0-13.1,0c-0.2,0-0.3,0.1-0.5,0.1C92.7,96.8,92.7,98.4,92.7,100z"/>
		<path d="M126.7,98.3c6.4,0,12.9,0,19.4,0c0.1,1.3,0,2.5,0,3.9c-6.5,0-13,0-19.4,0c0,1.7,0,3.3,0,4.9c6.7,0,13.4,0,20.2,0
			c0,1.5,0,2.9,0,4.4c-9.2,0-18.5,0-27.8,0c0-7.4,0-14.7,0-22.1c0.6-0.2,26.1-0.3,27.7-0.1c0,1.4,0,2.8,0,4.3c-6.7,0-13.4,0-20.2,0
			C126.7,95.2,126.7,96.7,126.7,98.3z"/>
	</g>
</g>
</svg>
