<?xml version="1.0" encoding="utf-8"?>
<!-- Generator: Adobe Illustrator 26.2.1, SVG Export Plug-In . SVG Version: 6.00 Build 0)  -->
<svg version="1.1" id="Layer_1" xmlns="http://www.w3.org/2000/svg" xmlns:xlink="http://www.w3.org/1999/xlink" x="0px" y="0px"
	 viewBox="0 0 200 200" style="enable-background:new 0 0 200 200;" xml:space="preserve">
<style type="text/css">
	.st0{fill-rule:evenodd;clip-rule:evenodd;}
</style>
<g>
	<path class="st0" d="M188,50.7c0.5,0.1,2,0.8,2,6v63.7c0,0.1-0.3,9.1-4.8,18.3c-4.1,8.5-12.9,19.1-30.8,20.6c-0.1,0-8.6,1.1-23.7-2
		c-9.4-1.9-21-5.3-33.7-9.7c-0.2-0.1-20.6-7.3-42.5-8c-13-0.4-24.1-0.8-37.9,7.9c-0.3,0.2-2.5,1.6-4.6,0.8c-0.6-0.1-2.2-1.1-2.1-6
		V76.6c0-0.3,0.1-8,4.5-16.3c4-7.6,12.8-17.3,31.3-19.5c0.1,0,8.4-1.2,23.6,1.5c8.8,1.6,20.6,4.9,33.7,9.5
		c0.2,0.1,20.6,6.7,42.5,7.3c11.9,0.4,27.1-0.2,38.4-7.9C184,51.3,186,50,188,50.7L188,50.7z M189.1,120.4V56.7
		c0-4.8-1.4-5.1-1.4-5.1c-1.7-0.7-3.2,0.6-3.2,0.6c-11.6,7.9-27,8.5-39,8.1c-22.1-0.7-42.6-7.3-42.7-7.4
		c-13.2-4.6-24.7-7.9-33.5-9.4c-15-2.7-23.2-1.5-23.3-1.5c-34.5,4.3-34.9,34.6-34.9,34.9v65.8c-0.1,4.7,1.4,5.1,1.4,5.1
		c1.7,0.7,3.9-0.8,3.9-0.8c14-8.8,25.3-8.5,38.4-8.1c22.1,0.7,42.6,8,42.7,8c12.7,4.4,24.3,7.8,33.6,9.7c14.8,3,23.3,2,23.4,2
		C187.8,155.5,189.1,120.8,189.1,120.4L189.1,120.4z M16.7,75.1h166.7V58.7c-29.4,17-79,0.7-79,0.7C65.7,46.4,50.5,47.5,50.5,47.5
		C21.4,47.2,16.7,75.1,16.7,75.1L16.7,75.1z"/>
	<path class="st0" d="M183.4,123.8c0,0-4.5,28.8-33.6,28.6c0,0-15.3,0.2-54.1-12.7c0,0-49.6-16.4-79,0.7v-16.4L183.4,123.8
		L183.4,123.8z"/>
	<path class="st0" d="M16.3,80.4h24.6C53,80.4,52.6,91,52.6,91c0,7.2-6.5,9.8-6.5,9.8c6.8,8.9,8.8,17.7,8.8,17.7H39.8
		c-1.9-9.3-6-13.2-6-13.2H31v13.1H16.3V80.4L16.3,80.4z M30.8,95.7h3.9c0,0,3.8,0.1,3.8-3.1c0-3.4-3.8-3.4-3.8-3.4h-3.9V95.7
		L30.8,95.7z"/>
	<path class="st0" d="M57.3,80.4v24c0,0-0.7,14.4,19.1,14.4c21.2,0,19.7-14.4,19.7-14.4v-24H81.4V103c0,0,0.2,3.4-4.9,3.4
		s-4.9-3.4-4.9-3.4V80.4H57.3L57.3,80.4z"/>
	<path class="st0" d="M100,80.4v24c0,0-0.7,14.4,19.1,14.4c21.2,0,19.7-14.4,19.7-14.4v-24h-14.7V103c0,0,0.2,3.4-4.9,3.4
		c-5.1,0-4.9-3.4-4.9-3.4V80.4H100L100,80.4z"/>
	<path class="st0" d="M143.7,80.5h21.9c0,0,18.8-1.9,18.8,17.9s-18.8,19.4-18.8,19.4h-21.9V80.5L143.7,80.5z M156.1,92.1v15.1h10
		c0,0,4.4-1.5,4.3-7.7c-0.1-6.7-4.3-7.4-4.3-7.4H156.1L156.1,92.1z"/>
	<path class="st0" d="M181.4,83.7c-1.3,0-2.5-1-2.5-2.4c0-1.4,1.1-2.4,2.5-2.4c1.3,0,2.4,1,2.4,2.4
		C183.9,82.7,182.8,83.7,181.4,83.7L181.4,83.7z M179.4,81.3c0,1.2,0.8,2.1,2,2.1c1.1,0,2-0.8,2-2.1c0-1.1-0.8-2.1-2-2.1
		C180.2,79.2,179.4,80.2,179.4,81.3L179.4,81.3z M180.9,81.5h0.5l0.8,1.2h0.5l-0.8-1.2c0.4-0.1,0.8-0.3,0.8-0.8c0-0.6-0.4-0.8-1-0.8
		h-1.1v2.8h0.5L180.9,81.5C180.8,81.5,180.9,81.5,180.9,81.5z M180.9,81.1h0.5c0.4,0,0.7,0,0.7-0.5c0-0.4-0.3-0.4-0.7-0.4h-0.6
		L180.9,81.1L180.9,81.1z"/>
</g>
</svg>
