<?xml version="1.0" encoding="utf-8"?>
<!-- Generator: Adobe Illustrator 26.2.1, SVG Export Plug-In . SVG Version: 6.00 Build 0)  -->
<svg version="1.1" id="Layer_1" xmlns="http://www.w3.org/2000/svg" xmlns:xlink="http://www.w3.org/1999/xlink" x="0px" y="0px"
	 viewBox="0 0 200 200" style="enable-background:new 0 0 200 200;" xml:space="preserve">
<style type="text/css">
	.st0{fill:none;stroke:#000000;stroke-width:0.5;stroke-miterlimit:10;}
</style>
<g>
	<circle class="st0" cx="187.9" cy="111.1" r="2.1"/>
	<path d="M187.7,110.1c0.1,0,0.3,0,0.5,0c0.2,0,0.4,0.1,0.5,0.2c0.2,0.2,0.2,0.4,0.2,0.6c0,0.3-0.2,0.4-0.4,0.5l0,0
		c0.2,0.2,0.3,0.4,0.5,0.7c0,0,0,0.1,0.1,0.1l0,0c-0.1,0-0.2,0-0.4,0c0,0,0,0-0.1,0c-0.2-0.2-0.3-0.4-0.5-0.7c0,0,0,0-0.1,0
		s-0.2,0-0.3,0c0,0-0.1,0-0.1,0.1c0,0.2,0,0.4,0,0.6c0,0,0,0.1-0.1,0.1c-0.1,0-0.2,0-0.3,0l0,0c0-0.7,0-1.3,0-1.9c0,0,0-0.1,0.1,0
		C187.3,110.1,187.5,110.1,187.7,110.1z M187.5,110.8c0,0.1,0,0.2,0,0.3c0,0,0,0.1,0.1,0.1c0.2,0,0.3,0,0.5,0c0.1,0,0.1,0,0.1,0
		c0.2-0.1,0.3-0.3,0.2-0.5c-0.1-0.1-0.2-0.2-0.3-0.2c-0.2,0-0.4,0-0.5,0l0,0C187.5,110.5,187.5,110.7,187.5,110.8z"/>
	<g>
		<path d="M59,86.8c0.2,0.1,0.5,0.2,0.7,0.2c5.1,0.7,7.5,4.2,5.8,9.1c-1.2,3.6-2.5,7.2-3.8,10.8c-0.1,0.4-0.3,0.7-0.4,1.3
			c0.9,0,1.7,0,2.6,0c-0.6,1.6-1,3-1.6,4.4c-0.1,0.3-0.6,0.6-0.8,0.6c-4.7,0-9.3,0-14,0c-0.3,0-0.6,0-1-0.1c0.6-1.6,1-3.1,1.7-4.5
			c0.1-0.3,0.8-0.4,1.3-0.4c1.1,0.1,1.8-0.2,2.1-1.4c0.2-0.8,0.6-1.6,0.9-2.6c-2.2,0-4.3,0-6.3,0c-0.3,0-0.7,0.4-0.7,0.7
			c-0.5,1-0.7,2.1-1.2,3.3c0.8,0,1.6,0.1,2.6,0.1c-0.6,1.6-1.1,3-1.7,4.5c-0.1,0.2-0.4,0.4-0.6,0.4c-3.5,0-7,0-10.7,0
			c0.6-1.6,1-3.1,1.7-4.5c0.1-0.3,0.9-0.5,1.4-0.4c1,0.1,1.5-0.3,1.9-1.3c1.3-3.7,2.8-7.4,4-11.1c1.7-5.2,5.4-7.7,10.5-8.7
			c1.1-0.2,2.1-0.4,3.3-0.5C57.2,86.8,58.1,86.8,59,86.8z M47.1,99.7c2.2,0,4.2,0,6.2,0c0.3,0,0.7-0.2,0.7-0.4
			c0.6-1.5,1.2-3,1.7-4.6c0.4-1.2-0.2-1.9-1.5-2.1c-1.5-0.3-2.9,0.1-4,1.1C48.5,95.3,47.8,97.3,47.1,99.7z"/>
		<path d="M145.5,86.8c0.2,0.1,0.5,0.2,0.7,0.2c5.3,0.6,7.6,4.3,5.8,9.3c-1.2,3.5-2.4,6.8-3.5,10.3c-0.2,0.6-0.4,1.1-0.6,1.8
			c0.9,0,1.7,0,2.6,0c-0.6,1.6-1.1,3.1-1.7,4.6c-0.1,0.2-0.6,0.4-0.8,0.4c-4.6,0-9.1,0-13.7,0c-0.4,0-0.7,0-1.2,0
			c0.6-1.6,1-3.1,1.6-4.5c0.1-0.3,0.7-0.5,1-0.4c1.5,0.3,2.2-0.4,2.5-1.8c0.1-0.7,0.5-1.3,0.7-2.2c-2.2,0-4.4,0-6.4,0
			c-0.2,0-0.5,0.3-0.6,0.6c-0.5,1.1-0.8,2.1-1.2,3.4c0.9,0,1.7,0.1,2.6,0.1c-0.6,1.5-1.1,3-1.7,4.4c-0.1,0.2-0.5,0.5-0.7,0.5
			c-3.5,0-7,0-10.6,0c0.6-1.6,1-3.1,1.6-4.4c0.1-0.3,0.9-0.5,1.3-0.5c1.1,0.1,1.6-0.3,2-1.4c1.2-3.7,2.7-7.4,4-11.1
			c1.7-5.1,5.4-7.7,10.5-8.6c1.1-0.2,2.2-0.4,3.5-0.5C143.8,86.8,144.7,86.8,145.5,86.8z M133.7,99.7c2.1,0,4.2,0,6.2,0
			c0.3,0,0.7-0.3,0.8-0.5c0.6-1.5,1.2-2.9,1.6-4.5c0.4-1.1-0.2-1.9-1.3-2.1c-1.7-0.4-3.1,0-4.4,1.2C135,95.4,134.4,97.4,133.7,99.7z
			"/>
		<path d="M150.9,113c0.6-1.4,1-2.9,1.7-4.2c0.2-0.3,1-0.5,1.5-0.5c1,0.1,1.5-0.3,1.9-1.3c1.7-4.8,3.4-9.4,5.1-14.4
			c-1.1,0-2.1,0-3.3,0c0.7-1.8,1.2-3.3,1.7-4.9c4.5,0,9,0,13.5,0c-0.2,0.6-0.3,1-0.5,1.7c0.5-0.2,0.7-0.4,1-0.6
			c2.6-1.6,5.5-2.1,8.5-2c3,0.2,4.9,2.6,4.2,5.8c-0.5,2.3-1.4,4.6-2.1,6.9c-0.8,2.4-1.7,4.8-2.6,7.2c-0.2,0.5-0.3,0.8-0.5,1.5
			c1,0,2,0,3.1,0c-0.6,1.6-1,3.1-1.7,4.5c-0.1,0.2-0.5,0.4-0.7,0.4c-4.2,0-8.3,0-12.7,0c0.2-0.6,0.3-0.9,0.4-1.3
			c1.8-5,3.6-10.1,5.4-15.1c0.3-0.9,1-2.1,0-2.7c-0.7-0.4-2.1,0-3,0.4c-0.8,0.4-1.7,1.1-2,2c-1.5,3.8-2.8,7.8-4.2,11.9
			c0.9,0,1.7,0.1,2.7,0.1c-0.6,1.6-1.1,3-1.7,4.4c-0.1,0.2-0.5,0.5-0.7,0.5c-4.9,0-9.8,0-14.7,0C151.2,113.2,151.1,113.1,150.9,113z
			"/>
		<path d="M103.4,92.7c-1,0-2,0-3.1,0c0.6-1.6,1-3,1.6-4.4c0.1-0.3,0.6-0.5,0.8-0.5c6.5,0,13.2-0.1,19.7,0c4.3,0.1,6.6,3.9,5.3,8.1
			c-1.4,4.6-5.7,8.8-11.4,8.4c-2-0.1-4,0-6,0c-0.7,0-1,0.2-1.2,0.9c-0.3,1-0.7,2-1,3.1c1.1,0,2.1,0,3.5,0c-0.7,1.7-1.1,3.2-1.7,4.7
			c-0.1,0.2-0.4,0.3-0.7,0.3c-5.5,0-11,0-16.8,0c0.6-1.6,1-3.1,1.6-4.5c0.1-0.3,0.7-0.5,1-0.5c2.7-0.1,2.7-0.1,3.6-2.6
			c1.4-3.9,2.8-7.8,4.2-11.8C103.1,93.6,103.2,93.2,103.4,92.7z M111.3,99.6c3.6,0.4,5.3-0.7,6.3-3.5c0.8-2.5,0.1-3.5-2.5-3.5
			c-0.2,0-0.5-0.1-0.7,0c-0.3,0.1-0.7,0.3-0.8,0.6C112.8,95.3,112.1,97.4,111.3,99.6z"/>
		<path d="M79.3,108.3c1.2,0,2.2,0,3.5,0c-0.6,1.6-1,3.1-1.6,4.5c-0.1,0.2-0.5,0.5-0.7,0.5c-5.2,0-10.5,0-16,0
			c0.6-1.6,1-3.2,1.7-4.6c0.1-0.3,0.9-0.4,1.3-0.3c1.2,0.2,1.7-0.4,2.1-1.5c1.5-4.3,3.1-8.5,4.6-12.8c0.1-0.4,0.3-0.7,0.5-1.3
			c-1,0-1.9,0-3.1,0c0.7-1.8,1.2-3.4,1.8-4.9c6.8,0,13.6-0.1,20.3,0c4.1,0.1,6.5,3.5,5.6,7.6c-1.2,4.8-5.7,9.2-11.3,9
			c-2.1-0.1-4.1,0-6.2,0c-0.7,0-1.1,0.2-1.3,0.9C80.1,106.2,79.7,107.1,79.3,108.3z M82.4,99.6c3.2,0.6,4.9-0.4,6.1-2.9
			c1.2-2.9,0.4-4.2-2.7-4c-0.1,0-0.3,0-0.4,0c-0.2,0.1-0.6,0.3-0.7,0.5C84,95.3,83.3,97.4,82.4,99.6z"/>
		<path d="M10,113c0.5-1.4,0.9-2.8,1.4-4.2c0.1-0.3,0.5-0.4,0.7-0.6c0.1-0.1,0.3,0,0.4,0c1.2-0.1,2.7,0.3,3.5-0.3
			c0.8-0.6,0.9-2.1,1.3-3.3c1.4-3.9,2.8-7.9,4.3-11.9c0-0.1,0-0.2,0-0.3c-2.1-0.5-3.6,0.1-4.7,1.9c-0.7,1.1-1,2.3-1.6,3.5
			c-0.2,0.4-0.5,0.8-0.7,0.8c-1.3,0.1-2.6,0-4.1,0c1.4-3.8,2.7-7.5,4-11.1c9.4,0,18.7,0,28.2,0c-0.4,1-0.7,1.9-0.9,2.8
			c-0.8,2.4-1.8,4.9-2.6,7.3c-0.3,0.7-0.6,1-1.3,1c-1.1-0.1-2.3,0-3.6,0c0.3-1.2,0.7-2.2,0.8-3.4c0.1-0.6,0.1-1.2,0-1.7
			c-0.1-1-1-1.2-2-1.3c-1-0.1-1,0.6-1.2,1.2c-1.6,4.5-3.3,8.9-4.9,13.3c-0.1,0.4-0.2,0.7-0.4,1.2c1.5,0,2.8,0,4.4,0
			c-0.7,1.7-1.1,3.2-1.7,4.7c-0.1,0.2-0.5,0.3-0.7,0.3c-6.1,0-12.1,0-18.2,0C10.2,113.1,10.2,113.1,10,113z"/>
	</g>
</g>
</svg>
