<?xml version="1.0" encoding="utf-8"?>
<!-- Generator: Adobe Illustrator 26.2.1, SVG Export Plug-In . SVG Version: 6.00 Build 0)  -->
<svg version="1.1" id="Layer_1" xmlns="http://www.w3.org/2000/svg" xmlns:xlink="http://www.w3.org/1999/xlink" x="0px" y="0px"
	 viewBox="0 0 200 200" style="enable-background:new 0 0 200 200;" xml:space="preserve">
<style type="text/css">
	.st0{font-family:'Helvetica';}
	.st1{font-size:9.4467px;}
</style>
<g>
	<g>
		<g>
			<path d="M10.1,80.4H49v38.9H10.1V80.4z M24.4,104.8l3,1.7l0.6-1.2l-3.6-2V96l5.9,3.4v4.6h1.4v-3.8l3,1.8l1.1-1.8l-3.1-1.8
				l3.3-1.9l-0.6-1.2l-4,2.3l-6-3.4l6-3.5l4.1,2.3l0.6-1.2l-3.3-1.9l3-1.7l-1-1.8l-3,1.7v-3.9h-1.4v4.6l-6,3.4v-6.9l4.1-2.3
				l-0.7-1.2l-3.3,1.9v-3.2h-2.1v6.4c-0.8,0.1-1.8,0.4-2.5,0.8l-3.7-5.1l-1.7,1.2l3.7,5c-0.6,0.6-1.2,1.4-1.6,2.1L10.6,89L10,90.9
				l6,2c-0.1,0.4-0.1,0.8-0.1,1.3c0,0.5,0.1,0.9,0.1,1.3l-5.9,1.9l0.6,1.9l5.9-1.9c0.4,0.7,0.9,1.5,1.5,2l-3.7,5.1l1.7,1.2l3.7-5.1
				c0.7,0.4,1.6,0.6,2.5,0.8v6.4h2L24.4,104.8 M22.4,88.9c-2.5,0.5-4.3,2.6-4.3,5.3c0,2.7,1.8,4.9,4.3,5.3V88.9z"/>
			<polyline points="73.4,119.4 62.8,119.4 62.8,105.2 50.7,80.5 62.6,80.5 68.2,93.7 73.8,80.5 85.6,80.5 73.4,105 73.4,119.4 			
				"/>
			<path d="M91.8,99.8c0,5,1.3,11.2,6.4,11.2c4.6,0,6.5-4.7,6.5-11.2c0-5.3-1.8-10.9-6.6-10.7C93.3,89,91.8,94.9,91.8,99.8
				 M115.3,99.8c0,13.2-7.5,20.7-17.1,20.7c-10.3,0-17.1-7.6-17.1-20.8c0-12.2,6.9-20.2,17.1-20.2C109.8,79.5,115.3,89.5,115.3,99.8
				z"/>
			<path d="M128.2,97.3h4.3c3.3,0,5.1-1,5.1-3.7c0-2.8-1.8-4.1-4.3-4.1h-5L128.2,97.3 M128.2,105.9v13.6h-10.7V80.6h15.3
				c10.9,0,14.4,3.5,14.4,11.1c0,4.4-1.7,8.2-5.5,9.5c3.4,1.5,5.5,2.5,5.5,10.4c0,5.1-0.1,6.8,1.1,6.8v1.2h-10.8
				c-0.3-0.8-0.6-3.3-0.6-6.8c0-5.1-0.7-6.7-5.7-6.7h-3.1V105.9z"/>
			<polyline points="150.3,80.5 161.1,80.5 161.1,93.1 170.4,80.5 183,80.5 171,95.1 184.3,119.4 171.4,119.4 163.6,103.9 
				161.1,107.1 161.1,119.4 150.3,119.4 150.3,80.5 			"/>
			<text transform="matrix(1 0 0 1 183.0391 87.6797)" class="st0 st1">®</text>
		</g>
	</g>
</g>
</svg>
