<?xml version="1.0" encoding="utf-8"?>
<!-- Generator: Adobe Illustrator 26.2.1, SVG Export Plug-In . SVG Version: 6.00 Build 0)  -->
<svg version="1.1" id="Layer_1" xmlns="http://www.w3.org/2000/svg" xmlns:xlink="http://www.w3.org/1999/xlink" x="0px" y="0px"
	 viewBox="0 0 200 200" style="enable-background:new 0 0 200 200;" xml:space="preserve">
<style type="text/css">
	.st0{fill:none;stroke:#000000;stroke-width:0.5;stroke-miterlimit:10;}
	.st1{fill:none;}
</style>
<g>
	<circle class="st0" cx="186.8" cy="110.6" r="2"/>
	<path d="M186.6,109.7c0.1,0,0.3,0,0.4,0c0.2,0,0.3,0.1,0.5,0.2c0.2,0.2,0.2,0.4,0.2,0.6c0,0.2-0.2,0.4-0.4,0.5l0,0
		c0.1,0.2,0.3,0.4,0.4,0.6c0,0,0,0.1,0.1,0.1l0,0c-0.1,0-0.2,0-0.3,0l0,0c-0.1-0.2-0.3-0.4-0.4-0.6c0,0,0,0-0.1,0
		c-0.1,0-0.2,0-0.3,0l0,0c0,0.2,0,0.4,0,0.6c0,0,0,0.1-0.1,0.1c-0.1,0-0.2,0-0.2,0l0,0c0-0.6,0-1.2,0-1.8l0,0
		C186.3,109.7,186.5,109.7,186.6,109.7z M186.5,110.4c0,0.1,0,0.2,0,0.3c0,0,0,0.1,0.1,0.1c0.1,0,0.3,0,0.4,0h0.1
		c0.2-0.1,0.3-0.3,0.2-0.4c-0.1-0.1-0.2-0.2-0.3-0.2c-0.2,0-0.3,0-0.5,0l0,0V110.4z"/>
	<g>
		<path class="st1" d="M142,95.5c-2.7,0-5.6,0-8.3,0c-1.9,5.7-3.8,11.5-5.7,17.2c3,0,6,0,9,0c0.1-0.3,0.2-0.5,0.3-0.8
			c0.5-1.4,1-2.8,1.5-4.2c0.4-1,0.8-2,1.4-2.7c1.4-1.9,3.3-2.7,5.6-2.5c0.2,0,0.3,0.1,0.5,0.2c-0.7,1.5-0.8,3.1-0.8,4.6
			c0.2,3.3,2,5.4,5.2,6c1.6,0.3,3.1,0.3,4.7,0c1.5-0.2,2.7-0.8,3.8-1.9c0,0,0.1,0,0.2,0c0,0.5,0.1,0.9,0.1,1.4c3,0,6,0,9,0
			c0.8-1.6,5.7-16.7,5.7-17.2c-3,0-6,0-9,0c-0.3,0.8-0.5,1.4-0.8,2.2c-0.3-0.3-0.5-0.4-0.6-0.6c-1.1-1-2.5-1.7-4-1.8
			c-0.9-0.1-2-0.1-2.9,0c-4.1,0.6-7.4,2.5-9.9,6c-0.1,0.2-0.2,0.3-0.4,0.5h-0.1c0.7-2.1,1.2-4.1,1.9-6c-0.1-0.4-0.1-0.4-0.2-0.4
			c-0.1,0-0.2,0-0.2,0c-2.1-0.1-4,0.4-5.6,2c-0.2,0.2-0.5,0.6-0.8,0.5c-0.1-0.1-0.1-0.1-0.1-0.2C141.7,97,141.8,96.2,142,95.5z
			 M78.9,95.5c-2,5.7-3.9,11.5-5.8,17.2c3.1,0,6.1,0,9.2,0c0.1-0.3,0.2-0.6,0.3-0.8c0.8-2.2,1.4-4.3,2.2-6.5c0.7-1.9,2.1-3.2,4-3.8
			c1.2-0.4,1.9,0.2,1.9,1.4c0,0.8-0.2,1.7-0.5,2.5c-0.8,2.2-1.5,4.3-2.2,6.4c-0.1,0.3-0.2,0.5-0.3,0.8c3,0,6,0,9.1,0
			c0.1-0.3,0.2-0.6,0.3-0.8c0.8-2.3,1.6-4.6,2.4-6.9c0.3-0.8,0.8-1.6,1.4-2.2c0.8-0.7,1.5-0.9,2.5-0.9c0.8,0,1.4,0.5,1.6,1.3
			c0.2,0.8,0,1.7-0.2,2.5c-0.8,2.1-1.4,4.2-2.2,6.3c-0.1,0.3-0.2,0.5-0.3,0.8c3.1,0,6.1,0,9.1,0c0.1-0.1,0.1-0.1,0.1-0.2
			c1.3-3.9,2.6-7.8,4-11.7c0.2-0.6,0.3-1.3,0.2-1.9c-0.1-1.9-1.3-3.2-3.2-3.4c-0.9-0.1-2,0-2.9,0.1c-2.7,0.4-5.2,1.5-7.4,3.1
			c-0.2,0.2-0.4,0.3-0.7,0.4c-0.1-0.2-0.1-0.3-0.2-0.4c-0.7-2.1-2.2-3.2-4.3-3.3c-3.4-0.2-6.5,0.8-9.3,2.7c-0.2,0.1-0.4,0.3-0.7,0.5
			c0.4-1.1,0.7-2.2,1-3.2C85,95.5,82,95.5,78.9,95.5z M32.9,112.7c3,0,6,0,9.1,0c0.8-8.3,1.7-16.5,2.6-24.8c-0.3,0-0.5-0.1-0.7-0.1
			c-4.7,0-9.5,0-14.2,0c-0.5,0-0.8,0.2-1,0.6c-6,8-12.2,15.9-18.2,23.8c-0.1,0.1-0.2,0.3-0.3,0.5c0.2,0,0.2,0.1,0.3,0.1
			c3.3,0,6.7,0,10,0c0.4,0,0.6-0.2,0.8-0.5c0.7-0.9,1.3-1.8,2-2.7c0.2-0.4,0.5-0.5,0.9-0.5c2.8,0,5.7,0,8.6,0c0.2,0,0.4,0,0.6,0.1
			C33.1,110.4,33,111.5,32.9,112.7z M68.9,112.7c2.8-8.3,5.6-16.6,8.3-24.9c-3.3,0-6.5,0-9.7,0c-1.1,3.4-2.3,6.8-3.4,10.2
			c-0.6-0.5-1-0.9-1.5-1.3c-1.3-1-2.7-1.6-4.4-1.6c-4.1-0.1-7.4,1.6-10.3,4.4c-2.2,2.3-3.1,4.9-2.8,8c0.3,2.8,1.9,4.7,4.5,5.5
			c1.7,0.5,3.4,0.4,5.1,0.2c1-0.1,2.1-0.4,3.1-0.8c0.6-0.3,1.1-0.8,1.8-1.1c0,0.5,0.1,0.9,0.1,1.5C62.8,112.7,65.8,112.7,68.9,112.7
			z M181.6,112.7c2.7-8.3,5.6-16.5,8.4-24.9c-3.1,0-6.1,0-9.2,0c-2.7,8.3-5.5,16.5-8.3,24.9C175.5,112.7,178.4,112.7,181.6,112.7z
			 M114.9,112.7c3.2,0,6.2,0,9.2,0c1.9-5.7,3.8-11.5,5.7-17.2c-3.1,0-6.1,0-9.1,0C118.8,101.1,116.9,106.9,114.9,112.7z M126.6,94.2
			c1.4-0.1,2.7-0.4,3.9-1.2c1.9-1.5,1.9-3.7,0-5.2c-0.1-0.1-0.2-0.1-0.3-0.2c-2.1-1.4-5.3-1.4-7.3,0c-2.2,1.5-2.2,4.1,0,5.6
			C124,93.9,125.3,94.2,126.6,94.2z"/>
		<path d="M142,95.5c-0.1,0.8-0.2,1.5-0.3,2.2c0,0,0.1,0.1,0.1,0.2c0.4,0,0.6-0.3,0.8-0.5c1.5-1.5,3.4-2,5.6-2c0.1,0,0.2,0,0.2,0
			s0.1,0.1,0.2,0.2c-0.7,2-1.2,4.1-1.9,6h0.1c0.1-0.2,0.3-0.3,0.4-0.5c2.5-3.4,5.7-5.5,9.9-6c0.9-0.1,2-0.1,2.9,0
			c1.5,0.1,2.8,0.8,4,1.8c0.2,0.2,0.4,0.3,0.6,0.6c0.3-0.8,0.5-1.4,0.8-2.2c3,0,6,0,9,0c0,0.6-5,15.6-5.7,17.2c-3,0-6,0-9,0
			c0-0.5-0.1-0.9-0.1-1.4c-0.1,0-0.2,0-0.2,0c-1,1.1-2.3,1.7-3.8,1.9c-1.6,0.2-3.1,0.3-4.7,0c-3.2-0.6-5.1-2.7-5.2-6
			c-0.1-1.6,0.1-3.1,0.8-4.6c-0.2-0.1-0.4-0.1-0.5-0.2c-2.4-0.2-4.1,0.7-5.6,2.5c-0.7,0.8-1,1.8-1.4,2.7c-0.5,1.4-1,2.8-1.5,4.2
			c-0.1,0.3-0.2,0.5-0.3,0.8c-3,0-5.9,0-9,0c1.9-5.7,3.8-11.5,5.7-17.2C136.6,95.5,139.2,95.5,142,95.5z M158.5,107.6
			c2.1,0,3.8-1.4,4.3-3.3c0.5-1.8-0.8-3.5-2.6-3.5c-1.6,0-2.9,0.7-3.9,2c-0.8,0.9-0.9,2.1-0.4,3.2
			C156.6,107.1,157.6,107.5,158.5,107.6z"/>
		<path d="M78.9,95.5c3.1,0,6.1,0,9.2,0c-0.4,1-0.7,2.1-1,3.2c0.3-0.2,0.5-0.4,0.7-0.5c2.8-1.9,5.9-2.9,9.3-2.7
			c2.2,0.1,3.7,1.1,4.3,3.3c0,0.1,0.1,0.2,0.2,0.4c0.2-0.2,0.5-0.3,0.7-0.4c2.3-1.6,4.7-2.7,7.4-3.1c0.9-0.1,2-0.2,2.9-0.1
			c1.9,0.2,3.1,1.5,3.2,3.4c0,0.7,0,1.3-0.2,1.9c-1.3,4-2.6,7.8-4,11.7c0,0.1-0.1,0.1-0.1,0.2c-3,0-6,0-9.1,0
			c0.1-0.3,0.2-0.6,0.3-0.8c0.8-2.1,1.4-4.2,2.2-6.3c0.3-0.8,0.5-1.6,0.2-2.5c-0.2-0.8-0.8-1.3-1.6-1.3c-0.9,0-1.8,0.3-2.5,0.9
			s-1.1,1.3-1.4,2.2c-0.8,2.3-1.6,4.6-2.4,6.9c-0.1,0.3-0.2,0.6-0.3,0.8c-3,0-6,0-9.1,0c0.1-0.3,0.2-0.6,0.3-0.8
			c0.8-2.2,1.5-4.3,2.2-6.4c0.3-0.8,0.5-1.7,0.5-2.5c-0.1-1.2-0.8-1.8-1.9-1.4c-2,0.6-3.3,1.9-4,3.8c-0.8,2.2-1.4,4.3-2.2,6.5
			c-0.1,0.3-0.2,0.6-0.3,0.8c-3,0-6,0-9.2,0C75,106.9,76.9,101.1,78.9,95.5z"/>
		<path d="M32.9,112.7c0.1-1.2,0.2-2.4,0.3-3.5c-0.2,0-0.4-0.1-0.6-0.1c-2.8,0-5.7,0-8.6,0c-0.4,0-0.7,0.1-0.9,0.5
			c-0.7,0.9-1.3,1.8-2,2.7c-0.2,0.3-0.4,0.5-0.8,0.5c-3.3,0-6.7,0-10,0c-0.1,0-0.2,0-0.3-0.1c0.1-0.2,0.2-0.3,0.3-0.5
			c6-7.9,12.2-15.9,18.2-23.8c0.3-0.4,0.6-0.6,1-0.6c4.7,0,9.5,0,14.2,0c0.2,0,0.4,0,0.7,0.1c-0.8,8.3-1.7,16.5-2.6,24.8
			C38.9,112.7,35.9,112.7,32.9,112.7z M33.8,103c0.4-3.3,0.7-6.7,1-10c-0.1,0-0.1,0-0.2-0.1c-2.4,3.3-4.7,6.7-7.1,10.1
			C29.8,103,31.8,103,33.8,103z"/>
		<path d="M68.9,112.7c-3,0-6,0-9.1,0c0-0.5-0.1-0.9-0.1-1.5c-0.7,0.4-1.2,0.8-1.8,1.1c-0.9,0.5-2,0.8-3.1,0.8
			c-1.7,0.2-3.4,0.3-5.1-0.2c-2.7-0.8-4.3-2.7-4.5-5.5c-0.3-3.1,0.7-5.7,2.8-8c2.8-2.8,6.1-4.5,10.3-4.4c1.7,0,3.2,0.6,4.4,1.6
			c0.5,0.4,0.9,0.8,1.5,1.3c1.1-3.4,2.3-6.8,3.4-10.2c3.2,0,6.4,0,9.7,0C74.5,96,71.6,104.4,68.9,112.7z M58,107.6
			c2.1,0,3.9-1.3,4.4-2.9c0.7-2-0.8-3.9-2.9-3.8c-1.5,0.1-2.7,0.8-3.6,1.9c-0.8,0.9-0.9,2.1-0.4,3.2C56.1,107.1,57,107.5,58,107.6z"
			/>
		<path d="M181.6,112.7c-3.1,0-6,0-9.1,0c2.7-8.3,5.5-16.6,8.3-24.9c3.1,0,6.1,0,9.2,0C187,96.2,184.3,104.4,181.6,112.7z"/>
		<path d="M114.9,112.7c2-5.7,3.9-11.5,5.8-17.2c3,0,6,0,9.1,0c-1.9,5.7-3.8,11.5-5.7,17.2C121.1,112.7,118.1,112.7,114.9,112.7z"/>
		<path d="M126.6,94.2c-1.3,0-2.5-0.3-3.6-1c-2.3-1.5-2.3-4.1,0-5.6c2.1-1.4,5.3-1.4,7.3,0c0.1,0.1,0.2,0.1,0.3,0.2
			c1.9,1.5,1.9,3.7,0,5.2C129.3,93.9,128.1,94.2,126.6,94.2z"/>
		<path class="st1" d="M33.8,103c-2.1,0-4.1,0-6.2,0c2.4-3.4,4.7-6.8,7.1-10.1c0.1,0,0.1,0,0.2,0.1C34.6,96.4,34.2,99.8,33.8,103z"
			/>
	</g>
</g>
</svg>
