<?xml version="1.0" encoding="utf-8"?>
<!-- Generator: Adobe Illustrator 26.2.1, SVG Export Plug-In . SVG Version: 6.00 Build 0)  -->
<svg version="1.1" id="Layer_1" xmlns="http://www.w3.org/2000/svg" xmlns:xlink="http://www.w3.org/1999/xlink" x="0px" y="0px"
	 viewBox="0 0 200 200" style="enable-background:new 0 0 200 200;" xml:space="preserve">
<g>
	<polygon points="63.5,105.2 55,90.1 49.3,90.1 49.3,111 53.7,111 53.7,97.5 61.7,111 65.6,111 73.3,97.3 73.3,111 77.6,111 
		77.6,90.1 72,90.1 	"/>
	<polygon points="145.6,105.3 131.3,90.1 125.2,90.1 125.2,111 129.9,111 129.9,96.1 143.9,111 150.4,111 150.4,90.1 145.6,90.1 	
		"/>
	<path d="M22.9,89.8L10,111h5.5l1.9-3.6h15.7l2.1,3.6h5.7L27.8,89.8H22.9z M20,103l5.1-8.4l5.2,8.4H20z"/>
	<path d="M176.9,89.8h-4.8L159.1,111h5.5l1.9-3.6h15.7l2.1,3.6h5.7L176.9,89.8z M169.2,103l5.1-8.4l5.2,8.4H169.2z"/>
	<g>
		<path d="M189.9,92.1c0,1.7-1.4,3.1-3.1,3.1c-1.7,0-3.2-1.4-3.2-3.1c0-1.7,1.4-3.1,3.2-3.1C188.5,89,189.9,90.4,189.9,92.1z
			 M184.5,92.1c0,1.3,0.9,2.3,2.2,2.3c1.3,0,2.2-1,2.2-2.3c0-1.3-0.9-2.3-2.2-2.3C185.5,89.8,184.5,90.8,184.5,92.1z M186.3,93.5
			h-0.9v-2.8c0.2,0,0.7-0.1,1.2-0.1c0.7,0,0.9,0.1,1.1,0.2c0.2,0.1,0.3,0.3,0.3,0.6s-0.3,0.5-0.6,0.6v0c0.3,0.1,0.5,0.3,0.6,0.7
			c0.1,0.4,0.1,0.6,0.2,0.7h-1c-0.1-0.1-0.1-0.3-0.2-0.6c-0.1-0.3-0.2-0.4-0.5-0.4h-0.3V93.5z M186.4,91.9h0.2
			c0.3,0,0.5-0.1,0.5-0.3c0-0.2-0.2-0.4-0.5-0.4c-0.1,0-0.2,0-0.3,0L186.4,91.9L186.4,91.9z"/>
	</g>
	<path d="M99,89.8L86.1,111h5.5l1.9-3.6h15.7l2.1,3.6h5.7l-13.1-21.2H99z M96.1,103l5.1-8.4l5.2,8.4H96.1z"/>
</g>
</svg>
