<?xml version="1.0" encoding="utf-8"?>
<!-- Generator: Adobe Illustrator 26.2.1, SVG Export Plug-In . SVG Version: 6.00 Build 0)  -->
<svg version="1.1" id="Layer_1" xmlns="http://www.w3.org/2000/svg" xmlns:xlink="http://www.w3.org/1999/xlink" x="0px" y="0px"
	 viewBox="0 0 200 200" style="enable-background:new 0 0 200 200;" xml:space="preserve">
<style type="text/css">
	.st0{fill:none;}
</style>
<g>
	<path class="st0" d="M171.8,106.2c-4.3,0-8.6,0-12.9,0c0-1.4,0-2.6,0-3.9c3.9,0,7.6,0,11.5,0c0-1.7,0-3.4,0-5.1
		c-3.9,0-7.6,0-11.5,0c0-1.3,0-2.5,0-3.8c4.3,0,8.4,0,12.7,0c0-1.9,0-3.7,0-5.5c-6.4,0-12.9,0-19.3,0c0,8,0,16,0,24
		c6.5,0,12.9,0,19.5,0C171.8,109.9,171.8,108.2,171.8,106.2z M121.2,111.8c-3.4-8-6.7-15.9-10.1-23.7c-0.1-0.3-0.6-0.6-0.9-0.6
		c-1.7-0.1-3.2,0-4.9,0c-0.6,0-1,0.2-1.3,0.8c-3.2,7.6-6.4,15.2-9.6,22.9c-0.1,0.2-0.1,0.3-0.2,0.6c2.2,0,4.3,0,6.4,0
		c0.3,0,0.6-0.3,0.6-0.6c0.5-1,0.8-2,1.2-3c0.2-0.6,0.5-0.7,1.1-0.7c2.7,0,5.2,0,7.9,0c0.6,0,0.8,0.2,1.1,0.7c0.4,1,0.8,2,1.3,3
		c0.1,0.3,0.4,0.6,0.6,0.6C116.7,111.8,118.9,111.8,121.2,111.8z M85.7,103.5c-0.5,0.4-0.8,0.6-1.2,1c-1.6,1.5-3.4,2.1-5.5,1.7
		c-2.6-0.5-4.3-2.6-4.7-5.6c-0.4-2.8,1-5.6,3.4-6.8c2.4-1.1,5.1-0.6,7.2,1.7c0.2,0.2,0.3,0.5,0.5,0.7c1.7-1.4,3.4-2.7,5-3.9
		c-2.9-4.5-9.2-6.2-14.7-4.2c-5.4,1.9-8.6,7.1-8.2,13.2c0.5,5.6,4.6,10,10.5,11c5,0.8,10.8-1.7,12.5-5.3
		C88.9,105.7,87.3,104.6,85.7,103.5z M126.5,87.8c-0.1,0.2-0.1,0.3-0.1,0.4c0,7.7,0,15.3,0,23c0,0.6,0.3,0.6,0.7,0.6
		c1.7,0,3.6,0,5.3,0c0.2,0,0.4-0.1,0.6-0.1c0-2.6,0-5,0-7.5c0-0.8,0.3-1,1-1c3.1,0,6.2,0,9.5,0c0.8,0,1.1-0.3,1-1
		c-0.1-1.1-0.1-2.3,0-3.4c0-0.8-0.2-1.1-1-1.1c-3.1,0.1-6.2,0-9.4,0c-0.4,0-0.6,0-1,0c0-1.4,0-2.8,0-4.2c4.2,0,8.4,0,12.5,0
		c0-2,0-3.9,0-5.7C139.2,87.8,132.9,87.8,126.5,87.8z M159.5,85.9c1.7,0,3,0,4.4,0c0.2,0,0.4,0,0.6-0.1c1.6-1.1,3.1-2.3,4.9-3.5
		c-2.1-0.6-4.1-1.3-6.1-1.8C162,82.3,160.9,84,159.5,85.9z M180.5,93.9c0-1.6,0-3.1,0-4.7c0.6,0,1.2-0.1,1.7-0.1c0-0.5,0-0.9,0-1.3
		c-1.7,0-3.5,0-5.2,0c0,0.5,0,0.8,0,1.3c0.6,0,1.2,0.1,1.8,0.1c0,1.6,0,3.1,0,4.6C179.4,93.9,179.9,93.9,180.5,93.9z"/>
	<path d="M10.1,98.2c0.3-1.3,0.5-2.6,0.7-3.9c2.5-9.6,10.6-16.5,20.6-17.3c12.2-0.9,22.9,8,24.4,20.1c1.5,12.6-7.3,23.9-19.9,25.5
		c-12.4,1.6-24-7.3-25.6-19.6c-0.1-0.5-0.2-0.9-0.3-1.5C10.1,100.5,10.1,99.3,10.1,98.2z M33,121.9c12,0.1,21.8-9.7,21.9-21.9
		c0.1-11.9-9.7-21.8-21.7-21.9C21.2,78,11.2,87.7,11.1,99.7C11,112,20.7,121.8,33,121.9z"/>
	<path d="M190,94c-0.6,0-1-0.1-1.7-0.1c0-1.1,0-2.2,0-3.2c-0.1,0-0.2-0.1-0.3-0.1c-0.5,0.6-0.9,1.4-1.5,2.2c-0.6-0.8-1-1.5-1.5-2.2
		c-0.1,0-0.1,0-0.2,0.1c0,1.1,0,2.1,0,3.3c-0.6,0-1,0-1.6,0c0-2,0-3.9,0-6c2-0.8,2.3,1.2,3.2,2.2c0.8-1.2,1.3-2.9,3.3-2.4
		C190,89.9,190,91.9,190,94z"/>
	<path d="M171.8,106.2c0,1.9,0,3.7,0,5.6c-6.5,0-12.9,0-19.5,0c0-8,0-16,0-24c6.4,0,12.9,0,19.3,0c0,1.8,0,3.7,0,5.5
		c-4.2,0-8.4,0-12.7,0c0,1.3,0,2.5,0,3.8c3.9,0,7.6,0,11.5,0c0,1.7,0,3.4,0,5.1c-3.8,0-7.6,0-11.5,0c0,1.4,0,2.6,0,3.9
		C163.2,106.2,167.5,106.2,171.8,106.2z"/>
	<path d="M121.2,111.8c-2.4,0-4.5,0-6.7,0c-0.2,0-0.5-0.3-0.6-0.6c-0.5-1-0.8-2-1.3-3c-0.2-0.6-0.5-0.7-1.1-0.7c-2.7,0-5.2,0-7.9,0
		c-0.6,0-0.8,0.2-1.1,0.7c-0.4,1-0.7,2-1.2,3c-0.1,0.3-0.5,0.6-0.6,0.6c-2.1,0-4.2,0-6.4,0c0.1-0.3,0.1-0.4,0.2-0.6
		c3.2-7.6,6.4-15.2,9.6-22.9c0.3-0.6,0.6-0.8,1.3-0.8c1.7,0.1,3.2,0,4.9,0c0.3,0,0.7,0.3,0.9,0.6C114.5,96,117.9,103.8,121.2,111.8z
		 M110.4,102.4c-0.9-2.3-1.7-4.5-2.7-6.7c-0.1,0-0.2,0-0.3,0c-0.8,2.2-1.7,4.4-2.7,6.7C106.7,102.4,108.5,102.4,110.4,102.4z"/>
	<path d="M85.7,103.5c1.6,1.1,3.1,2.2,4.8,3.4c-1.7,3.7-7.5,6.1-12.5,5.3c-5.8-1-10-5.4-10.5-11C67.1,95,70.2,89.9,75.7,88
		c5.5-1.9,11.7-0.2,14.7,4.2c-1.6,1.4-3.2,2.6-5,3.9c-0.2-0.3-0.3-0.5-0.5-0.7c-2-2.1-4.8-2.8-7.2-1.7c-2.4,1.1-3.8,3.9-3.4,6.8
		c0.4,3,2.1,5.1,4.7,5.6c2.1,0.4,3.9-0.2,5.5-1.7C85,104.1,85.4,103.8,85.7,103.5z"/>
	<path d="M126.5,87.8c6.3,0,12.7,0,19.1,0c0,1.8,0,3.7,0,5.7c-4.1,0-8.3,0-12.5,0c0,1.5,0,2.8,0,4.2c0.4,0,0.7,0,1,0
		c3.1,0,6.2,0,9.4,0c0.9,0,1.1,0.3,1,1.1c-0.1,1.1-0.1,2.3,0,3.4c0,0.8-0.2,1-1,1c-3.1-0.1-6.2,0-9.5,0c-0.8,0-1.1,0.2-1,1
		c0.1,2.5,0,5,0,7.5c-0.2,0.1-0.5,0.1-0.6,0.1c-1.7,0-3.6,0-5.3,0c-0.5,0-0.7-0.1-0.7-0.6c0-7.7,0-15.3,0-23
		C126.4,88.1,126.5,88,126.5,87.8z"/>
	<path d="M159.5,85.9c1.3-1.9,2.5-3.7,3.7-5.5c2,0.6,4,1.2,6.1,1.8c-1.7,1.2-3.3,2.4-4.9,3.5c-0.1,0.1-0.4,0.1-0.6,0.1
		C162.6,85.9,161.2,85.9,159.5,85.9z"/>
	<path d="M180.5,93.9c-0.6,0-1.1,0-1.7,0c0-1.6,0-3,0-4.6c-0.6,0-1.2-0.1-1.8-0.1c0-0.5,0-0.8,0-1.3c1.7,0,3.4,0,5.2,0
		c0,0.4,0,0.8,0,1.3c-0.6,0-1.1,0.1-1.7,0.1C180.5,90.8,180.5,92.3,180.5,93.9z"/>
	<path class="st0" d="M33,121.9c-12.3-0.1-22-9.9-21.9-22.2c0.1-12,10.1-21.8,22.2-21.7C45.2,78.1,55.1,88.1,55,100
		C54.9,112.2,45.1,122,33,121.9z M53,105c0.6-1.8,0.7-5,0.4-8.3c-1-7.4-5.9-12.8-13.1-14.4c-2.6-0.6-5-0.6-7.2,1.3
		c-0.2,0.2-0.4,0.2-0.6,0.3c-0.7,0.3-1.4,0.2-1.9-0.4c-0.6-0.6-0.6-1.4-0.1-1.9c0.4-0.5,0.9-1.1,1.6-1.2c1.3-0.3,2.7-0.4,3.9-0.5
		c0.4,0,0.7,0.1,1.1,0.1c-0.8-0.3-1.7-0.5-2.4-0.5c-1.4,0-2.8,0-4.1,0.1c-7.6,0.7-13.5,5.8-15.1,13.1c-0.6,2.7-0.6,5.1,1.3,7.3
		c0.2,0.2,0.3,0.6,0.4,0.8c0.3,1.2-0.7,2.3-1.9,1.9c-0.5-0.2-1.1-0.6-1.3-1.1c-0.5-0.9-0.7-2-0.8-3c-0.1-1,0.1-2,0.1-3
		c-0.1,0-0.2,0-0.3,0c-0.1,1.8-0.3,3.8-0.2,5.6c0.4,6.9,4.2,14.2,13.2,16.2c2.6,0.6,5.1,0.7,7.3-1.3c0.2-0.2,0.4-0.3,0.6-0.3
		c1.2-0.5,2.5,0.4,2.3,1.5c-0.1,0.6-0.6,1.4-1,1.7c-0.9,0.5-2,0.8-3.1,0.8c-1.7,0-3.2-0.3-4.7-0.4c2.5,0.7,5.1,0.9,7.9,0.7
		c8.1-0.6,14.2-5.8,15.8-13.7c0.5-2.4,0.5-4.8-1.4-6.7c-0.1-0.1-0.2-0.3-0.3-0.4c-0.4-0.8-0.3-1.7,0.4-2.2c0.6-0.5,1.7-0.5,2.2,0.2
		c0.5,0.6,1,1.3,1.1,2C53,101.5,53,103.4,53,105z"/>
	<path d="M53,105c0-1.7,0.1-3.6-0.1-5.4c-0.1-0.7-0.6-1.5-1.1-2c-0.6-0.6-1.7-0.6-2.2-0.2c-0.6,0.5-0.7,1.4-0.4,2.2
		c0.1,0.1,0.2,0.3,0.3,0.4c1.8,1.9,1.8,4.3,1.4,6.7c-1.6,7.9-7.7,13.1-15.8,13.7c-2.8,0.2-5.4,0-7.9-0.7c1.5,0.1,3,0.4,4.7,0.4
		c1,0,2.2-0.4,3.1-0.8c0.6-0.3,0.9-1.1,1-1.7c0.2-1.2-1.1-1.9-2.3-1.5c-0.2,0.1-0.4,0.2-0.6,0.3c-2.1,2-4.7,1.9-7.3,1.3
		c-9-2-12.8-9.4-13.2-16.2c-0.1-1.8,0.1-3.8,0.2-5.6c0.1,0,0.2,0,0.3,0c-0.1,1-0.2,2-0.1,3c0.2,1,0.5,2.1,0.9,3
		c0.2,0.5,0.8,0.9,1.4,1.1c1.2,0.4,2.2-0.7,1.9-1.9c-0.1-0.3-0.2-0.6-0.4-0.8c-1.9-2.2-1.9-4.7-1.3-7.3c1.7-7.3,7.5-12.4,15.1-13.1
		c1.4-0.1,2.8-0.2,4.1-0.1c0.8,0,1.7,0.2,2.4,0.5c-0.4,0-0.7-0.1-1.1-0.1c-1.3,0.1-2.7,0.2-3.9,0.5c-0.6,0.1-1.1,0.7-1.6,1.2
		C30,82.3,30,83,30.6,83.6c0.6,0.6,1.2,0.7,1.9,0.4c0.2-0.1,0.4-0.2,0.6-0.3c2.1-2,4.6-1.9,7.2-1.3c7.3,1.7,12.1,7,13.1,14.4
		C53.7,100,53.5,103.2,53,105z M29.4,98.7c0.1,0.1,0.2,0.1,0.2,0.2c-0.3,0.4-0.5,0.7-0.8,1c-1.7,1-3.4,2-5,3
		c-1.4,0.9-2.4,2.1-2.9,3.7c-1.2,3,0.7,5.8,4,5.3c1-0.1,2.1-0.6,2.8-1.2c1-1,2-2.2,2.5-3.5c0.6-1.8,0.8-3.9,1.2-5.8
		c0.1-0.6,0.3-0.9,0.7-1.2c1.7-1,3.2-2,4.9-3c0.1,0,0.2-0.1,0.3-0.1c0.2,0.2,0.3,0.5,0.5,0.6c-2.4,1.4-3.9,3.3-4.3,6
		c-0.7,4.8,2.6,8.6,7.3,8.4c4.3-0.4,6.9-5.3,4.7-9c-1.5-2.4-5-2.6-6.7-0.4c-1,1.4-0.8,3.7,0.6,4.5c0.6,0.4,1.2,0.6,1.7,0.1
		c0.6-0.6,0.1-1.1-0.3-1.6c-0.1-0.1-0.2-0.2-0.2-0.3c0-0.6-0.3-1.3,0-1.6c0.3-0.4,1.1-0.7,1.6-0.6c0.6,0.2,1.3,0.6,1.6,1.2
		c0.9,1.7,0.2,3.9-1.4,5c-1.6,1.1-3.8,0.7-5-0.7c-2-2.3-1.7-6.4,0.5-8.5c0.9-0.9,1.9-1.5,3.3-1.2c0.5,0.1,1,0.1,1.5-0.1
		c0.5-0.2,0.7-0.6,1.1-0.9c-0.3-0.4-0.6-0.8-0.9-0.9c-0.6-0.2-1.4-0.2-2-0.1c-0.9,0.2-1.2-0.3-1.2-0.7c1.1-1,2-2.1,2.9-3.3
		c0.7-0.9,1.2-1.9,1.2-3.2c-0.1-1.1-0.8-1.9-2-2c-1.5-0.1-2.6,0.7-3.4,1.8c-1.2,1.6-1.6,3.3-1.5,5.2c0,0.3,0,0.7-0.2,0.9
		c-1.5,1-3,2-4.5,3c-0.1-0.1-0.2-0.2-0.4-0.3c0.4-0.7,0.6-1.5,1-2.2c0.3-0.6,0.8-1,1-1.7c0.2-0.5-0.1-0.9-0.1-1.5
		c-0.5,0.1-1.2,0-1.5,0.3c-0.6,0.6-1.1,1.4-1.4,2.2c-0.5,1.2-1.4,1.7-2.5,2.1c-0.6,0.2-1.1-0.1-1.3-0.5c1.3-1.2,2.6-2.2,3.7-3.4
		c1-1.2,1.7-2.7,1.6-4.3c-0.1-1.1-0.7-1.7-1.7-1.8c-1.1-0.1-2.1,0.4-2.9,1.1c-1.3,1.2-2.1,2.8-2.6,4.5c-0.2,0.6-0.3,1.3-0.4,1.9
		c-0.1,0-0.2,0.1-0.3,0.1c-0.3-0.5-0.7-0.8-0.8-1.3c-0.1-0.6,0.1-1.3,0-2c0-0.4-0.2-0.8-0.3-1.2c-0.4,0.2-0.9,0.4-1.2,0.6
		c-1,1.6-0.7,4.7,1.9,5.4c0.4,0.1,0.7,0.5,0.9,0.8c0.7,1.3,1.9,1.9,3.4,1.6C28.4,99.1,28.9,98.9,29.4,98.7z"/>
	<path class="st0" d="M29.4,98.7c-0.5,0.2-0.9,0.4-1.5,0.5c-1.5,0.4-2.7-0.3-3.4-1.6c-0.2-0.4-0.6-0.7-0.9-0.8
		c-2.7-0.8-2.9-3.9-1.9-5.4c0.2-0.4,0.7-0.5,1.2-0.6c0.1,0.4,0.3,0.8,0.3,1.2c0,0.6-0.2,1.4,0,2c0.1,0.5,0.6,0.8,0.8,1.3
		c0.1,0,0.2-0.1,0.3-0.1c0.1-0.6,0.2-1.3,0.4-1.9c0.5-1.7,1.2-3.2,2.6-4.5c0.8-0.7,1.7-1.2,2.9-1.1c1.1,0.1,1.7,0.8,1.7,1.8
		c0.1,1.7-0.6,3.1-1.6,4.3c-1.1,1.2-2.4,2.2-3.7,3.4c0.1,0.5,0.6,0.6,1.3,0.5c1.1-0.4,2-0.9,2.5-2.1c0.3-0.8,0.7-1.6,1.4-2.2
		c0.3-0.3,0.9-0.2,1.5-0.3c0,0.5,0.3,1,0.1,1.5c-0.2,0.6-0.7,1.1-1,1.7c-0.4,0.7-0.6,1.5-1,2.2c0.1,0.1,0.2,0.2,0.4,0.3
		c1.6-1,3-1.9,4.5-3c0.2-0.1,0.3-0.6,0.2-0.9c-0.1-1.9,0.4-3.7,1.5-5.2c0.8-1.1,1.9-1.9,3.4-1.8c1.1,0.1,1.9,0.8,2,2
		c0.1,1.2-0.5,2.3-1.2,3.2c-0.9,1.1-1.8,2.2-2.9,3.3c0,0.5,0.3,1,1.2,0.7c0.6-0.2,1.4-0.1,2,0.1c0.4,0.1,0.6,0.6,0.9,0.9
		c-0.4,0.3-0.6,0.7-1.1,0.9s-1,0.2-1.5,0.1c-1.4-0.2-2.4,0.4-3.3,1.2c-2.2,2.1-2.4,6.2-0.5,8.5c1.3,1.5,3.4,1.8,5,0.7
		c1.6-1,2.3-3.4,1.4-5c-0.3-0.6-1-1.1-1.6-1.2c-0.5-0.1-1.2,0.3-1.6,0.6c-0.3,0.4,0,1,0,1.6c0,0.1,0.1,0.2,0.2,0.3
		c0.4,0.5,0.8,1,0.3,1.6c-0.6,0.6-1.2,0.3-1.7-0.1c-1.3-0.8-1.6-3.1-0.6-4.5c1.7-2.2,5.1-2,6.7,0.4c2.3,3.7-0.4,8.6-4.7,9
		c-4.6,0.4-8-3.6-7.3-8.4c0.5-2.7,1.9-4.6,4.3-6c-0.2-0.3-0.3-0.5-0.5-0.6c-0.1,0-0.2,0.1-0.3,0.1c-1.7,1-3.2,2.1-4.9,3
		c-0.5,0.3-0.6,0.6-0.7,1.2c-0.3,1.9-0.5,3.9-1.2,5.8c-0.5,1.3-1.5,2.6-2.5,3.5c-0.6,0.6-1.8,1.1-2.8,1.2c-3.2,0.5-5.2-2.3-4-5.3
		c0.6-1.6,1.6-2.8,2.9-3.7c1.7-1.1,3.4-2,5-3C29,99.5,29.2,99.1,29.4,98.7C29.6,98.9,29.5,98.8,29.4,98.7z M29.1,101.7
		c-2.5,1.3-4.7,2.6-6.1,5c-0.3,0.5-0.5,1.1-0.5,1.7c-0.1,1,0.6,1.6,1.6,1.6c1.3,0,2.2-0.7,2.9-1.7C28.4,106.2,28.7,104.1,29.1,101.7
		z M26.2,94.9c1.7-1.3,3-2.7,3.6-4.5c0.1-0.3-0.1-0.7-0.2-1.1c-0.4,0.1-0.8,0.1-1.1,0.4C27.2,91.2,26.5,92.8,26.2,94.9z M38.3,93.9
		c1.2-1.1,2.2-2.1,2.8-3.4c0.1-0.3,0-0.6-0.1-1c-0.4,0.1-0.8,0-1,0.3C38.8,90.8,38.5,92.2,38.3,93.9z"/>
	<path d="M29.1,101.7c-0.4,2.4-0.8,4.6-2.1,6.4c-0.7,1-1.7,1.7-2.9,1.7c-1,0-1.7-0.6-1.6-1.6c0.1-0.6,0.2-1.2,0.5-1.7
		C24.4,104.3,26.7,103,29.1,101.7z"/>
	<path d="M26.2,94.9c0.4-2.1,1-3.8,2.3-5.1c0.3-0.3,0.7-0.3,1.1-0.4c0.1,0.4,0.3,0.7,0.2,1.1C29.2,92.4,27.9,93.7,26.2,94.9z"/>
	<path d="M38.3,93.9c0.2-1.7,0.6-3.1,1.7-4.2c0.2-0.2,0.7-0.2,1-0.3c0,0.4,0.2,0.7,0.1,1C40.5,91.8,39.5,92.8,38.3,93.9z"/>
</g>
</svg>
