<?xml version="1.0" encoding="utf-8"?>
<!-- Generator: Adobe Illustrator 26.2.1, SVG Export Plug-In . SVG Version: 6.00 Build 0)  -->
<svg version="1.1" id="Layer_1" xmlns="http://www.w3.org/2000/svg" xmlns:xlink="http://www.w3.org/1999/xlink" x="0px" y="0px"
	 viewBox="0 0 200 200" style="enable-background:new 0 0 200 200;" xml:space="preserve">
<style type="text/css">
	.st0{fill:none;}
</style>
<g id="a96dKW.tif">
	<g>
		<path class="st0" d="M69.3,89.2c-1.6,7.2-3.1,14.5-4.6,21.8c1.3,0,2.5,0,3.7,0c0.6,0,0.7-0.2,0.9-0.7c0.8-4.1,1.8-8.2,2.6-12.3
			c0.1-0.6,0.2-1.1,0.4-1.6c0.1-0.6,0.3-1,0.5-1.6c0.1,0,0.1,0,0.2,0c0.1,5.4,0.3,10.7,0.4,16.2c1.4,0,2.6,0,3.8,0
			c0.5,0,0.6-0.2,0.8-0.6c1.9-4.1,3.7-8.1,5.7-12.2c0.6-1.1,1.1-2.3,1.7-3.4c0.1,0,0.1,0.1,0.2,0.1c-1.1,5.4-2.3,10.7-3.4,16.1
			c1.6,0,3,0,4.5,0c1.6-7.2,3.1-14.5,4.6-21.7c-0.2,0-0.4-0.1-0.6-0.1c-1.7,0-3.3,0.1-4.9-0.1c-1.3-0.1-1.9,0.4-2.3,1.5
			c-1.8,4.1-3.7,8.2-5.6,12.2c-0.1,0.3-0.3,0.6-0.5,0.7c-0.1,0-0.2,0-0.2-0.1c-0.1-4.7-0.2-9.5-0.3-14.3
			C74.1,89.2,71.7,89.2,69.3,89.2z M168.1,95.9c-1.1,5-2.1,10.1-3.2,15.2c1.5,0,2.9,0,4.3,0c0.7-3.5,1.5-7.1,2.3-10.6
			c0.1-0.5,0.3-1,0.6-1.5c0.4-0.7,1.3-1,2-0.8c0.7,0.3,0.7,0.9,0.6,1.6c0,0.2,0,0.4-0.1,0.6c-0.6,3.1-1.3,6.1-2,9.2
			c-0.1,0.5-0.2,0.9-0.3,1.5c1.4,0,2.7,0,4.1,0c0.1-0.3,0.1-0.5,0.2-0.6c0.7-3.2,1.4-6.5,2.1-9.7c0.1-0.6,0.4-1.2,0.6-1.8
			c0.4-0.6,1.3-1,2-0.7c0.8,0.3,0.7,0.9,0.6,1.7c0,0.3-0.1,0.5-0.1,0.7c-0.6,2.3-1,4.7-1.6,7.1c-0.3,1.1-0.5,2.2-0.6,3.3
			c1.5,0,2.9,0,4.3,0c0.2-1,0.5-2,0.6-3.1c0.6-3.1,1.3-6.1,1.9-9.2c0.3-1.5-0.4-2.6-1.8-3c-1.7-0.5-3.3-0.2-4.7,0.9
			c-0.3,0.2-0.6,0.5-0.8,0.6c-2.3-2.8-4.6-1.9-7.1-0.2c0.1-0.5,0.1-0.8,0.2-1.3C170.9,95.9,169.6,95.9,168.1,95.9z M136.4,109.4
			c0.1,0,0.1,0.1,0.2,0.1c-0.3,1.2-0.5,2.4-0.9,3.6c-0.2,0.6-0.6,1.1-1.1,1.4c-0.5,0.2-1.1,0.2-1.6-0.1c-0.3-0.2-0.4-0.8-0.5-1.3
			c0-0.2,0-0.3,0-0.5c-1.4,0-2.7,0-4.1,0c-0.6,2.3,0.4,3.8,2.6,4.3c0.9,0.2,1.9,0.3,2.8,0.2c3.4-0.1,5.8-1.9,6.4-5.1
			c0.7-3.7,1.6-7.3,2.3-11c0.4-1.7,0.6-3.2,1-4.9c-1.4,0-2.7,0-4,0c-0.1,0.5-0.2,1-0.4,1.5c-1.6-2-3.6-2.4-5.8-1.2
			c-1.3,0.7-2.1,1.9-2.4,3.2c-0.6,2.5-1.2,5-1.7,7.5c-0.3,1.8,0.5,3.2,1.8,3.6c1.7,0.5,3.2,0.4,4.6-0.8
			C136.1,109.7,136.2,109.5,136.4,109.4z M161.1,101.4c-0.7,0-1.4,0-2,0c-1.6,0.1-3.1,0.3-4.5,1.2c-2.1,1.4-3,4.7-2.5,6.8
			c0.3,1.1,1,1.8,2.1,1.9c1.9,0.4,3.4-0.2,4.7-1.4c0.2-0.2,0.4-0.4,0.7-0.7c-0.1,0.7-0.1,1.3-0.2,1.9c1.3,0,2.6,0,3.9,0
			c0.2-0.9,0.3-1.9,0.5-2.8c0.6-2.8,1.2-5.6,1.8-8.4c0.4-2-0.3-3.3-2-3.9c-2.3-0.6-4.5-0.6-6.8,0.3c-1.6,0.6-2.8,2.5-2.7,4
			c1.2,0,2.4,0,3.6,0c0.2,0,0.4-0.3,0.5-0.6c0.2-0.4,0.4-0.8,0.6-1.2c0.5-0.6,1.5-0.8,2.2-0.5c0.7,0.4,0.6,0.9,0.6,1.6
			C161.4,100.3,161.3,100.8,161.1,101.4z M109,111.1c1.4,0,2.6,0,3.9,0c0.2,0,0.4-0.3,0.5-0.6c0.8-3.9,1.7-7.7,2.5-11.6
			c0.4-1.8-0.5-3-2.2-3.2c-0.6-0.1-1.4-0.2-2,0.1c-0.9,0.3-1.9,0.8-2.7,1.2c0-0.3,0.1-0.6,0.1-1.1c-1.2,0-2.4,0-3.6,0
			c-0.5,0-0.6,0.2-0.7,0.6c-0.6,2.7-1.1,5.4-1.8,8.1c-0.5,2.1-0.9,4.3-1.4,6.5c1.2,0,2.2-0.1,3.3,0c0.7,0.1,1-0.3,1.1-0.9
			c0.5-2.4,1-4.8,1.5-7.2c0.3-1.3,0.6-2.5,1-3.7c0.3-0.8,1.3-1.2,2.1-1c0.6,0.2,0.9,0.7,0.7,1.8c0,0.1,0,0.2-0.1,0.3
			C110.5,103.8,109.8,107.3,109,111.1z M124.1,95.5c-3.7,0-5.8,1.4-7,4.9c-0.6,1.9-1.1,4.1-1.3,6.2c-0.3,2.7,0.8,4.1,3.2,4.6
			c0.5,0.1,1,0.2,1.5,0.2c3.3,0.1,5.7-0.9,7.1-3.9c1.1-2.5,1.7-5.2,1.8-7.9c0.1-2.2-1.1-3.5-3.3-3.9
			C125.3,95.6,124.7,95.6,124.1,95.5z M93.8,111.4L93.8,111.4c0.3-0.1,0.5-0.1,0.7-0.1c2.7-0.1,4.8-1.3,5.9-3.8
			c1.1-2.6,1.8-5.4,1.8-8.3c0-1.9-1.1-3.2-3-3.5c-1.4-0.3-2.7-0.3-4.1,0c-1.7,0.3-3.1,1-4,2.5c-1.9,3.1-2.5,6.5-2.2,10.1
			c0.1,1.4,1,2.3,2.3,2.7C92.2,111.2,93,111.3,93.8,111.4z M149.5,95.8c-1.2,0-2.3,0-3.4,0c-0.5,0-0.6,0.1-0.6,0.6
			c-0.7,3.6-1.6,7.2-2.3,10.9c-0.3,1.3-0.6,2.5-0.7,3.7c0.1,0.1,0.2,0.1,0.2,0.1c0.8,0,1.8,0,2.6,0c1.4,0,1.4,0,1.7-1.4
			c0.6-2.7,1.1-5.4,1.8-8c0.4-1.4,1.4-2.1,2.8-2.3c1.4-0.2,1.5-0.2,1.8-1.6c0.2-0.7,0.3-1.5,0.5-2.2c-1.9,0-3.2,0.6-4.4,1.9
			C149.3,96.9,149.4,96.5,149.5,95.8z"/>
		<path d="M28.3,120.3c-1.3-0.3-2.6-0.5-3.8-0.9c-7.9-2.6-12.7-8.1-14.2-16.2c-1.6-9.3,3.8-18.6,12.4-22c10.8-4.4,23,1.1,26.9,12.1
			c2.7,7.6,0.5,16.3-5.6,21.8c-3.2,2.9-7,4.5-11.1,5.2c-0.2,0-0.4,0.1-0.5,0.1C31,120.3,29.7,120.3,28.3,120.3z M49.6,100
			c0-10.3-8.2-19.1-18.9-19.2c-10.9-0.2-19.6,8.4-19.6,19.1c0,10.6,8.6,19.3,19.2,19.3S49.6,110.6,49.6,100z"/>
		<path d="M190,107.7c-0.3,1-0.5,1.9-0.7,3c-0.1,0.2-0.3,0.5-0.4,0.5c-1,0-2.1,0-3.3,0c0.3-1.3,0.5-2.4,0.7-3.6
			c0-0.2,0.4-0.4,0.6-0.4c1,0,2,0,3.1,0C190,107.4,190,107.5,190,107.7z"/>
		<path d="M69.3,89.2c2.4,0,4.8,0,7.3,0c0.1,4.8,0.2,9.6,0.3,14.3c0.1,0,0.2,0,0.2,0.1c0.2-0.3,0.3-0.6,0.5-0.7
			c1.9-4.1,3.8-8.1,5.6-12.2c0.5-1.1,1-1.6,2.3-1.5c1.7,0.2,3.2,0.1,4.9,0.1c0.2,0,0.4,0,0.6,0.1c-1.6,7.2-3.1,14.5-4.6,21.7
			c-1.5,0-2.9,0-4.5,0c1.1-5.4,2.3-10.8,3.4-16.1c-0.1,0-0.1-0.1-0.2-0.1c-0.6,1.1-1.1,2.3-1.7,3.4c-1.9,4.1-3.7,8.1-5.7,12.2
			c-0.2,0.4-0.4,0.6-0.8,0.6c-1.2,0-2.4,0-3.8,0c-0.1-5.4-0.3-10.8-0.4-16.2c-0.1,0-0.1,0-0.2,0c-0.2,0.6-0.3,1-0.5,1.6
			c-0.1,0.6-0.2,1.1-0.4,1.6c-0.8,4.1-1.8,8.2-2.6,12.3c-0.1,0.6-0.3,0.7-0.9,0.7c-1.2,0-2.4,0-3.7,0
			C66.2,103.7,67.7,96.5,69.3,89.2z"/>
		<path d="M168.1,95.9c1.4,0,2.8,0,4.2,0c-0.1,0.5-0.1,0.8-0.2,1.3c2.4-1.9,4.8-2.6,7.1,0.2c0.3-0.2,0.6-0.5,0.8-0.6
			c1.5-1,3.1-1.4,4.7-0.9c1.4,0.4,2.1,1.6,1.8,3c-0.6,3.1-1.3,6.1-1.9,9.2c-0.2,1-0.5,2-0.6,3.1c-1.4,0-2.8,0-4.3,0
			c0.3-1.1,0.5-2.2,0.6-3.3c0.5-2.3,1-4.7,1.6-7.1c0.1-0.3,0.1-0.5,0.1-0.7c0.1-0.6,0.1-1.3-0.6-1.7c-0.7-0.3-1.7,0-2,0.7
			c-0.3,0.6-0.5,1.1-0.6,1.8c-0.7,3.2-1.4,6.5-2.1,9.7c-0.1,0.2-0.1,0.5-0.2,0.6c-1.4,0-2.7,0-4.1,0c0.1-0.6,0.2-1,0.3-1.5
			c0.6-3.1,1.3-6.1,2-9.2c0-0.2,0.1-0.4,0.1-0.6c0-0.6,0.1-1.3-0.6-1.6c-0.7-0.3-1.7,0-2,0.8c-0.3,0.5-0.5,0.9-0.6,1.5
			c-0.7,3.5-1.5,7-2.3,10.6c-1.4,0-2.8,0-4.3,0C166,106,167.1,100.9,168.1,95.9z"/>
		<path d="M136.4,109.4c-0.2,0.2-0.4,0.3-0.6,0.5c-1.4,1.2-3,1.3-4.6,0.8c-1.3-0.4-2.1-1.9-1.8-3.6c0.5-2.5,1-5,1.7-7.5
			c0.4-1.4,1.2-2.5,2.4-3.2c2.1-1.2,4.2-0.8,5.8,1.2c0.1-0.6,0.2-1,0.4-1.5c1.3,0,2.6,0,4,0c-0.4,1.7-0.7,3.3-1,4.9
			c-0.7,3.7-1.6,7.3-2.3,11c-0.6,3.2-3,5-6.4,5.1c-0.9,0-1.9,0-2.8-0.2c-2.2-0.5-3.2-1.9-2.6-4.3c1.3,0,2.7,0,4.1,0
			c0,0.2-0.1,0.4,0,0.5c0.1,0.5,0.2,1.1,0.5,1.3c0.5,0.3,1.2,0.3,1.6,0.1c0.5-0.3,0.9-0.8,1.1-1.4c0.4-1.2,0.6-2.4,0.9-3.6
			C136.5,109.4,136.5,109.4,136.4,109.4z M138.4,100.2c0-1,0.1-1.8-0.8-1.9c-0.8-0.2-1.6,0.2-2,1c-0.2,0.3-0.4,0.6-0.4,0.8
			c-0.5,1.9-0.9,3.7-1.3,5.6c-0.1,0.5-0.1,1,0,1.5c0.1,0.8,0.6,1.2,1.4,1.1c0.9-0.1,1.5-0.7,1.8-1.5
			C137.7,104.6,138.1,102.2,138.4,100.2z"/>
		<path d="M161.1,101.4c0.1-0.6,0.3-1.2,0.4-1.7c0.2-0.6,0.2-1.3-0.6-1.6c-0.7-0.4-1.8-0.2-2.2,0.5c-0.3,0.4-0.4,0.8-0.6,1.2
			c-0.1,0.2-0.3,0.6-0.5,0.6c-1.2,0-2.4,0-3.6,0c-0.1-1.5,1.1-3.2,2.7-4c2.2-1,4.5-1,6.8-0.3c1.9,0.6,2.5,1.9,2,3.9
			c-0.6,2.8-1.2,5.6-1.8,8.4c-0.2,0.9-0.3,1.9-0.5,2.8c-1.3,0-2.6,0-3.9,0c0.1-0.6,0.1-1.1,0.2-1.9c-0.4,0.4-0.6,0.6-0.7,0.7
			c-1.3,1.3-2.9,1.8-4.7,1.4c-1.1-0.2-1.9-0.8-2.1-1.9c-0.5-2,0.4-5.5,2.5-6.8c1.4-0.8,2.9-1.1,4.5-1.2
			C159.7,101.4,160.4,101.4,161.1,101.4z M160.6,103.9c-2.6-0.4-4,0.5-4.3,2.8c0,0.1-0.1,0.2-0.1,0.3c-0.1,0.6-0.2,1.2,0.5,1.7
			c0.6,0.5,1.3,0.3,1.9-0.1c0.3-0.2,0.6-0.5,0.7-0.7C160.2,106.6,160.4,105.3,160.6,103.9z"/>
		<path d="M109,111.1c0.7-3.7,1.6-7.2,2.3-10.8c0-0.1,0.1-0.2,0.1-0.3c0.2-1-0.1-1.6-0.7-1.8c-0.8-0.2-1.9,0.2-2.1,1
			c-0.4,1.2-0.7,2.5-1,3.7c-0.6,2.4-1,4.8-1.5,7.2c-0.1,0.6-0.4,0.9-1.1,0.9c-1.1-0.1-2.2,0-3.3,0c0.5-2.2,0.9-4.4,1.4-6.5
			c0.6-2.7,1.2-5.4,1.8-8.1c0.1-0.5,0.2-0.6,0.7-0.6c1.2,0,2.4,0,3.6,0c-0.1,0.5-0.1,0.8-0.1,1.1c0.9-0.5,1.8-0.9,2.7-1.2
			c0.6-0.2,1.4-0.2,2-0.1c1.8,0.3,2.6,1.6,2.2,3.2c-0.8,3.9-1.7,7.7-2.5,11.6c0,0.2-0.3,0.6-0.5,0.6
			C111.6,111.1,110.3,111.1,109,111.1z"/>
		<path d="M124.1,95.5c0.6,0.1,1.2,0.1,1.8,0.2c2.2,0.4,3.3,1.7,3.3,3.9c-0.1,2.7-0.6,5.4-1.8,7.9c-1.3,3-3.6,4-7.1,3.9
			c-0.5,0-1-0.1-1.5-0.2c-2.3-0.5-3.4-1.9-3.2-4.6c0.3-2,0.6-4.2,1.3-6.2C118.2,96.9,120.5,95.6,124.1,95.5z M125,100.3
			c0-0.9,0-1.6-0.7-1.9c-0.7-0.3-1.7-0.1-2.2,0.5c-0.2,0.2-0.4,0.5-0.5,0.7c-0.3,0.8-0.6,1.7-0.8,2.6c-0.4,1.7-0.6,3.3-0.8,5.1
			c-0.1,1.1,0.6,1.7,1.9,1.4c0.7-0.2,1.2-0.6,1.5-1.3C124.3,105,124.6,102.5,125,100.3z"/>
		<path d="M93.8,111.4c-0.8-0.2-1.7-0.2-2.5-0.5c-1.4-0.4-2.2-1.3-2.3-2.7c-0.3-3.6,0.4-7,2.2-10.1c0.8-1.5,2.3-2.2,4-2.5
			c1.4-0.3,2.7-0.3,4.1,0c1.9,0.4,2.9,1.6,3,3.5c0.1,2.9-0.6,5.7-1.8,8.3c-1.1,2.5-3.2,3.7-5.9,3.8c-0.3,0-0.5,0-0.7,0
			C93.8,111.3,93.8,111.4,93.8,111.4z M93.1,106.7c0,0.2,0,0.4,0,0.6c0,1,0.4,1.3,1.4,1.4c0.9,0,1.5-0.5,1.8-1.2
			c0.5-1.4,0.9-2.9,1.3-4.4c0.3-1.1,0.5-2.3,0.5-3.5c0.1-0.9-0.5-1.3-1.4-1.3c-1,0-1.7,0.6-2,1.4C93.7,101.9,93.4,104.3,93.1,106.7z
			"/>
		<path d="M149.5,95.8c-0.1,0.6-0.2,1.1-0.3,1.7c1.2-1.2,2.5-1.9,4.4-1.9c-0.2,0.7-0.3,1.5-0.5,2.2c-0.4,1.4-0.4,1.4-1.8,1.6
			c-1.4,0.2-2.4,0.9-2.8,2.3c-0.6,2.7-1.2,5.4-1.8,8c-0.3,1.4-0.3,1.4-1.7,1.4c-0.8,0-1.8,0-2.6,0c0,0-0.1,0-0.2-0.1
			c0.3-1.2,0.6-2.5,0.7-3.7c0.7-3.6,1.6-7.2,2.3-10.9c0.1-0.5,0.3-0.6,0.6-0.6C147.2,95.8,148.3,95.8,149.5,95.8z"/>
		<path d="M24.6,117.2c1.5,0.2,3.1,0.4,4.6,0.5c0.8,0,1.8-0.3,2.5-0.6c0.4-0.2,0.7-0.8,0.8-1.3c0.2-0.6-0.2-1.1-0.7-1.4
			c-0.6-0.3-1.1-0.3-1.6,0.2c-1.6,1.6-3.4,1.6-5.5,1.3c-6.6-1-11.6-6.1-12.5-12.8c-0.5-3.1-0.3-5.9,0.9-8.8
			c-0.1,0.5-0.2,0.8-0.3,1.3c-0.3,1.5-0.5,3.1-0.2,4.6c0.2,0.4,0.5,1,0.7,1.5c0.6,0.7,1.6,0.8,2.2,0.3c0.7-0.6,0.7-1.4,0-2.1
			c-1.1-1.1-1.4-2.5-1.3-4.1c0.3-5.7,4.5-11.2,10.3-13c3.4-1,6.9-1.3,10.4-0.4c0.4,0.1,0.7,0.3,1.1,0.5c-0.9-0.2-1.9-0.5-2.8-0.5
			c-1.3,0-2.6,0.1-3.8,0.3c-0.4,0.1-0.8,0.4-1.1,0.7c-0.6,0.6-0.6,1.4-0.1,2c0.5,0.6,1.5,0.7,2,0.1c1.9-1.9,4-1.6,6.2-1.2
			c7.5,1.3,12.4,8.7,11.9,16.2c-0.1,1.7-0.6,3.2-0.8,4.8c0,0.1-0.1,0.3-0.1,0.2c0.2-1.4,0.4-3.1,0.5-4.6c0.1-1-0.2-1.9-0.9-2.7
			c-0.6-0.7-1.5-0.8-2.2-0.3c-0.6,0.6-0.7,1.5,0,2.1c1.4,1.4,1.5,3.1,1.2,4.8c-0.8,5.9-4.3,9.9-9.8,12.1c-3.9,1.5-7.8,1.3-11.7,0.2
			C24.6,117.2,24.5,117.2,24.6,117.2z M34.4,97.7c-0.3,0.2-0.5,0.4-0.6,0.6c-2.3,1.9-3.4,4.3-3,7.2c0.4,2.3,1.6,4.2,3.9,4.9
			c4.2,1.4,8.4-2,7.3-6.5c-0.6-2.4-3.1-3.7-5.3-2.7c-1.5,0.6-2.2,2.3-1.7,3.8c0.3,0.8,0.8,1.4,1.7,1.6c0.3,0,0.6-0.3,1-0.4
			c-0.1-0.3-0.3-0.6-0.4-0.9c-0.2-0.4-0.6-0.6-0.6-0.9c-0.2-0.8,0.2-1.5,0.9-1.8c0.8-0.4,1.7-0.1,2.1,0.6c1,1.5,0.6,4-0.9,5.1
			c-1.3,1-3.6,0.7-4.7-0.6c-2.3-2.6-1.5-7.3,1.5-9c0.2-0.1,0.6-0.1,0.7-0.1c0.8,0.1,1.7,0.1,2.5-0.4c0.5-0.3,0.8-0.6,0.6-1.1
			c-0.2-0.4-0.6-0.7-1.1-0.7c-0.7,0-1.5,0.2-2.2,0.3c-0.2,0-0.6-0.1-0.6-0.3c-0.1-0.1,0-0.5,0.1-0.6c0.4-0.5,0.8-0.7,1.2-1.2
			c0.9-0.9,1.7-1.9,1.9-3.2c0.2-0.9,0.1-1.8-0.7-2.3c-0.8-0.6-1.8-0.6-2.7,0c-0.3,0.2-0.6,0.5-0.7,0.7c-0.9,1.1-1.6,2.4-1.4,3.8
			c0.3,1.9-0.5,2.9-1.9,3.7c-0.6,0.4-1.2,0.7-1.9,1.1c-0.2,0.1-0.4,0.2-0.6,0.3c0-0.8,0-1.6,0.7-2.1c0.5-0.4,0.7-0.9,0.9-1.4
			c0.1-0.3,0-1-0.2-1.1c-0.3-0.2-0.9-0.1-1.2,0.1c-0.5,0.4-0.9,0.9-1.1,1.6c-0.3,1-1,1.6-1.8,2.1c-0.3,0.2-0.7,0.3-1,0.3
			c-0.2,0-0.5-0.3-0.6-0.5c0.1-0.2,0.3-0.4,0.5-0.5c2.2-1.4,3.5-3.3,3.9-5.9c0.3-1.7-0.9-2.6-2.5-2c-1.4,0.5-2.4,1.6-3,3
			c-0.5,1.2-0.7,2.4-1.1,3.7c-0.7-0.2-1.3-0.8-1.4-1.8c0-0.5,0.1-0.8,0-1.3c0-0.2-0.2-0.5-0.2-0.6c-0.2,0.1-0.5,0.2-0.6,0.4
			c-1.1,2,0,4.5,1.9,4.9c0.5,0.1,0.6,0.3,0.8,0.7c0.6,1.4,1.6,1.8,3.1,1.3c0.4-0.1,0.8-0.4,1.2-0.5c0.1,0.1,0.1,0.1,0.2,0.2
			c-0.2,0.3-0.4,0.6-0.6,0.8c-1.2,0.7-2.5,1.4-3.7,2.1c-1.5,1-2.8,2.3-3.3,4.2c-0.5,1.7,0.1,3.4,1.3,4.3c1.3,0.8,3.2,0.6,4.5-0.5
			c1.3-1,2.2-2.3,2.5-4c0.4-1.7,0.5-3.3,0.7-5c0-0.3,0.3-0.6,0.5-0.7c1.6-1,3.2-2,4.7-3.1C34,97.3,34.2,97.5,34.4,97.7z"/>
		<path d="M27,101.5c-0.5,2.4-0.7,4.7-2.3,6.6c-0.3,0.3-0.6,0.6-0.8,0.7c-0.6,0.4-1.1,0.6-1.8,0.2s-0.9-1-0.7-1.7
			c0.3-0.9,0.6-1.9,1.2-2.7C23.6,103.3,25.2,102.4,27,101.5z"/>
		<path d="M24.1,95.7c0-1.9,0.7-3.5,2.2-4.8c0.2-0.1,0.5-0.2,0.6-0.1c0.1,0.1,0.2,0.4,0.2,0.6C26.7,93.2,25.8,94.6,24.1,95.7z"/>
		<path d="M34.7,94.3c0.3-1,0.5-2,0.7-3c0.1-0.3,0.4-0.6,0.6-0.7c0.2-0.1,0.6-0.2,0.7-0.1c0.2,0.1,0.3,0.5,0.3,0.6
			c-0.2,0.6-0.5,1.2-0.7,1.8c-0.4,0.6-0.8,1-1.2,1.5C35,94.4,34.8,94.3,34.7,94.3z"/>
	</g>
</g>
</svg>
