<?xml version="1.0" encoding="utf-8"?>
<!-- Generator: Adobe Illustrator 26.2.1, SVG Export Plug-In . SVG Version: 6.00 Build 0)  -->
<svg version="1.1" id="Layer_1" xmlns="http://www.w3.org/2000/svg" xmlns:xlink="http://www.w3.org/1999/xlink" x="0px" y="0px"
	 viewBox="0 0 200 200" style="enable-background:new 0 0 200 200;" xml:space="preserve">
<g>
	<path d="M20,122.5L20,122.5c-2.6-0.1-5.1-1.1-6.9-2.9l-0.1,0.1l0.1-0.1c-1.8-1.7-2.9-4.1-2.9-6.7h-0.2h0.1v-26h-0.1h0.1
		c0-2.6,1.1-5,2.9-6.7s4.2-2.8,6.9-2.8h159.9c2.6,0,5.1,1,6.9,2.8c1.8,1.7,2.9,4.1,2.9,6.7v26c0,2.5-1,4.9-2.9,6.7
		c-1.8,1.7-4.3,2.8-6.9,2.8L20,122.5L20,122.5 M13.6,80.8c-1.7,1.7-2.7,3.9-2.7,6.3v26c0,2.4,0.9,4.6,2.7,6.3c1.7,1.7,4,2.6,6.4,2.6
		H180c5.1,0,9.1-4,9.1-8.8V86.9c0-2.4-0.9-4.6-2.7-6.3c-1.7-1.7-4-2.6-6.4-2.6H20C17.5,78.2,15.2,79.1,13.6,80.8"/>
	<path d="M20,122.7L20,122.7l159.9-0.1c2.7,0,5.2-1,7-2.8c1.8-1.8,2.9-4.2,2.9-6.8V86.9c0-2.6-1-5-2.9-6.8c-1.8-1.8-4.3-2.8-7-2.8
		H20c-5.5,0-9.9,4.3-9.9,9.6H10c0-5.3,4.5-9.7,10-9.7H180c2.7,0,5.2,1,7.1,2.9c1.9,1.8,2.9,4.2,2.9,6.8v26c0,2.6-1,5.1-2.9,6.8
		c-1.9,1.8-4.4,2.9-7.1,2.9L20,122.7 M12.9,119.9L12.9,119.9c1.9,1.7,4.4,2.8,7.1,2.8v0.1C17.4,122.7,14.8,121.7,12.9,119.9 M10,113
		L10,113c0.1,2.6,1.1,5,3,6.8l-0.1,0.1C11,118,10,115.5,10,113v-26h0.1L10,113L10,113"/>
	<path d="M20,122.5L20,122.5L20,122.5L20,122.5l159.9-0.1c2.6,0,5.1-1,6.9-2.8s2.9-4.1,2.9-6.7v-26c0-2.5-1-4.9-2.9-6.7
		c-1.8-1.7-4.3-2.8-6.9-2.8v-0.1v0.1H20v-0.1v0.1c-2.7,0-5.2,1-6.9,2.8s-2.9,4-2.9,6.7h-0.2c0-5.2,4.4-9.6,9.9-9.6H180
		c2.7,0,5.2,1,7,2.8c1.8,1.8,2.9,4.2,2.9,6.8v26c0,2.6-1,5-2.9,6.8c-1.8,1.8-4.3,2.8-7,2.8v-0.1v0.1H20 M186.9,80.3L186.9,80.3
		L186.9,80.3 M20,122.5c-2.7,0-5.2-1-7-2.8l0.1-0.1l-0.1,0.1l0.1-0.1C15,121.4,17.5,122.4,20,122.5L20,122.5 M13,119.8
		c-1.8-1.8-2.9-4.2-2.9-6.8h0.1C10.2,115.5,11.2,117.9,13,119.8L13,119.8 M10.1,113v-26h0.1L10.1,113L10.1,113"/>
	<path d="M20,119.1L20,119.1c-1.7-0.1-3.3-0.7-4.4-1.8c-1.1-1.1-1.8-2.6-1.8-4.2h-0.1h0.1V86.9h-0.1h0.1c0-1.7,0.7-3.1,1.8-4.2
		c1.1-1.1,2.7-1.7,4.4-1.7H180c1.7,0,3.3,0.6,4.4,1.7c1.1,1.1,1.8,2.6,1.8,4.2v26c0,1.7-0.7,3.1-1.8,4.2s-2.7,1.7-4.4,1.7H20V119.1
		 M140.6,101.1c0,4.9,3.2,9.1,8.8,9.1c2,0,4.2-0.7,5.2-2.4h0.1v1.8h5.2v-17h-5.2v1.8h-0.1c-0.6-1-2.2-2.4-5.2-2.4
		C144.7,92.1,140.6,95.6,140.6,101.1 M89.1,101.1c0,5.2,3.5,9.1,8.8,9.1c3.6,0,4.8-1.7,5.2-2.4h0.1v1.8h5V86.9H103V94
		c-0.6-0.6-2-2-5.2-2C93.3,92.1,89.1,95.3,89.1,101.1 M67.9,101.1c0,4.1,3,9,9.5,9c6.4,0,9.5-4.9,9.5-9c0-4.1-3-9-9.5-9
		C71.1,92.1,67.9,97,67.9,101.1 M46.9,101.1c0,4.1,3,9,9.5,9s9.5-4.9,9.5-9c0-4.1-3-9-9.5-9S46.9,97,46.9,101.1 M19.8,98.2
		c0,6.5,5.3,11.9,12.4,11.9c6.5,0,12.5-4.6,12.5-12.1c0-0.5,0-0.8,0-1.2H30.9v4.6h7c-0.6,2.2-2.7,3.7-5.6,3.7c-2.9,0-6.4-2-6.4-6.8
		c0-4.5,3.5-6.6,6.4-6.6c2.6,0,4.2,1.4,5.2,2.9h6.7c-1.3-4.3-6.2-7.9-11.7-7.9C25.5,86.6,19.8,91.4,19.8,98.2 M174.1,100.4v9.3h5.2
		V99c0-3.3-1.1-4.7-2-5.5c-0.9-0.8-2.9-1.5-4.5-1.5c-3.1,0-4.2,1.6-4.8,2.4h-0.1v-1.8h-4.9v17h5.2v-9.2c0-1,0-3.6,3-3.6
		C174.1,96.8,174.1,99.2,174.1,100.4 M133.1,100.6v9h5.2v-9.2c0-3.8-0.3-4.9-1.9-6.6c-1.4-1.5-3.4-1.7-4.6-1.7c-2.7,0-4.5,1.4-5.6,3
		c-1.4-2.5-3.5-3-5.1-3c-3.3,0-4.4,1.7-4.9,2.4h-0.1v-1.8h-4.9v17h5.2v-9c0-1,0-3.8,2.9-3.8c2.7,0,2.7,2.7,2.7,3.6v9.3h5.2v-9.3
		c0-0.9,0-3.5,2.9-3.5C133.1,96.8,133.1,99.2,133.1,100.6 M176.9,90c0,1.4,1.1,2.5,2.6,2.5c1.6,0,2.6-1,2.6-2.5
		c0-1.4-1.1-2.5-2.6-2.5C178,87.5,176.9,88.7,176.9,90 M145.9,101.2c0-1.9,1.3-4.4,4.3-4.4c2.9,0,4.4,2.3,4.4,4.3
		c0,1.7-1.1,4.3-4.4,4.3C147,105.4,145.9,102.8,145.9,101.2 M94.3,101c0-1.9,1.4-4.2,4.5-4.2c2.9,0,4.4,2.2,4.4,4.2
		c0,1.7-1.2,4.4-4.5,4.4C96.3,105.4,94.3,103.7,94.3,101 M73.2,101.1c0-2.5,1.9-4.3,4.2-4.3s4.2,1.8,4.2,4.3s-1.9,4.3-4.2,4.3
		S73.2,103.6,73.2,101.1 M52.1,101.1c0-2.5,1.9-4.3,4.2-4.3s4.2,1.8,4.2,4.3s-1.9,4.3-4.2,4.3C54.1,105.4,52.1,103.6,52.1,101.1
		 M177.3,90c0-1.2,0.9-2.2,2.2-2.2c1.3,0,2.2,1,2.2,2.2c0,1.2-1,2.2-2.2,2.2C178.2,92.2,177.3,91.2,177.3,90 M180.7,91.4
		c-0.1-0.1-0.1-0.2-0.1-0.7c0-0.4-0.1-0.6-0.5-0.6l0,0c0.4-0.1,0.6-0.4,0.6-0.7c0-0.7-0.8-0.7-1-0.7h-1.3v2.9h0.4v-1.2h0.7
		c0.6,0,0.7,0.2,0.7,0.6c0,0.4,0,0.5,0.1,0.6L180.7,91.4 M178.8,89.9v-1h0.8c0.2,0,0.7,0,0.7,0.5c0,0.6-0.6,0.6-0.8,0.6H178.8"/>
	<path d="M20,119.2L20,119.2l159.9-0.1c3.5,0,6.3-2.8,6.3-6.2v-26c0-3.4-2.9-6.2-6.3-6.2H20c-3.5,0-6.3,2.8-6.3,6.2h-0.2
		c0-3.5,2.9-6.3,6.4-6.3h159.9c3.6,0,6.4,2.8,6.4,6.3v26c0,3.4-2.9,6.3-6.4,6.3H20 M13.5,113L13.5,113c0.1,3.4,2.9,6.2,6.4,6.2v0.1
		C16.4,119.2,13.5,116.4,13.5,113v-26h0.1L13.5,113L13.5,113"/>
	<path d="M20,119.1L20,119.1L20,119.1L20,119.1L180,119c1.7,0,3.3-0.6,4.4-1.7c1.1-1.1,1.8-2.6,1.8-4.2V86.9c0-1.7-0.7-3.1-1.8-4.2
		c-1.1-1.1-2.7-1.7-4.4-1.7v-0.1V81H20v-0.1V81c-1.7,0-3.3,0.6-4.4,1.7c-1.1,1.1-1.8,2.6-1.8,4.2h-0.1c0-3.4,2.9-6.2,6.3-6.2H180
		c3.5,0,6.3,2.8,6.3,6.2v26c0,3.4-2.9,6.2-6.3,6.2V119v0.1L20,119.1c-3.5,0-6.3-2.8-6.3-6.2h0.1c0,1.7,0.7,3.1,1.8,4.2
		s2.7,1.7,4.4,1.7V119.1 M13.7,113v-26h0.1L13.7,113L13.7,113"/>
</g>
</svg>
