<?xml version="1.0" encoding="utf-8"?>
<!-- Generator: Adobe Illustrator 26.2.1, SVG Export Plug-In . SVG Version: 6.00 Build 0)  -->
<svg version="1.1" id="Layer_1" xmlns="http://www.w3.org/2000/svg" xmlns:xlink="http://www.w3.org/1999/xlink" x="0px" y="0px"
	 viewBox="0 0 200 200" style="enable-background:new 0 0 200 200;" xml:space="preserve">
<style type="text/css">
	.st0{fill:none;}
</style>
<g>
	<path class="st0" d="M190,127.5c0-15.5,0-39.6,0-55c-69.6,0-110.5,0-180,0c0,15.5,0,39.6,0,55C79.5,127.5,120.5,127.5,190,127.5z"
		/>
	<path d="M190,127.5c-69.5,0-110.4,0-180,0c0-15.3,0-39.6,0-55c69.5,0,110.4,0,180,0C190,87.9,190,112,190,127.5z M28.3,97.1
		c0-0.3,0-0.6,0-0.8c0-2.6,0-5.4,0-8.1c0-1.1-0.4-1.9-1.4-2c-0.8-0.1-1.5-0.1-2.3,0.1c-0.8,0.2-1.2,0.9-1.2,1.8c0,7.6,0,15.2,0,22.8
		c0,0.4,0.2,1,0.6,1.3c0.6,0.8,2.1,0.9,3.2,0.4c1-0.4,1.3-1.1,1.2-2.1c0-2.8,0-5.4,0-8.2c0-0.2,0-0.6,0-0.8c3.6,0,7.1,0,10.6,0
		c0,0.3,0,0.6,0,0.9c0,2.8,0,5.5,0,8.4c0,1.1,0.6,1.9,1.7,2c0.6,0.1,1.2,0.1,1.8,0c1.1-0.2,1.7-0.9,1.7-2.1c0-7.5,0-15,0-22.5
		c0-1.4-0.9-2.2-2.4-2.2c-1.7,0-2.5,0.8-2.5,2.2c0,2.6,0,5.3,0,7.9c0,0.2,0,0.6,0,0.8C35.4,97.1,31.9,97.1,28.3,97.1z M91.3,113
		c1.9,0,3.6,0.1,5.4,0.1c4-0.2,7.2-2.6,8.2-6.3c0.6-2.1,0.6-4.2,0.2-6.3c-0.7-3.9-3-6.2-6.8-7c-3-0.6-6-0.3-8.8,0.2
		c-2.1,0.4-3,1.7-3,3.8c0,1.3,0,2.8,0,4.1c0,5.6,0,11.4,0,17c0,0.8,0.1,1.4,0.8,1.9c1,0.7,2.1,0.7,3.1,0.1c1-0.4,1.1-1.3,1.1-2.3
		C91.3,116.6,91.3,114.8,91.3,113z M108,103c0.1,1.1,0.1,2.1,0.3,3.1c0.7,3.6,2.6,6.1,6.2,7c2.3,0.6,4.7,0.6,7.1,0
		c3.2-0.8,5.2-2.8,6.1-6c0.7-2.6,0.7-5.3,0-7.8c-0.9-3.2-3-5.2-6.2-6c-2.2-0.6-4.4-0.6-6.7,0c-3.4,0.8-5.5,3-6.3,6.4
		C108.2,100.8,108.1,102,108,103z M67.7,103.5c-0.1-1.2-0.1-2.2-0.3-3.1c-0.6-4.1-3-6.5-7-7.3c-2-0.3-4-0.3-6,0
		c-3.4,0.7-5.6,2.8-6.5,6.2c-0.6,2.4-0.6,5,0,7.5c0.8,3.3,2.9,5.4,6.2,6.2c2.2,0.6,4.5,0.6,6.7,0c3.2-0.8,5.3-2.8,6.1-6
		C67.4,105.8,67.5,104.5,67.7,103.5z M141.2,105.2C141.1,105.2,141.1,105.2,141.2,105.2c-0.1,1.9-0.1,3.8-0.1,5.6
		c0,0.6,0.2,1.1,0.6,1.5c0.6,0.8,2.2,0.9,3.2,0.4c1-0.4,1.2-1.2,1.2-2.2c0-3.1,0-6.2,0-9.4c0-0.7,0.1-1.3,0.1-2
		c0.1-0.9,0.7-1.5,1.5-1.5c1.7-0.1,3.4-0.1,5.1,0c0.9,0,1.4,0.8,1.5,1.5c0.1,0.6,0.1,1.2,0.1,1.8c0,3.3,0,6.5,0,9.8
		c0,1.1,0.7,1.8,1.8,2c1.4,0.2,2.6-0.2,3.1-1.2c0.1-0.2,0.1-0.3,0.1-0.6c0-3.9,0.1-7.7-0.1-11.7c-0.1-3.3-1.9-5.3-5.1-5.8
		c-2.6-0.4-5.4-0.4-8.1,0c-3.2,0.6-5,2.5-5.2,5.8C141.1,101.3,141.2,103.2,141.2,105.2z M168.8,93.7c0-1.7,0-3.3,0-4.9
		c0-1.1-0.6-1.9-1.5-2.1c-0.7-0.1-1.3-0.1-1.9,0c-1,0.2-1.5,0.9-1.5,2c0,6.2,0,12.4,0,18.7c0,3.2,1.8,5.2,5.1,5.5
		c1.9,0.2,3.8,0.1,5.5,0.1c1.1,0,1.8-0.8,1.8-1.9c0-1.2-0.7-1.9-1.8-1.9c-1.2,0-2.5,0-3.8-0.1c-1.1-0.1-1.7-0.7-1.8-1.8
		c0-0.3,0-0.7,0-1c0-2.8,0-5.5,0-8.3c0-0.2,0-0.3,0-0.7c0.3,0,0.6,0,0.8,0c1.4,0,3,0,4.4,0c1,0,1.7-0.6,1.8-1.5
		c0.1-1.4-0.6-2.2-2-2.2C172.3,93.7,170.7,93.7,168.8,93.7z M76.2,93.7c0-0.3,0-0.7,0-0.9c0-1.4,0-2.8,0-4.2c0-1-0.6-1.8-1.7-1.9
		c-0.6-0.1-1.1-0.1-1.7,0c-1.1,0.2-1.7,1-1.7,2.1c0,6.2,0,12.4,0,18.5c0,3.2,1.8,5.2,5,5.5c1.9,0.2,3.8,0.1,5.5,0.1
		c1.2,0,1.9-0.7,1.9-1.9c0-1.2-0.7-1.9-1.9-1.9c-1.2,0-2.5,0-3.8-0.1c-1-0.1-1.5-0.6-1.7-1.7c-0.1-0.3-0.1-0.8-0.1-1.1
		c0-2.8,0-5.5,0-8.3c0-0.2,0-0.4,0-0.7c0.3,0,0.6,0,0.9,0c1.5,0,3,0,4.5,0c1.1,0,1.7-0.7,1.7-1.9c0-1.2-0.6-1.9-1.7-2
		c-1.2,0-2.4,0-3.6,0C77.4,93.7,76.9,93.7,76.2,93.7z M131.7,103.1c0,2.5,0,5.1,0,7.6c0,0.6,0.2,1.1,0.4,1.5c0.6,0.8,2,1,3.2,0.7
		c1-0.3,1.3-1,1.3-2.2c0-5,0-9.9,0-14.9c0-1.5-0.9-2.4-2.5-2.3c-1.7,0-2.4,0.8-2.4,2.3C131.7,98.1,131.7,100.7,131.7,103.1z
		 M134.3,90.7c1.5,0,2.9-1.2,2.9-2.9c0-1.5-1.2-2.9-2.8-2.9s-2.9,1.2-2.9,2.9S132.8,90.7,134.3,90.7z"/>
	<path d="M91.4,97.7c2-0.3,4-0.6,6,0c1.5,0.4,2.5,1.5,2.6,3.1c0.1,1.7,0.2,3.4,0,5.1c-0.2,2-1.4,3-3.4,3.2c-1.5,0.1-3.2,0-4.9-0.1
		c-0.2,0-0.4-0.3-0.4-0.6c0-3.5,0-7,0-10.5C91.3,97.9,91.4,97.9,91.4,97.7z"/>
	<path d="M113,103.2c0.2-1.1,0.2-2.2,0.6-3.3c0.4-1.7,1.4-2.6,3.1-2.9c1.1-0.1,2.2-0.1,3.3,0c1.5,0.2,2.5,1.2,3,2.8
		c0.6,2.2,0.6,4.3,0,6.5c-0.4,1.7-1.5,2.8-3.3,2.9c-1,0.1-2.1,0.1-3.1,0c-1.5-0.2-2.6-1.1-3-2.6C113.1,105.5,113,104.3,113,103.2z"
		/>
	<path d="M52.4,102.9c0.1-0.8,0.2-1.9,0.6-3c0.4-1.5,1.4-2.5,3-2.8c1.1-0.1,2.3-0.1,3.4,0c1.5,0.2,2.5,1.2,3,2.8
		c0.6,2.2,0.6,4.4,0,6.6c-0.4,1.7-1.5,2.6-3.3,2.9c-0.8,0.1-1.7,0.1-2.4,0.1c-2.4-0.2-3.6-1.5-4-4.1
		C52.5,104.6,52.5,103.9,52.4,102.9z"/>
</g>
</svg>
