<?xml version="1.0" encoding="utf-8"?>
<!-- Generator: Adobe Illustrator 26.2.1, SVG Export Plug-In . SVG Version: 6.00 Build 0)  -->
<svg version="1.1" id="Layer_1" xmlns="http://www.w3.org/2000/svg" xmlns:xlink="http://www.w3.org/1999/xlink" x="0px" y="0px"
	 viewBox="0 0 200 200" style="enable-background:new 0 0 200 200;" xml:space="preserve">
<style type="text/css">
	.st0{fill:none;stroke:#000000;stroke-width:0.25;stroke-miterlimit:10;}
	.st1{fill:none;}
	.st2{fill:#FFFFFF;}
</style>
<g>
	<circle class="st0" cx="162.6" cy="120.4" r="1.5"/>
	<path d="M162.4,119.7c0.1,0,0.2,0,0.3,0s0.3,0,0.4,0.1c0.1,0.1,0.1,0.3,0.1,0.4c0,0.2-0.1,0.3-0.3,0.4l0,0c0.1,0.2,0.2,0.3,0.3,0.5
		c0,0,0,0,0,0.1l0,0c-0.1,0-0.2,0-0.3,0l0,0c-0.1-0.2-0.2-0.3-0.3-0.5c0,0,0,0-0.1,0s-0.2,0-0.2,0l0,0c0,0.1,0,0.3,0,0.4l0,0
		c-0.1,0-0.1,0-0.2,0l0,0c0-0.5,0-0.9,0-1.3l0,0C162.3,119.7,162.4,119.7,162.4,119.7z M162.4,120.2c0,0.1,0,0.1,0,0.2l0,0
		c0.1,0,0.2,0,0.3,0h0.1c0.2,0,0.2-0.2,0.2-0.3c0-0.1-0.1-0.1-0.2-0.1c-0.1,0-0.3,0-0.4,0l0,0C162.4,120,162.4,120.1,162.4,120.2z"
		/>
	<g>
		<path class="st1" d="M78.7,127.1c-0.1-0.2-0.1-0.2-0.2-0.3c-0.2-0.6-0.5-1.1-0.7-1.8c-0.1-0.5-0.4-0.6-0.8-0.4c0,0.9,0,1.9,0,2.8
			c0,0.1,0.1,0.3,0.2,0.4c0.1-0.1,0.2-0.3,0.2-0.4c0-0.6,0-1.1,0-1.7c0-0.1,0-0.2,0.1-0.3c0.5,0.7,0.7,1.7,1.1,2.5
			c0.4-0.9,0.7-1.8,1-2.6h0.1c0,0.2,0,0.3,0,0.5c0,0.6,0,1.1,0,1.7c0,0.1,0.1,0.2,0.2,0.3c0,0,0.2-0.1,0.2-0.2c0-0.9,0-2,0-2.9
			c-0.5-0.2-0.7,0-0.7,0.4c-0.2,0.6-0.5,1.1-0.7,1.7C78.8,126.8,78.7,126.9,78.7,127.1z"/>
		<path class="st1" d="M76.4,124.9c0-0.1,0-0.1-0.1-0.2c-0.7,0-1.4,0-2.1,0c-0.1,0-0.1,0.1-0.2,0.2c0.1,0.1,0.1,0.1,0.2,0.2
			c0.2,0,0.5,0,0.7,0.1c0,0.8,0,1.6,0,2.4c0,0.2-0.1,0.5,0.2,0.5c0.4,0,0.3-0.3,0.3-0.4c0-0.7,0-1.3,0-2c0-0.4,0.1-0.6,0.5-0.5
			C76,125,76.2,124.9,76.4,124.9z"/>
		<path d="M78.7,127.1c0.1-0.2,0.2-0.3,0.2-0.4c0.2-0.6,0.5-1.1,0.7-1.7c0.1-0.4,0.4-0.5,0.7-0.4c0,0.9,0,2,0,2.9
			c0,0.1-0.2,0.2-0.2,0.2c-0.1,0-0.2-0.2-0.2-0.3c0-0.6,0-1.1,0-1.7c0-0.2,0-0.3,0-0.5h-0.1c-0.4,0.8-0.7,1.6-1,2.6
			c-0.6-0.8-0.7-1.8-1.1-2.5c0,0.1-0.1,0.2-0.1,0.3c0,0.6,0,1.1,0,1.7c0,0.1-0.1,0.3-0.2,0.4c-0.1-0.1-0.2-0.3-0.2-0.4
			c0-0.9,0-1.9,0-2.8c0.5-0.1,0.7,0,0.8,0.4c0.2,0.6,0.4,1.1,0.7,1.8C78.6,126.9,78.6,127,78.7,127.1z"/>
		<path d="M76.4,124.9c-0.2,0-0.3,0.1-0.5,0.1c-0.4,0-0.6,0.1-0.5,0.5c0,0.7,0,1.3,0,2c0,0.2,0.1,0.5-0.3,0.4
			c-0.4,0-0.2-0.3-0.2-0.5c0-0.7,0-1.6,0-2.4c-0.3,0-0.5,0-0.7-0.1c-0.1,0-0.1-0.1-0.2-0.2c0.1-0.1,0.1-0.2,0.2-0.2
			c0.7,0,1.4,0,2.1,0C76.3,124.8,76.3,124.8,76.4,124.9z"/>
	</g>
	<g id="zPAGlb.tif">
		<g>
			<path class="st1" d="M87.2,101.1c-0.3-0.2-0.5-0.3-0.7-0.5c-3.5-2.3-6.8-4.8-10.3-7.1c-0.5-0.4-1-0.7-1.5-1
				c-0.6,0.3-0.3,0.6-0.1,0.7c1.6,2.4,3.2,4.8,4.8,7.2c0.1,0.2,0.2,0.4,0.3,0.5c-0.3-0.2-0.5-0.4-0.7-0.7c-1.6-2.2-3.3-4.5-4.9-6.7
				c-0.1-0.2-0.4-0.2-0.6-0.3c0,0.2-0.2,0.4-0.1,0.5c1.3,4.9,2.5,9.7,3.8,14.6c0.1,0.4,0.3,0.5,0.6,0.5c0.7-0.1,1.4-0.2,2.1-0.4
				c3.6-0.8,6.3-2.8,7.4-6.5C87.3,101.7,87.4,101.3,87.2,101.1c0.1,0,0.2,0,0.4,0c0.7-3.5,0.5-6.9,0.6-10.4c-0.2,0-0.4-0.1-0.6-0.1
				c-3.9,0-7.8,0-11.7,0c-0.2,0-0.3,0.1-0.5,0.2c0.1,0.1,0.3,0.3,0.4,0.4c1,0.4,2.1,0.7,3.1,1.1c1,0.4,2.1,0.7,3,1.1
				c-0.2,0.1-0.5,0-0.7,0c-1.9-0.6-3.6-1.1-5.5-1.6c-0.3-0.1-0.6-0.2-0.7,0.3l0.1,0.1c3.5,2.6,7.1,5.2,10.6,7.8
				C86.2,100.4,86.7,100.8,87.2,101.1z M86.8,78.7c0.4-0.2,0.2-0.5,0.1-0.7c-0.9-2.3-2.6-3.8-5-4.8c-2.4-0.9-5-1.1-7.5-1.2
				c-0.7,0-1.5,0-2.2,0c0,1.4,0,2.7,0,3.9c0.1,3.6,0.1,7.4,0.2,11c0,0.2,0.1,0.4,0.2,0.6c0.1-0.2,0.3-0.3,0.3-0.5
				c0.7-2,1.4-3.9,2.1-5.9c0.1-0.1,0.1-0.3,0.2-0.4h0.1c-0.7,2.2-1.3,4.6-2.1,6.8c0,0.1,0.1,0.1,0.1,0.2c0.2-0.1,0.4-0.2,0.5-0.4
				c1.3-1.7,2.5-3.3,3.8-5c0.1-0.1,0.2-0.2,0.3-0.3c0,0,0.1,0,0.1,0.1c-1.3,2-2.6,3.9-4,5.9c0.1,0.1,0.2,0.1,0.2,0.1
				C78.5,85.1,82.7,81.9,86.8,78.7c-0.2,0.2-0.3,0.5-0.5,0.6c-2.7,2.2-5.5,4.5-8.2,6.7c-1.1,0.9-2.1,1.8-3.3,2.7c0,0.1,0,0.1,0,0.2
				c0.2,0,0.5,0.1,0.7,0.1c0.7-0.2,1.5-0.5,2.2-0.7c1.4-0.4,2.7-0.8,4.1-1.2v0.1c-2.1,0.7-4.4,1.6-6.5,2.3c-0.1,0.6,0.3,0.5,0.6,0.5
				c3.5,0.1,6.8,0.3,10.3,0.4c0.7,0,1.2,0,1.9,0c0-2.4,0.1-4.8,0-7.1c-0.1-1.4-0.4-2.8-0.7-4.2C87.2,79,87.2,78.7,86.8,78.7z
				 M26.2,78.9c-0.1,0.2-0.2,0.5-0.2,0.7c-0.2,1.8-0.6,3.5-0.6,5.2c0,10,0,20,0,30c0,0.2,0,0.4,0,0.6h0.1c0-4.7,0-9.2,0-13.9
				c0.7,0.4,1.2,1,2,0.9c0.1,0,0.3,0.1,0.4,0.2c0.5,0.5,0.9,0.9,1.4,1.4c0.2,0.2,0.4,0.6,0.6,0.6c0.8-0.1,1.2,0.6,1.7,0.9
				c0.6,0.5,1,0.9,1.5,1.4c0.2,0.2,0.4,0.5,0.6,0.7c0.1,0.1,0.2,0.3,0.3,0.5c0.3,0.4,0.5,0.8,0.7,1.2c0.2,0.4,0.3,0.7,0.7,0.7
				c0.4-0.1,0.5,0,0.5,0.4c0,0.1,0.1,0.2,0.2,0.3c0.7,0.9,1.7,1.6,1.7,2.9c0,0.2,0.1,0.4,0.2,0.4c0.6,0.5,0.7,1,0.6,1.8
				c0,0.1,0,0.2,0.1,0.2c0.4,0.4,0.7,0.7,1.1,1.1c-0.1,0.2-0.2,0.5-0.4,0.9c0.8-0.3,1-0.1,0.9,0.6c-0.1,0.7,0,1.3,0,2
				c0.1,1.1,1.1,2,0.7,3.1c0,0.1,0,0.1,0.1,0.2c0.2,1,0.5,2.1,0.7,3.1c0.1,0.3,0.1,0.7,0.1,0.9c0.2,0.7-0.3,1.3-1,1.3
				c-0.9,0-1.9,0-2.9,0c3,0.2,6,0.3,9-0.5c3.5-0.9,6.3-2.9,7.7-6.4c0.7-1.9,1-3.7,1-5.7c0-4.2,0-8.3,0-12.5c0-0.2,0-0.4,0-0.7
				c-0.3,0-0.6,0-0.7,0c-4,0-8,0-12,0c-0.6,0-0.7,0.1-0.7,0.7c0,3.7,0,7.5,0,11.2c0,1.3-0.7,1.9-2,1.6c-0.6-0.1-0.8-0.4-0.9-0.8
				c-0.1-0.6-0.2-1.2-0.2-1.8c0-4.1,0-8.3,0.1-12.4c0-5.3,0-10.7,0-16.1c0-0.7,0-1.5,0.6-2.1C36.5,81.7,27.9,78.8,26.2,78.9z
				 M26.7,77.4c11.2,2.4,20.7,7.7,28.9,15.9c0-2.8,0-5.4,0-8.1c0-0.7-0.2-0.8-0.7-1.1c-3.5-1.3-6.8-2.6-10.2-3.9
				c-0.2-0.1-0.4-0.2-0.6-0.3c2,0.6,3.8,1.3,5.8,2c1.9,0.7,3.8,1.4,5.8,2.1c-0.1-1-0.2-2-0.3-2.8c-0.7-5.1-3.6-8.4-8.7-9.6
				c-3.5-0.7-6.9-0.7-10.5-0.4c-2.1,0.3-4.1,0.8-6,2.1C28.6,74.3,27.5,75.6,26.7,77.4z M23.4,100.7c0,2.9,0,6,0,9.2
				c0.1,0,0.1,0,0.2,0c0-10.5,0-20.9,0-31.5c-4.5-0.7-9-0.8-13.5-0.4c0,7.8,0,15.5,0,23.3c0.1,0,0.1,0,0.2,0c0-1.2,0-2.3,0-3.6
				c0.3,0.1,0.5,0.3,0.7,0.3c0.8,0.1,1.9,0.4,2.6,0.1c0.9-0.3,1.5,0.2,2.2,0.3c0.3,0,0.7,0.2,0.9,0.2c0.3,0.1,0.7,0.1,0.8,0.2
				c0.4,0.2,0.7,0.5,1.2,0c0-0.1,0.4,0.1,0.4,0.1c-0.1,0.7,0.5,0.5,0.8,0.5c0.2,0,0.5,0.1,0.6,0.2c0.3,0.3,0.5,0.4,0.8,0.2
				c0.4-0.2,0.6-0.1,0.8,0.2C22.5,100.1,22.8,100.3,23.4,100.7z M57.9,127.9c4,0,7.9,0,11.9,0c-1-11.1-5-21-11.9-29.8
				C57.9,108.1,57.9,118,57.9,127.9z M77.2,109.1c0-0.2,0-0.4-0.1-0.5c-1.4-4.9-2.8-9.6-4.2-14.5c0-0.2-0.2-0.3-0.3-0.4
				c-0.1,0.2-0.2,0.4-0.2,0.5c-0.1,2.1-0.1,4.3-0.2,6.4c-0.1-0.4-0.2-0.7-0.2-1c-0.1-1.9-0.1-3.6-0.2-5.5c0-0.4-0.1-0.6-0.6-0.6
				c-1.3,3.5-2.6,6.8-3.9,10.3c-0.1-0.3,0-0.5,0.1-0.7c1-3.1,2.1-6.3,3.2-9.3c0.1-0.2,0-0.4,0-0.7c-0.2,0.1-0.4,0.2-0.6,0.4
				c-1.2,1.6-2.4,3.2-3.7,4.8c-0.1,0.1-0.2,0.3-0.3,0.4c0.1-0.3,0.3-0.6,0.4-0.7c1.1-1.6,2.2-3.2,3.3-4.9c0.1-0.1,0.1-0.4,0.1-0.6
				c-0.2,0-0.4,0.1-0.5,0.2c-1.8,1.2-3.5,2.5-5.3,3.7c-1.2,0.8-2.4,1.7-3.6,2.6c6.4,8.7,9.9,18.3,10.8,28.9c0.1,0,0.1,0,0.2,0
				c0-6.3,0-12.5,0-18.7C73.4,109.2,75.3,109.1,77.2,109.1z M63.9,84.5L63.9,84.5c0.3,0,0.5,0.1,0.7,0.3c1.7,1.1,3.3,2.2,5,3.4
				c0.1,0.1,0.3,0.2,0.4,0.3c0.1,0,0.2,0,0.3,0c0-0.1,0-0.2-0.1-0.3c-0.1-0.1-0.2-0.2-0.2-0.4c-2.3-3.3-4.7-6.6-7-9.9
				c-0.1-0.1-0.2-0.3-0.3-0.5c0,0,0.1,0,0.1-0.1c2.7,3.5,5.3,7.1,8,10.6c0.1,0,0.2-0.1,0.3-0.1c-0.6-2.4-1.4-4.7-2-7.1
				c0.1,0.2,0.2,0.4,0.3,0.6c0.7,2,1.4,3.8,2.1,5.8c0.1,0.2,0.2,0.4,0.3,0.6c0.1,0,0.2-0.1,0.2-0.1c0-5.1,0-10.3,0-15.4
				c-4.7,0-9.3,0-13.9,0c0,0.1-0.1,0.2-0.1,0.2c0,4.1,0,8.1,0,12.2c0,0.2,0.2,0.5,0.4,0.5c3.6,1.4,7.3,2.7,10.9,4
				c0.1,0.1,0.3,0,0.5,0c0-0.1,0-0.1,0-0.2C67.7,87.4,65.9,86,63.9,84.5z M69.4,91.8c-0.1-0.1-0.1-0.1-0.2-0.2
				c-2.2,0.7-4.5,1.3-6.7,2c0.1-0.2,0.2-0.2,0.4-0.3c2-0.7,3.9-1.4,5.9-2.1c0.2-0.1,0.3-0.3,0.5-0.4c-0.2-0.1-0.4-0.2-0.6-0.2
				c-0.9,0-1.8-0.1-2.7-0.1c-1.4,0-2.7,0-4.1,0c0-0.1,0-0.1,0-0.2c0.1,0,0.2,0,0.3,0c2.2-0.1,4.4-0.1,6.6-0.2c0.2,0,0.4-0.2,0.6-0.2
				c-0.1-0.1-0.3-0.3-0.4-0.4c-3.5-1.4-6.9-2.7-10.4-4c-0.2-0.1-0.4-0.1-0.6-0.2c0,0.1-0.1,0.2-0.1,0.2c0,3.4,0,6.6,0,10
				c0,0.2,0,0.4,0.1,0.5c0.7,1,1.6,2,2.4,3c0.4-0.3,0.7-0.6,1.1-0.8c2.5-2,5-3.8,7.6-5.8C69.2,92.2,69.3,91.9,69.4,91.8z
				 M124.2,104.7c-0.6-1.2-1.3-2-2.6-1.9c-1.2,0.1-2.1,0.8-3,1.9c0-0.7,0.1-1.1,0.1-1.7c-1,0-2,0-2.9,0v0.1c0.2,0.1,0.5,0.2,0.7,0.2
				c0.5,0,0.6,0.2,0.6,0.7c0,2.3,0,4.7,0,7c0,0.4-0.2,0.5-0.5,0.5c-0.3,0-0.6,0.1-0.7,0.1c0,0.1,0,0.1,0,0.2c1.4,0,2.8,0,4.1,0
				c0-0.1,0-0.1,0-0.2c-0.4-0.1-0.7-0.1-1.2-0.2c0-2,0-3.8,0-5.8c0-0.3,0.2-0.7,0.4-0.9c0.6-0.7,1.5-1,2.3-0.7
				c0.7,0.3,1.3,0.9,1.3,2c0,1.5,0,3,0,4.6c0,0.4-0.1,0.7-0.1,0.9c-0.4,0.1-0.7,0.2-0.9,0.3c0,0.1,0,0.1,0,0.2c1.2,0,2.5,0,3.7,0
				c0-0.1,0-0.1,0-0.2c-0.4-0.1-0.7-0.1-1.2-0.3c0-1,0-2.1,0-3.1c0-0.9,0-1.9,0.1-2.8c0.1-0.8,1.1-1.7,2.1-1.7
				c0.8,0,1.6,0.6,1.8,1.5c0.1,0.5,0.1,1,0.1,1.5c0,1.7,0,3.3,0,5c2.2,0,4.6,0,6.9,0c0-0.1,0-0.1,0-0.2c-0.4-0.1-0.7-0.1-1.2-0.2
				c0-2.6,0-5.3,0-8c0.7,0,1.3,0,2,0c0.2,0,0.3-0.2,0.5-0.2c0-0.1-0.1-0.1-0.1-0.2c-0.7,0-1.3,0-2,0c-0.4,0-0.6-0.2-0.5-0.6
				c0.1-0.7,0-1.2,0.1-1.9c0.1-0.7,0.2-1.5,0.7-2.1c0.4-0.4,0.8-0.6,1.3-0.5c0.6,0.1,0.8,0.5,1,1c0,0.2,0.1,0.3,0.2,0.4
				c0.1,0,0.1,0,0.2,0c0-0.6,0-1.2,0-1.9c-0.4,0-0.7-0.1-1-0.1c-2.3-0.1-3.6,1.1-3.8,3.5c-0.1,0.7-0.1,1.2-0.2,2c-0.5,0-0.9,0-1.4,0
				c0,0.1,0,0.1,0,0.2c0.4,0.5,1,0,1.5,0.3c0,1.1,0,2.2,0,3.4c0,1.4-0.1,2.7-0.1,4.1c0,0.4-0.1,0.5-0.5,0.5c-0.3,0-0.6,0.1-0.8,0.1
				c-0.9,0-1-0.1-1.1-1c0-0.3,0-0.7,0-0.9c0-1.5,0-3,0-4.4c-0.1-1.6-1.5-2.6-3.1-2.3C125.7,103.1,124.9,103.7,124.2,104.7z
				 M41.9,84.6c0,0.3,0,0.4,0,0.6c0,3.1,0,6.2,0,9.2c0,0.6,0.2,0.7,0.7,0.7c4,0,8,0,12,0c0.2,0,0.3,0,0.6,0
				C51.3,90.9,46.9,87.5,41.9,84.6z M149.9,119.7c0,0.2,0,0.4,0,0.5c0,1.9-0.1,3.7,0,5.6c0,1.8,0.8,2.5,2.6,2.5
				c0.3,0,0.6-0.1,0.8-0.1c0.4,0,0.7-0.1,1,0c1.2,0.2,2.3,0.3,3.5-0.1c1.1-0.4,1.8-1.3,1.8-2.5c0-1.2-0.5-1.9-1.7-2.3
				c-0.5-0.2-0.8-0.3-1.3-0.5c-1-0.5-1.3-1.4-0.9-2.4c0.3-0.7,1-1,1.9-0.9s1.2,0.5,1.3,1.3c0,0.2,0.1,0.3,0.1,0.5c0.1,0,0.2,0,0.3,0
				c0-0.6,0-1.1,0-1.7c0-0.1-0.2-0.3-0.4-0.3c-0.8-0.1-1.7-0.2-2.5-0.1c-1.4,0.1-2.1,1-2.3,2.2c-0.1,1.2,0.6,2.1,1.8,2.6
				c0.5,0.2,0.9,0.3,1.4,0.5c0.7,0.3,0.9,0.7,0.9,1.5c0,1.1-0.8,1.9-2.1,2c-1.1,0.1-1.8-0.5-1.9-1.6c0-0.1-0.1-0.2-0.2-0.4
				c-0.1,0.1-0.2,0.2-0.2,0.3c0,0.4,0,0.7,0,1c0,0.1-0.2,0.3-0.3,0.4c-0.7,0.2-1.5-0.1-1.8-0.7c-0.2-0.4-0.3-0.7-0.3-1.2
				c0-1.5,0-3,0-4.5c0-0.6,0-1.1,0-1.7c0.7,0,1.3,0,1.9,0c0.1,0,0.3-0.1,0.4-0.2c-0.1-0.1-0.3-0.2-0.4-0.2c-0.6,0-1.2,0-1.9,0
				c0.1-1.1,0.1-2.1,0.2-3.3c-0.7,0.5-1.2,0.7-1.7,1.1c-0.1,0.1-0.1,0.3-0.1,0.5c0,0.6,0,1.1,0,1.7c-0.2,0-0.4,0-0.6,0
				c-0.7-0.1-1.6-0.1-2.3-0.2c-2.2-0.2-4,0.7-4.8,2.5c-0.7,1.7-0.6,3.4,0.3,5c0.4,0.7,0.9,1.2,1.7,1.6c1.5,0.6,2.9,0.4,4.3-0.2
				c0.2-0.1,0.2-0.3,0.3-0.5l-0.1-0.1c-0.2,0.1-0.5,0.2-0.7,0.3c-2,0.8-3.5,0.1-4.1-2c-0.3-1-0.3-2.1-0.3-3.1c0-0.7,0.3-1.4,0.7-2
				c0.5-0.8,1.4-1.2,2.4-1c0.8,0.2,1.8,0.5,1.7,1.7c0,0.1,0.2,0.2,0.3,0.3c0.1-0.1,0.1-0.2,0.2-0.3c0-0.5,0-0.9,0-1.4
				C149.2,119.7,149.6,119.7,149.9,119.7z M96.8,114.9c0,0.1-0.1,0.2-0.1,0.3c0.2,0.1,0.5,0.2,0.7,0.2c0.5,0,0.6,0.2,0.6,0.7
				c0,2.9,0,5.8,0.1,8.7c0,1,0,2,0,3c-0.5,0-0.7,0-1,0.1c-0.1,0-0.3,0.1-0.4,0.2c0.1,0.1,0.3,0.2,0.4,0.2c1.2,0,2.5,0,3.7,0
				c0.1,0,0.3-0.2,0.4-0.2c0-0.1-0.1-0.1-0.1-0.2c-0.3,0-0.6-0.1-0.8-0.1c-0.4,0-0.6-0.2-0.6-0.6c0-3.4,0-6.8,0-10.2
				c0-1.7,0.1-1.7,1.8-1.6c0.8,0.1,1.6,0.4,2,1.2c1.1,2.5-0.2,5-2.9,5.5c-0.1,0-0.3,0.2-0.5,0.3c2.1,0.4,4.1-0.7,5.4-2.9
				c0.3,0.1,0.5,0.2,0.7,0.2c0.5,0,0.6,0.2,0.6,0.7c0,0.7,0,1.2,0,1.9c0,1.6,0,3.3,0,4.9c0,0.5-0.1,0.8-0.7,0.7
				c-0.2,0-0.4,0.1-0.5,0.1c0,0.1,0,0.1,0,0.2c1.3,0,2.5,0,3.8,0c0-0.1,0-0.1,0-0.2c-0.2-0.1-0.5-0.1-0.7-0.2
				c-0.2-0.1-0.4-0.3-0.4-0.5c-0.1-1.5-0.1-3-0.1-4.6c0-1,1-2.1,2.1-2.2c0.7-0.1,1,0.2,1.2,0.8c0,0.1,0.1,0.2,0.2,0.3h0.1
				c0-0.8,0-1.7,0-2.5c-1.6-0.1-2.4,1-3.4,2.1c0-0.7,0-1.4,0-2.1c-0.9,0-1.9,0-2.9,0c0-0.5,0.1-0.9,0.1-1.3c0-1.7-0.9-3-2.8-3
				c-0.7,0-1.3,0-2,0C99.6,114.9,98.2,114.9,96.8,114.9z M23.5,72.1c-4.5,0-9.1,0-13.5,0c0,1.5,0,2.9,0,4.3c2.2,0,4.6-0.2,6.8-0.1
				c2.2,0.1,4.5,0.3,6.7,0.5C23.5,75.2,23.5,73.7,23.5,72.1z M140.6,95.5c0-0.1,0-0.1,0-0.2c-0.2,0-0.5-0.1-0.7-0.1
				c-0.4,0-0.6-0.1-0.6-0.6c0-1.1,0-2.3,0-3.5c0-0.7,0-1.5-0.1-2.3c-0.2-1.8-1.5-2.7-3.2-2.3c-0.7,0.2-1.3,0.6-1.9,0.9
				c-0.3,0.1-0.5,0.4-0.8,0.7c0-0.6,0-1,0-1.4c-0.2,0-0.4,0-0.6,0c-0.7,0-1.5-0.1-2.2-0.1c-1,0-1.8,0.6-2.5,1.3
				c-0.2,0.3-0.5,0.6-0.7,0.8c0-0.7,0-1.4,0-2c-0.9,0-1.9,0-2.8,0c0,0.1,0,0.1,0,0.2c0.2,0.1,0.5,0.2,0.7,0.2c0.4,0,0.6,0.2,0.6,0.6
				c0,2.3,0,4.8-0.1,7.1c0,0.2-0.3,0.3-0.4,0.4c-0.2,0.1-0.5,0.1-0.7,0.2c0,0.1,0,0.1,0,0.2c1.3,0,2.5,0,3.8,0c0-0.1,0-0.1,0-0.2
				c-0.4-0.1-0.7-0.1-1.2-0.2c0-1.7,0-3.4,0-5c0-0.9,0.9-1.9,1.9-2.1c0.8-0.2,1.2,0.1,1.3,0.9c0,0.1,0.1,0.1,0.1,0.2
				c0.1,0,0.1,0,0.2,0c0-0.7,0-1.3,0-2.1c0.4,0,0.7,0.1,0.9,0.1c0,0.3,0.1,0.5,0.1,0.7c0,2.3-0.1,4.6-0.1,6.9c0,0.4-0.2,0.5-0.5,0.5
				s-0.6,0.1-0.7,0.2c0,0.1,0,0.1,0,0.2c1.3,0,2.6,0,4,0c0-0.1,0-0.1,0-0.2c-0.2-0.1-0.5-0.1-0.7-0.2s-0.4-0.2-0.4-0.4
				c0-1.9-0.1-3.6,0-5.5c0.1-1.2,1.1-2.1,2.3-2c1.1,0,1.9,0.8,2,2.1c0.1,1.2,0.1,2.5,0.1,3.7c0,0.7-0.1,1.5-0.1,2.2
				C138.6,95.5,139.7,95.5,140.6,95.5z M182.8,95.5c2.4,0,4.8,0,7.2,0c0-0.1,0-0.1,0-0.2c-0.3,0-0.7-0.1-0.9-0.1s-0.5-0.1-0.5-0.5
				c0-3.6,0-7.3,0-10.9c0-0.8,0-1.6,0-2.3c-1,0-2,0-3,0c0,0.1,0,0.1,0,0.2c0.3,0.1,0.6,0.2,0.8,0.2c0.4,0,0.5,0.2,0.5,0.6
				c0,4,0,8,0,12c0,0.3-0.1,0.5-0.1,0.7c-0.7,0-1.3,0-1.9,0c-0.4,0-0.4-0.2-0.4-0.5c0-0.9,0-1.8-0.1-2.7c0-1,0-2.1-0.2-3.1
				c-0.2-1.3-0.9-2.1-2.2-2.2c-0.9-0.1-1.9,0-2.8,0c0,0.7,0,1.1,0,1.6c0.1,0,0.1,0,0.2,0c0-0.1,0.1-0.3,0.1-0.4
				c0-0.5,0.3-0.7,0.7-0.8c0.7-0.2,1.2-0.1,1.7,0.4c0.9,0.8,0.8,2,0.9,3.1c-0.3-0.1-0.5-0.2-0.7-0.2c-0.7,0-1.6-0.2-2.3,0
				c-1.7,0.4-2.5,2.1-2.1,3.8c0.4,1.4,1.8,2.1,3.5,1.5c0.5-0.2,0.9-0.5,1.5-0.7C182.8,95.2,182.8,95.3,182.8,95.5z M127.4,114
				c0,0.1,0,0.1,0,0.2c0.2,0.1,0.4,0.2,0.7,0.2c0.6,0,0.7,0.2,0.7,0.7c0,1.5,0,3.1,0.1,4.6c0,0.1-0.1,0.1-0.1,0.2
				c-0.3-0.1-0.5-0.3-0.7-0.4c-2.4-1.2-5.3,0-5.9,2.7c-0.2,0.8-0.3,1.8-0.1,2.5c0.6,3.5,4.1,4.5,6.2,3c0.1-0.1,0.2-0.1,0.4-0.2
				c0.1,0.2,0.1,0.4,0.1,0.5c0.9,0,1.9,0,2.8,0c0-0.1,0-0.1,0-0.2c-0.4-0.1-0.7-0.1-1.1-0.2c0-4.6,0-9.1,0-13.6
				C129.3,114,128.3,114,127.4,114z M152.3,103c-0.3,0-0.7,0.1-0.9,0c-1.3-0.4-2.1,0.4-2.9,1.2c-0.3,0.3-0.5,0.6-0.7,0.8
				c0-0.7,0-1.3,0-2c-0.9,0-1.9,0-2.8,0c0,0.1,0,0.1,0,0.2c0.3,0.1,0.5,0.2,0.7,0.2c0.4,0,0.5,0.2,0.5,0.6c0,2.3,0,4.7,0,7.1
				c0,0.4-0.1,0.5-0.5,0.5c-0.2,0-0.5,0.1-0.7,0.2c0,0.1,0,0.1,0,0.2c1.3,0,2.5,0,3.8,0c0-0.1,0-0.1,0-0.2c-0.2-0.1-0.5-0.1-0.7-0.2
				c-0.2-0.1-0.4-0.3-0.4-0.4c-0.1-1.5-0.1-3-0.1-4.5c0-1.1,1-2.1,2.1-2.2c0.7-0.1,1,0.2,1.1,0.8c0,0.1,0.1,0.2,0.1,0.3
				c0.1,0,0.1,0,0.2,0c0-0.7,0-1.3,0-2c0.5,0,0.8,0,1.2,0c0,0.4,0,0.7,0,0.9c0,1.9,0,3.7,0,5.6c0,0.7,0.3,1.4,1,1.8
				c0.8,0.4,1.8,0.4,2.6,0.1c0.1,0,0.2-0.2,0.4-0.4c-2,0-2.4-0.4-2.5-2.2c-0.1-1.5,0-2.9,0-4.4c0-0.5,0-0.9,0-1.4c0.7,0,1.2,0,1.8,0
				c0.2,0,0.4-0.2,0.6-0.2c-0.2-0.1-0.4-0.2-0.6-0.2c-0.6,0-1.1,0-1.7,0c0-1,0-2.1,0-3.2c-0.6,0.3-1,0.6-1.4,0.8
				c-0.2,0.1-0.3,0.4-0.3,0.6C152.2,101.8,152.3,102.3,152.3,103z M150,86.7c-0.4,0-0.7,0-1.1,0c-0.1,0-0.2,0.1-0.3,0.2
				c0.1,0.1,0.2,0.2,0.3,0.2c0.4,0,0.7,0,1.1,0c0,0.3,0,0.5,0,0.7c0,1.8,0,3.5,0,5.3c0,2,0.9,2.7,2.9,2.6c1.3-0.1,2.6-0.1,4-0.1
				c0.4,0,0.7,0,1,0c0-0.1,0-0.2,0-0.3c-0.2-0.1-0.5-0.2-0.7-0.1c-0.5,0-0.6-0.2-0.6-0.7c0-1.7,0-3.5,0-5.1c0-0.9,0-1.8,0-2.8
				c-1.6,0-3.3,0-5,0c0-1,0-2.1,0-3.2c-0.6,0.4-1.1,0.7-1.6,1c-0.1,0.1-0.1,0.3-0.1,0.5C150,85.5,150,86.1,150,86.7z M102.7,87.2
				c0,2.6,0,5.1,0,7.7c0,0.1-0.3,0.3-0.4,0.4c-0.3,0.1-0.6,0.1-0.7,0.2c0,0.1,0,0.1,0,0.2c1.3,0,2.7,0,4,0c0-0.1,0-0.1,0-0.2
				c-0.2,0-0.5-0.1-0.7-0.2s-0.4-0.2-0.4-0.4c0-1.9-0.1-3.7,0-5.6c0-1,1.1-1.9,2.2-1.9c1,0,1.9,0.7,2.1,1.9c0.1,0.5,0.1,0.8,0.1,1.3
				c0,1.7,0,3.4,0,5c0.9,0,1.9,0,2.8,0c0-0.1,0-0.1,0-0.2c-0.2-0.1-0.4-0.2-0.6-0.2c-0.5,0-0.6-0.2-0.6-0.7c0-1,0-2.1,0-3.2
				c0-0.8,0-1.8-0.1-2.6c-0.2-1.7-1.5-2.6-3.1-2.1c-0.7,0.2-1.5,0.7-2.1,1c-0.2,0.1-0.3,0.3-0.6,0.5c0-0.5,0-0.9,0-1.3c-1,0-2,0-3,0
				c0,0.1,0,0.1,0,0.2C101.9,87.1,102.3,87.1,102.7,87.2z M138.7,119.8c0,1.8,0,3.5,0,5.2c0,0.8-0.4,1.5-0.9,2.1
				c-1.3,1.1-3.2,0.6-3.5-1.2c-0.2-1.2-0.2-2.4-0.2-3.6c0-0.9,0-1.9,0-2.8c-0.9,0-1.9,0-2.7,0c0,0.1,0,0.1,0,0.2
				c0.4,0.1,0.7,0.2,1.1,0.2c0,0.4,0.1,0.7,0.1,1.1c0,1.7,0,3.3,0,5c0.1,1.7,1.3,2.6,3,2.5c0.8-0.1,1.6-0.5,2.3-0.9
				c0.2-0.2,0.5-0.4,0.7-0.7c0,0.6,0,0.9,0,1.3c1,0,2,0,2.9,0c0-0.1,0-0.1,0-0.2c-0.2-0.1-0.4-0.2-0.7-0.1c-0.5,0-0.6-0.2-0.6-0.7
				c0-1.8,0-3.5,0-5.3c0-0.8,0-1.7,0-2.4c-0.9,0-1.9,0-2.8,0c0,0.1,0,0.1,0,0.2C137.9,119.6,138.3,119.7,138.7,119.8z M171.3,95.6
				c0-0.1,0-0.1,0-0.2c-0.2,0-0.3-0.1-0.5-0.1c-0.6,0-0.7-0.3-0.7-0.7c0-1.7-0.1-3.3,0-5c0-1.3,1.2-2.2,2.5-2.1
				c1,0.1,1.8,0.9,1.9,2.2c0.1,1.2,0.1,2.4,0.1,3.7c0,0.7,0,1.5,0,2.2c0.9,0,1.9,0,2.8,0c-0.1-0.2-0.2-0.3-0.3-0.3
				c-0.9-0.2-0.9-0.2-0.9-1.1c0-0.1,0-0.2,0-0.3c0-1.6,0-3.1,0-4.7c-0.1-1.5-0.8-2.5-2.1-2.7c-1.1-0.2-2.1,0.2-3.1,0.9
				c-0.3,0.2-0.5,0.4-0.7,0.7c0-0.6,0-0.9,0-1.3c-1,0-2,0-2.9,0c0,0.1,0,0.1,0,0.2c0.4,0.1,0.7,0.2,1.1,0.2c0,0.1,0.1,0.1,0.1,0.2
				c0,2.4,0,4.9,0,7.3c0,0.4-0.2,0.5-0.6,0.6c-0.3,0-0.5,0.1-0.7,0.2c0,0.1,0,0.1,0,0.2C168.6,95.6,170,95.6,171.3,95.6z
				 M106.8,98.6c-1.4-0.1-2.7-0.3-4.1-0.3c-2.9,0.1-5,1.9-5.6,4.8c-0.3,1.2-0.3,2.5-0.1,3.8c0.7,4.6,5.4,6.7,9.4,4.3
				c0.2-0.1,0.3-0.4,0.4-0.6c-0.1,0-0.1-0.1-0.2-0.1c-0.4,0.2-0.7,0.5-1.2,0.7c-2.7,1.2-5.3,0.1-6.2-2.8c-0.7-2.1-0.7-4.2,0-6.3
				c1.2-3.8,4.5-3.8,6.7-2.4c0.4,0.3,0.7,0.6,0.6,1c0,0.2,0.1,0.4,0.1,0.5c0.1,0,0.1,0,0.2,0C106.8,100.4,106.8,99.5,106.8,98.6z
				 M162.5,95.9c3,0,4.5-2.5,4.4-5c-0.1-2.7-1.9-4.5-4.5-4.4c-2.8,0.1-4.5,2-4.4,5C158.1,94.1,160,95.9,162.5,95.9z M140.5,112.2
				c2.4,0.1,4.4-2.1,4.1-5.1c-0.2-2.7-2.1-4.4-4.7-4.1c-2.9,0.3-4.4,2.2-4.1,5.5C136.1,110.7,138.2,112.3,140.5,112.2z M107,107.5
				c0,0.1,0,0.3,0,0.4c0.1,2.1,1.6,4,3.5,4.2c2.7,0.3,4.6-0.8,5.2-3.3c0.7-3.1-0.9-6.6-5.2-5.9C108.3,103.3,107,105,107,107.5z
				 M112.2,123.8c0,0.2,0,0.4,0,0.6c0.1,1.9,1.2,3.5,2.8,3.8c2,0.5,3.7,0.2,5-1.5c0.6-0.8,0.8-1.7,0.9-2.7c0.2-4.2-3.3-5.8-6.3-4.6
				C112.8,120.2,112.2,121.9,112.2,123.8z M142.5,88.2c0.1,0,0.1,0,0.2,0.1c0-0.1,0.1-0.3,0.1-0.4c0-0.6,0.4-0.8,0.8-0.9
				c0.6-0.2,1.1,0,1.6,0.4c0.8,0.8,0.8,2,0.9,3c-0.7-0.1-1.5-0.3-2.1-0.3c-2.2,0.1-3.6,2.1-2.8,4.3c0.3,0.7,0.7,1.1,1.5,1.3
				c0.9,0.2,1.9,0.1,2.7-0.5c0.2-0.1,0.4-0.3,0.7-0.4c0,0.3,0,0.5,0,0.7c0.9,0,1.9,0,2.8,0c0-0.1,0-0.1,0-0.2
				c-0.2-0.1-0.4-0.2-0.6-0.2c-0.5,0-0.7-0.2-0.7-0.7c0-1.7,0-3.5-0.1-5.1c-0.1-1.5-0.8-2.5-2.1-2.7c-0.9-0.1-2,0-2.9,0
				C142.5,87.3,142.5,87.8,142.5,88.2z M101.3,82.6c0-0.1,0-0.2-0.1-0.2c-1.5,0-3,0-4.5,0c0,0.1,0,0.1-0.1,0.2
				c0.2,0.1,0.5,0.2,0.7,0.2c0.6,0,0.7,0.3,0.7,0.8c0,3.5,0,7,0,10.6c0,0.9,0,0.9-0.9,1c-0.2,0-0.3,0.1-0.5,0.2
				c0.2,0.1,0.4,0.2,0.5,0.2c1.1,0,2.1,0,3.3,0c0.3,0,0.6-0.1,0.8-0.2c-0.3-0.1-0.5-0.3-0.7-0.3c-0.6,0-0.7-0.2-0.7-0.7
				c0-3.5,0-7,0-10.5c0-0.4,0.1-0.7,0.1-1.1C100.4,82.8,100.8,82.7,101.3,82.6z M124.3,90c0.1-0.8-0.2-1.8-0.7-2.3
				c-1.2-1.4-3.7-1.5-5.3-0.3c-1.6,1.2-1.9,3-1.6,4.9c0.2,1.5,0.9,2.7,2.3,3.3c1.6,0.7,3.2,0.5,4.7-0.3c0.2-0.1,0.2-0.3,0.3-0.5
				c-0.4,0.1-0.7,0.2-0.9,0.3c-1.8,0.8-3.7,0.1-4.4-1.8c-0.3-0.9-0.3-2-0.4-2.9c0-0.1,0.3-0.4,0.5-0.4c0.6-0.1,1.2,0,1.9,0
				C121.9,90,123.1,90,124.3,90z M116.8,95.3c0-0.1-0.1-0.1-0.1-0.2c-1.8,0.1-2.2-0.3-2.3-2.1c-0.1-1.5,0-3,0-4.5c0-0.5,0-0.9,0-1.4
				c0.7,0,1.2,0,1.8,0c0.2,0,0.4-0.2,0.6-0.2c-0.2-0.1-0.4-0.2-0.6-0.2c-0.6,0-1.1,0-1.6,0c0-1.1,0-2.1,0-3.2
				c-0.6,0.4-1.1,0.7-1.6,1c-0.1,0.1-0.1,0.3-0.1,0.5c0,0.6,0,1.1,0,1.7c-0.4,0-0.7,0-1,0c-0.1,0-0.2,0.2-0.3,0.2
				c0.1,0.1,0.2,0.2,0.3,0.2c0.4,0,0.7,0,1.1,0c0,0.4,0,0.6,0,0.8c0,1.9-0.1,3.7,0,5.6c0,1.3,0.7,2,2,2.1c0.6,0,1.1-0.1,1.6-0.1
				C116.6,95.6,116.7,95.4,116.8,95.3z M156.7,83.1c0-0.6-0.3-0.9-0.7-0.9c-0.6,0-0.9,0.5-0.9,1s0.4,0.9,0.8,1
				C156.3,84.2,156.7,83.8,156.7,83.1z"/>
			<path d="M26.2,78.9c1.9-0.1,10.4,2.8,13.5,4.5c-0.6,0.6-0.6,1.3-0.6,2.1c0,5.3,0,10.7,0,16.1c0,4.1-0.1,8.3-0.1,12.4
				c0,0.6,0.1,1.2,0.2,1.8c0.1,0.6,0.4,0.7,0.9,0.8c1.3,0.2,2.1-0.3,2-1.6c0-3.7,0-7.5,0-11.2c0-0.7,0.2-0.7,0.7-0.7c4,0,8,0,12,0
				c0.2,0,0.5,0,0.7,0c0,0.3,0,0.5,0,0.7c0,4.2,0,8.3,0,12.5c0,2-0.3,3.8-1,5.7c-1.4,3.5-4.1,5.5-7.7,6.4c-3,0.7-6,0.7-9,0.5
				c0.9,0,1.9,0,2.9,0c0.7,0,1.1-0.7,1-1.3c-0.1-0.3-0.1-0.7-0.1-0.9c-0.2-1-0.4-2.1-0.7-3.1c0-0.1-0.1-0.1-0.1-0.2
				c0.3-1.2-0.7-2.1-0.7-3.1c-0.1-0.7-0.1-1.3,0-2s-0.1-0.8-0.9-0.6c0.2-0.5,0.3-0.7,0.4-0.9c-0.4-0.4-0.7-0.7-1.1-1.1
				c-0.1-0.1-0.1-0.2-0.1-0.2c0.2-0.7,0-1.3-0.6-1.8c-0.1-0.1-0.2-0.3-0.2-0.4c0-1.3-1-2-1.7-2.9c-0.1-0.1-0.2-0.2-0.2-0.3
				c0.1-0.4-0.1-0.5-0.5-0.4c-0.6,0.1-0.6-0.4-0.7-0.7c-0.2-0.4-0.5-0.8-0.7-1.2c-0.1-0.2-0.2-0.3-0.3-0.5c-0.2-0.2-0.4-0.5-0.6-0.7
				c-0.5-0.5-0.9-0.9-1.5-1.4c-0.5-0.4-0.8-1-1.7-0.9c-0.2,0-0.4-0.4-0.6-0.6c-0.5-0.5-0.9-0.9-1.4-1.4c-0.1-0.1-0.3-0.2-0.4-0.2
				c-0.8,0.1-1.3-0.6-2-0.9c0,4.7,0,9.3,0,13.9h-0.1c0-0.2,0-0.4,0-0.6c0-10-0.1-20,0-30c0-1.8,0.4-3.5,0.6-5.2
				C26,79.3,26.1,79.1,26.2,78.9z"/>
			<path d="M26.7,77.4c0.7-1.8,2-3.1,3.5-4.1c1.8-1.2,3.8-1.8,6-2.1c3.5-0.5,7-0.5,10.5,0.4c5,1.1,8,4.5,8.7,9.6
				c0.1,0.9,0.2,1.8,0.3,2.8c-2.1-0.7-3.9-1.4-5.8-2.1c-1.9-0.7-3.8-1.4-5.8-2c0.2,0.1,0.4,0.2,0.6,0.3c3.4,1.3,6.8,2.6,10.2,3.9
				c0.6,0.2,0.7,0.5,0.7,1.1c0,2.6,0,5.3,0,8.1C47.5,85.1,37.8,79.8,26.7,77.4z"/>
			<path d="M23.4,100.7c-0.5-0.4-0.8-0.6-1.1-0.8c-0.3-0.3-0.6-0.4-0.8-0.2c-0.4,0.2-0.6,0.1-0.8-0.2c-0.1-0.1-0.4-0.2-0.6-0.2
				c-0.4,0-0.8,0.3-0.8-0.5l-0.4-0.1c-0.4,0.6-0.7,0.2-1.2,0c-0.3-0.1-0.6-0.1-0.8-0.2c-0.3-0.1-0.7-0.2-0.9-0.2
				c-0.7-0.1-1.4-0.6-2.2-0.3c-0.8,0.2-1.9-0.1-2.7-0.2c-0.2,0-0.4-0.2-0.7-0.3v3.6H10V78c4.5-0.5,9-0.3,13.5,0.4
				c0,10.6-0.1,31.5-0.2,31.5C23.4,106.6,23.4,103.6,23.4,100.7z"/>
			<path d="M57.9,127.9c0-9.9,0-19.7,0-29.8c7,8.8,10.9,18.7,11.9,29.8C65.8,127.9,61.8,127.9,57.9,127.9z"/>
			<path d="M77.2,109.1c-2,0.1-3.8,0.2-5.8,0.2c0,6.3,0,12.4,0,18.7c-0.1,0-0.1,0-0.2,0c-0.9-10.6-4.5-20.3-10.8-28.9
				c1.2-0.8,2.4-1.8,3.6-2.6c1.8-1.2,3.5-2.5,5.3-3.7c0.2-0.1,0.4-0.1,0.6-0.1c0,0.2,0,0.4-0.1,0.6c-1.1,1.6-2.1,3.2-3.3,4.9
				c-0.2,0.3-0.3,0.5-0.4,0.7c0.1-0.1,0.2-0.2,0.3-0.4c1.2-1.6,2.4-3.2,3.7-4.8c0.1-0.2,0.4-0.2,0.6-0.4c0,0.2,0.1,0.5,0,0.7
				c-1,3.1-2.1,6.3-3.2,9.3c-0.1,0.2-0.1,0.4-0.1,0.7c1.3-3.5,2.6-6.8,3.9-10.3c0.5-0.1,0.6,0.1,0.6,0.6c0,1.9,0.1,3.6,0.2,5.5
				c0,0.4,0.1,0.7,0.2,1c0.1-2.1,0.1-4.3,0.2-6.4c0-0.2,0.2-0.4,0.2-0.5c0.1,0.1,0.3,0.3,0.3,0.4c1.4,4.9,2.8,9.6,4.2,14.5
				C77.2,108.7,77.2,108.8,77.2,109.1z"/>
			<path d="M63.9,84.5c1.9,1.5,3.8,2.9,5.7,4.4c0,0.1,0,0.1,0,0.2c-0.2,0-0.3,0-0.5,0c-3.6-1.3-7.3-2.7-10.9-4
				c-0.2-0.1-0.4-0.3-0.4-0.5c0-4.1,0-8.1,0-12.2c0-0.1,0-0.1,0.1-0.2c4.7,0,9.2,0,13.9,0c0,5.1,0,10.3,0,15.4
				c-0.1,0-0.2,0.1-0.2,0.1c-0.1-0.2-0.3-0.4-0.3-0.6c-0.7-2-1.4-3.8-2.1-5.8c-0.1-0.2-0.2-0.4-0.3-0.6c0.6,2.4,1.4,4.7,2,7.1
				c-0.1,0-0.2,0.1-0.3,0.1c-2.7-3.5-5.3-7.1-8-10.6c0,0-0.1,0-0.1,0.1c0.1,0.2,0.2,0.3,0.3,0.5c2.3,3.3,4.7,6.6,7,9.9
				c0.1,0.1,0.2,0.2,0.2,0.4c0,0.1,0,0.2,0.1,0.3c-0.1,0-0.2,0-0.3,0c-0.2-0.1-0.3-0.2-0.4-0.3c-1.6-1.1-3.3-2.2-5-3.4
				C64.4,84.7,64.2,84.6,63.9,84.5C64,84.4,63.9,84.5,63.9,84.5z"/>
			<path d="M86.8,78.7c-4.1,3.2-8.3,6.4-12.4,9.5c0,0-0.1-0.1-0.2-0.1c1.3-2,2.7-3.9,4-5.9c0,0-0.1,0-0.1-0.1
				c-0.1,0.1-0.2,0.2-0.3,0.3c-1.3,1.7-2.5,3.3-3.8,5c-0.1,0.2-0.3,0.3-0.5,0.4c0-0.1-0.1-0.1-0.1-0.2c0.7-2.2,1.3-4.6,2.1-6.8h-0.1
				c-0.1,0.1-0.1,0.3-0.2,0.4c-0.7,2-1.4,3.9-2.1,5.9c-0.1,0.2-0.2,0.3-0.3,0.5c-0.1-0.2-0.2-0.4-0.2-0.6c-0.1-3.6-0.1-7.4-0.2-11
				c0-1.3,0-2.6,0-3.9c0.7,0,1.4,0,2.2,0c2.5,0.1,5,0.3,7.5,1.2c2.3,0.9,4,2.4,5,4.8C87,78.2,87.2,78.5,86.8,78.7L86.8,78.7z"/>
			<path d="M87.1,101.1c0.4,0.2,0.3,0.6,0.2,0.8c-1.1,3.7-3.7,5.7-7.4,6.5c-0.7,0.2-1.3,0.3-2.1,0.4c-0.4,0.1-0.5-0.1-0.6-0.5
				c-1.3-4.9-2.5-9.7-3.8-14.6c0-0.2,0.1-0.4,0.1-0.5c0.2,0.1,0.5,0.1,0.6,0.3c1.7,2.2,3.3,4.5,4.9,6.7c0.2,0.3,0.4,0.5,0.7,0.7
				c-0.1-0.2-0.2-0.4-0.3-0.5c-1.6-2.4-3.2-4.8-4.8-7.2c-0.2-0.3-0.4-0.6,0.1-0.7c0.5,0.3,0.9,0.7,1.5,1c3.5,2.3,6.8,4.8,10.3,7.1
				C86.6,100.9,86.9,101,87.1,101.1L87.1,101.1z"/>
			<path d="M69.4,91.8c-0.1,0.2-0.2,0.4-0.4,0.6c-2.5,2-5,3.8-7.6,5.8c-0.4,0.3-0.7,0.6-1.1,0.8c-0.8-1-1.6-2-2.4-3
				c-0.1-0.1-0.1-0.3-0.1-0.5c0-3.4,0-6.6,0-10c0,0,0-0.1,0.1-0.2c0.2,0.1,0.4,0.1,0.6,0.2c3.5,1.3,6.9,2.7,10.4,4
				c0.2,0.1,0.3,0.2,0.4,0.4c-0.2,0.1-0.4,0.2-0.6,0.2c-2.1,0.1-4.4,0.1-6.6,0.2c-0.1,0-0.2,0-0.3,0c0,0.1,0,0.1,0,0.2
				c1.4,0,2.7,0,4.1,0c0.9,0,1.8,0,2.7,0.1c0.2,0,0.4,0.1,0.6,0.2c-0.2,0.1-0.3,0.3-0.5,0.4c-2,0.7-3.9,1.4-5.9,2.1
				c-0.1,0-0.3,0.1-0.4,0.3c2.2-0.7,4.5-1.3,6.7-2C69.3,91.7,69.4,91.7,69.4,91.8z"/>
			<path d="M86.8,78.7L86.8,78.7c0.4-0.1,0.5,0.3,0.5,0.6c0.3,1.4,0.6,2.8,0.7,4.2c0.1,2.3,0,4.7,0,7.1c-0.6,0-1.2,0-1.9,0
				c-3.5-0.1-6.8-0.3-10.3-0.4c-0.3,0-0.7,0-0.6-0.5c2.1-0.7,4.3-1.6,6.5-2.3v-0.1c-1.4,0.4-2.7,0.8-4.1,1.2
				c-0.7,0.2-1.5,0.5-2.2,0.7c-0.2,0.1-0.4-0.1-0.7-0.1c0-0.1,0-0.1,0-0.2c1.1-0.9,2.1-1.8,3.3-2.7c2.7-2.2,5.5-4.5,8.2-6.7
				C86.5,79.2,86.6,78.9,86.8,78.7z"/>
			<path d="M124.2,104.7c0.7-0.9,1.4-1.6,2.5-1.9c1.6-0.3,3,0.7,3.1,2.3c0.1,1.5,0,3,0,4.4c0,0.3,0,0.7,0,0.9c0.1,0.9,0.1,1,1.1,1
				c0.3,0,0.6-0.1,0.8-0.1c0.4,0,0.5-0.2,0.5-0.5c0-1.4,0.1-2.7,0.1-4.1c0-1.1,0-2.2,0-3.4c-0.5-0.3-1.1,0.2-1.5-0.3
				c0-0.1,0-0.1,0-0.2c0.5,0,0.9,0,1.4,0c0.1-0.7,0.1-1.3,0.2-2c0.2-2.3,1.5-3.5,3.8-3.5c0.4,0,0.7,0.1,1,0.1c0,0.7,0,1.2,0,1.9
				c-0.1,0-0.1,0-0.2,0c-0.1-0.1-0.1-0.3-0.2-0.4c-0.1-0.6-0.5-0.9-1-1c-0.6-0.1-0.9,0.1-1.3,0.5c-0.6,0.6-0.7,1.3-0.7,2.1
				c-0.1,0.7-0.1,1.2-0.1,1.9c0,0.4,0.1,0.6,0.5,0.6c0.7,0,1.3,0,2,0c0,0.1,0.1,0.1,0.1,0.2c-0.2,0.1-0.3,0.2-0.5,0.2
				c-0.7,0-1.3,0-2,0c0,2.7,0,5.3,0,8c0.5,0.1,0.8,0.1,1.2,0.2c0,0.1,0,0.1,0,0.2c-2.3,0-4.7,0-6.9,0c0-1.7,0-3.3,0-5
				c0-0.5,0-1-0.1-1.5c-0.2-0.9-0.9-1.5-1.8-1.5c-0.9,0-2.1,0.8-2.1,1.7c-0.1,0.9-0.1,1.9-0.1,2.8c0,1,0,2.1,0,3.1
				c0.5,0.1,0.8,0.2,1.2,0.3c0,0.1,0,0.1,0,0.2c-1.2,0-2.5,0-3.7,0c0-0.1,0-0.1,0-0.2c0.3-0.1,0.6-0.2,0.9-0.3
				c0-0.3,0.1-0.7,0.1-0.9c0-1.5,0-3,0-4.6c0-1-0.5-1.8-1.3-2c-0.8-0.3-1.8,0-2.3,0.7c-0.2,0.3-0.4,0.7-0.4,0.9c0,2,0,3.8,0,5.8
				c0.5,0.1,0.8,0.2,1.2,0.2c0,0.1,0,0.1,0,0.2c-1.4,0-2.8,0-4.1,0c0-0.1,0-0.1,0-0.2c0.3-0.1,0.6-0.1,0.7-0.1
				c0.4,0,0.5-0.1,0.5-0.5c0-2.3,0-4.7,0-7c0-0.4-0.2-0.6-0.6-0.7c-0.2,0-0.5-0.1-0.7-0.2v-0.1c0.9,0,2,0,2.9,0
				c0,0.5-0.1,0.9-0.1,1.7c0.8-1,1.7-1.9,3-1.9C122.9,102.7,123.8,103.6,124.2,104.7z"/>
			<path d="M41.9,84.6c5,2.8,9.3,6.3,13.3,10.5c-0.3,0-0.4,0-0.6,0c-4,0-8,0-12,0c-0.6,0-0.7-0.2-0.7-0.7c0-3.1,0-6.2,0-9.2
				C41.9,85.1,41.9,84.9,41.9,84.6z"/>
			<path d="M87.2,101.1c-0.5-0.4-0.8-0.7-1.3-1.1c-3.5-2.6-7.1-5.2-10.6-7.8l-0.1-0.1c0-0.5,0.3-0.4,0.7-0.3
				c1.9,0.6,3.6,1.1,5.5,1.6c0.2,0.1,0.4,0.1,0.7,0c-1-0.4-2.1-0.7-3-1.1c-1-0.4-2.1-0.7-3.1-1.1c-0.2-0.1-0.3-0.2-0.4-0.4
				c0.2-0.1,0.3-0.2,0.5-0.2c3.9,0,7.8,0,11.7,0c0.2,0,0.4,0,0.6,0.1c-0.1,3.5,0.2,6.9-0.6,10.4C87.3,101.1,87.2,101.1,87.2,101.1
				C87.1,101.1,87.2,101.1,87.2,101.1z"/>
			<path d="M149.9,119.7c-0.4,0-0.7,0-1.1,0c0,0.5,0,0.9,0,1.4c0,0.1-0.1,0.2-0.2,0.3c-0.1-0.1-0.3-0.2-0.3-0.3
				c0.1-1.2-0.8-1.5-1.7-1.7c-1-0.2-1.9,0.1-2.4,1c-0.4,0.6-0.7,1.3-0.7,2c-0.1,1,0,2.1,0.3,3.1c0.6,2.1,2.1,2.8,4.1,2
				c0.2-0.1,0.5-0.2,0.7-0.3l0.1,0.1c-0.1,0.2-0.2,0.4-0.3,0.5c-1.4,0.6-2.8,0.7-4.3,0.2c-0.7-0.3-1.3-0.8-1.7-1.6
				c-0.8-1.6-0.9-3.3-0.3-5c0.7-1.8,2.5-2.7,4.8-2.5c0.7,0.1,1.6,0.1,2.3,0.2c0.2,0,0.4,0,0.6,0c0-0.6,0-1.1,0-1.7
				c0-0.2,0-0.4,0.1-0.5c0.5-0.4,1-0.7,1.7-1.1c-0.1,1.2-0.1,2.1-0.2,3.3c0.7,0,1.3,0,1.9,0c0.1,0,0.3,0.1,0.4,0.2
				c-0.1,0.1-0.3,0.2-0.4,0.2c-0.6,0-1.2,0-1.9,0c0,0.6,0,1.1,0,1.7c0,1.5,0,3,0,4.5c0,0.4,0.1,0.8,0.3,1.2c0.3,0.7,1,0.9,1.8,0.7
				c0.1,0,0.3-0.2,0.3-0.4c0-0.4,0-0.7,0-1c0-0.1,0.1-0.2,0.2-0.3c0.1,0.1,0.2,0.2,0.2,0.4c0.2,1.1,0.7,1.7,1.9,1.6
				c1.2-0.1,2.1-0.8,2.1-2c0-0.7-0.3-1.2-0.9-1.5c-0.5-0.2-0.9-0.3-1.4-0.5c-1.2-0.5-2-1.5-1.8-2.6c0.2-1.2,0.9-2.1,2.3-2.2
				c0.8-0.1,1.7,0.1,2.5,0.1c0.1,0,0.4,0.2,0.4,0.3c0,0.6,0,1.1,0,1.7c-0.1,0-0.2,0-0.3,0c0-0.2-0.1-0.3-0.1-0.5
				c-0.1-0.8-0.5-1.2-1.3-1.3s-1.6,0.3-1.9,0.9c-0.4,1,0,2,0.9,2.4c0.4,0.2,0.8,0.3,1.3,0.5c1.2,0.5,1.7,1.1,1.7,2.3
				s-0.7,2.1-1.8,2.5c-1.1,0.4-2.3,0.4-3.5,0.1c-0.4-0.1-0.7,0-1,0c-0.3,0-0.6,0.1-0.8,0.1c-1.8,0-2.6-0.7-2.6-2.5s0-3.7,0-5.6
				C149.9,120.1,149.9,119.9,149.9,119.7z"/>
			<path d="M96.8,114.9c1.4,0,2.8,0,4.2,0c0.7,0,1.3,0,2,0c1.9,0,2.8,1.4,2.8,3c0,0.5-0.1,0.8-0.1,1.3c0.9,0,1.9,0,2.9,0
				c0,0.7,0,1.3,0,2.1c0.9-1.1,1.8-2.2,3.4-2.1c0,0.8,0,1.7,0,2.5h-0.1c-0.1-0.1-0.1-0.2-0.2-0.3c-0.1-0.7-0.5-0.9-1.2-0.8
				c-1,0.1-2.1,1.2-2.1,2.2c0,1.5,0,3,0.1,4.6c0,0.2,0.2,0.4,0.4,0.5c0.2,0.1,0.5,0.1,0.7,0.2c0,0.1,0,0.1,0,0.2c-1.3,0-2.5,0-3.8,0
				c0-0.1,0-0.1,0-0.2c0.2-0.1,0.4-0.2,0.5-0.1c0.6,0,0.7-0.3,0.7-0.7c0-1.6,0-3.3,0-4.9c0-0.7,0-1.2,0-1.9c0-0.4-0.1-0.7-0.6-0.7
				c-0.3,0-0.5-0.1-0.7-0.2c-1.2,2.1-3.2,3.3-5.4,2.9c0.3-0.2,0.4-0.3,0.5-0.3c2.7-0.5,4-3,2.9-5.5c-0.4-0.8-1-1.1-2-1.2
				c-1.8-0.2-1.8-0.2-1.8,1.6c0,3.4,0,6.8,0,10.2c0,0.4,0.1,0.6,0.6,0.6c0.3,0,0.6,0,0.8,0.1c0,0.1,0.1,0.1,0.1,0.2
				c-0.1,0.1-0.3,0.2-0.4,0.2c-1.2,0-2.5,0-3.7,0c-0.1,0-0.3-0.2-0.4-0.2c0.1-0.1,0.3-0.2,0.4-0.2c0.3,0,0.6,0,1-0.1c0-1,0-2.1,0-3
				c0-2.9-0.1-5.8-0.1-8.7c0-0.5-0.2-0.7-0.6-0.7c-0.2,0-0.5-0.1-0.7-0.2C96.8,115,96.8,115,96.8,114.9z"/>
			<path d="M23.5,72.1c0,1.6,0,3.2,0,4.7c-2.2-0.2-4.5-0.4-6.7-0.5s-4.5,0.1-6.8,0.1c0-1.4,0-2.8,0-4.3C14.5,72.1,19,72.1,23.5,72.1
				z"/>
			<path d="M140.6,95.5c-0.9,0-1.9,0-2.9,0c0-0.7,0.1-1.5,0.1-2.2c0-1.2,0-2.5-0.1-3.7c-0.1-1.3-0.8-2.1-2-2.1
				c-1.2-0.1-2.2,0.7-2.3,2c-0.1,1.8,0,3.6,0,5.5c0,0.1,0.3,0.3,0.4,0.4c0.2,0.1,0.5,0.1,0.7,0.2c0,0.1,0,0.1,0,0.2
				c-1.3,0-2.6,0-4,0c0-0.1,0-0.1,0-0.2c0.3-0.1,0.5-0.1,0.7-0.2c0.3,0,0.5-0.1,0.5-0.5c0-2.3,0.1-4.6,0.1-6.9
				c0-0.2-0.1-0.4-0.1-0.7c-0.3,0-0.6-0.1-0.9-0.1c0,0.7,0,1.4,0,2.1c-0.1,0-0.1,0-0.2,0c0-0.1-0.1-0.1-0.1-0.2
				c-0.2-0.8-0.6-1-1.3-0.9c-0.8,0.2-1.9,1.1-1.9,2.1c-0.1,1.7,0,3.4,0,5c0.5,0.1,0.8,0.2,1.2,0.2c0,0.1,0,0.1,0,0.2
				c-1.3,0-2.5,0-3.8,0c0-0.1,0-0.1,0-0.2c0.2-0.1,0.5-0.1,0.7-0.2c0.2-0.1,0.4-0.3,0.4-0.4c0-2.3,0-4.8,0.1-7.1
				c0-0.4-0.1-0.6-0.6-0.6c-0.2,0-0.5-0.1-0.7-0.2c0-0.1,0-0.1,0-0.2c0.9,0,1.9,0,2.8,0c0,0.7,0,1.2,0,2c0.3-0.4,0.5-0.7,0.7-0.8
				c0.7-0.7,1.4-1.3,2.5-1.3c0.7,0,1.5,0.1,2.2,0.1c0.2,0,0.3,0,0.6,0c0,0.5,0,0.8,0,1.4c0.4-0.3,0.6-0.5,0.8-0.7
				c0.7-0.4,1.2-0.7,1.9-0.9c1.8-0.5,3,0.6,3.2,2.3c0.1,0.7,0.1,1.5,0.1,2.3c0,1.1,0,2.3,0,3.5c0,0.4,0.2,0.6,0.6,0.6
				c0.2,0,0.5,0.1,0.7,0.1C140.6,95.4,140.6,95.5,140.6,95.5z"/>
			<path d="M182.8,95.5c0-0.2,0-0.4,0-0.6c-0.6,0.3-1,0.6-1.5,0.7c-1.7,0.6-3.1-0.1-3.5-1.5c-0.5-1.8,0.4-3.5,2.1-3.8
				c0.7-0.2,1.6,0,2.3,0c0.2,0,0.4,0.1,0.7,0.2c-0.1-1.1,0-2.2-0.9-3.1c-0.5-0.5-1-0.6-1.7-0.4c-0.5,0.2-0.7,0.4-0.7,0.8
				c0,0.1-0.1,0.3-0.1,0.4c-0.1,0-0.1,0-0.2,0c0-0.5,0-0.9,0-1.6c0.9,0,1.9-0.1,2.8,0c1.3,0.2,2.1,0.9,2.2,2.2
				c0.1,1,0.1,2.1,0.2,3.1c0,0.9,0.1,1.8,0.1,2.7c0,0.3,0.1,0.5,0.4,0.5c0.7,0,1.2,0,1.9,0c0-0.3,0.1-0.6,0.1-0.7c0-4,0-8,0-12
				c0-0.4-0.1-0.6-0.5-0.6c-0.3,0-0.6-0.1-0.8-0.2c0-0.1,0-0.1,0-0.2c1,0,2,0,3,0c0,0.7,0,1.6,0,2.3c0,3.6,0,7.3,0,10.9
				c0,0.4,0.1,0.5,0.5,0.5c0.3,0,0.7,0.1,0.9,0.1c0,0.1,0,0.1,0,0.2C187.7,95.5,185.2,95.5,182.8,95.5z M182.9,92.7
				c0-0.5,0-0.8,0-1.3c0-0.2-0.1-0.4-0.2-0.5c-0.8-0.7-2.6-0.4-3.1,0.7c-0.5,0.9-0.4,2,0.1,2.9c0.2,0.4,0.7,0.7,1,0.7
				c1.1,0.2,2.1-0.7,2.1-1.9C182.9,93.1,182.9,92.9,182.9,92.7z"/>
			<path d="M127.4,114c0.9,0,1.9,0,2.9,0c0,4.6,0,9.2,0,13.6c0.5,0.1,0.8,0.1,1.1,0.2c0,0.1,0,0.1,0,0.2c-0.9,0-1.8,0-2.8,0
				c0-0.1-0.1-0.3-0.1-0.5c-0.1,0.1-0.3,0.1-0.4,0.2c-2.1,1.5-5.6,0.6-6.2-3c-0.1-0.8-0.1-1.8,0.1-2.5c0.6-2.6,3.5-3.9,5.9-2.7
				c0.2,0.1,0.4,0.2,0.7,0.4c0-0.1,0.1-0.2,0.1-0.2c0-1.5-0.1-3.1-0.1-4.6c0-0.5-0.1-0.7-0.7-0.7c-0.2,0-0.4-0.1-0.7-0.2
				C127.4,114.2,127.4,114.1,127.4,114z M128.7,123.6L128.7,123.6c0-0.8,0.1-1.7,0-2.4c0-0.4-0.2-0.7-0.5-0.9
				c-1.5-1.1-3.6-1-4.3,1.3c-0.4,1.3-0.4,2.6-0.1,3.9c0.2,1.1,0.7,2.1,1.9,2.4c1.3,0.4,3.3-0.5,3-2.2
				C128.6,125,128.7,124.3,128.7,123.6z"/>
			<path d="M152.3,103c0-0.7,0-1.2,0-1.8c0-0.2,0.1-0.5,0.3-0.6c0.5-0.3,0.9-0.6,1.4-0.8c0,1.1,0,2.1,0,3.2c0.6,0,1.1,0,1.7,0
				c0.2,0,0.4,0.1,0.6,0.2c-0.2,0.1-0.4,0.2-0.6,0.2c-0.6,0-1.1,0-1.8,0c0,0.6,0,0.9,0,1.4c0,1.5-0.1,3,0,4.4
				c0.1,1.9,0.6,2.2,2.5,2.2c-0.2,0.2-0.3,0.3-0.4,0.4c-0.9,0.3-1.8,0.3-2.6-0.1c-0.7-0.3-1-1-1-1.8c0-1.9,0-3.7,0-5.6
				c0-0.3,0-0.6,0-0.9c-0.4,0-0.7,0-1.2,0c0,0.7,0,1.3,0,2c-0.1,0-0.1,0-0.2,0c0-0.1-0.1-0.2-0.1-0.3c-0.1-0.7-0.5-0.9-1.1-0.8
				c-1,0.1-2.1,1.1-2.1,2.2c0,1.5,0,3,0.1,4.5c0,0.2,0.3,0.3,0.4,0.4c0.2,0.1,0.5,0.1,0.7,0.2c0,0.1,0,0.1,0,0.2c-1.3,0-2.5,0-3.8,0
				c0-0.1,0-0.1,0-0.2c0.2-0.1,0.5-0.2,0.7-0.2c0.4,0,0.5-0.2,0.5-0.5c0-2.3,0-4.7,0-7.1c0-0.4-0.1-0.5-0.5-0.6
				c-0.3,0-0.5-0.1-0.7-0.2c0-0.1,0-0.1,0-0.2c0.9,0,1.9,0,2.8,0c0,0.7,0,1.2,0,2c0.3-0.4,0.5-0.7,0.7-0.8c0.8-0.8,1.7-1.5,2.9-1.2
				C151.6,103.1,151.9,103,152.3,103z"/>
			<path d="M150,86.7c0-0.7,0-1.2,0-1.7c0-0.2,0-0.4,0.1-0.5c0.5-0.4,1-0.7,1.6-1c0,1.1,0,2.1,0,3.2c1.7,0,3.3,0,5,0
				c0,0.9,0,1.9,0,2.8c0,1.7,0,3.5,0,5.1c0,0.5,0.1,0.7,0.6,0.7c0.2,0,0.4,0.1,0.7,0.1c0,0.1,0,0.2,0,0.3c-0.4,0-0.7,0-1,0
				c-1.3,0-2.7,0-4,0.1c-1.9,0.2-2.9-0.7-2.9-2.6c0-1.8,0-3.5,0-5.3c0-0.2,0-0.5,0-0.7c-0.5,0-0.8,0-1.1,0c-0.1,0-0.2-0.1-0.3-0.2
				c0.1-0.1,0.2-0.2,0.3-0.2C149.3,86.7,149.6,86.7,150,86.7z M151.5,87.2c0,1.7,0,3.2,0,4.8c0,0.7,0.1,1.5,0.2,2.2
				c0.1,0.6,0.5,1,1,1c0.7,0.1,1.5,0,2.2,0c0-2.7,0-5.3,0-8C153.9,87.2,152.7,87.2,151.5,87.2z"/>
			<path d="M102.7,87.2c-0.4-0.1-0.8-0.2-1.2-0.2c0-0.1,0-0.1,0-0.2c0.9,0,2,0,3,0c0,0.4,0,0.8,0,1.3c0.2-0.2,0.4-0.4,0.6-0.5
				c0.7-0.4,1.4-0.8,2.1-1c1.7-0.4,2.9,0.5,3.1,2.1c0.1,0.8,0.1,1.8,0.1,2.6c0,1,0,2.1,0,3.2c0,0.5,0.1,0.7,0.6,0.7
				c0.2,0,0.4,0.1,0.6,0.2c0,0.1,0,0.1,0,0.2c-0.9,0-1.9,0-2.8,0c0-1.7,0-3.4,0-5c0-0.5-0.1-0.8-0.1-1.3c-0.2-1.1-0.9-1.9-2.1-1.9
				c-1,0-2.1,0.8-2.2,1.9c-0.1,1.9,0,3.7,0,5.6c0,0.1,0.3,0.3,0.4,0.4c0.2,0.1,0.5,0.1,0.7,0.2c0,0.1,0,0.1,0,0.2c-1.3,0-2.7,0-4,0
				c0-0.1,0-0.1,0-0.2c0.3-0.1,0.6-0.1,0.7-0.2c0.2-0.1,0.4-0.2,0.4-0.4C102.7,92.4,102.7,89.8,102.7,87.2z"/>
			<path d="M138.7,119.8c-0.5-0.1-0.8-0.2-1.2-0.2c0-0.1,0-0.1,0-0.2c0.9,0,1.9,0,2.8,0c0,0.7,0,1.6,0,2.4c0,1.8,0,3.5,0,5.3
				c0,0.5,0.1,0.7,0.6,0.7c0.2,0,0.4,0.1,0.7,0.1c0,0.1,0,0.1,0,0.2c-0.9,0-1.9,0-2.9,0c0-0.4,0-0.7,0-1.3c-0.3,0.3-0.6,0.5-0.7,0.7
				c-0.7,0.6-1.4,0.9-2.3,0.9c-1.7,0.2-2.9-0.8-3-2.5c-0.1-1.7,0-3.3,0-5c0-0.4-0.1-0.7-0.1-1.1c-0.4-0.1-0.7-0.2-1.1-0.2
				c0-0.1,0-0.1,0-0.2c0.9,0,1.8,0,2.7,0c0,0.9,0,1.9,0,2.8c0,1.2,0,2.4,0.2,3.6c0.3,1.7,2.1,2.2,3.5,1.2c0.7-0.6,1-1.1,0.9-2.1
				C138.7,123.3,138.7,121.5,138.7,119.8z"/>
			<path d="M171.3,95.6c-1.3,0-2.7,0-4,0c0-0.1,0-0.1,0-0.2c0.3-0.1,0.5-0.1,0.7-0.2c0.4,0,0.6-0.2,0.6-0.6c0-2.4,0-4.9,0-7.3
				c0-0.1,0-0.1-0.1-0.2c-0.4-0.1-0.7-0.2-1.1-0.2c0-0.1,0-0.1,0-0.2c0.9,0,1.9,0,2.9,0c0,0.4,0,0.8,0,1.3c0.3-0.3,0.6-0.5,0.7-0.7
				c0.9-0.7,1.9-1.1,3.1-0.9c1.2,0.2,2,1.1,2.1,2.7c0.1,1.6,0,3.1,0,4.7c0,0.1,0,0.2,0,0.3c0,0.9,0,0.9,0.9,1.1
				c0.1,0,0.2,0.1,0.3,0.3c-0.9,0-1.9,0-2.8,0c0-0.7,0-1.5,0-2.2c0-1.2,0-2.4-0.1-3.7c-0.1-1.3-0.8-2.1-1.9-2.2
				c-1.3-0.1-2.4,0.8-2.5,2.1c-0.1,1.7,0,3.3,0,5c0,0.5,0.2,0.7,0.7,0.7c0.2,0,0.3,0.1,0.5,0.1C171.3,95.4,171.3,95.5,171.3,95.6z"
				/>
			<path d="M106.8,98.6c0,0.9,0,1.8,0,2.6c-0.1,0-0.1,0-0.2,0c0-0.2-0.2-0.4-0.1-0.5c0-0.5-0.2-0.8-0.6-1c-2.2-1.4-5.5-1.4-6.7,2.4
				c-0.7,2.1-0.6,4.2,0,6.3c0.8,2.9,3.5,4,6.2,2.8c0.4-0.2,0.8-0.4,1.2-0.7c0.1,0,0.1,0.1,0.2,0.1c-0.1,0.2-0.2,0.5-0.4,0.6
				c-3.9,2.4-8.7,0.3-9.4-4.3c-0.2-1.3-0.2-2.5,0.1-3.8c0.7-2.9,2.7-4.6,5.6-4.8C104,98.3,105.4,98.5,106.8,98.6z"/>
			<path d="M162.5,95.9c-2.5,0.1-4.3-1.7-4.4-4.3c-0.1-3.1,1.5-5,4.4-5c2.6-0.1,4.4,1.7,4.5,4.4C166.9,93.4,165.5,95.9,162.5,95.9z
				 M160,89.6c-0.2,1.2-0.2,2.4,0.1,3.5c0.1,0.2,0.1,0.5,0.2,0.7c0.4,1.1,1.2,1.6,2.3,1.6s1.9-0.6,2.2-1.7c0.6-1.7,0.5-3.5-0.1-5.1
				c-0.4-1.1-1.2-1.7-2.3-1.7s-1.9,0.7-2.1,1.8C160.1,89.1,160,89.4,160,89.6z"/>
			<path d="M140.5,112.2c-2.3,0.2-4.4-1.4-4.6-3.7c-0.3-3.3,1.1-5.2,4.1-5.5c2.5-0.2,4.5,1.4,4.7,4.1
				C144.9,109.9,142.9,112.2,140.5,112.2z M142.6,109.6c0.3-1.4,0.3-2.9-0.1-4.4c-0.1-0.2-0.1-0.4-0.2-0.7c-0.4-1-1.1-1.4-2.2-1.4
				c-1,0-1.8,0.6-2.1,1.5c-0.6,1.8-0.7,3.5,0,5.4c0.4,1,1.2,1.7,2.3,1.6c1.1,0,2-0.6,2.2-1.7C142.6,109.8,142.6,109.7,142.6,109.6z"
				/>
			<path d="M107,107.5c0-2.4,1.3-4.2,3.5-4.6c4.3-0.7,6,2.8,5.2,5.9c-0.6,2.4-2.4,3.5-5.2,3.3c-1.9-0.2-3.4-2.1-3.5-4.2
				C107,107.8,107,107.6,107,107.5z M114.1,107.7c-0.2-0.9-0.3-1.9-0.6-2.8c-0.4-1.2-1.2-1.7-2.3-1.7s-2,0.7-2.2,1.9
				c-0.2,1-0.3,2.1-0.3,3.2c0,0.7,0.2,1.5,0.5,2.1c0.4,0.9,1.2,1.3,2.1,1.3c1,0,1.8-0.5,2.1-1.5
				C113.8,109.4,113.9,108.5,114.1,107.7z"/>
			<path d="M112.2,123.8c0-2,0.6-3.5,2.5-4.3c3.1-1.2,6.4,0.4,6.3,4.6c-0.1,1-0.3,1.9-0.9,2.7c-1.2,1.7-3,2-5,1.5
				c-1.6-0.4-2.7-2.1-2.8-3.8C112.2,124.1,112.2,123.9,112.2,123.8z M114.1,122.1c-0.2,1.1-0.2,2.3,0.1,3.5c0,0.2,0.1,0.4,0.2,0.7
				c0.4,1.1,1.2,1.7,2.3,1.7s2-0.7,2.2-1.8c0.5-1.7,0.5-3.4-0.1-5c-0.4-1.2-1.2-1.8-2.4-1.7c-1.1,0-1.9,0.7-2.2,1.9
				C114.2,121.6,114.1,121.9,114.1,122.1z"/>
			<path d="M142.5,88.2c0-0.5,0-0.9,0-1.6c0.9,0,2-0.1,2.9,0c1.4,0.2,2.1,1.2,2.1,2.7c0.1,1.7,0.1,3.5,0.1,5.1
				c0,0.6,0.2,0.7,0.7,0.7c0.2,0,0.4,0.1,0.6,0.2c0,0.1,0,0.1,0,0.2c-0.9,0-1.9,0-2.8,0c0-0.2,0-0.4,0-0.7c-0.3,0.2-0.5,0.3-0.7,0.4
				c-0.8,0.6-1.8,0.7-2.7,0.5c-0.7-0.1-1.2-0.6-1.5-1.3c-0.8-2.1,0.5-4.2,2.8-4.3c0.7,0,1.4,0.2,2.1,0.3c0-1,0-2.1-0.9-3
				c-0.5-0.4-0.9-0.6-1.6-0.4c-0.5,0.1-0.8,0.4-0.8,0.9c0,0.1-0.1,0.3-0.1,0.4C142.5,88.3,142.5,88.3,142.5,88.2z M146,92.7
				L146,92.7c0-0.5,0-0.9,0-1.3c0-0.2-0.1-0.4-0.2-0.5c-1.1-0.8-2.8-0.3-3.2,1c-0.3,0.8-0.3,1.7,0.2,2.4c0.2,0.4,0.6,0.7,1,0.8
				c1.1,0.3,2.2-0.7,2.2-1.8C146,93.2,146,92.9,146,92.7z"/>
			<path d="M101.3,82.6c-0.4,0.1-0.8,0.2-1.3,0.3c0,0.3-0.1,0.7-0.1,1.1c0,3.5,0,7,0,10.5c0,0.5,0.1,0.7,0.7,0.7
				c0.3,0,0.5,0.2,0.7,0.3c-0.3,0.1-0.6,0.2-0.8,0.2c-1.1,0-2.1,0.1-3.3,0c-0.2,0-0.4-0.1-0.5-0.2c0.2-0.1,0.3-0.2,0.5-0.2
				c0.9-0.1,0.9-0.1,0.9-1c0-3.5,0-7,0-10.6c0-0.6-0.2-0.8-0.7-0.8c-0.2,0-0.5-0.1-0.7-0.2c0-0.1,0-0.1,0.1-0.2c1.5,0,3,0,4.5,0
				C101.2,82.5,101.2,82.5,101.3,82.6z"/>
			<path d="M124.3,90c-1.2,0-2.4,0-3.6,0c-0.7,0-1.2,0-1.9,0c-0.2,0-0.5,0.3-0.5,0.4c0.1,0.9,0.1,2,0.4,2.9c0.7,1.9,2.5,2.6,4.4,1.8
				c0.3-0.1,0.6-0.3,0.9-0.3c-0.1,0.2-0.2,0.4-0.3,0.5c-1.5,0.7-3.1,0.8-4.7,0.3c-1.4-0.6-2.1-1.8-2.3-3.3c-0.3-1.9,0-3.5,1.6-4.9
				c1.6-1.2,4.1-1.1,5.3,0.3C124.2,88.2,124.5,89.2,124.3,90z M122.7,89.5c0.2-1.5-0.7-2.6-1.9-2.6s-2.3,1.2-2.2,2.6
				C120,89.5,121.3,89.5,122.7,89.5z"/>
			<path d="M116.8,95.3c-0.1,0.1-0.3,0.2-0.4,0.2c-0.6,0.1-1.1,0.2-1.6,0.1c-1.3-0.1-2-0.7-2-2.1c0-1.9,0-3.7,0-5.6
				c0-0.2,0-0.5,0-0.8c-0.4,0-0.7,0-1.1,0c-0.1,0-0.2-0.1-0.3-0.2c0.1-0.1,0.2-0.2,0.3-0.2c0.4,0,0.7,0,1,0c0-0.6,0-1.1,0-1.7
				c0-0.2,0-0.4,0.1-0.5c0.5-0.4,1-0.7,1.6-1c0,1.1,0,2.1,0,3.2c0.6,0,1,0,1.6,0c0.2,0,0.4,0.1,0.6,0.2c-0.2,0.1-0.4,0.2-0.6,0.2
				c-0.6,0-1.1,0-1.8,0c0,0.5,0,0.9,0,1.4c0,1.5-0.1,3,0,4.5c0.1,1.8,0.6,2.1,2.3,2.1C116.8,95.2,116.8,95.3,116.8,95.3z"/>
			<path d="M156.7,83.1c0,0.7-0.4,1.1-0.9,1.1c-0.5,0-0.8-0.5-0.8-1c0-0.7,0.4-1.1,0.9-1C156.5,82.2,156.7,82.5,156.7,83.1z"/>
			<path class="st2" d="M113.7,105.3c0.4,1.6,0.4,3.2-0.1,4.7c0,0.1,0,0.2-0.1,0.2c-0.3,0.9-1.1,1.4-2.1,1.5c-1,0-1.8-0.4-2.1-1.3
				c-0.3-0.7-0.5-1.4-0.5-2.1c0-1,0-2.1,0.3-3.2c0.3-1.2,1.1-1.8,2.2-1.9c1.1,0,2,0.5,2.3,1.7C113.6,105.1,113.7,105.2,113.7,105.3z
				"/>
		</g>
	</g>
	<polygon points="23.5,128.6 10,128.6 10,78 23.5,78.3 	"/>
	<path d="M25.4,115.3c0,9.9,6.8,13.5,12.4,13.5h0.1c0.8,0.1,13.5,1.3,15.7-5c0.1-0.4,0.1-0.7-0.2-1l-7.4-8.6
		c-0.5-0.6-1.4-0.4-1.7,0.3l-1,2.5c-0.3,0.7-1.3,0.8-1.8,0.2l-0.1-0.1c-0.2-0.4-0.7-0.5-1-0.5c-0.7,0.1-1.8-0.1-1.7-2.8
		c0.2-3.5-3.9-8.4-4.9-9.4c-0.1-0.1-0.3-0.2-0.4-0.3l-6.7-2.4c-0.7-0.3-1.5-2.6-1.5-1.9"/>
</g>
</svg>
