<?xml version="1.0" encoding="utf-8"?>
<!-- Generator: Adobe Illustrator 26.2.1, SVG Export Plug-In . SVG Version: 6.00 Build 0)  -->
<svg version="1.1" id="Layer_1" xmlns="http://www.w3.org/2000/svg" xmlns:xlink="http://www.w3.org/1999/xlink" x="0px" y="0px"
	 viewBox="0 0 200 200" style="enable-background:new 0 0 200 200;" xml:space="preserve">
<g>
	<path d="M94.7,68.6c26.5,0,53.1,0,79.6,0c0.8,0,1.5,0,2.4,0.4c1.6,0.6,2.5,1.9,2.8,3.6c0.1,0.4,0.1,0.8,0.1,1.2
		c0,17.5,0,34.9,0,52.4c0,0.6,0,1.4-0.3,2c-0.5,1.8-1.9,2.9-3.8,3.2c-0.4,0.1-0.8,0.1-1.2,0.1c-53.1,0-106.1,0-159.2,0
		c-0.5,0-1.2,0-1.6-0.2c-1.8-0.5-3.2-2-3.5-3.8c-0.1-0.5-0.1-0.8-0.1-1.3c0-17.5,0-34.9,0-52.5c0-0.6,0.1-1.4,0.3-2
		c0.5-1.8,2.3-3.1,4.2-3.2c0.4,0,0.7,0,1.1,0C42,68.6,68.4,68.6,94.7,68.6z M94.8,69.4c-26.5,0-52.8,0-79.3,0c-0.4,0-0.6,0-1,0
		c-1.6,0.1-3.2,1.2-3.5,2.8c-0.2,0.5-0.2,1.1-0.2,1.6c0,17.5,0,34.9,0,52.4c0,0.4,0,0.7,0.1,1.2c0.2,1.5,1.4,2.8,2.8,3.1
		c0.5,0.1,1,0.1,1.5,0.1c53,0,106.1,0,159.1,0c0.4,0,0.7,0,1.2-0.1c1.5-0.2,2.8-1.3,3.2-2.8c0.1-0.5,0.2-1.1,0.2-1.6
		c0-17.5,0-34.8,0-52.3c0-0.5,0-0.8-0.1-1.2c-0.2-1.3-0.8-2.2-2-2.7c-0.7-0.4-1.5-0.5-2.4-0.5C147.9,69.4,121.3,69.4,94.8,69.4z"/>
	<path d="M186.5,128.1c0,0.9,0,1.7,0,2.6c-0.2,0-0.4,0-0.6,0.1c0-1.3,0-2.5,0-3.8c0.3,0,0.6,0,1,0c0.4,0.8,0.6,1.7,1.1,2.7
		c0.4-1,0.7-1.9,1.1-2.7c0.4,0,0.6,0,1,0c0,1.3,0,2.5,0,3.8c-0.2,0-0.4,0-0.6,0c0-0.9,0-1.8,0-2.6c-0.1,0-0.1,0-0.2,0
		c-0.2,0.5-0.4,0.9-0.5,1.4c-0.1,0.3-0.2,0.6-0.4,0.9c-0.1,0.2-0.3,0.3-0.4,0.5c-0.2-0.1-0.3-0.3-0.4-0.4c-0.3-0.5-0.5-1.2-0.6-1.7
		c-0.1-0.2-0.2-0.5-0.3-0.6C186.6,128.1,186.5,128.1,186.5,128.1z"/>
	<path d="M185.1,126.9c0.2,0.5-0.1,0.5-0.4,0.5c-0.2,0-0.5,0-0.7,0.1c0,1.1,0,2.1,0,3.2c-0.3,0-0.4,0-0.6,0c0-1.1,0-2.1,0-3
		c-0.4-0.5-1.1,0.1-1.2-0.8C183.1,126.9,184.1,126.9,185.1,126.9z"/>
	<path d="M139.4,91.1c0.8-0.2,1.7-0.3,2.5-0.5c3.4-0.7,6.7-1.6,9.9-3.1c1.4-0.6,2.7-1.4,4-2.3c0.9-0.7,1.7-1.5,2.3-2.5
		c0.6-1.1,0.9-2.3,0.5-3.5c-0.2-0.7-0.6-1.4-1.2-1.9c-0.8-0.8-1.8-1.5-2.8-2c-0.2-0.1-0.5-0.3-0.8-0.5c0.4,0,0.6-0.1,0.8-0.1
		c4.8,0,9.6,0,14.5,0c2.3,0,4,1.3,4.5,3.4c0.1,0.3,0.1,0.6,0.1,0.9c0,8.6,0,17.3,0,25.9c0,1.9-1.4,3.6-3.2,4.1
		c-0.3,0.1-0.6,0.1-1,0.2c-0.4,0-0.7,0-1.1,0c-49.2,0-98.3,0-147.4,0c-0.4,0-0.6,0-1,0c-2.4-0.1-4.2-1.9-4.2-4.3c0-1.7,0-3.5,0-5.3
		c0-6.7,0-13.5,0-20.3c0-1.2,0.3-2.3,1.1-3.2c0.7-0.8,1.7-1.4,2.9-1.5c0.4,0,0.6,0,1,0c5.1,0,10.3,0,15.4,0c14.1,0,28.1,0,42.2,0
		c0.3,0,0.5,0,0.8,0.1c-0.2,0-0.4,0.1-0.5,0.2c-8.2,1.7-16.3,3.9-24.1,6.7c-2.1,0.7-4.3,1.5-6.4,2.4c-8.6,3.6-16.9,7.7-24.6,13
		c-0.6,0.5-1.4,0.9-2.1,1.4c-0.1,0.1-0.2,0.2-0.3,0.4c0.7-0.4,1.5-0.7,2.3-1.1c9.5-4.7,19.2-8.5,29.2-11.5c1.8-0.5,3.6-1,5.4-1.5
		c6.5-1.9,13.1-3.3,19.8-4.4c4.2-0.7,8.4-1.2,12.5-1.8c5.2-0.6,10.3-1.1,15.5-1.3c7.4-0.4,14.7-0.5,22.1-0.2
		c4.5,0.2,9.1,0.6,13.5,1.5c1.7,0.4,3.5,0.8,5.1,1.4c0.8,0.3,1.6,0.6,2.4,1.2c1.5,1,1.7,2.2,0.6,3.8c-0.5,0.7-1.1,1.3-1.8,1.8
		c-1.2,1-2.5,1.6-4,2.3c-1.4,0.6-2.7,1.2-4.1,1.8c-0.2,0.1-0.4,0.2-0.6,0.3C139.4,91,139.4,91.1,139.4,91.1z M112.8,94.9
		c-0.7-1-1.8-1.4-2.9-1.5c-1.7-0.2-3.4,0.1-4.8,1.2c0-0.4,0.1-0.6,0.1-0.9c-1.8,0-3.5,0-5.3,0c-1,3.8-2.1,7.5-3.1,11.4
		c2,0,3.8,0,5.6,0c0.1-0.3,0.2-0.5,0.2-0.7c0.5-1.8,1-3.7,1.5-5.5c0.2-0.6,0.5-1.2,0.7-1.7c0.3-0.5,0.6-0.8,1.2-0.9
		c1-0.3,1.5,0.2,1.3,1.2c-0.1,0.3-0.2,0.5-0.2,0.8c-0.3,0.9-0.5,1.8-0.7,2.7c-0.4,1.4-0.7,2.7-1.1,4.2c0.7,0.2,5,0.2,5.6,0
		c0.1-0.3,0.2-0.5,0.2-0.8c0.5-1.8,1-3.7,1.5-5.5c0.2-0.5,0.5-1.1,0.7-1.6c0.3-0.5,0.6-0.7,1.1-0.9c1.1-0.3,1.5,0.1,1.4,1.3
		c-0.1,0.5-0.2,0.8-0.4,1.3c-0.1,0.4-0.3,0.7-0.4,1.1c-0.5,1.6-0.9,3.2-1.3,4.8c0,0.2-0.1,0.4-0.1,0.5c1.9,0,3.7,0,5.5,0
		c0.1-0.2,0.2-0.4,0.2-0.6c0.6-2.2,1.3-4.5,1.8-6.6c0.1-0.5,0.2-0.9,0.3-1.4c0.2-1.3-0.4-2.3-1.6-2.7c-0.4-0.2-0.8-0.3-1.3-0.3
		C116.6,93.4,114.6,93.5,112.8,94.9z M46.6,89.9c-1.4,5.1-2.7,10.1-4.1,15.2c2,0,3.9,0,5.8,0c0.5-2.1,1.2-4.2,1.7-6.5
		c0.2,0.3,0.4,0.5,0.5,0.6c1.3,1.8,2.5,3.5,3.7,5.4c0.3,0.4,0.5,0.5,0.9,0.5c1.8,0,3.7,0,5.5,0c0.2,0,0.3-0.1,0.5-0.1
		c-2-2.6-3.9-5.3-5.8-7.9c2.9-2.4,5.7-4.7,8.6-7.1c0-0.1,0-0.1-0.1-0.2c-0.2,0-0.5,0-0.6,0c-1.5,0-3,0-4.5,0c-0.5,0-0.9,0.2-1.3,0.5
		c-2,1.6-4.1,3.4-6.1,5c-0.2,0.1-0.3,0.2-0.5,0.4c0.5-2,1.1-3.8,1.5-5.8C50.5,89.9,48.6,89.9,46.6,89.9z M93.5,105.1
		c0.1-0.3,0.1-0.4,0.2-0.5c0.6-2.3,1.2-4.5,1.8-6.7c0.1-0.4,0.2-0.7,0.2-1.1c0.1-1.3-0.5-2.2-1.6-2.7c-0.2-0.2-0.5-0.3-0.7-0.3
		c-2.3-0.4-4.5-0.4-6.6,0.9c-0.1,0-0.2,0-0.3,0.1c0.1-0.3,0.1-0.6,0.2-0.9c-1.8,0-3.5,0-5.4,0c-1,3.8-2,7.5-3.1,11.4
		c1.9,0,3.7,0,5.5,0c0.1-0.2,0.2-0.5,0.2-0.6c0.5-1.7,1-3.4,1.5-5.1c0.3-0.8,0.6-1.5,1.2-2.2c0.6-0.6,1.4-1,2.3-1
		c0.6,0,1.1,0.4,1.1,1.1c0,0.5-0.1,0.9-0.2,1.3c-0.5,1.5-0.9,3.1-1.3,4.6c-0.2,0.6-0.3,1.2-0.5,1.9
		C89.9,105.1,91.7,105.1,93.5,105.1z M170,100.2c1.1-2.5,0.3-4.8-2.1-5.9c-0.4-0.2-0.7-0.3-1.1-0.4c-1.7-0.5-3.5-0.5-5.4-0.2
		c-1.4,0.2-2.7,0.6-4,1.4c-2,1.2-3.2,2.8-3.6,5.1c-0.4,1.7,0.3,3.2,1.8,4.2c0.5,0.3,1.1,0.5,1.6,0.7c2.2,0.7,4.4,0.6,6.6,0.1
		c1.5-0.4,2.9-1,4.1-1.9c0.4-0.3,0.7-0.6,1.1-1.2c-0.3,0-0.5,0-0.7,0c-1.3,0-2.6,0-3.9,0c-0.5,0-0.8,0.1-1.1,0.5
		c-0.5,0.8-1.3,1.2-2.3,1.2c-0.7,0-1.3-0.4-1.5-1.1c-0.2-0.7-0.2-1.5,0-2.4C163.1,100.2,166.5,100.2,170,100.2z M76.4,101.9
		c-0.3,0-0.5,0-0.6,0c-1.4,0-2.7,0-4.1,0c-0.5,0-0.7,0.1-1,0.5c-0.5,0.7-1.3,1.3-2.3,1.3c-0.8,0-1.4-0.5-1.6-1.3
		c-0.2-0.7-0.2-1.5,0.1-2.2c3.5,0,7,0,10.5,0c0.9-1.6,0.8-4.3-1.5-5.6c-0.5-0.3-1-0.5-1.5-0.6c-1.7-0.5-3.5-0.5-5.4-0.3
		c-1.5,0.2-2.9,0.6-4.3,1.5c-1.7,1.1-2.8,2.6-3.4,4.6c-0.5,2.1,0.3,3.7,2.2,4.7c0.4,0.2,0.8,0.4,1.2,0.5c2.2,0.6,4.4,0.6,6.6,0.1
		c1.5-0.4,3-1,4.3-2.1C75.8,102.6,76.2,102.4,76.4,101.9z M132.7,93.5c-0.4,0-0.8,0-1.4,0.1c-1.9,0.2-3.7,0.7-5.4,1.8
		c-1.4,0.9-2.3,2.1-2.7,3.6c-0.9,2.9,0.2,5,3.2,5.9c2,0.6,3.9,0.6,5.9,0.3c1.5-0.3,3-0.7,4.3-1.6c1.9-1.4,2.9-3.2,3-5.5
		c0.1-1.4-0.5-2.5-1.5-3.2c-0.5-0.4-1.1-0.6-1.7-0.9C135.4,93.5,134.1,93.5,132.7,93.5z M145.9,105.1c0.2-0.6,0.4-1.2,0.5-1.7
		c0.4-1.3,0.6-2.5,1.1-3.8c0.3-0.7,0.5-1.5,0.9-2.1c0.9-1.5,2.7-1.4,3.5-0.2c0.3,0.5,0.5,0.5,0.7-0.2c0.4-0.9,0.7-1.8,1.1-2.7
		c0.1-0.2,0.1-0.4,0.2-0.5c-0.9-0.4-1.9-0.5-2.8-0.3c-0.9,0.1-1.7,0.6-2.6,1.2c0.1-0.4,0.1-0.6,0.1-0.9c-1.8,0-3.5,0-5.3,0
		c-1,3.7-2,7.5-3.1,11.4c1.8,0,3.5,0,5.1,0C145.5,105.1,145.7,105.1,145.9,105.1z"/>
	<path d="M31.9,114.4c0,0.9,0,1.8,0,2.6c-0.1,0-0.2,0.1-0.2,0.1c-0.5-0.5-1.1-0.5-1.6-0.5c-1.7,0-3.5,0-5.2,0c-0.3,0-0.5,0-0.8,0
		c-0.1,0.8,0,1.6,0,2.5c0.1,0,0.2,0.1,0.2,0.1c1.3,0,2.6,0,3.9,0c0.4,0,0.6-0.1,0.7-0.5c0-0.1,0.1-0.2,0.2-0.2
		c0.2,0.6,0.3,2.6,0,3.3c-0.1-0.1-0.2-0.2-0.2-0.3c-0.1-0.4-0.4-0.5-0.7-0.5c-1.4,0-2.7,0-4.2,0c-0.1,0.9,0,1.8,0,2.8
		c0.3,0,0.5,0,0.8,0c1.7,0,3.5,0,5.2,0c0.6,0,1.3,0.2,1.6-0.6c0.3,0.6,0.3,2.5,0,3.1c-0.4-0.6-0.9-0.5-1.5-0.5c-2.7,0-5.5,0-8.2,0
		c-0.3,0-0.5,0-1,0c0.6-0.9,0.5-1.8,0.5-2.7c0-2.3,0-4.6,0-6.9c0-0.5,0.1-0.8-0.4-1.1c0,0,0-0.2,0-0.4c0.3,0,0.5,0,0.8,0
		c2.6,0,5.2,0,7.8,0c0.6,0,1.4,0.2,1.8-0.5C31.8,114.3,31.9,114.4,31.9,114.4z"/>
	<path d="M157.4,114.8c0.3,0,0.5,0,0.8,0c2.7,0,5.4,0,8.1,0c0.5,0,1.1,0.1,1.4-0.5c0.3,0.5,0.4,2.1,0.1,2.9c-0.5-0.6-1.3-0.5-2-0.5
		c-1.9,0-3.7,0-5.7,0c-0.1,0.8,0,1.6,0,2.5c0.3,0,0.5,0.1,0.6,0.1c1,0,1.9,0,2.9,0s1,0,1.6-0.6c0.3,0.5,0.3,2.6,0,3.2
		c-0.6-0.7-0.6-0.7-1.8-0.7c-1.1,0-2.2,0-3.4,0c-0.1,0.9,0,1.8,0,2.8c0.4,0,0.6,0,0.9,0c1.7,0,3.5,0,5.3,0c0.6,0,1.3,0.1,1.6-0.5
		c0.2,0.5,0.3,2,0.1,3c-0.6-0.7-1.4-0.5-2.1-0.5c-2.5,0-5.1,0-7.6,0c-0.3,0-0.5,0-1,0c0.6-0.6,0.5-1.2,0.5-1.8c0-2.5,0-5.2,0-7.7
		c0-0.5,0-0.8-0.4-1.1C157.4,115.1,157.4,115,157.4,114.8z"/>
	<path d="M129.1,125.8c-1,0-2.1,0-3.2,0c0.5-0.6,0.4-1.4,0.4-2c0-2,0-4.1,0-6.1c0-0.3,0-0.5,0-0.9c-0.3,0-0.5-0.1-0.6-0.1
		c-0.5,0-0.9,0-1.4,0c-0.7,0-1.5-0.3-2.3,0.6c-0.1-1.2,0-2.1,0-3c0.1,0,0.2-0.1,0.2,0c0.4,0.5,0.9,0.5,1.5,0.5c2.5,0,4.8,0,7.2,0
		c0.7,0,1.5,0.2,2.1-0.6c0.1,1.2,0,2.1,0,3c-0.1,0-0.2,0.1-0.2,0c-0.4-0.5-0.8-0.5-1.4-0.5c-0.9,0-1.7,0-2.6,0
		c0,0.2-0.1,0.4-0.1,0.5c0,2.5,0,5,0,7.5c0,0.4,0.1,0.7,0.5,0.8C129.2,125.7,129.2,125.7,129.1,125.8z"/>
	<path d="M68.1,123.5c0,0.9,0,1.8,0,2.8c-0.1,0-0.2,0-0.3,0c-0.3-0.4-0.6-0.4-1.1-0.4c-2.1,0-4.3,0-6.4,0c-0.9,0-1.7,0-2.6,0
		c-0.2,0-0.4-0.1-0.6-0.1c0.1-0.2,0.1-0.3,0.2-0.3c0.5-0.1,0.5-0.5,0.5-0.8c0-0.4,0-0.7,0-1.1c0-2.5,0-4.9,0-7.3
		c0-0.5,0.1-1-0.5-1.2c0,0,0-0.1,0-0.2c0-0.1,0-0.1,0-0.2c1.1,0,2.3,0,3.5,0c-0.1,0.2-0.1,0.4-0.2,0.4c-0.4,0.1-0.5,0.4-0.5,0.7
		c0,2.5,0,5,0,7.5c0,0.1,0,0.3,0.1,0.5c0.3,0,0.5,0,0.8,0c1.7,0,3.5,0,5.2,0c0.6,0,1.2,0,1.6-0.5C68,123.4,68,123.5,68.1,123.5z"/>
	<path d="M96.2,114.9c0,0.1,0,0.3-0.1,0.4c-0.5,0.2-0.4,0.5-0.4,0.8c0,2.9,0,5.8,0,8.6c0,0.5,0.2,0.7,0.5,1
		c-0.5,0.3-2.6,0.3-3.5,0.1c0.7-0.5,0.5-1.1,0.5-1.7c0-2.5,0-5.2,0-7.7c0-0.5,0.1-0.9-0.5-1.1v-0.2
		C93.3,114.7,95.3,114.7,96.2,114.9z"/>
	<path d="M165,98c-1.6,0-3.2,0-4.7,0c0.3-1.1,1.5-2.4,2.5-2.6c1-0.3,1.7,0.1,2,1.1C164.9,96.9,164.9,97.4,165,98z"/>
	<path d="M72.3,98c-1.6,0-3.2,0-4.8,0c0.5-1.1,1.2-2,2.3-2.5c1.2-0.5,2.1-0.1,2.4,1.2C72.3,97,72.3,97.5,72.3,98z"/>
	<path d="M128.5,101.4c0.1-1.5,0.5-3,1.3-4.3c0.4-0.5,0.8-1,1.4-1.4c0.4-0.4,0.9-0.5,1.5-0.5c0.8,0,1.4,0.5,1.5,1.3
		c0.1,0.5,0.1,1.1,0,1.6c-0.2,1.4-0.6,2.7-1.4,3.8c-0.4,0.5-0.9,1.1-1.5,1.4c-1.5,0.7-2.5,0-2.6-1.5
		C128.5,101.6,128.5,101.5,128.5,101.4z"/>
</g>
</svg>
