<?xml version="1.0" encoding="utf-8"?>
<!-- Generator: Adobe Illustrator 26.2.1, SVG Export Plug-In . SVG Version: 6.00 Build 0)  -->
<svg version="1.1" id="Layer_1" xmlns="http://www.w3.org/2000/svg" xmlns:xlink="http://www.w3.org/1999/xlink" x="0px" y="0px"
	 viewBox="0 0 200 200" style="enable-background:new 0 0 200 200;" xml:space="preserve">
<style type="text/css">
	.st0{fill-rule:evenodd;clip-rule:evenodd;}
</style>
<g>
	<path class="st0" d="M100,10c-49.8,0-90,40.3-90,90c0,49.8,40.3,90,90,90c49.8,0,90-40.3,90-90S149.8,10,100,10L100,10L100,10
		L100,10z M100,183.8c-46.3,0-83.8-37.5-83.8-83.8c0-18.6,6.1-35.7,16.3-49.7c1.1-0.9,1.7,0.3,1.7,1l0,0V148h10v-29.5l0,0
		c0-1.4,1-2.4,2-1.3l0,0l31.9,37.4h12.5l-36.1-42.4l0,0c20.9-13.3,19.4-38.4,12.4-51c-8-14.3-23.2-12.5-31.4-12.7
		c-0.8,0-1.1-0.8-0.7-1.3c10.1-12.4,23.7-21.9,39.3-27l0,0v108.4h7.1V95.9l0,0c0-3.2,2.3-4,4-4s3.6,1.1,3.6,4l0,0v32.9H96V94.4l0,0
		c0-4-2.1-14.1-14.7-10.6l0,0V18.4l0,0c6.1-1.3,12.3-2.1,18.8-2.1c46.3,0,83.8,37.5,83.8,83.8C183.8,146.4,146.3,183.8,100,183.8
		L100,183.8L100,183.8L100,183.8z M43.9,104.4V58.6l0,0c0-1.4,1.3-2.1,2.7-1.9c8.2,0,16.8,8,16.8,25.3s-11.6,22.8-14.5,24.1
		C46,107.3,44.4,106.1,43.9,104.4L43.9,104.4L43.9,104.4L43.9,104.4z"/>
	<path class="st0" d="M147.4,84.1v44.7h6.5V94.2l0,0c0-1.9,1.3-3,2.5-3c1.3,0,2.6,0.9,2.6,3l0,0v34.6h6.3V94.4l0,0
		c0-2.1,1.1-3,2.6-3c1.4,0,2.5,1.4,2.5,3l0,0v34.4h6.5V91l0,0c0.2-2.7-1.9-7.6-5.9-7.6c-4,0-5.5,1.7-6.5,3.4
		c-0.9-1.4-2.1-3.4-4.4-3.4c-2.1,0-5.3,1.1-5.9,2.1l0,0v-1.4H147.4L147.4,84.1L147.4,84.1z"/>
	<path class="st0" d="M120.8,106.3c0-18.6-5-22.1-10.2-22.1c-4.6,0-10.9,7.8-10.9,22.1c0,20.9,5.4,24,11.6,24c4.3,0,9-3.8,9.3-16.5
		l0,0H114l0,0c-0.2,4-1,6.7-3.4,6.7c-2.7,0-3.5-3.9-3.7-11.4l0,0h13.8l0,0C120.8,108.2,120.8,107.2,120.8,106.3L120.8,106.3
		L120.8,106.3L120.8,106.3z M107.1,102.2c0.4-5.7,1.4-8.3,3.5-8.4c2.5-0.1,3.2,2.4,3.4,8.4l0,0H107.1L107.1,102.2L107.1,102.2z"/>
	<path class="st0" d="M145,106.3c0-18.6-5-22.1-10.2-22.1c-4.6,0-10.9,7.8-10.9,22.1c0,20.9,5.4,24,11.6,24c4.3,0,9-3.8,9.3-16.5
		l0,0h-6.6l0,0c-0.2,4-1,6.7-3.4,6.7c-2.7,0-3.5-3.9-3.7-11.4l0,0h13.8l0,0C145,108.2,145,107.2,145,106.3L145,106.3L145,106.3
		L145,106.3z M131.3,102.2c0.4-5.7,1.4-8.3,3.5-8.4c2.5-0.1,3.2,2.4,3.4,8.4l0,0H131.3L131.3,102.2L131.3,102.2z"/>
	<path class="st0" d="M159.6,134.4c-3.3,0-5.9,2.6-5.9,5.9c0,3.3,2.6,5.9,5.9,5.9c3.3,0,5.9-2.6,5.9-5.9
		C165.5,137,162.9,134.4,159.6,134.4L159.6,134.4L159.6,134.4L159.6,134.4z M159.6,145.4c-2.9,0-5.2-2.3-5.2-5.2
		c0-2.9,2.3-5.1,5.2-5.1c2.9,0,5.1,2.3,5.1,5.1C164.7,143.1,162.5,145.4,159.6,145.4L159.6,145.4L159.6,145.4L159.6,145.4z"/>
	<path class="st0" d="M162.6,138.7c0-0.6-0.3-1.2-0.8-1.4c-0.5-0.3-1.1-0.3-1.6-0.3l0,0h-2.9v6.5h0.8v-3h1.4l1.8,3h1l-2-3l0,0
		C161.7,140.4,162.6,139.9,162.6,138.7L162.6,138.7L162.6,138.7L162.6,138.7z M159.4,139.9h-1.3v-2.3h1.8l0,0c0.8,0,1.7,0.1,1.7,1.2
		C161.8,140,160.4,139.9,159.4,139.9L159.4,139.9L159.4,139.9L159.4,139.9z"/>
</g>
</svg>
