<?xml version="1.0" encoding="utf-8"?>
<!-- Generator: Adobe Illustrator 26.2.1, SVG Export Plug-In . SVG Version: 6.00 Build 0)  -->
<svg version="1.1" id="Layer_1" xmlns="http://www.w3.org/2000/svg" xmlns:xlink="http://www.w3.org/1999/xlink" x="0px" y="0px"
	 viewBox="0 0 200 200" style="enable-background:new 0 0 200 200;" xml:space="preserve">
<g>
	<g>
		<path d="M59.7,103.8c-3,0-6.5-0.1-6.5-4.6v-0.3h5.6v2h1V99c-0.9-0.3-2-0.6-3-1c-1.8-0.6-3.3-1.4-3.4-3.8c-0.1-3.1,2.2-4.4,6-4.4
			c4.9,0,6,1.8,6,4.1v0.6h-5.5v-1.7h-1v1.7c0.7,0.2,1.8,0.6,2.9,0.8c1.9,0.6,4,1.4,4,4C65.6,102.7,63,103.8,59.7,103.8"/>
		<path d="M77.4,102.1c-0.6,1-1.6,1.7-3,1.7c-1.4,0-2.3-0.5-2.8-1.1v4.2h-5.2V93.2h5.1v1.1c0.4-0.6,1.3-1.3,2.9-1.3
			c1,0,1.8,0.3,2.3,0.8c0.9,0.9,1.2,2.2,1.2,4.3C78,99.9,77.9,101.2,77.4,102.1 M72.7,96.1h-1.1v4.5h1.1V96.1z"/>
		<path d="M88.3,103c-1.3,0.6-2.7,0.7-3.8,0.7c-4.6,0-5.7-2.1-5.7-5.4c0-3.6,1.6-5.4,5.9-5.4c2.6,0,4.1,0.6,5.1,2
			c0.4,0.6,0.6,1.4,0.6,3.1v0.7H84v2.4h1v-1.3h5.3C90.3,101.2,89.5,102.4,88.3,103 M85.1,95.2H84v1.9h1.1V95.2z"/>
		<path d="M100.6,103c-1.3,0.6-2.7,0.7-3.8,0.7c-4.6,0-5.7-2.1-5.7-5.4c0-3.6,1.6-5.4,5.9-5.4c2.6,0,4.1,0.6,5.1,2
			c0.4,0.6,0.6,1.4,0.6,3.1v0.7h-6.4v2.4h1.1v-1.3h5.3C102.8,101.2,101.8,102.4,100.6,103 M97.5,95.2h-1.1v1.9h1.1V95.2z"/>
		<path d="M109.8,103.5v-0.9c-0.6,0.6-1.5,1.2-2.8,1.2c-0.8,0-1.6-0.2-2.3-0.8c-0.9-0.9-1.1-2.6-1.1-4.2c0-1.9,0.2-3.3,0.6-4.1
			c0.6-1,1.6-1.4,2.8-1.4c1.3,0,2.1,0.4,2.8,1v-3.9h5.2v13.2 M109.8,96.1h-1.1v4.4h1.1V96.1z"/>
		<path d="M128.2,103.8c-2.2,0-3.6-0.6-4.5-1.4c-1.2-1.1-1.4-3-1.4-5.6c0-5.4,1.3-7,6.2-7c4.9,0,6.2,1.6,6.2,7
			c0,1.4-0.1,3.1-0.6,4.2h1.2v2.8 M129,92.9h-1v8.2h1V92.9z"/>
		<path d="M142,103.5v-1c-0.7,0.7-1.8,1.3-3,1.2c-1.2,0-2.2-0.6-2.7-1.5c-0.3-0.5-0.6-1.2-0.6-2.4v-6.5h5.2v7.3h1.1v-7.3h5.2v10.1"
			/>
		<path d="M157.5,103c-1.3,0.6-2.7,0.7-3.8,0.7c-4.6,0-5.7-2.1-5.7-5.4c0-3.6,1.6-5.4,5.9-5.4c2.6,0,4.1,0.6,5.1,2
			c0.4,0.6,0.6,1.4,0.6,3.1v0.7h-6.4v2.4h1.1v-1.3h5.3C159.7,101.2,158.7,102.4,157.5,103 M154.4,95.2h-1.1v1.9h1.1V95.2z"/>
		<path d="M169.9,103c-1.3,0.6-2.7,0.7-3.8,0.7c-4.6,0-5.7-2.1-5.7-5.4c0-3.6,1.6-5.4,5.9-5.4c2.6,0,4.1,0.6,5.1,2
			c0.4,0.6,0.6,1.4,0.6,3.1v0.7h-6.4v2.4h1.1v-1.3h5.3C172,101.2,171.1,102.4,169.9,103 M166.8,95.2h-1.1v1.9h1.1V95.2z"/>
		<path d="M179,103.5v-7.3h-1.1v7.3h-5.2V93.3h5v1c0.4-0.6,1.4-1.3,3-1.3c2.1,0,3.3,1.4,3.3,3.5v7"/>
		<path d="M185.8,101.8c0-1.2,0.9-2,2.1-2c1.1,0,2.1,0.8,2.1,2c0,1.2-0.9,2-2.1,2C186.7,103.8,185.8,103,185.8,101.8 M187.8,103.5
			c0.9,0,1.7-0.7,1.7-1.8s-0.7-1.8-1.7-1.8s-1.7,0.7-1.7,1.8S186.9,103.5,187.8,103.5 M187.3,103H187v-2.4h0.9
			c0.6,0,0.8,0.2,0.8,0.6s-0.3,0.6-0.6,0.6l0.6,1h-0.4l-0.6-1h-0.5L187.3,103L187.3,103z M187.8,101.6c0.3,0,0.6,0,0.6-0.4
			c0-0.3-0.3-0.4-0.6-0.4h-0.5v0.7H187.8z"/>
	</g>
	<g>
		<path d="M38.4,109.5c5.5-2.4,9.2-6.7,9.2-11.6c0-3.7-2.1-7.1-5.5-9.5c-3.4-2.5-8.1-4-13.3-4s-9.9,1.5-13.3,4
			c-3.4,2.5-5.5,5.8-5.5,9.5c0,3.7,2.1,7.1,5.5,9.5c3.4,2.5,8.1,4,13.3,4c0.3,0,0.6,0,0.9,0l0,0l0,0h0.1c0.4,0,0.6,0.1,0.7,0.5
			c0.2,0.5,0.5,1,0.6,1.3c0.4,0.7,1.2,2.5,3.8,2.6c2,0,4.1,0,6.1,0c0.3,0,0.4-0.1,0.4-0.2c0-0.1,0-0.1-0.1-0.1
			c-0.6-0.5-1.2-1-1.6-1.8c-0.4-0.8-1-2.1-1.5-3.1c-0.1-0.2-0.2-0.4-0.2-0.5C38,109.6,38.2,109.5,38.4,109.5z M36.9,105.8
			c-0.1,0.1-0.2,0.1-0.2,0.1c-0.2,0-0.3-0.3-0.4-0.4c-1.2-2.7-2.6-5.3-3.8-7.9c-0.1-0.2-0.1-0.3-0.3-0.2h-0.6v0.1
			c0.2,0.3,0.3,0.6,0.5,0.9c0.2,0.4,0.2,0.6,0.2,0.9c0,0.6-0.4,1.1-1,1.1c-0.5,0-1.1-0.3-1.7-1c-0.3-0.3-0.4-0.5-0.6-0.8
			c-0.2-0.4-0.4-0.6-0.6-1c-0.1-0.1-0.1-0.2-0.4-0.2h-0.6v0.1c0.1,0.3,0.3,0.6,0.5,0.9c0.2,0.5,0.3,0.8,0.3,1.2c0,0.7-0.5,1-1.1,1.1
			c-0.6,0-1.5-0.4-1.8-1.2c-0.4-0.6-0.7-1.2-1-1.8c-0.1-0.2-0.3-0.2-0.5-0.3c-0.1,0-0.3,0-0.4,0h-0.1v0.1c1.7,3.4,3.4,6.9,5.1,10.3
			l0,0l0,0c0.1,0.1,0.1,0.3,0.1,0.3c0,0.1-0.1,0.2-0.3,0.2c0,0,0,0-0.1,0c-6.9-0.1-12.4-4.8-12.4-10.5c0-5.8,5.7-10.5,12.7-10.5
			s12.7,4.7,12.7,10.5C41.5,101.1,39.8,103.8,36.9,105.8z"/>
		<path d="M31.1,94c-0.6,0-1,0.5-1,1c0,0.6,0.5,1,1,1c0.6,0,1-0.5,1-1C32.2,94.4,31.8,94,31.1,94z"/>
		<path d="M27.2,94c-0.6,0-1,0.5-1,1c0,0.6,0.5,1,1,1c0.6,0,1-0.5,1-1C28.2,94.4,27.7,94,27.2,94z"/>
		<path d="M23,94c-0.6,0-1,0.5-1,1c0,0.6,0.5,1,1,1c0.6,0,1-0.5,1-1C24,94.4,23.6,94,23,94z"/>
	</g>
</g>
</svg>
