<?xml version="1.0" encoding="utf-8"?>
<!-- Generator: Adobe Illustrator 26.2.1, SVG Export Plug-In . SVG Version: 6.00 Build 0)  -->
<svg version="1.1" id="Layer_1" xmlns="http://www.w3.org/2000/svg" xmlns:xlink="http://www.w3.org/1999/xlink" x="0px" y="0px"
	 viewBox="0 0 200 200" style="enable-background:new 0 0 200 200;" xml:space="preserve">
<style type="text/css">
	.st0{fill-rule:evenodd;clip-rule:evenodd;}
</style>
<g>
	<polygon class="st0" points="110.3,87.4 90.7,87.4 88.9,93.3 95.4,93.3 90.7,108.7 98.4,108.7 103,93.3 108.6,93.3 	"/>
	<path class="st0" d="M164.7,87.4l-2.7,9.5l-2.9-9.5h-7.5l-4.5,14.9l0,0c-0.4,0.9-1.3,0.7-1.4-0.1l0,0l-0.9-14.8h-9.4l-9.1,15.1l0,0
		c-0.7,1-1.6,0.9-2,0l0,0l-0.9-2.6l0,0c0.9-0.3,5.6-2.4,5.6-6.8c0-4.2-2.7-5.6-5.1-5.6l0,0h-11.6l-6.3,21.2h7.6l2.5-8.3l2.7,7.3l0,0
		c0.2,0.7,0.9,1,1.5,1l0,0h10.7l1.8-3.8h6.5l0.3,3.8h13.3l2.7-9.2l2.8,9.2h7.6l6.3-21.2L164.7,87.4L164.7,87.4L164.7,87.4z M122,94
		c-0.1,0.9-0.9,1.7-2,1.7l0,0h-2.6l0.9-3h2.6l0,0C121.5,92.7,122.1,93.1,122,94L122,94L122,94L122,94z M135.2,99.8l2.5-5.1l0,0
		c0.3-0.6,0.9-0.6,0.9,0l0,0l0.4,5.1H135.2L135.2,99.8L135.2,99.8z"/>
	<polygon class="st0" points="188.2,93.3 190,87.4 174.7,87.4 168.2,108.7 183.7,108.7 185.4,102.8 177.7,102.8 178.5,99.8 
		186.3,99.8 187.6,95.3 179.9,95.3 180.4,93.3 	"/>
	<path class="st0" d="M36.5,99.6L72,99l0,0c0-0.9-0.1-1.8-0.2-2.7l0,0l-33.5-0.5l0,0c-0.6,0-0.6-0.7,0-0.7l0,0l33.3-0.5l0,0
		c-0.2-0.9-0.4-1.8-0.6-2.7l0,0l-31.1-0.5l0,0c-0.6,0-0.6-0.7,0-0.7l0,0l30.6-0.5l0,0c-0.3-0.9-0.7-1.9-1-2.8l0,0l-27.8-0.4l0,0
		c-0.6,0-0.6-0.7,0-0.7l0,0l27-0.4l0,0C63.6,76,53.1,69,41,69c-14.7,0-27.1,10.3-30.2,24.2l0,0l43-0.6l0,0c0.5,0,0.9,0.4,0.9,0.9
		c0,0.5-0.4,0.9-0.9,0.9l0,0l-43.1-0.7l0,0c-0.3,1.2-0.4,2.5-0.5,3.7l0,0l42.3-0.6l0,0c0.5,0,0.9,0.4,0.9,0.9c0,0.5-0.4,0.9-0.9,0.9
		l0,0l-42.4-0.7l0,0c0,0.6-0.1,1.2-0.1,1.8c0,0.7,0,1.1,0.1,1.8l0,0l41-0.6l0,0c0.5,0,0.9,0.4,0.9,0.9c0,0.5-0.4,0.9-0.9,0.9l0,0
		l-41-0.6l0,0c0.1,1.2,0.3,2.5,0.6,3.6l0,0l39.1-0.6l0,0c0.5,0,0.9,0.4,0.9,0.9c0,0.5-0.4,0.9-0.9,0.9l0,0l-39-0.6l0,0
		c0.3,1.2,0.7,2.4,1,3.5l0,0l36.7-0.5l0,0c0.5,0,0.9,0.4,0.9,0.9c0,0.5-0.4,0.9-0.9,0.9l0,0l-36.3-0.5l0,0c0.5,1.2,1,2.4,1.6,3.4
		l0,0l33.3-0.5l0,0c0.5,0,0.9,0.4,0.9,0.9c0,0.5-0.4,0.9-0.9,0.9l0,0l-32.9-0.5l0,0c0.7,1.1,1.4,2.3,2.3,3.3l0,0l29.3-0.4l0,0
		c0.5,0,0.9,0.4,0.9,0.9c0,0.5-0.4,0.9-0.9,0.9l0,0l-28.4-0.4l0,0C23.1,126.8,31.5,131,41,131c13.8,0,25.5-9,29.5-21.5l0,0L33,109
		l0,0c-0.6,0-0.6-0.7,0-0.7l0,0l37.9-0.6l0,0c0.2-0.9,0.4-1.7,0.6-2.6l0,0l-36.8-0.6l0,0c-0.6,0-0.6-0.7,0-0.7l0,0l36.9-0.6l0,0
		c0.1-0.9,0.2-1.7,0.2-2.6l0,0l-35.3-0.6l0,0C36,100.2,36,99.6,36.5,99.6L36.5,99.6L36.5,99.6L36.5,99.6z"/>
</g>
</svg>
