<?xml version="1.0" encoding="utf-8"?>
<!-- Generator: Adobe Illustrator 26.2.1, SVG Export Plug-In . SVG Version: 6.00 Build 0)  -->
<svg version="1.1" id="Layer_1" xmlns="http://www.w3.org/2000/svg" xmlns:xlink="http://www.w3.org/1999/xlink" x="0px" y="0px"
	 viewBox="0 0 56 56" style="enable-background:new 0 0 56 56;" xml:space="preserve">
<style type="text/css">
	.st0{fill:none;stroke:#003283;stroke-width:1.5;stroke-miterlimit:10;}
	.st1{fill:#FFCC00;}
</style>
<path class="st0" d="M48,50.6H7.9c-1.1,0-2-0.9-2-2V8.5c0-1.1,0.9-2,2-2H48c1.1,0,2,0.9,2,2v40.1C49.9,49.7,49.1,50.6,48,50.6z"/>
<path class="st1" d="M43.6,29.8c1.3-0.7,0.9-5.4,0.3-7.2c-0.6-1.9-3.9-7.1-5.4-6.6s-2.2,5.5-7.2,9.6l-0.9-0.8c0,0,3.8-8.9,3.6-10.3
	c-0.2-1.4-4.8-2.5-6.8-2.5c-2,0-8,1.5-8,3.1s4.6,3.8,6.9,9.8l-1.1,0.6c0,0-7.3-6.4-8.7-6.6c-1.4-0.2-3.9,3.8-4.5,5.7
	c-0.6,1.9-1.1,8,0.5,8.5s5-3.2,11.4-3.6l0.2,1.2c0,0-8.3,5-9,6.3c-0.6,1.3,2.4,4.9,4,6c1.6,1.1,7.3,3.5,8.2,2.2
	c0.9-1.3-1.5-5.7,0.1-12l1.2,0.2c0,0,2.2,9.4,3.2,10.5c1,1,5.4-0.8,7-1.9c1.6-1.1,5.6-5.9,4.6-7.2c-0.9-1.3-5.9-0.4-11.4-3.8
	l0.5-1.1C32.7,29.6,42.3,30.4,43.6,29.8z M27.9,30.6c-1.1,0-2-0.9-2-2c0-1.1,0.9-2,2-2s2,0.9,2,2C29.9,29.7,29,30.6,27.9,30.6z"/>
</svg>
