<?xml version="1.0" encoding="utf-8"?>
<!-- Generator: Adobe Illustrator 26.2.1, SVG Export Plug-In . SVG Version: 6.00 Build 0)  -->
<svg version="1.1" id="Layer_1" xmlns="http://www.w3.org/2000/svg" xmlns:xlink="http://www.w3.org/1999/xlink" x="0px" y="0px"
	 viewBox="0 0 56.7 56.7" style="enable-background:new 0 0 56.7 56.7;" xml:space="preserve">
<style type="text/css">
	.st0{fill:#003283;}
	.st1{fill-rule:evenodd;clip-rule:evenodd;fill:#FFCC00;}
	.st2{fill:#FFCC00;}
</style>
<g id="noun_Clean_1683625_000000" transform="translate(413.000000, 687.000000)">
	<path id="Shape" class="st0" d="M-382.7-680.5c-1.8,0-3.3,1.5-3.3,3.3v11.4h-0.2c-0.5,0-1,0.4-1,1v3.1c-1.3,0.5-2.3,1.5-2.6,2.9
		c-1.2,5.6-2.7,9.5-4.2,10.8c-0.3,0.3-0.4,0.7-0.3,1.1c0.1,0.4,0.5,0.6,0.9,0.6h15.8c0,0,0,0,0,0c0,0,0,0,0,0h5.3
		c0.4,0,0.8-0.2,0.9-0.6c0.1-0.4,0-0.8-0.3-1.1c-1.5-1.3-3-5.3-4.2-10.8c-0.3-1.4-1.3-2.5-2.6-2.9v-3.1c0-0.5-0.4-1-1-1h-0.2v-11.4
		C-379.4-679.1-380.9-680.5-382.7-680.5z M-385.1-664h0.2h4.6h0.2v1.9h-4.9V-664z M-384-677.3c0-0.7,0.6-1.3,1.3-1.3
		c0.7,0,1.3,0.6,1.3,1.3v11.4h-2.7L-384-677.3L-384-677.3z M-377.6-658.5L-377.6-658.5c0.7,3.4,1.9,7.6,3.5,10.2h-2.8
		c-0.4-0.7-1-1.9-1.1-2.8c0-0.5-0.5-0.9-1-0.9c-0.5,0-0.9,0.5-0.9,1c0.1,0.9,0.5,1.9,0.8,2.7h-2.7v-2.4c0-0.5-0.4-1-1-1
		c-0.5,0-1,0.4-1,1v2.4h-2.7c0.4-0.8,0.7-1.8,0.8-2.7c0-0.5-0.3-1-0.9-1c-0.5,0-1,0.3-1,0.9c-0.1,0.9-0.7,2.1-1.1,2.8h-2.8
		c1.6-2.6,2.7-6.8,3.5-10.2c0.2-1,1.1-1.6,2-1.6h6.1C-378.6-660.2-377.8-659.5-377.6-658.5z"/>
	<path id="Path" class="st1" d="M-393.9-651.5c-1.9,0.7-3.2,2.5-3.2,4.5c0,2.6,2.2,4.8,4.8,4.8c0.8,0,1.6-0.2,2.3-0.6
		c0.8,1.5,2.4,2.4,4.2,2.4c1.8,0,3.3-0.9,4.1-2.4c0.5,0.2,1,0.3,1.5,0.3c1.4,0,2.8-0.7,3.6-1.8c0.3-0.4,0.2-1-0.2-1.3
		c-0.4-0.3-1-0.2-1.3,0.2c-0.5,0.7-1.3,1.1-2.1,1.1c-0.3,0-0.6-0.1-0.9-0.2c0,0,0,0,0,0c0-0.2,0.1-0.4,0.1-0.7
		c0-0.5-0.4-0.9-0.9-0.9s-0.9,0.4-0.9,0.9c0,1.6-1.3,2.9-2.9,2.9c-1.2,0-2.3-0.8-2.7-1.9c0-0.1,0-0.1-0.1-0.2c0-0.2-0.1-0.5-0.3-0.6
		c-0.4-0.4-1-0.4-1.3,0c-0.6,0.6-1.3,0.9-2.1,0.9c-1.6,0-2.9-1.3-2.9-2.9c0-1.2,0.8-2.3,2-2.7c0.5-0.2,0.7-0.7,0.6-1.2
		S-393.4-651.7-393.9-651.5z"/>
	<path class="st2" d="M-400.6-648.8c1.9,0,3.5-1.6,3.5-3.5c0-1.9-1.6-3.5-3.5-3.5s-3.5,1.6-3.5,3.5
		C-404.2-650.4-402.6-648.8-400.6-648.8z M-400.6-653.8c0.8,0,1.5,0.7,1.5,1.5s-0.7,1.5-1.5,1.5s-1.5-0.7-1.5-1.5
		S-401.5-653.8-400.6-653.8z"/>
	<path class="st2" d="M-401-640.2c1.7,0,3.1-1.4,3.1-3.1c0-1.7-1.4-3.1-3.1-3.1s-3.1,1.4-3.1,3.1
		C-404.2-641.6-402.8-640.2-401-640.2z M-401-644.4c0.6,0,1.1,0.5,1.1,1.1c0,0.6-0.5,1.1-1.1,1.1c-0.6,0-1.1-0.5-1.1-1.1
		C-402.1-643.9-401.6-644.4-401-644.4z"/>
	<path class="st2" d="M-373-641.8c0,2.2,1.7,3.9,3.9,3.9c2.2,0,3.9-1.7,3.9-3.9c0-2.2-1.7-3.9-3.9-3.9
		C-371.2-645.7-373-643.9-373-641.8z M-367.1-641.8c0,1.1-0.9,1.9-1.9,1.9s-1.9-0.9-1.9-1.9s0.9-1.9,1.9-1.9
		S-367.1-642.8-367.1-641.8z"/>
	<path class="st2" d="M-367.9-658.2c-1.5,0-2.7,1.2-2.7,2.7c0,1.5,1.2,2.7,2.7,2.7c1.5,0,2.7-1.2,2.7-2.7
		C-365.2-656.9-366.4-658.2-367.9-658.2z M-367.9-654.8c-0.3,0-0.6-0.3-0.6-0.6c0-0.3,0.3-0.6,0.6-0.6c0.3,0,0.6,0.3,0.6,0.6
		C-367.3-655.1-367.6-654.8-367.9-654.8z"/>
	<path class="st1" d="M-367.1-649.1c0.2-0.2,0.3-0.5,0.3-0.8c0-0.1,0-0.2,0-0.2c0-0.1,0-0.1-0.1-0.2c0-0.1-0.1-0.1-0.1-0.2
		c0-0.1-0.1-0.1-0.1-0.2c-0.1-0.1-0.1-0.1-0.2-0.1c-0.1,0-0.1-0.1-0.2-0.1c-0.1,0-0.1,0-0.2-0.1c-0.1,0-0.3,0-0.5,0
		c-0.1,0-0.1,0-0.2,0.1c-0.1,0-0.1,0.1-0.2,0.1c-0.1,0-0.1,0.1-0.2,0.1c-0.1,0.1-0.1,0.1-0.1,0.2c0,0.1-0.1,0.1-0.1,0.2
		c0,0.1-0.1,0.1-0.1,0.2c0,0.1,0,0.2,0,0.2c0,0.3,0.1,0.6,0.3,0.8c0.2,0.2,0.5,0.3,0.8,0.3C-367.6-648.8-367.3-648.9-367.1-649.1z"
		/>
</g>
</svg>
