<?xml version="1.0" encoding="utf-8"?>
<!-- Generator: Adobe Illustrator 26.2.1, SVG Export Plug-In . SVG Version: 6.00 Build 0)  -->
<svg version="1.1" id="Layer_1" xmlns="http://www.w3.org/2000/svg" xmlns:xlink="http://www.w3.org/1999/xlink" x="0px" y="0px"
	 viewBox="0 0 120 120" style="enable-background:new 0 0 120 120;" xml:space="preserve">
<style type="text/css">
	.st0{fill:none;stroke:#FFCC00;stroke-width:3.5;stroke-linecap:round;stroke-linejoin:round;stroke-miterlimit:10;}
	.st1{fill:#FFFFFF;stroke:#FFCC00;stroke-width:3.5;stroke-miterlimit:10;}
	.st2{fill:none;stroke:#003283;stroke-width:3.5;stroke-miterlimit:10;}
	.st3{fill:#003283;}
	.st4{fill:none;stroke:#003283;stroke-width:3.5;stroke-linecap:round;stroke-linejoin:round;stroke-miterlimit:10;}
	.st5{fill:none;stroke:#00AAFF;stroke-width:3.5;stroke-linecap:round;stroke-linejoin:round;stroke-miterlimit:10;}
</style>
<line class="st0" x1="64.3" y1="40.9" x2="57.8" y2="32.8"/>
<path class="st1" d="M42.6,90.7h37.3c1.2,0,2.1-0.7,1.7-1.5l-2-4.7c-0.2-0.5-0.9-0.8-1.7-0.8H49.2c-0.5,0-1,0.1-1.4,0.4l-6.5,4.7
	C40.3,89.5,41.1,90.7,42.6,90.7z"/>
<path class="st2" d="M33.9,77.2c-2.4-2.8-6-4.7-10-4.7c-3.1,0-6,1.1-8.2,2.9c-2.9,2.4-4.8,6-4.8,10.1c0,7.2,5.8,13,13,13
	c7.2,0,13-5.8,13-13C36.9,82.4,35.8,79.5,33.9,77.2z"/>
<circle class="st3" cx="23.9" cy="85.3" r="2"/>
<path class="st2" d="M105.6,82.3c-2-2.3-4.9-3.8-8.2-3.8c-2.6,0-4.9,0.9-6.8,2.4c-2.4,2-3.9,5-3.9,8.3c0,5.9,4.8,10.7,10.7,10.7
	c5.9,0,10.7-4.8,10.7-10.7C108.1,86.5,107.1,84.1,105.6,82.3z"/>
<circle class="st3" cx="97.4" cy="89.2" r="2"/>
<path class="st4" d="M15.2,68.3c0,0-1.3-1.2-1.3-3.9c0-2.4,9-13,9-13c0.3-0.3,0.4-0.8,0.4-1.2c0,0,0-19.7,0-20.9
	c0-0.7,0.9-2.7,4.1-2.7c3.9,0,3.4,2.8,3.4,2.8l0,21c0,0.5,0.2,1,0.6,1.4l2.6,2.7c0.4,0.4,0.9,0.6,1.4,0.6l5.5,0c0.5,0,1,0.2,1.3,0.5
	l10.1,8.9c0.4,0.3,0.8,0.5,1.3,0.5H57c0.9,0,1.7-0.6,1.9-1.5l1.5-6.3c0.1-0.4,0.1-0.9-0.1-1.3l-3.2-7.1c-0.4-0.8-0.2-1.8,0.5-2.4
	l11.9-10c0.5-0.5,1.3-0.6,2-0.4l30.1,10.8c0.8,0.3,1.4,1.1,1.3,2l-0.9,13c0,0.5,0.1,1,0.5,1.4l5.1,6c0.6,0.7,0.6,1.8,0,2.6l-3,3.6"
	/>
<polyline class="st0" points="65.5,26.5 57.8,32.8 50,39 "/>
<line class="st4" x1="102.4" y1="63.3" x2="91.4" y2="63.3"/>
<line class="st4" x1="102.4" y1="54.5" x2="94.2" y2="54.5"/>
<path class="st5" d="M27.2,41.8"/>
</svg>
