<svg width="142" height="48" viewBox="0 0 142 48" fill="none" xmlns="http://www.w3.org/2000/svg">
<g id="Logo">
<path id="Sears" d="M10.1687 28.3615C4.01018 28.3615 0.143221 25.0091 0 19.5613V19.0026H2.81667L2.86441 19.4682C3.10311 23.3329 6.01526 25.8006 10.2164 25.8006C11.8396 25.8006 17.2342 25.4747 17.2342 21.4238C17.2342 18.1179 13.9401 17.4661 10.1687 16.7211L9.54804 16.5814C5.01272 15.6967 0.907063 14.4861 0.907063 9.45739C0.907063 3.40434 7.92487 2.93872 10.0732 2.93872C15.993 2.93872 19.4303 5.82556 19.4303 10.9008V11.4596H16.5658V10.9939C16.5181 6.47743 12.9853 5.54619 10.0732 5.54619C7.01781 5.54619 3.77148 6.57055 3.77148 9.50396C3.77148 12.6236 7.16103 13.2755 10.7415 13.9739L11.2667 14.067C16.1362 14.9983 20.1464 16.2089 20.1464 21.4238C20.0031 27.8959 12.4602 28.3615 10.1687 28.3615ZM89.6083 28.3615C91.8998 28.3615 99.4428 27.8494 99.4428 21.4238C99.4428 16.2089 95.4326 14.9983 90.5631 14.067L90.038 13.9739C86.4575 13.2755 83.0679 12.577 83.0679 9.50396C83.0679 6.61712 86.3142 5.54619 89.3696 5.54619C92.3295 5.54619 95.8145 6.47743 95.8623 10.9939V11.4596H98.7267V10.9474C98.7267 5.91869 95.3371 2.98528 89.3696 2.98528C87.2213 2.98528 80.2035 3.4509 80.2035 9.50396C80.2035 14.4861 84.3092 15.7433 88.8445 16.6279L89.4651 16.7676C93.2843 17.5126 96.5306 18.1645 96.5306 21.4704C96.5306 25.5678 91.1837 25.8472 89.5128 25.8472C85.3117 25.8472 82.4473 23.3794 82.1609 19.5148L82.1131 19.0492H79.2964V19.6079C79.5829 25.0091 83.4976 28.3615 89.6083 28.3615ZM67.7433 27.8494H70.6077V14.6258C70.6077 11.3199 71.3716 10.0161 73.138 8.29334C75.0476 6.43087 77.2436 6.15149 78.3894 6.15149C78.6758 6.15149 78.9623 6.1515 79.2964 6.19806L79.8693 6.24462V3.40434H78.8668C75.4772 3.40434 72.2309 4.98745 70.6077 7.26898V3.54403H67.7433V27.8494ZM40.2927 19.0492H43.1571L43.1094 19.4682C42.1068 25.2419 38.2876 28.3615 32.2724 28.3615C25.541 28.3615 21.1966 23.5657 21.1966 16.1158C21.1966 9.59708 24.6339 3.03184 32.2724 3.03184C35.5187 3.03184 38.1444 4.05621 40.1018 6.01181C42.3933 8.33991 43.4913 11.8786 43.3003 15.9295L43.2526 16.4417H24.0611C24.1088 19.3751 25.0636 22.0291 26.7822 23.7054C28.1667 25.1022 30.0763 25.8472 32.2246 25.8472C36.4258 25.8472 39.4334 23.426 40.1972 19.3751L40.2927 19.0492ZM24.1088 13.8808H40.3882C40.1018 9.64364 37.2851 5.54619 32.2246 5.54619C27.5461 5.54619 24.6339 9.6902 24.1088 13.8808ZM55.4264 2.98528C61.1552 2.98528 64.306 5.31338 64.306 9.59708V27.8494H61.4416V24.59C59.9617 26.5922 57.145 28.4081 53.0393 28.4081C47.5492 28.4081 44.5416 25.8938 44.5416 21.3307C44.5416 16.8607 47.6447 14.3464 53.8032 13.9273C61.4894 13.3686 61.4894 13.0892 61.4894 9.64364C61.4894 8.80553 60.4391 5.59275 55.4264 5.59275C51.273 5.59275 48.8859 7.59491 48.6472 11.2733V11.5061H45.7828V11.2733C46.0215 5.91868 49.4588 2.98528 55.4264 2.98528ZM61.4416 15.1845C60.0571 15.8829 58.0043 16.0692 55.856 16.2554C55.0444 16.302 54.2328 16.3951 53.4213 16.4882C49.1246 17.0004 47.3583 18.3973 47.3583 21.3307C47.3583 24.0778 49.602 25.8472 53.0871 25.8472C61.2029 25.8472 61.4416 18.537 61.4416 18.4438V15.1845ZM100.35 3.54403C99.5383 3.54403 98.8222 4.19589 98.8222 5.03401C98.8222 5.87212 99.5383 6.52399 100.35 6.52399C101.161 6.52399 101.878 5.87212 101.878 5.03401C101.878 4.19589 101.161 3.54403 100.35 3.54403ZM99.1086 5.03401C99.1086 4.33558 99.6338 3.77684 100.35 3.77684C101.066 3.77684 101.591 4.33558 101.591 5.03401C101.591 5.779 101.066 6.29118 100.35 6.29118C99.6338 6.29118 99.1086 5.73244 99.1086 5.03401ZM99.7292 5.91868H100.016V5.17369H100.302L100.78 5.91868H101.066L100.541 5.17369C100.827 5.12713 101.018 5.03401 101.018 4.70807C101.018 4.38214 100.827 4.19589 100.398 4.19589H99.7292V5.91868ZM100.016 4.38214H100.398C100.589 4.38214 100.78 4.4287 100.78 4.66151C100.78 4.94088 100.541 4.94088 100.302 4.94088H100.016V4.38214Z" fill="#0048BB"/>
<path id="Icon" d="M134.851 31.3469C134.506 31.3469 126.472 31.2991 126.472 26.9919V19.6696C126.472 18.856 125.881 18.7124 125.388 18.7124C124.895 18.7124 124.303 18.856 124.303 19.6696V26.944C124.303 31.2512 116.27 31.2991 115.925 31.2991C114.446 31.2991 113.312 30.2941 111.538 24.934C111.094 23.6897 109.714 19.3346 109.714 16.6067C109.714 13.1609 114.446 7.70512 115.382 6.65225C117.6 4.16364 121.839 0 125.388 0C131.154 0 141.061 12.2516 141.061 16.6546C141.061 19.3825 139.681 23.7375 139.238 24.9818C137.414 30.3419 136.33 31.3469 134.851 31.3469ZM125.338 3.97221C124.501 3.97221 121.888 5.40794 118.438 9.23658C115.382 12.6345 113.756 15.6974 113.756 16.6067C113.756 19.2867 115.727 25.2211 116.762 27.2312C117.945 27.1354 119.473 26.8483 120.065 26.5133V19.6696C120.065 16.846 122.332 14.6924 125.289 14.6924C128.246 14.6924 130.514 16.846 130.514 19.6696V26.5133C131.154 26.8483 132.633 27.1354 133.816 27.2312C134.851 25.1733 136.822 19.2389 136.822 16.6067C136.872 13.9745 128.296 3.97221 125.338 3.97221Z" fill="url(#paint0_linear_19937_3604)"/>
<path id="Home Services" d="M0.979614 37.5929C0.979614 37.0537 1.43282 36.6223 1.99934 36.6223C2.56585 36.6223 3.01906 37.0537 3.01906 37.5929V41.3136H8.57092V37.5929C8.57092 37.0537 9.02413 36.6223 9.59064 36.6223C10.1572 36.6223 10.6104 37.0537 10.6104 37.5929V46.8676C10.6104 47.4068 10.1572 47.8382 9.59064 47.8382C9.02413 47.8382 8.57092 47.4068 8.57092 46.8676V43.093H3.01906V46.8676C3.01906 47.4068 2.56585 47.8382 1.99934 47.8382C1.43282 47.8382 0.979614 47.4068 0.979614 46.8676V37.5929ZM13.0464 42.2842C13.0464 39.1567 15.5957 36.5145 19.1648 36.5145C22.7338 36.5145 25.2265 39.1028 25.2265 42.2303V42.2842C25.2265 45.4117 22.6772 48 19.1081 48C15.5391 48 13.0464 45.4117 13.0464 42.2842ZM23.0737 42.2842C23.0737 40.1273 21.4308 38.2939 19.1081 38.2939C16.7854 38.2939 15.1991 40.0734 15.1991 42.1763V42.2842C15.1991 44.4411 16.842 46.2205 19.1648 46.2205C21.4875 46.2205 23.0737 44.4411 23.0737 42.2842ZM27.7191 37.6469C27.7191 37.1076 28.1724 36.6762 28.7389 36.6762H28.9655C29.4187 36.6762 29.7019 36.8919 29.9286 37.2155L33.441 42.446L36.9534 37.1615C37.18 36.838 37.4632 36.6762 37.8598 36.6762H38.0864C38.6529 36.6762 39.1061 37.1076 39.1061 37.6469V46.9215C39.1061 47.4607 38.6529 47.8921 38.0864 47.8921C37.5199 47.8921 37.0667 47.4607 37.0667 46.9215V40.2891L34.2341 44.3332C34.0075 44.6568 33.7809 44.8185 33.3843 44.8185C33.0444 44.8185 32.7611 44.6029 32.5345 44.3332L29.7019 40.2891V46.9215C29.7019 47.4607 29.2487 47.8921 28.6822 47.8921C28.1157 47.8921 27.6625 47.4607 27.6625 46.9215V37.6469H27.7191ZM42.1086 46.8137V37.7008C42.1086 37.1615 42.5619 36.7302 43.1284 36.7302H49.8699C50.3798 36.7302 50.7763 37.1076 50.7763 37.5929C50.7763 38.0782 50.3798 38.4557 49.8699 38.4557H44.1481V41.3136H49.1334C49.6433 41.3136 50.0399 41.691 50.0399 42.1763C50.0399 42.6616 49.6433 43.0391 49.1334 43.0391H44.1481V46.0588H49.9832C50.4931 46.0588 50.8896 46.4362 50.8896 46.9215C50.8896 47.4068 50.4931 47.7843 49.9832 47.7843H43.1284C42.5619 47.7843 42.1086 47.3529 42.1086 46.8137ZM58.01 46.3284C57.7834 46.1666 57.6135 45.897 57.6135 45.5735C57.6135 45.0882 58.0667 44.6568 58.5766 44.6568C58.8598 44.6568 59.0298 44.7107 59.1997 44.8186C60.1628 45.5195 61.1825 45.9509 62.4289 45.9509C63.6752 45.9509 64.4683 45.3578 64.4683 44.5489V44.495C64.4683 43.6862 64.0151 43.2548 61.8624 42.8234C59.3697 42.2303 58.01 41.5832 58.01 39.5341V39.4802C58.01 37.5929 59.6529 36.2449 61.9757 36.2449C63.4486 36.2449 64.6383 36.6223 65.658 37.2694C65.8846 37.3772 66.1112 37.6469 66.1112 38.0243C66.1112 38.5096 65.658 38.941 65.1481 38.941C64.9215 38.941 64.8082 38.8871 64.6383 38.7792C63.7318 38.24 62.8821 37.9165 61.9757 37.9165C60.786 37.9165 60.1061 38.5096 60.1061 39.2106V39.2645C60.1061 40.1273 60.616 40.5047 62.8821 40.9901C65.3181 41.5832 66.6211 42.392 66.6211 44.2254V44.2793C66.6211 46.3284 64.9215 47.5686 62.4855 47.5686C60.786 47.7304 59.313 47.2451 58.01 46.3284ZM68.9438 46.598V37.4851C68.9438 36.9459 69.397 36.5145 69.9635 36.5145H76.7051C77.2149 36.5145 77.6115 36.8919 77.6115 37.3772C77.6115 37.8625 77.2149 38.24 76.7051 38.24H70.9833V41.0979H75.9686C76.4785 41.0979 76.875 41.4754 76.875 41.9607C76.875 42.446 76.4785 42.8234 75.9686 42.8234H70.9833V45.7892H76.8184C77.3282 45.7892 77.7248 46.1666 77.7248 46.6519C77.7248 47.1372 77.3282 47.5147 76.8184 47.5147H69.9635C69.397 47.5686 68.9438 47.1372 68.9438 46.598ZM80.1042 37.4851C80.1042 36.9459 80.5574 36.5145 81.1239 36.5145H85.2595C86.7324 36.5145 87.8654 36.9459 88.6019 37.6469C89.2251 38.24 89.565 39.0488 89.565 40.0194C89.565 41.7989 88.4886 42.8773 86.9024 43.3087L89.1117 46.0048C89.3384 46.2205 89.4517 46.4362 89.4517 46.7598C89.4517 47.299 88.9985 47.6764 88.4886 47.6764C88.0354 47.6764 87.7521 47.4608 87.4689 47.1911L84.6363 43.7401H82.087V46.7058C82.087 47.2451 81.6337 47.6764 81.0672 47.6764C80.5007 47.6764 80.0475 47.2451 80.0475 46.7058V37.4851H80.1042ZM85.1461 41.9607C86.6191 41.9607 87.5255 41.2597 87.5255 40.1273V40.0734C87.5255 38.8871 86.6191 38.24 85.0895 38.24H82.1436V41.9607H85.1461ZM95.2868 46.9215L91.2079 37.8086C91.1512 37.6469 91.0946 37.539 91.0946 37.3233C91.0946 36.7841 91.5478 36.3527 92.1143 36.3527C92.6241 36.3527 93.0207 36.6223 93.134 37.0537L96.4765 45.0342L99.8755 36.9998C99.9889 36.6762 100.385 36.3527 100.839 36.3527C101.405 36.3527 101.858 36.7841 101.858 37.2694C101.858 37.4312 101.802 37.5929 101.745 37.7008L97.6661 46.8676C97.4395 47.3529 97.043 47.6764 96.4765 47.6764H96.3632C95.8533 47.7304 95.5134 47.4068 95.2868 46.9215ZM104.181 37.3772C104.181 36.838 104.634 36.4066 105.201 36.4066C105.767 36.4066 106.221 36.838 106.221 37.3772V46.6519C106.221 47.1911 105.767 47.6225 105.201 47.6225C104.634 47.6225 104.181 47.1911 104.181 46.6519V37.3772ZM108.826 42.0685C108.826 38.8871 111.319 36.2988 114.832 36.2988C116.644 36.2988 117.777 36.7841 118.797 37.539C119.024 37.7008 119.194 37.9704 119.194 38.2939C119.194 38.8332 118.741 39.2645 118.174 39.2645C117.891 39.2645 117.664 39.1567 117.551 39.0488C116.758 38.4557 115.908 38.0782 114.775 38.0782C112.565 38.0782 110.923 39.8038 110.923 41.9607V42.0146C110.923 44.1715 112.509 45.9509 114.775 45.9509C116.021 45.9509 116.814 45.5735 117.664 44.8725C117.834 44.7646 118.004 44.6568 118.287 44.6568C118.797 44.6568 119.25 45.0882 119.25 45.5735C119.25 45.897 119.08 46.1127 118.91 46.2745C117.834 47.1911 116.588 47.7843 114.718 47.7843C111.376 47.7304 108.826 45.2499 108.826 42.0685ZM121.63 46.598V37.4851C121.63 36.9459 122.083 36.5145 122.649 36.5145H129.391C129.901 36.5145 130.297 36.8919 130.297 37.3772C130.297 37.8625 129.901 38.24 129.391 38.24H123.669V41.0979H128.655C129.164 41.0979 129.561 41.4754 129.561 41.9607C129.561 42.446 129.164 42.8234 128.655 42.8234H123.669V45.7892H129.504C130.014 45.7892 130.411 46.1666 130.411 46.6519C130.411 47.1372 130.014 47.5147 129.504 47.5147H122.649C122.083 47.5686 121.63 47.1372 121.63 46.598ZM132.45 46.3284C132.224 46.1666 132.054 45.897 132.054 45.5735C132.054 45.0882 132.507 44.6568 133.017 44.6568C133.3 44.6568 133.47 44.7107 133.64 44.8186C134.603 45.5195 135.623 45.9509 136.869 45.9509C138.115 45.9509 138.908 45.3578 138.908 44.5489V44.495C138.908 43.6862 138.455 43.2548 136.302 42.8234C133.81 42.2303 132.45 41.5832 132.45 39.5341V39.4802C132.45 37.5929 134.093 36.2449 136.416 36.2449C137.889 36.2449 139.078 36.6223 140.098 37.2694C140.325 37.3772 140.551 37.6469 140.551 38.0243C140.551 38.5096 140.098 38.941 139.588 38.941C139.362 38.941 139.248 38.8871 139.078 38.7792C138.172 38.24 137.322 37.9165 136.416 37.9165C135.226 37.9165 134.546 38.5096 134.546 39.2106V39.2645C134.546 40.1273 135.056 40.5047 137.322 40.9901C139.758 41.5832 141.061 42.392 141.061 44.2254V44.2793C141.061 46.3284 139.362 47.5686 136.926 47.5686C135.226 47.7304 133.753 47.2451 132.45 46.3284Z" fill="#0048BB"/>
</g>
<defs>
<linearGradient id="paint0_linear_19937_3604" x1="111.912" y1="27.5743" x2="137.409" y2="9.18731" gradientUnits="userSpaceOnUse">
<stop stop-color="#66FF99"/>
<stop offset="1" stop-color="#33FFFF"/>
</linearGradient>
</defs>
</svg>
