
<svg xmlns="http://www.w3.org/2000/svg" width="50" height="60" viewBox="0 0 50 60" class="icon-inline icon-inline-medium icon-inline-navy"><path d="M39.347 7.12a3.714 3.714 0 00-3.71 3.71 3.715 3.715 0 003.71 3.71 3.714 3.714 0 003.712-3.71 3.72 3.72 0 00-3.72-3.71zm0 6.09a2.381 2.381 0 01-2.377-2.38c0-.445.128-.86.347-1.216l3.087 3.34c-.32.158-.674.256-1.057.256zm2.034-1.162l-3.08-3.34c.32-.158.678-.26 1.06-.26 1.31 0 2.38 1.07 2.38 2.383 0 .45-.134.86-.35 1.22zM30.75 7.632H9.098c-1.1 0-2 .896-2 2.002v2.395c0 1.1.9 1.99 2 1.99h21.65a2 2 0 001.996-2V9.63a2 2 0 00-1.998-2.002zm-18.3 5.065H9.1a.67.67 0 01-.67-.668v-2.4c0-.378.3-.67.668-.67h3.352v3.73zm6.806 0H13.78v-3.73h5.475v3.73zm7.153 0h-5.82v-3.73h5.82v3.73zm5-.668c0 .36-.3.66-.67.66h-3V8.96h3.006c.37 0 .666.297.666.67v2.394z"></path><path d="M47.5 5.36a2.415 2.415 0 00-2.412-2.412H4.91A2.413 2.413 0 002.5 5.36v10.945c0 .41.105.808.31 1.167-.203.317-.31.682-.31 1.056v36.53c0 1.1.893 1.994 1.988 1.994h41.02c1.1 0 1.992-.895 1.992-1.993V18.52c0-.373-.11-.74-.31-1.055.202-.36.31-.757.31-1.168V5.36zM4.653 50.987c1.81-.223 3.398-1.21 4.356-2.584 1.09 1.568 3.01 2.633 5.13 2.633s4.04-1.065 5.134-2.633c1.096 1.568 3.01 2.633 5.135 2.633 2.126 0 4.04-1.065 5.137-2.633 1.095 1.568 3.01 2.633 5.134 2.633 2.128 0 4.04-1.065 5.14-2.633 1.09 1.568 3.005 2.633 5.13 2.633.138 0 .267-.03.384-.08v3.94H4.654v-3.91zm0-32.29h.09c.054.008.11.014.167.014h40.178c.06 0 .113 0 .18-.01h.075v20.85a.97.97 0 00-.382-.08c-2.22 0-4.17-1.72-4.17-3.69a.96.96 0 10-1.92.005c0 1.97-1.95 3.69-4.172 3.69s-4.172-1.72-4.172-3.69a.963.963 0 00-1.926.005c0 1.965-1.95 3.69-4.175 3.69-2.22 0-4.17-1.725-4.17-3.69a.965.965 0 00-1.928 0c0 1.965-1.95 3.69-4.17 3.69-2.225 0-4.174-1.725-4.174-3.69a.964.964 0 10-1.927.001c0 1.73-1.512 3.27-3.393 3.618V18.7zm40.69-2.392a.254.254 0 01-.165.234H4.818a.268.268 0 01-.165-.24V5.36c0-.14.115-.254.257-.254h40.178a.25.25 0 01.255.254v10.945zM4.653 41.347c1.81-.223 3.398-1.21 4.356-2.585 1.09 1.57 3.01 2.633 5.13 2.633s4.04-1.064 5.134-2.633c1.096 1.57 3.01 2.633 5.135 2.633 2.126 0 4.04-1.064 5.137-2.633 1.095 1.57 3.01 2.633 5.134 2.633 2.128 0 4.04-1.064 5.14-2.633 1.09 1.57 3.005 2.633 5.13 2.633.138 0 .267-.03.384-.08v7.87a.954.954 0 00-.38-.08c-2.222 0-4.17-1.722-4.17-3.688a.96.96 0 00-.962-.963.96.96 0 00-.966.963c0 1.966-1.95 3.69-4.174 3.69s-4.174-1.724-4.174-3.69a.964.964 0 00-.965-.963.963.963 0 00-.966.963c0 1.966-1.95 3.69-4.174 3.69-2.22 0-4.17-1.724-4.17-3.69a.963.963 0 10-1.928 0c0 1.966-1.95 3.69-4.174 3.69s-4.173-1.724-4.173-3.69a.963.963 0 10-1.927 0c0 1.732-1.513 3.272-3.394 3.615v-7.685z"></path></svg>