
<svg xmlns="http://www.w3.org/2000/svg" width="50" height="50" viewBox="0 0 50 50" class="icon-inline icon-inline-medium icon-inline-navy"><path d="M45.5.687v6H44v28h-5v-28h-1.5v-6h-2v8H37v26c0 5.355-4.79 5.626-5.75 5.626s-5.75-.27-5.75-5.625c0-7.157 0-10.75-2.56-13.54-2.712-2.96-6.56-2.96-12.94-2.96H2.5v2h8c5.945 0 8.93 0 10.975 2.05 2.044 2.047 2.04 5.024 2.027 10.958l-.002 1.492c0 5.268 3.893 7.625 7.75 7.625 1.274 0 2.55-.263 3.688-.798l2.12 4.52a13.746 13.746 0 01-5.81 1.28c-6.335 0-12.75-4.337-12.75-12.626l.003-1.504c.008-3.516.016-6.837-.564-7.416-.58-.58-3.91-.58-7.436-.58h-8v1.998H10c2.512 0 5.1 0 6.248.21.252 1.275.252 4.328.252 7.29 0 4.4 1.68 8.297 4.733 10.977 2.68 2.354 6.237 3.65 10.017 3.65 7.33 0 14.75-5.022 14.75-14.625V8.687h1.5v-8h-2z"></path></svg>